M48
; DRILL file {KiCad 8.0.3} date 2024-11-14T20:38:34+1300
; FORMAT={-:-/ absolute / inch / decimal}
; #@! TF.CreationDate,2024-11-14T20:38:34+13:00
; #@! TF.GenerationSoftware,Kicad,Pcbnew,8.0.3
; #@! TF.FileFunction,Plated,1,4,PTH
FMAT,2
INCH
; #@! TA.AperFunction,Plated,PTH,ViaDrill
T1C0.0118
; #@! TA.AperFunction,Plated,PTH,ComponentDrill
T2C0.0118
; #@! TA.AperFunction,Plated,PTH,ViaDrill
T3C0.0197
; #@! TA.AperFunction,Plated,PTH,ComponentDrill
T4C0.0236
; #@! TA.AperFunction,Plated,PTH,ComponentDrill
T5C0.0689
%
G90
G05
T1
X4.9606Y-3.8268
X4.9646Y-3.685
X4.9685Y-3.2126
X4.9685Y-3.315
X4.9685Y-3.4173
X4.9685Y-3.5276
X4.9764Y-4.3701
X4.9843Y-4.4488
X4.9921Y-2.9843
X4.9921Y-3.0709
X4.9921Y-4.5748
X5.0Y-4.2362
X5.0315Y-3.6378
X5.0551Y-2.9843
X5.0551Y-3.9055
X5.0551Y-4.4488
X5.063Y-3.1024
X5.0709Y-3.1811
X5.0866Y-4.4882
X5.0984Y-4.1614
X5.1024Y-4.0079
X5.1102Y-3.2205
X5.1102Y-4.7756
X5.126Y-3.2835
X5.126Y-3.3307
X5.126Y-3.5118
X5.1339Y-3.378
X5.1339Y-3.7795
X5.1417Y-2.9843
X5.1417Y-3.5984
X5.1496Y-3.0394
X5.1496Y-4.4016
X5.1654Y-4.4252
X5.1654Y-4.5906
X5.1732Y-3.2835
X5.1732Y-3.3465
X5.1811Y-4.4882
X5.189Y-3.2205
X5.1969Y-3.4409
X5.2047Y-3.2756
X5.2126Y-3.252
X5.2126Y-3.5354
X5.2126Y-3.5984
X5.2126Y-4.0079
X5.2126Y-4.5827
X5.2205Y-3.0157
X5.2205Y-3.1339
X5.2362Y-4.4016
X5.2441Y-3.2441
X5.252Y-3.4016
X5.2559Y-3.3386
X5.2598Y-3.1969
X5.2598Y-4.2441
X5.2598Y-4.6772
X5.2677Y-3.252
X5.2677Y-3.752
X5.2717Y-4.7874
X5.2835Y-3.3701
X5.2835Y-3.5906
X5.312Y-3.4803
X5.315Y-3.3386
X5.315Y-3.4016
X5.315Y-3.9685
X5.3465Y-3.0157
X5.3465Y-3.1339
X5.3504Y-3.1772
X5.3701Y-3.7283
X5.374Y-4.3228
X5.378Y-3.0787
X5.378Y-3.8189
X5.378Y-3.874
X5.3858Y-4.5669
X5.3937Y-3.4252
X5.3937Y-3.5827
X5.3976Y-4.2953
X5.4016Y-3.1811
X5.4016Y-3.3937
X5.4016Y-3.8031
X5.4016Y-4.0
X5.4094Y-3.315
X5.4094Y-3.6299
X5.4166Y-2.9843
X5.4173Y-3.6693
X5.4252Y-3.4567
X5.4331Y-3.7087
X5.4409Y-4.3189
X5.4449Y-3.2047
X5.4567Y-4.2677
X5.4646Y-3.063
X5.4646Y-3.622
X5.4646Y-4.0079
X5.4646Y-4.3031
X5.4724Y-3.3937
X5.4724Y-3.6929
X5.4724Y-4.3307
X5.4803Y-3.315
X5.4803Y-3.3465
X5.4882Y-3.1496
X5.4951Y-4.7862
X5.4961Y-3.3701
X5.4961Y-3.5276
X5.4961Y-4.8819
X5.5039Y-3.6614
X5.5157Y-4.3268
X5.5197Y-3.748
X5.5197Y-3.9213
X5.5276Y-2.9843
X5.5276Y-3.063
X5.5276Y-3.4252
X5.5276Y-4.0157
X5.5354Y-3.6535
X5.563Y-3.4882
X5.5827Y-3.2835
X5.5827Y-3.378
X5.5827Y-3.5354
X5.5906Y-4.4173
X5.5906Y-4.4961
X5.5984Y-3.5118
X5.6063Y-3.8307
X5.6142Y-3.1969
X5.6142Y-4.0315
X5.622Y-3.4764
X5.622Y-3.5276
X5.622Y-3.6614
X5.6299Y-3.3307
X5.6378Y-3.1811
X5.6378Y-4.3622
X5.6457Y-4.0157
X5.6496Y-3.4843
X5.6535Y-4.5197
X5.6614Y-3.1969
X5.6693Y-4.1024
X5.6693Y-4.2441
X5.6732Y-3.2992
X5.6732Y-4.0039
X5.6772Y-3.378
X5.6772Y-3.6614
X5.685Y-3.1811
X5.685Y-4.0787
X5.6929Y-4.3071
X5.7008Y-3.5906
X5.7008Y-3.8189
X5.7047Y-3.5276
X5.7205Y-4.5787
X5.7244Y-3.189
X5.7244Y-3.4409
X5.7244Y-4.0787
X5.7559Y-3.6772
X5.7559Y-3.9685
X5.7598Y-4.0669
X5.7638Y-3.4646
X5.7638Y-4.0079
X5.7638Y-4.5748
X5.7795Y-3.811
X5.7874Y-3.2638
X5.7874Y-3.5118
X5.7874Y-4.6378
X5.7913Y-4.0591
X5.7953Y-3.5984
X5.8031Y-3.8268
X5.8135Y-3.322
X5.8189Y-4.4488
X5.8189Y-4.6378
X5.8268Y-3.2441
X5.8268Y-4.563
X5.8366Y-3.3327
X5.8425Y-4.0197
X5.8504Y-3.6693
X5.8504Y-4.3622
X5.8583Y-3.2441
X5.8622Y-4.5709
X5.8661Y-4.0079
X5.8661Y-4.689
X5.874Y-3.3307
X5.8898Y-3.7402
X5.8898Y-3.9449
X5.8937Y-3.2835
X5.8967Y-4.0157
X5.8976Y-3.4405
X5.8976Y-3.6693
X5.8976Y-3.8661
X5.9055Y-3.4094
X5.9055Y-4.0669
X5.9134Y-3.3622
X5.9134Y-3.5039
X5.9134Y-3.5669
X5.9134Y-3.9291
X5.9213Y-4.0157
X5.9291Y-3.2992
X5.937Y-3.7402
X5.937Y-4.3228
X5.9449Y-3.3622
X5.9449Y-4.1024
X5.9449Y-4.3701
X5.9567Y-3.8504
X5.9764Y-4.6299
X5.9803Y-3.6654
X5.9921Y-3.2874
X6.0Y-3.5118
X6.0Y-4.1575
X6.0Y-4.3701
X6.0104Y-3.6606
X6.0236Y-3.2874
X6.0315Y-3.7087
X6.0315Y-4.3465
X6.0394Y-3.6732
X6.0472Y-4.5512
X6.0551Y-3.3622
X6.0551Y-4.1654
X6.063Y-3.4961
X6.063Y-3.7087
X6.063Y-4.2205
X6.0709Y-4.0276
X6.0709Y-4.1417
X6.0906Y-4.3465
X6.0945Y-4.0472
X6.0984Y-3.8661
X6.1142Y-3.3465
X6.122Y-3.8465
X6.126Y-3.6024
X6.1339Y-3.3937
X6.1339Y-3.7008
X6.1339Y-3.9331
X6.1378Y-3.5512
X6.1417Y-3.6772
X6.1417Y-4.0866
X6.1417Y-4.1969
X6.1496Y-3.4567
X6.1496Y-4.2756
X6.1496Y-4.3465
X6.1575Y-4.0079
X6.1654Y-3.6614
X6.1654Y-3.8189
X6.1732Y-3.2441
X6.1732Y-4.2756
X6.1791Y-3.311
X6.1811Y-3.8661
X6.189Y-4.5709
X6.1969Y-3.3543
X6.1969Y-3.6299
X6.1969Y-4.1417
X6.1969Y-4.2756
X6.2047Y-3.2441
X6.2283Y-4.0079
X6.2283Y-4.563
X6.2362Y-3.7008
X6.2362Y-3.7795
X6.2362Y-3.8661
X6.2402Y-3.3189
X6.2441Y-3.378
X6.2441Y-3.6299
X6.252Y-4.0866
X6.252Y-4.1969
X6.2598Y-4.6378
X6.2732Y-3.7402
X6.2756Y-3.2992
X6.2795Y-4.5669
X6.2835Y-3.8504
X6.2835Y-4.2677
X6.2913Y-3.622
X6.2913Y-4.2362
X6.2913Y-4.6378
X6.3031Y-3.5276
X6.315Y-3.7008
X6.315Y-3.7795
X6.315Y-3.8504
X6.315Y-4.5197
X6.3268Y-4.5551
X6.3346Y-4.1339
X6.3386Y-4.6378
X6.3386Y-4.6772
X6.3583Y-4.1142
X6.3622Y-4.0079
X6.3701Y-3.4016
X6.3701Y-3.4803
X6.378Y-3.5276
X6.378Y-4.3346
X6.3858Y-3.7323
X6.3858Y-3.8189
X6.3937Y-3.9291
X6.4016Y-4.1693
X6.4094Y-3.3307
X6.4094Y-3.6929
X6.4488Y-3.5118
X6.4488Y-3.7874
X6.4488Y-3.8425
X6.4488Y-4.0079
X6.4567Y-3.8189
X6.4567Y-4.0787
X6.4724Y-3.9213
X6.4764Y-3.6417
X6.4803Y-4.5906
X6.4803Y-4.6535
X6.4961Y-3.4331
X6.4961Y-3.5512
X6.4961Y-3.685
X6.5157Y-3.0118
X6.5157Y-3.0472
X6.5354Y-2.9843
X6.5669Y-2.9843
X6.5748Y-3.5827
X6.5984Y-2.9843
X6.6024Y-4.0551
X6.6142Y-3.5118
X6.622Y-3.3386
X6.6299Y-2.9843
X6.6457Y-3.3071
X6.6457Y-4.2677
X6.6457Y-4.3071
X6.6496Y-3.0118
X6.6496Y-3.0472
X6.6535Y-3.378
X6.6535Y-3.4016
X6.6535Y-3.4252
X6.6535Y-3.6535
X6.6535Y-3.6772
X6.6535Y-3.7008
X6.6535Y-3.9291
X6.6535Y-3.9528
X6.6535Y-3.9764
X6.6693Y-2.9843
X6.6693Y-4.3622
X6.6772Y-4.063
X6.6772Y-4.0866
X6.685Y-3.2047
X6.685Y-4.3071
X6.7008Y-2.9843
X6.7008Y-4.063
X6.7244Y-4.063
X6.7323Y-2.9843
X6.748Y-3.2441
X6.748Y-3.2677
X6.748Y-3.2913
X6.748Y-3.315
X6.748Y-3.5197
X6.748Y-3.5433
X6.748Y-3.5669
X6.748Y-3.5906
X6.748Y-3.7953
X6.748Y-3.8189
X6.748Y-3.8425
X6.748Y-3.8661
X6.7638Y-2.9843
X6.7795Y-4.0709
X6.7795Y-4.1969
X6.7835Y-3.0118
X6.7835Y-3.0472
X6.7874Y-3.2205
X6.8031Y-2.9843
X6.8031Y-4.3622
X6.8189Y-4.2205
X6.8268Y-3.2047
X6.8268Y-4.4409
X6.8346Y-2.9843
X6.8504Y-3.4488
X6.8504Y-3.7244
X6.8504Y-4.063
X6.8661Y-2.9843
X6.8976Y-2.9843
X6.9173Y-3.0118
X6.9173Y-3.0472
X6.937Y-2.9843
X6.9449Y-4.2913
X6.9449Y-4.3543
X6.9528Y-3.1969
X6.9528Y-3.4724
X6.9528Y-3.7402
X6.9685Y-2.9843
X7.0Y-2.9843
X7.0079Y-4.0866
X7.0079Y-4.3543
X7.0315Y-2.9843
X7.0551Y-3.0118
X7.0551Y-3.0472
T2
X4.9498Y-3.061
T3
X5.1024Y-4.5827
X5.2913Y-4.5748
X5.5039Y-4.5669
X5.6142Y-4.6299
X5.6535Y-4.6299
X5.6772Y-4.3622
X5.7087Y-4.3622
X5.8661Y-4.5276
X5.9921Y-3.252
X6.0236Y-3.252
X6.0866Y-4.622
X6.1181Y-4.622
X6.3386Y-3.252
X6.3701Y-3.252
X6.4252Y-3.2047
X6.4252Y-3.2362
X6.4252Y-3.2677
X6.5197Y-4.5197
X6.5197Y-4.7165
X6.5197Y-4.8819
X6.5433Y-3.2047
X6.5433Y-3.2362
X6.5512Y-3.1024
X6.6142Y-3.1024
X6.6378Y-3.2047
X6.6378Y-3.2362
X6.6378Y-3.2677
X6.6772Y-4.5197
X6.6772Y-4.8819
X6.685Y-3.1024
X6.748Y-3.1024
X6.8189Y-3.1024
X6.8268Y-4.874
X6.8425Y-4.5197
X6.8661Y-4.6693
X6.8819Y-3.1024
X6.9528Y-3.1024
X7.0079Y-3.1024
T5
X5.685Y-3.0709
X5.685Y-4.811
X5.9213Y-3.0709
X5.9213Y-4.811
X6.1575Y-3.0709
X6.1575Y-4.811
X6.3937Y-3.0709
X6.3937Y-4.811
X6.9646Y-3.3465
X6.9646Y-3.622
X6.9646Y-3.8976
X6.9685Y-4.5276
X6.9685Y-4.8031
T4
G00X5.0268Y-4.6356
M15
G01X5.0268Y-4.6789
M16
G05
G00X5.0268Y-4.8061
M15
G01X5.0268Y-4.8376
M16
G05
G00X5.3669Y-4.6356
M15
G01X5.3669Y-4.6789
M16
G05
G00X5.3669Y-4.8061
M15
G01X5.3669Y-4.8376
M16
G05
M30
