%TF.GenerationSoftware,KiCad,Pcbnew,8.0.3*%
%TF.CreationDate,2024-11-14T20:38:21+13:00*%
%TF.ProjectId,combat-r1,636f6d62-6174-42d7-9231-2e6b69636164,rev?*%
%TF.SameCoordinates,Original*%
%TF.FileFunction,Copper,L2,Inr*%
%TF.FilePolarity,Positive*%
%FSLAX46Y46*%
G04 Gerber Fmt 4.6, Leading zero omitted, Abs format (unit mm)*
G04 Created by KiCad (PCBNEW 8.0.3) date 2024-11-14 20:38:21*
%MOMM*%
%LPD*%
G01*
G04 APERTURE LIST*
G04 Aperture macros list*
%AMRoundRect*
0 Rectangle with rounded corners*
0 $1 Rounding radius*
0 $2 $3 $4 $5 $6 $7 $8 $9 X,Y pos of 4 corners*
0 Add a 4 corners polygon primitive as box body*
4,1,4,$2,$3,$4,$5,$6,$7,$8,$9,$2,$3,0*
0 Add four circle primitives for the rounded corners*
1,1,$1+$1,$2,$3*
1,1,$1+$1,$4,$5*
1,1,$1+$1,$6,$7*
1,1,$1+$1,$8,$9*
0 Add four rect primitives between the rounded corners*
20,1,$1+$1,$2,$3,$4,$5,0*
20,1,$1+$1,$4,$5,$6,$7,0*
20,1,$1+$1,$6,$7,$8,$9,0*
20,1,$1+$1,$8,$9,$2,$3,0*%
G04 Aperture macros list end*
%TA.AperFunction,ComponentPad*%
%ADD10RoundRect,0.250002X-1.699998X-1.699998X1.699998X-1.699998X1.699998X1.699998X-1.699998X1.699998X0*%
%TD*%
%TA.AperFunction,ComponentPad*%
%ADD11O,1.000000X2.100000*%
%TD*%
%TA.AperFunction,ComponentPad*%
%ADD12O,1.000000X1.800000*%
%TD*%
%TA.AperFunction,ComponentPad*%
%ADD13RoundRect,0.250002X1.699998X1.699998X-1.699998X1.699998X-1.699998X-1.699998X1.699998X-1.699998X0*%
%TD*%
%TA.AperFunction,ComponentPad*%
%ADD14R,0.500000X0.900000*%
%TD*%
%TA.AperFunction,ViaPad*%
%ADD15C,0.450000*%
%TD*%
%TA.AperFunction,ViaPad*%
%ADD16C,0.700000*%
%TD*%
%TA.AperFunction,Profile*%
%ADD17C,0.050000*%
%TD*%
G04 APERTURE END LIST*
D10*
%TO.N,Net-(J11-Pin_1)*%
%TO.C,J11*%
X144400000Y-78000000D03*
%TD*%
D11*
%TO.N,GND*%
%TO.C,J4*%
X127680000Y-118295000D03*
D12*
X127680000Y-122475000D03*
D11*
X136320000Y-118295000D03*
D12*
X136320000Y-122475000D03*
%TD*%
D10*
%TO.N,GND*%
%TO.C,J6*%
X177000000Y-115000000D03*
%TD*%
D13*
%TO.N,Net-(J15-Pin_1)*%
%TO.C,J15*%
X162400000Y-122200000D03*
%TD*%
%TO.N,Net-(J16-Pin_1)*%
%TO.C,J16*%
X144400000Y-122200000D03*
%TD*%
%TO.N,Net-(J17-Pin_1)*%
%TO.C,J17*%
X150400000Y-122200000D03*
%TD*%
D10*
%TO.N,/Weapon ESC/VS3*%
%TO.C,J9*%
X176900000Y-99000000D03*
%TD*%
%TO.N,Net-(J13-Pin_1)*%
%TO.C,J13*%
X156400000Y-78000000D03*
%TD*%
%TO.N,/Weapon ESC/VS1*%
%TO.C,J7*%
X176900000Y-85000000D03*
%TD*%
%TO.N,/Weapon ESC/VS2*%
%TO.C,J8*%
X176900000Y-92000000D03*
%TD*%
D13*
%TO.N,Net-(J14-Pin_1)*%
%TO.C,J14*%
X156400000Y-122200000D03*
%TD*%
D10*
%TO.N,Net-(J10-Pin_1)*%
%TO.C,J10*%
X150400000Y-78000000D03*
%TD*%
%TO.N,Net-(J5-Pin_1)*%
%TO.C,J5*%
X177000000Y-122000000D03*
%TD*%
%TO.N,Net-(J12-Pin_1)*%
%TO.C,J12*%
X162400000Y-78000000D03*
%TD*%
D14*
%TO.N,GND*%
%TO.C,ANT1*%
X125725000Y-77750000D03*
%TD*%
D15*
%TO.N,GND*%
X168800000Y-84000000D03*
X126400000Y-111000000D03*
X167600000Y-75800000D03*
X146200000Y-93400000D03*
X136600000Y-78200000D03*
X138800000Y-101800000D03*
X126200000Y-84200000D03*
X144000000Y-107800000D03*
X161000000Y-118800000D03*
X137800000Y-87800000D03*
X158400000Y-94000000D03*
X168900000Y-77400000D03*
X141800000Y-89800000D03*
X148000000Y-82400000D03*
X130600000Y-75800000D03*
X147800000Y-117800000D03*
X179200000Y-77400000D03*
X156000000Y-106600000D03*
X148800000Y-82400000D03*
X151000000Y-111000000D03*
X149800000Y-93200000D03*
X132400000Y-101800000D03*
X176200000Y-75800000D03*
X172300000Y-76500000D03*
X130200000Y-83400000D03*
X162800000Y-84600000D03*
X142800000Y-89600000D03*
X162600000Y-105900000D03*
X136800000Y-116000000D03*
X173400000Y-81400000D03*
X129800000Y-81800000D03*
X135900000Y-80700000D03*
X164600000Y-116600000D03*
X156800000Y-82400000D03*
X177000000Y-75800000D03*
X175200000Y-75800000D03*
X133800000Y-95300000D03*
X131400000Y-83400000D03*
X179200000Y-76500000D03*
X157200000Y-116100000D03*
X168400000Y-75800000D03*
X156600000Y-97000000D03*
X129200000Y-114000000D03*
X131400000Y-85000000D03*
X130200000Y-84600000D03*
X173200000Y-107200000D03*
X172800000Y-75800000D03*
X168800000Y-109400000D03*
X132000000Y-87400000D03*
X126800000Y-75800000D03*
X143000000Y-84600000D03*
X169800000Y-109400000D03*
X127000000Y-107600000D03*
X172200000Y-103400000D03*
X155500000Y-97700000D03*
X133500000Y-84800000D03*
X134200000Y-85600000D03*
X139600000Y-89600000D03*
X169000000Y-85800000D03*
X145400000Y-87400000D03*
X137400000Y-92200000D03*
X140400000Y-77800000D03*
X162400000Y-99800000D03*
X135800000Y-76600000D03*
X173400000Y-112800000D03*
X150200000Y-99800000D03*
X151900000Y-93100000D03*
X140200000Y-99600000D03*
X149799552Y-87388153D03*
X156000000Y-103800000D03*
X129800000Y-121300000D03*
X135800000Y-79600000D03*
X166000000Y-75800000D03*
X126200000Y-81600000D03*
X165500000Y-76500000D03*
X149200000Y-84600000D03*
X158800000Y-103800000D03*
X126800000Y-78000000D03*
X139600000Y-124000000D03*
X130800000Y-77200000D03*
X145300000Y-116300000D03*
X178600000Y-75800000D03*
X136400000Y-94700000D03*
X159000000Y-117800000D03*
X160400000Y-96000000D03*
X144800000Y-97000000D03*
X133400000Y-86400000D03*
X167000000Y-91000000D03*
X156200000Y-110400000D03*
X161800000Y-86400000D03*
X131800000Y-81800000D03*
X172800000Y-110800000D03*
X157000000Y-98200000D03*
X160100000Y-89600000D03*
X164000000Y-103600000D03*
X169000000Y-94000000D03*
X130400000Y-85800000D03*
X169000000Y-99800000D03*
X165500000Y-77400000D03*
X151300000Y-97800000D03*
X172200000Y-106600000D03*
X127800000Y-92400000D03*
X169000000Y-93400000D03*
X147000000Y-117800000D03*
X150600000Y-83800000D03*
X164600000Y-118200000D03*
X144100000Y-83800000D03*
X130600000Y-91400000D03*
X170200000Y-75800000D03*
X144200000Y-85800000D03*
X167700000Y-103000000D03*
X133900000Y-121600000D03*
X152400000Y-111000000D03*
X169000000Y-101000000D03*
X175700000Y-77400000D03*
X152400000Y-105600000D03*
X150200000Y-90600000D03*
X140400000Y-75800000D03*
X162000000Y-110100000D03*
X172300000Y-77400000D03*
X153000000Y-83500000D03*
X128600000Y-78800000D03*
X130400000Y-96000000D03*
X135000000Y-84800000D03*
X141800000Y-85800000D03*
X169400000Y-75800000D03*
X153800000Y-85400000D03*
X173600000Y-75800000D03*
X147800000Y-113000000D03*
X159400000Y-83800000D03*
X129500000Y-105700000D03*
X128400000Y-113000000D03*
X169000000Y-92800000D03*
X141800000Y-83400000D03*
X151000000Y-85400000D03*
X159340000Y-95000000D03*
X177800000Y-75800000D03*
X169000000Y-87000000D03*
X157400000Y-85200000D03*
X126200000Y-86800000D03*
X139576422Y-121570528D03*
X130200000Y-89200000D03*
X126100000Y-93600000D03*
X174000000Y-94600000D03*
X128800000Y-80800000D03*
X144400000Y-103600000D03*
X133600000Y-107800000D03*
X126200000Y-89600000D03*
X143600000Y-114800000D03*
X150800000Y-109800000D03*
X151800000Y-117600000D03*
X171800000Y-75800000D03*
X175700000Y-76500000D03*
X168900000Y-76500000D03*
X169000000Y-100400000D03*
X137000000Y-91000000D03*
X153600000Y-115600000D03*
X174000000Y-87600000D03*
X166800000Y-75800000D03*
X126600000Y-113000000D03*
X154900000Y-98200000D03*
X132400000Y-91400000D03*
X171000000Y-75800000D03*
X178000000Y-103800000D03*
X136600000Y-98400000D03*
X153200000Y-110400000D03*
X168000000Y-89200000D03*
X169000000Y-86400000D03*
X137581675Y-75799999D03*
X132600000Y-76600000D03*
X142000000Y-112200000D03*
X142400000Y-97300000D03*
X140200000Y-95200000D03*
X128400000Y-75800000D03*
X158400000Y-96000000D03*
X164500000Y-92500000D03*
X169800000Y-81400000D03*
X135000000Y-86400000D03*
X132600000Y-79600000D03*
X126000000Y-97200000D03*
X157400000Y-105200000D03*
X174400000Y-75800000D03*
X159800000Y-117800000D03*
X137100000Y-109100000D03*
X131600000Y-114000000D03*
X160400000Y-94000000D03*
X134925000Y-88400000D03*
X129600000Y-101800000D03*
X158800000Y-106600000D03*
X146400000Y-88000000D03*
X142000000Y-114200000D03*
X138300000Y-81400000D03*
X149000000Y-119100000D03*
X157600000Y-82400000D03*
X152200000Y-83500000D03*
X150200000Y-89000000D03*
%TO.N,/Radio/D1*%
X137200000Y-86200000D03*
X139200000Y-84200000D03*
%TO.N,/Radio/MOSI*%
X142600000Y-81200000D03*
X133200000Y-82400000D03*
%TO.N,/Radio/~{CS}*%
X132200000Y-83200000D03*
X144400000Y-80800000D03*
%TO.N,/Radio/MISO*%
X143200000Y-80800000D03*
X133800000Y-82600000D03*
%TO.N,/Radio/SCK*%
X143800000Y-81200000D03*
X132400000Y-82600000D03*
%TO.N,/Radio/BUSY*%
X139200000Y-85000000D03*
X137000000Y-87000000D03*
%TO.N,Net-(U2-DCC_FB)*%
X137400000Y-84200000D03*
X132400000Y-89800000D03*
%TO.N,Net-(U2-VBAT)*%
X139000000Y-86200000D03*
X137200000Y-80800000D03*
X133600000Y-81200000D03*
%TO.N,RF_~{RESET}*%
X147200000Y-91400000D03*
X150000000Y-86600000D03*
%TO.N,/Radio/RF_BTN*%
X128400000Y-99200000D03*
X145400000Y-81000000D03*
%TO.N,/Weapon ESC/VB3*%
X164400000Y-99600000D03*
X163800000Y-97600000D03*
D16*
%TO.N,+12V*%
X174400000Y-118600000D03*
X169600000Y-114800000D03*
X165600000Y-114800000D03*
D15*
X169600000Y-103200000D03*
X153200000Y-94200000D03*
D16*
X168000000Y-78800000D03*
X142600000Y-117600000D03*
X165600000Y-124000000D03*
D15*
X169600000Y-103800000D03*
D16*
X161000000Y-82600000D03*
D15*
X154000000Y-94200000D03*
D16*
X176600000Y-78800000D03*
X169600000Y-124000000D03*
X173800000Y-114800000D03*
D15*
X178000000Y-110600000D03*
D16*
X166400000Y-78800000D03*
X166200000Y-82200000D03*
X169800000Y-78800000D03*
X168600000Y-82200000D03*
D15*
X170800000Y-103200000D03*
D16*
X174800000Y-78800000D03*
D15*
X162000000Y-89600000D03*
D16*
X154600000Y-117400000D03*
X161800000Y-82600000D03*
X168600000Y-83000000D03*
D15*
X176400000Y-109000000D03*
D16*
X165600000Y-119800000D03*
X153000000Y-82600000D03*
X166200000Y-81400000D03*
X173200000Y-78800000D03*
X178000000Y-78800000D03*
X168600000Y-81400000D03*
X155400000Y-117400000D03*
X171400000Y-78800000D03*
X152200000Y-82600000D03*
X173400000Y-123800000D03*
X143600000Y-117600000D03*
D15*
X170200000Y-103200000D03*
%TO.N,+3.3V*%
X138800000Y-77800000D03*
X149600000Y-100200000D03*
X144000000Y-104200000D03*
X152400000Y-89200000D03*
X137200000Y-101600000D03*
X147000000Y-89200000D03*
X145400000Y-103600000D03*
X148600000Y-93200000D03*
X158600000Y-85800000D03*
X155800000Y-86200000D03*
X138800000Y-92000000D03*
D16*
X145000000Y-110800000D03*
D15*
X161600000Y-101800000D03*
X155800000Y-99900000D03*
X144900000Y-89600000D03*
X160400000Y-114800000D03*
X154700000Y-110400000D03*
X139400000Y-80000000D03*
X148250000Y-84650000D03*
X149800000Y-98200000D03*
X148600000Y-110800000D03*
D16*
X144200000Y-110800000D03*
D15*
X140100000Y-109900000D03*
X158400000Y-98200000D03*
%TO.N,ESC_~{RESET}*%
X158200000Y-101800000D03*
X144200000Y-93000000D03*
%TO.N,MAIN_~{RESET}*%
X144800000Y-91200000D03*
%TO.N,Net-(U12-SW)*%
X168800000Y-108400000D03*
X176400000Y-110600000D03*
%TO.N,Net-(D6-A)*%
X169400000Y-110800000D03*
X174000000Y-103200000D03*
D16*
%TO.N,+5V*%
X139800000Y-116000000D03*
X149000000Y-115000000D03*
D15*
%TO.N,/Drive ESC/DRV_BTN*%
X142800000Y-93000000D03*
X135000000Y-100800000D03*
%TO.N,/Radio/RF_LED*%
X137600000Y-93200000D03*
X142200000Y-89200000D03*
%TO.N,/Radio/SWCLK*%
X140400000Y-87000000D03*
%TO.N,/Radio/SWDIO*%
X139600000Y-85600000D03*
%TO.N,/Weapon ESC/SWCLK*%
X159800000Y-107600000D03*
%TO.N,/Weapon ESC/SWDIO*%
X159600000Y-108400000D03*
%TO.N,ESC_NTC*%
X139800000Y-93000000D03*
X150200000Y-85400000D03*
X165000000Y-90200000D03*
X156200000Y-87800000D03*
%TO.N,/Drive ESC/SWDIO*%
X144100000Y-101700000D03*
%TO.N,/Drive ESC/SWCLK*%
X146200000Y-100800000D03*
%TO.N,Net-(J4-D--PadA7)*%
X132400000Y-116400000D03*
X131200000Y-116600000D03*
D16*
%TO.N,Net-(U11-VP)*%
X129600000Y-116400000D03*
X134400000Y-116200000D03*
D15*
%TO.N,Net-(J4-CC2)*%
X126800000Y-116200000D03*
X133600000Y-118800000D03*
%TO.N,Net-(Q1-G)*%
X172400000Y-81800000D03*
X168200000Y-84800000D03*
%TO.N,/Weapon ESC/LO1*%
X165000000Y-87200000D03*
X160400000Y-97800000D03*
%TO.N,/Weapon ESC/FB1*%
X154200000Y-102300000D03*
X176600000Y-81200000D03*
%TO.N,/Weapon ESC/HO2*%
X162800000Y-93800000D03*
X162200000Y-94800000D03*
%TO.N,/Weapon ESC/FB2*%
X176600000Y-88200000D03*
X154800000Y-102800000D03*
%TO.N,/Weapon ESC/LO2*%
X159600000Y-97800000D03*
X165000000Y-93600000D03*
%TO.N,/Weapon ESC/HO3*%
X162200000Y-97000000D03*
X164000000Y-97000000D03*
%TO.N,/Weapon ESC/FB3*%
X156400000Y-101800000D03*
X176600000Y-95000000D03*
%TO.N,/Weapon ESC/FBCOM*%
X150000000Y-103300000D03*
X151000000Y-104200000D03*
%TO.N,/Radio/~{SX_RESET}*%
X141300000Y-88600000D03*
X134200000Y-91200000D03*
%TO.N,RF_RX*%
X143500000Y-88500000D03*
X139000000Y-93800000D03*
%TO.N,/Drive ESC/DIR_A*%
X147664065Y-84378439D03*
X137200000Y-96600000D03*
%TO.N,/Drive ESC/PWM_2A*%
X148400000Y-102100000D03*
X155600000Y-91500000D03*
X153400000Y-93300000D03*
X147000000Y-82900000D03*
%TO.N,/Drive ESC/~{SLEEP}*%
X158200000Y-115900000D03*
X149700000Y-83400000D03*
X138600000Y-108400000D03*
X146400000Y-116200000D03*
X158500000Y-84300000D03*
%TO.N,/Drive ESC/DIR_B*%
X156950000Y-84100000D03*
X136600000Y-97000000D03*
%TO.N,/Drive ESC/PWM_2B*%
X152664065Y-92978439D03*
X155300000Y-85000000D03*
X149000000Y-101800000D03*
X155900000Y-90200000D03*
%TO.N,/Drive ESC/DIR_C*%
X159500000Y-116000000D03*
X138200000Y-109700000D03*
%TO.N,USB_D_P*%
X131200000Y-112400000D03*
X143400000Y-102000000D03*
%TO.N,/Drive ESC/PWM_2C*%
X160700000Y-115700000D03*
X139000000Y-110000000D03*
%TO.N,/Drive ESC/I2C_SCL*%
X149774997Y-102000000D03*
X150800000Y-95000000D03*
%TO.N,/Drive ESC/DIR_D*%
X148000000Y-115900000D03*
X138800000Y-109300000D03*
%TO.N,ESC_PPM*%
X140400000Y-102000000D03*
X146400000Y-101800000D03*
%TO.N,/Drive ESC/I2C_SDA*%
X149600000Y-95000000D03*
X150400000Y-102000000D03*
%TO.N,/Drive ESC/PWM_2D*%
X148900000Y-116100000D03*
X136500000Y-109800000D03*
%TO.N,USB_D_N*%
X142600000Y-102400000D03*
X130800000Y-111800000D03*
%TO.N,/Weapon ESC/CH*%
X157400000Y-92200000D03*
X156200000Y-108600000D03*
%TO.N,/Weapon ESC/CL*%
X154200000Y-105200000D03*
X155800000Y-94000000D03*
%TO.N,/Weapon ESC/BL*%
X153800000Y-105800000D03*
X156000000Y-93400000D03*
%TO.N,/Weapon ESC/AH*%
X159800000Y-92000000D03*
X157400000Y-108600000D03*
%TO.N,/Weapon ESC/BH*%
X158600000Y-92200000D03*
X156800000Y-108600000D03*
%TO.N,/Weapon ESC/AL*%
X156600000Y-93000000D03*
X154000000Y-107200000D03*
%TO.N,ESC_TX*%
X160900000Y-105000000D03*
X146800000Y-96800000D03*
%TO.N,ESC_RX*%
X161500000Y-104500000D03*
X147400000Y-97200000D03*
%TO.N,ESC_CUR*%
X154000000Y-88800000D03*
X140600000Y-92800000D03*
%TO.N,Net-(D2-A)*%
X163800000Y-89200000D03*
X171400000Y-97600000D03*
X171400000Y-91200000D03*
X161800000Y-88400000D03*
X171400000Y-90600000D03*
X171400000Y-90000000D03*
D16*
X163200000Y-83000000D03*
D15*
X171400000Y-84200000D03*
X163800000Y-96200000D03*
X171400000Y-82400000D03*
X171400000Y-83600000D03*
D16*
X163200000Y-81400000D03*
D15*
X171400000Y-89400000D03*
X171400000Y-97000000D03*
X171400000Y-96400000D03*
X163800000Y-101800000D03*
X171400000Y-98200000D03*
D16*
X163200000Y-82200000D03*
D15*
X171400000Y-83000000D03*
%TO.N,/Drive ESC/VBAT_ADC*%
X161000000Y-117800000D03*
X133000000Y-111800000D03*
%TO.N,/Drive ESC/MEM_SCK*%
X146300000Y-103300000D03*
X143200000Y-110800000D03*
%TO.N,/Drive ESC/MEM_MOSI*%
X147100000Y-103100000D03*
X144600000Y-109400000D03*
%TO.N,RF_TX*%
X142800000Y-88300000D03*
X138000000Y-94200000D03*
%TD*%
%TA.AperFunction,Conductor*%
%TO.N,GND*%
G36*
X179412583Y-75503872D02*
G01*
X179418082Y-75505345D01*
X179423256Y-75506731D01*
X179474573Y-75540051D01*
X179493267Y-75576737D01*
X179496127Y-75587411D01*
X179499500Y-75613033D01*
X179499500Y-124386966D01*
X179496127Y-124412588D01*
X179493267Y-124423262D01*
X179459943Y-124474577D01*
X179423265Y-124493266D01*
X179412592Y-124496126D01*
X179386967Y-124499500D01*
X173647489Y-124499500D01*
X173589298Y-124480593D01*
X173553334Y-124431093D01*
X173553334Y-124369907D01*
X173589298Y-124320407D01*
X173609604Y-124309036D01*
X173625329Y-124302522D01*
X173677625Y-124280861D01*
X173792621Y-124192621D01*
X173880861Y-124077625D01*
X173936330Y-123943709D01*
X173955250Y-123800000D01*
X173953235Y-123784698D01*
X173936330Y-123656291D01*
X173880861Y-123522375D01*
X173792621Y-123407379D01*
X173677625Y-123319139D01*
X173677621Y-123319137D01*
X173543709Y-123263670D01*
X173543708Y-123263669D01*
X173400000Y-123244750D01*
X173256291Y-123263669D01*
X173256290Y-123263670D01*
X173122378Y-123319137D01*
X173122374Y-123319139D01*
X173007381Y-123407377D01*
X173007377Y-123407381D01*
X172919139Y-123522374D01*
X172919137Y-123522378D01*
X172863670Y-123656290D01*
X172863669Y-123656291D01*
X172844750Y-123799999D01*
X172844750Y-123800000D01*
X172863669Y-123943708D01*
X172863670Y-123943709D01*
X172896159Y-124022147D01*
X172919139Y-124077625D01*
X173007379Y-124192621D01*
X173122375Y-124280861D01*
X173159872Y-124296392D01*
X173190396Y-124309036D01*
X173236922Y-124348772D01*
X173251206Y-124408267D01*
X173227792Y-124464795D01*
X173175623Y-124496765D01*
X173152511Y-124499500D01*
X170111362Y-124499500D01*
X170053171Y-124480593D01*
X170017207Y-124431093D01*
X170017207Y-124369907D01*
X170032818Y-124340234D01*
X170080861Y-124277625D01*
X170136330Y-124143709D01*
X170155250Y-124000000D01*
X170153235Y-123984698D01*
X170136330Y-123856291D01*
X170080861Y-123722375D01*
X169992621Y-123607379D01*
X169877625Y-123519139D01*
X169877621Y-123519137D01*
X169743709Y-123463670D01*
X169743708Y-123463669D01*
X169600000Y-123444750D01*
X169456291Y-123463669D01*
X169456290Y-123463670D01*
X169322378Y-123519137D01*
X169322374Y-123519139D01*
X169207381Y-123607377D01*
X169207377Y-123607381D01*
X169119139Y-123722374D01*
X169119137Y-123722378D01*
X169063670Y-123856290D01*
X169063669Y-123856291D01*
X169044750Y-123999999D01*
X169044750Y-124000000D01*
X169063669Y-124143708D01*
X169063670Y-124143709D01*
X169096159Y-124222147D01*
X169119139Y-124277625D01*
X169167180Y-124340233D01*
X169187604Y-124397908D01*
X169170227Y-124456574D01*
X169121686Y-124493821D01*
X169088638Y-124499500D01*
X166111362Y-124499500D01*
X166053171Y-124480593D01*
X166017207Y-124431093D01*
X166017207Y-124369907D01*
X166032818Y-124340234D01*
X166080861Y-124277625D01*
X166136330Y-124143709D01*
X166155250Y-124000000D01*
X166153235Y-123984698D01*
X166136330Y-123856291D01*
X166080861Y-123722375D01*
X165992621Y-123607379D01*
X165877625Y-123519139D01*
X165877621Y-123519137D01*
X165743709Y-123463670D01*
X165743708Y-123463669D01*
X165600000Y-123444750D01*
X165456291Y-123463669D01*
X165456290Y-123463670D01*
X165322378Y-123519137D01*
X165322374Y-123519139D01*
X165207381Y-123607377D01*
X165207377Y-123607381D01*
X165119139Y-123722374D01*
X165119137Y-123722378D01*
X165063670Y-123856290D01*
X165063669Y-123856291D01*
X165044750Y-123999999D01*
X165044750Y-124000000D01*
X165063669Y-124143708D01*
X165063670Y-124143709D01*
X165096159Y-124222147D01*
X165119139Y-124277625D01*
X165167180Y-124340233D01*
X165187604Y-124397908D01*
X165170227Y-124456574D01*
X165121686Y-124493821D01*
X165088638Y-124499500D01*
X164333396Y-124499500D01*
X164275205Y-124480593D01*
X164239241Y-124431093D01*
X164239241Y-124369907D01*
X164275205Y-124320407D01*
X164300695Y-124307056D01*
X164312881Y-124302793D01*
X164422149Y-124222149D01*
X164502793Y-124112881D01*
X164547646Y-123984698D01*
X164550499Y-123954271D01*
X164550500Y-123954271D01*
X164550500Y-120445729D01*
X164550499Y-120445727D01*
X164550061Y-120441058D01*
X164547646Y-120415302D01*
X164502793Y-120287119D01*
X164422149Y-120177851D01*
X164312881Y-120097207D01*
X164312880Y-120097206D01*
X164184702Y-120052355D01*
X164184693Y-120052353D01*
X164154272Y-120049500D01*
X164154264Y-120049500D01*
X160645736Y-120049500D01*
X160645727Y-120049500D01*
X160615306Y-120052353D01*
X160615297Y-120052355D01*
X160487119Y-120097206D01*
X160377852Y-120177850D01*
X160377850Y-120177852D01*
X160297206Y-120287119D01*
X160252355Y-120415297D01*
X160252353Y-120415306D01*
X160249500Y-120445727D01*
X160249500Y-123954272D01*
X160252353Y-123984693D01*
X160252355Y-123984702D01*
X160297206Y-124112880D01*
X160319959Y-124143709D01*
X160377851Y-124222149D01*
X160487119Y-124302793D01*
X160499302Y-124307056D01*
X160547982Y-124344121D01*
X160565579Y-124402721D01*
X160545371Y-124460473D01*
X160495077Y-124495317D01*
X160466604Y-124499500D01*
X158333396Y-124499500D01*
X158275205Y-124480593D01*
X158239241Y-124431093D01*
X158239241Y-124369907D01*
X158275205Y-124320407D01*
X158300695Y-124307056D01*
X158312881Y-124302793D01*
X158422149Y-124222149D01*
X158502793Y-124112881D01*
X158547646Y-123984698D01*
X158550499Y-123954271D01*
X158550500Y-123954271D01*
X158550500Y-120445729D01*
X158550499Y-120445727D01*
X158550061Y-120441058D01*
X158547646Y-120415302D01*
X158502793Y-120287119D01*
X158422149Y-120177851D01*
X158312881Y-120097207D01*
X158312880Y-120097206D01*
X158184702Y-120052355D01*
X158184693Y-120052353D01*
X158154272Y-120049500D01*
X158154264Y-120049500D01*
X154645736Y-120049500D01*
X154645727Y-120049500D01*
X154615306Y-120052353D01*
X154615297Y-120052355D01*
X154487119Y-120097206D01*
X154377852Y-120177850D01*
X154377850Y-120177852D01*
X154297206Y-120287119D01*
X154252355Y-120415297D01*
X154252353Y-120415306D01*
X154249500Y-120445727D01*
X154249500Y-123954272D01*
X154252353Y-123984693D01*
X154252355Y-123984702D01*
X154297206Y-124112880D01*
X154319959Y-124143709D01*
X154377851Y-124222149D01*
X154487119Y-124302793D01*
X154499302Y-124307056D01*
X154547982Y-124344121D01*
X154565579Y-124402721D01*
X154545371Y-124460473D01*
X154495077Y-124495317D01*
X154466604Y-124499500D01*
X152333396Y-124499500D01*
X152275205Y-124480593D01*
X152239241Y-124431093D01*
X152239241Y-124369907D01*
X152275205Y-124320407D01*
X152300695Y-124307056D01*
X152312881Y-124302793D01*
X152422149Y-124222149D01*
X152502793Y-124112881D01*
X152547646Y-123984698D01*
X152550499Y-123954271D01*
X152550500Y-123954271D01*
X152550500Y-120445729D01*
X152550499Y-120445727D01*
X152550061Y-120441058D01*
X152547646Y-120415302D01*
X152502793Y-120287119D01*
X152422149Y-120177851D01*
X152312881Y-120097207D01*
X152312880Y-120097206D01*
X152184702Y-120052355D01*
X152184693Y-120052353D01*
X152154272Y-120049500D01*
X152154264Y-120049500D01*
X148645736Y-120049500D01*
X148645727Y-120049500D01*
X148615306Y-120052353D01*
X148615297Y-120052355D01*
X148487119Y-120097206D01*
X148377852Y-120177850D01*
X148377850Y-120177852D01*
X148297206Y-120287119D01*
X148252355Y-120415297D01*
X148252353Y-120415306D01*
X148249500Y-120445727D01*
X148249500Y-123954272D01*
X148252353Y-123984693D01*
X148252355Y-123984702D01*
X148297206Y-124112880D01*
X148319959Y-124143709D01*
X148377851Y-124222149D01*
X148487119Y-124302793D01*
X148499302Y-124307056D01*
X148547982Y-124344121D01*
X148565579Y-124402721D01*
X148545371Y-124460473D01*
X148495077Y-124495317D01*
X148466604Y-124499500D01*
X146333396Y-124499500D01*
X146275205Y-124480593D01*
X146239241Y-124431093D01*
X146239241Y-124369907D01*
X146275205Y-124320407D01*
X146300695Y-124307056D01*
X146312881Y-124302793D01*
X146422149Y-124222149D01*
X146502793Y-124112881D01*
X146547646Y-123984698D01*
X146550499Y-123954271D01*
X146550500Y-123954271D01*
X146550500Y-120445729D01*
X146550499Y-120445727D01*
X146550061Y-120441058D01*
X146547646Y-120415302D01*
X146502793Y-120287119D01*
X146422149Y-120177851D01*
X146312881Y-120097207D01*
X146312880Y-120097206D01*
X146184702Y-120052355D01*
X146184693Y-120052353D01*
X146154272Y-120049500D01*
X146154264Y-120049500D01*
X142645736Y-120049500D01*
X142645727Y-120049500D01*
X142615306Y-120052353D01*
X142615297Y-120052355D01*
X142487119Y-120097206D01*
X142377852Y-120177850D01*
X142377850Y-120177852D01*
X142297206Y-120287119D01*
X142252355Y-120415297D01*
X142252353Y-120415306D01*
X142249500Y-120445727D01*
X142249500Y-123954272D01*
X142252353Y-123984693D01*
X142252355Y-123984702D01*
X142297206Y-124112880D01*
X142319959Y-124143709D01*
X142377851Y-124222149D01*
X142487119Y-124302793D01*
X142499302Y-124307056D01*
X142547982Y-124344121D01*
X142565579Y-124402721D01*
X142545371Y-124460473D01*
X142495077Y-124495317D01*
X142466604Y-124499500D01*
X125599000Y-124499500D01*
X125540809Y-124480593D01*
X125504845Y-124431093D01*
X125500000Y-124400500D01*
X125500000Y-119799999D01*
X165044750Y-119799999D01*
X165044750Y-119800000D01*
X165063669Y-119943708D01*
X165063670Y-119943709D01*
X165108671Y-120052354D01*
X165119139Y-120077625D01*
X165207379Y-120192621D01*
X165322375Y-120280861D01*
X165456291Y-120336330D01*
X165600000Y-120355250D01*
X165743709Y-120336330D01*
X165877625Y-120280861D01*
X165992621Y-120192621D01*
X166080861Y-120077625D01*
X166136330Y-119943709D01*
X166155250Y-119800000D01*
X166136330Y-119656291D01*
X166091978Y-119549215D01*
X167299500Y-119549215D01*
X167299500Y-119850784D01*
X167338861Y-120149760D01*
X167338861Y-120149765D01*
X167416911Y-120441050D01*
X167416915Y-120441063D01*
X167532313Y-120719660D01*
X167532315Y-120719664D01*
X167532317Y-120719668D01*
X167683100Y-120980832D01*
X167683102Y-120980835D01*
X167866675Y-121220073D01*
X167866677Y-121220075D01*
X167866681Y-121220080D01*
X168079920Y-121433319D01*
X168079924Y-121433322D01*
X168079926Y-121433324D01*
X168319164Y-121616897D01*
X168319168Y-121616900D01*
X168580332Y-121767683D01*
X168858942Y-121883087D01*
X169150232Y-121961138D01*
X169449217Y-122000500D01*
X169449218Y-122000500D01*
X169750782Y-122000500D01*
X169750783Y-122000500D01*
X170049768Y-121961138D01*
X170341058Y-121883087D01*
X170619668Y-121767683D01*
X170880832Y-121616900D01*
X171120080Y-121433319D01*
X171333319Y-121220080D01*
X171516900Y-120980832D01*
X171667683Y-120719668D01*
X171783087Y-120441058D01*
X171835426Y-120245727D01*
X174849500Y-120245727D01*
X174849500Y-123754272D01*
X174852353Y-123784693D01*
X174852355Y-123784702D01*
X174897206Y-123912880D01*
X174919959Y-123943709D01*
X174977851Y-124022149D01*
X175087119Y-124102793D01*
X175215302Y-124147646D01*
X175245727Y-124150499D01*
X175245729Y-124150500D01*
X175245736Y-124150500D01*
X178754271Y-124150500D01*
X178754271Y-124150499D01*
X178784698Y-124147646D01*
X178912881Y-124102793D01*
X179022149Y-124022149D01*
X179102793Y-123912881D01*
X179147646Y-123784698D01*
X179150499Y-123754271D01*
X179150500Y-123754271D01*
X179150500Y-120245729D01*
X179150499Y-120245727D01*
X179147646Y-120215306D01*
X179147646Y-120215302D01*
X179102793Y-120087119D01*
X179022149Y-119977851D01*
X178912881Y-119897207D01*
X178912880Y-119897206D01*
X178784702Y-119852355D01*
X178784693Y-119852353D01*
X178754272Y-119849500D01*
X178754264Y-119849500D01*
X175245736Y-119849500D01*
X175245727Y-119849500D01*
X175215306Y-119852353D01*
X175215297Y-119852355D01*
X175087119Y-119897206D01*
X174977852Y-119977850D01*
X174977850Y-119977852D01*
X174897206Y-120087119D01*
X174852355Y-120215297D01*
X174852353Y-120215306D01*
X174849500Y-120245727D01*
X171835426Y-120245727D01*
X171861138Y-120149768D01*
X171900500Y-119850783D01*
X171900500Y-119549217D01*
X171861138Y-119250232D01*
X171783087Y-118958942D01*
X171667683Y-118680332D01*
X171621303Y-118599999D01*
X173844750Y-118599999D01*
X173844750Y-118600000D01*
X173863669Y-118743708D01*
X173863670Y-118743709D01*
X173919139Y-118877625D01*
X174007379Y-118992621D01*
X174122375Y-119080861D01*
X174256291Y-119136330D01*
X174400000Y-119155250D01*
X174543709Y-119136330D01*
X174677625Y-119080861D01*
X174792621Y-118992621D01*
X174880861Y-118877625D01*
X174936330Y-118743709D01*
X174955250Y-118600000D01*
X174936330Y-118456291D01*
X174880861Y-118322375D01*
X174792621Y-118207379D01*
X174677625Y-118119139D01*
X174677621Y-118119137D01*
X174543709Y-118063670D01*
X174543708Y-118063669D01*
X174400000Y-118044750D01*
X174256291Y-118063669D01*
X174256290Y-118063670D01*
X174122378Y-118119137D01*
X174122374Y-118119139D01*
X174007381Y-118207377D01*
X174007377Y-118207381D01*
X173919139Y-118322374D01*
X173919137Y-118322378D01*
X173863670Y-118456290D01*
X173863669Y-118456291D01*
X173844750Y-118599999D01*
X171621303Y-118599999D01*
X171516900Y-118419168D01*
X171442631Y-118322378D01*
X171333324Y-118179926D01*
X171333322Y-118179924D01*
X171333319Y-118179920D01*
X171120080Y-117966681D01*
X171120075Y-117966677D01*
X171120073Y-117966675D01*
X170880835Y-117783102D01*
X170880832Y-117783100D01*
X170619668Y-117632317D01*
X170619664Y-117632315D01*
X170619660Y-117632313D01*
X170341063Y-117516915D01*
X170341062Y-117516914D01*
X170341058Y-117516913D01*
X170049768Y-117438862D01*
X170049765Y-117438861D01*
X170049763Y-117438861D01*
X169750784Y-117399500D01*
X169750783Y-117399500D01*
X169449217Y-117399500D01*
X169449215Y-117399500D01*
X169150239Y-117438861D01*
X169150234Y-117438861D01*
X168858949Y-117516911D01*
X168858936Y-117516915D01*
X168580339Y-117632313D01*
X168319164Y-117783102D01*
X168079926Y-117966675D01*
X167866675Y-118179926D01*
X167683102Y-118419164D01*
X167532313Y-118680339D01*
X167416915Y-118958936D01*
X167416911Y-118958949D01*
X167338861Y-119250234D01*
X167338861Y-119250239D01*
X167299500Y-119549215D01*
X166091978Y-119549215D01*
X166080861Y-119522375D01*
X165992621Y-119407379D01*
X165877625Y-119319139D01*
X165877621Y-119319137D01*
X165743709Y-119263670D01*
X165743708Y-119263669D01*
X165600000Y-119244750D01*
X165456291Y-119263669D01*
X165456290Y-119263670D01*
X165322378Y-119319137D01*
X165322374Y-119319139D01*
X165207381Y-119407377D01*
X165207377Y-119407381D01*
X165119139Y-119522374D01*
X165119137Y-119522378D01*
X165063670Y-119656290D01*
X165063669Y-119656291D01*
X165044750Y-119799999D01*
X125500000Y-119799999D01*
X125500000Y-118725817D01*
X128584500Y-118725817D01*
X128584500Y-118864183D01*
X128620312Y-118997836D01*
X128689495Y-119117665D01*
X128787335Y-119215505D01*
X128907164Y-119284688D01*
X129040817Y-119320500D01*
X129040819Y-119320500D01*
X129179181Y-119320500D01*
X129179183Y-119320500D01*
X129312836Y-119284688D01*
X129432665Y-119215505D01*
X129530505Y-119117665D01*
X129599688Y-118997836D01*
X129635500Y-118864183D01*
X129635500Y-118799999D01*
X133169196Y-118799999D01*
X133169196Y-118800000D01*
X133190281Y-118933127D01*
X133190282Y-118933129D01*
X133223252Y-118997836D01*
X133251472Y-119053220D01*
X133346780Y-119148528D01*
X133466874Y-119209719D01*
X133600000Y-119230804D01*
X133733126Y-119209719D01*
X133853220Y-119148528D01*
X133948528Y-119053220D01*
X134009719Y-118933126D01*
X134030804Y-118800000D01*
X134019055Y-118725817D01*
X134364500Y-118725817D01*
X134364500Y-118864183D01*
X134400312Y-118997836D01*
X134469495Y-119117665D01*
X134567335Y-119215505D01*
X134687164Y-119284688D01*
X134820817Y-119320500D01*
X134820819Y-119320500D01*
X134959181Y-119320500D01*
X134959183Y-119320500D01*
X135092836Y-119284688D01*
X135212665Y-119215505D01*
X135310505Y-119117665D01*
X135379688Y-118997836D01*
X135415500Y-118864183D01*
X135415500Y-118725817D01*
X135379688Y-118592164D01*
X135310505Y-118472335D01*
X135212665Y-118374495D01*
X135092836Y-118305312D01*
X134959183Y-118269500D01*
X134820817Y-118269500D01*
X134687164Y-118305312D01*
X134567335Y-118374495D01*
X134469495Y-118472335D01*
X134400312Y-118592164D01*
X134364500Y-118725817D01*
X134019055Y-118725817D01*
X134009719Y-118666874D01*
X133948528Y-118546780D01*
X133853220Y-118451472D01*
X133853217Y-118451470D01*
X133733129Y-118390282D01*
X133733127Y-118390281D01*
X133600000Y-118369196D01*
X133466872Y-118390281D01*
X133466870Y-118390282D01*
X133346782Y-118451470D01*
X133251470Y-118546782D01*
X133190282Y-118666870D01*
X133190281Y-118666872D01*
X133169196Y-118799999D01*
X129635500Y-118799999D01*
X129635500Y-118725817D01*
X129599688Y-118592164D01*
X129530505Y-118472335D01*
X129432665Y-118374495D01*
X129312836Y-118305312D01*
X129179183Y-118269500D01*
X129040817Y-118269500D01*
X128907164Y-118305312D01*
X128787335Y-118374495D01*
X128689495Y-118472335D01*
X128620312Y-118592164D01*
X128584500Y-118725817D01*
X125500000Y-118725817D01*
X125500000Y-117599999D01*
X142044750Y-117599999D01*
X142044750Y-117600000D01*
X142063669Y-117743708D01*
X142063670Y-117743709D01*
X142099999Y-117831418D01*
X142119139Y-117877625D01*
X142207379Y-117992621D01*
X142322375Y-118080861D01*
X142456291Y-118136330D01*
X142600000Y-118155250D01*
X142743709Y-118136330D01*
X142877625Y-118080861D01*
X142992621Y-117992621D01*
X143021458Y-117955039D01*
X143071882Y-117920384D01*
X143133047Y-117921985D01*
X143178541Y-117955039D01*
X143207379Y-117992621D01*
X143322375Y-118080861D01*
X143456291Y-118136330D01*
X143600000Y-118155250D01*
X143743709Y-118136330D01*
X143877625Y-118080861D01*
X143992621Y-117992621D01*
X144080861Y-117877625D01*
X144136330Y-117743709D01*
X144155250Y-117600000D01*
X144144311Y-117516915D01*
X144136330Y-117456291D01*
X144113013Y-117399999D01*
X154044750Y-117399999D01*
X154044750Y-117400000D01*
X154063669Y-117543708D01*
X154063670Y-117543709D01*
X154119139Y-117677625D01*
X154207379Y-117792621D01*
X154322375Y-117880861D01*
X154456291Y-117936330D01*
X154600000Y-117955250D01*
X154743709Y-117936330D01*
X154877625Y-117880861D01*
X154939732Y-117833203D01*
X154997407Y-117812779D01*
X155056073Y-117830156D01*
X155060268Y-117833204D01*
X155122369Y-117880857D01*
X155122371Y-117880858D01*
X155122375Y-117880861D01*
X155256291Y-117936330D01*
X155400000Y-117955250D01*
X155543709Y-117936330D01*
X155677625Y-117880861D01*
X155783006Y-117799999D01*
X160569196Y-117799999D01*
X160569196Y-117800000D01*
X160590281Y-117933127D01*
X160590282Y-117933129D01*
X160647156Y-118044750D01*
X160651472Y-118053220D01*
X160746780Y-118148528D01*
X160746782Y-118148529D01*
X160862277Y-118207377D01*
X160866874Y-118209719D01*
X161000000Y-118230804D01*
X161133126Y-118209719D01*
X161253220Y-118148528D01*
X161348528Y-118053220D01*
X161409719Y-117933126D01*
X161430804Y-117800000D01*
X161429635Y-117792622D01*
X161421888Y-117743708D01*
X161409719Y-117666874D01*
X161348528Y-117546780D01*
X161253220Y-117451472D01*
X161253217Y-117451470D01*
X161133129Y-117390282D01*
X161133127Y-117390281D01*
X161000000Y-117369196D01*
X160866872Y-117390281D01*
X160866870Y-117390282D01*
X160746782Y-117451470D01*
X160651470Y-117546782D01*
X160590282Y-117666870D01*
X160590281Y-117666872D01*
X160569196Y-117799999D01*
X155783006Y-117799999D01*
X155792621Y-117792621D01*
X155880861Y-117677625D01*
X155936330Y-117543709D01*
X155955250Y-117400000D01*
X155953970Y-117390281D01*
X155936330Y-117256291D01*
X155880861Y-117122375D01*
X155792621Y-117007379D01*
X155677625Y-116919139D01*
X155677621Y-116919137D01*
X155543709Y-116863670D01*
X155543708Y-116863669D01*
X155400000Y-116844750D01*
X155256291Y-116863669D01*
X155256290Y-116863670D01*
X155122378Y-116919137D01*
X155122374Y-116919139D01*
X155099971Y-116936330D01*
X155075315Y-116955250D01*
X155060268Y-116966796D01*
X155002592Y-116987220D01*
X154943926Y-116969843D01*
X154939732Y-116966796D01*
X154924685Y-116955250D01*
X154877625Y-116919139D01*
X154877621Y-116919137D01*
X154743709Y-116863670D01*
X154743708Y-116863669D01*
X154600000Y-116844750D01*
X154456291Y-116863669D01*
X154456290Y-116863670D01*
X154322378Y-116919137D01*
X154322374Y-116919139D01*
X154207381Y-117007377D01*
X154207377Y-117007381D01*
X154119139Y-117122374D01*
X154119137Y-117122378D01*
X154063670Y-117256290D01*
X154063669Y-117256291D01*
X154044750Y-117399999D01*
X144113013Y-117399999D01*
X144080861Y-117322375D01*
X143992621Y-117207379D01*
X143877625Y-117119139D01*
X143877621Y-117119137D01*
X143743709Y-117063670D01*
X143743708Y-117063669D01*
X143600000Y-117044750D01*
X143456291Y-117063669D01*
X143456290Y-117063670D01*
X143322378Y-117119137D01*
X143322374Y-117119139D01*
X143207381Y-117207377D01*
X143207373Y-117207385D01*
X143178541Y-117244960D01*
X143128117Y-117279615D01*
X143066952Y-117278013D01*
X143021459Y-117244960D01*
X142992626Y-117207385D01*
X142992624Y-117207383D01*
X142992621Y-117207379D01*
X142877625Y-117119139D01*
X142877621Y-117119137D01*
X142743709Y-117063670D01*
X142743708Y-117063669D01*
X142600000Y-117044750D01*
X142456291Y-117063669D01*
X142456290Y-117063670D01*
X142322378Y-117119137D01*
X142322374Y-117119139D01*
X142207381Y-117207377D01*
X142207377Y-117207381D01*
X142119139Y-117322374D01*
X142119137Y-117322378D01*
X142063670Y-117456290D01*
X142063669Y-117456291D01*
X142044750Y-117599999D01*
X125500000Y-117599999D01*
X125500000Y-116199999D01*
X126369196Y-116199999D01*
X126369196Y-116200000D01*
X126390281Y-116333127D01*
X126390282Y-116333129D01*
X126451470Y-116453217D01*
X126451472Y-116453220D01*
X126546780Y-116548528D01*
X126666874Y-116609719D01*
X126800000Y-116630804D01*
X126933126Y-116609719D01*
X127053220Y-116548528D01*
X127148528Y-116453220D01*
X127175645Y-116399999D01*
X129044750Y-116399999D01*
X129044750Y-116400000D01*
X129063669Y-116543708D01*
X129063670Y-116543709D01*
X129119139Y-116677625D01*
X129207379Y-116792621D01*
X129322375Y-116880861D01*
X129456291Y-116936330D01*
X129600000Y-116955250D01*
X129743709Y-116936330D01*
X129877625Y-116880861D01*
X129992621Y-116792621D01*
X130080861Y-116677625D01*
X130113014Y-116599999D01*
X130769196Y-116599999D01*
X130769196Y-116600000D01*
X130790281Y-116733127D01*
X130790282Y-116733129D01*
X130829307Y-116809719D01*
X130851472Y-116853220D01*
X130946780Y-116948528D01*
X130946782Y-116948529D01*
X131062277Y-117007377D01*
X131066874Y-117009719D01*
X131200000Y-117030804D01*
X131333126Y-117009719D01*
X131453220Y-116948528D01*
X131548528Y-116853220D01*
X131609719Y-116733126D01*
X131630804Y-116600000D01*
X131629635Y-116592622D01*
X131621888Y-116543708D01*
X131609719Y-116466874D01*
X131575644Y-116399999D01*
X131969196Y-116399999D01*
X131969196Y-116400000D01*
X131990281Y-116533127D01*
X131990282Y-116533129D01*
X132029307Y-116609719D01*
X132051472Y-116653220D01*
X132146780Y-116748528D01*
X132266874Y-116809719D01*
X132400000Y-116830804D01*
X132533126Y-116809719D01*
X132653220Y-116748528D01*
X132748528Y-116653220D01*
X132809719Y-116533126D01*
X132830804Y-116400000D01*
X132829635Y-116392622D01*
X132821888Y-116343708D01*
X132809719Y-116266874D01*
X132775644Y-116199999D01*
X133844750Y-116199999D01*
X133844750Y-116200000D01*
X133863669Y-116343708D01*
X133863670Y-116343709D01*
X133919139Y-116477625D01*
X134007379Y-116592621D01*
X134122375Y-116680861D01*
X134256291Y-116736330D01*
X134400000Y-116755250D01*
X134543709Y-116736330D01*
X134677625Y-116680861D01*
X134792621Y-116592621D01*
X134880861Y-116477625D01*
X134936330Y-116343709D01*
X134955250Y-116200000D01*
X134953970Y-116190281D01*
X134936330Y-116056291D01*
X134913013Y-115999999D01*
X139244750Y-115999999D01*
X139244750Y-116000000D01*
X139263669Y-116143708D01*
X139263670Y-116143709D01*
X139300707Y-116233127D01*
X139319139Y-116277625D01*
X139407379Y-116392621D01*
X139522375Y-116480861D01*
X139656291Y-116536330D01*
X139800000Y-116555250D01*
X139943709Y-116536330D01*
X140077625Y-116480861D01*
X140192621Y-116392621D01*
X140280861Y-116277625D01*
X140313014Y-116199999D01*
X145969196Y-116199999D01*
X145969196Y-116200000D01*
X145990281Y-116333127D01*
X145990282Y-116333129D01*
X146051470Y-116453217D01*
X146051472Y-116453220D01*
X146146780Y-116548528D01*
X146266874Y-116609719D01*
X146400000Y-116630804D01*
X146533126Y-116609719D01*
X146653220Y-116548528D01*
X146748528Y-116453220D01*
X146809719Y-116333126D01*
X146830804Y-116200000D01*
X146809719Y-116066874D01*
X146748528Y-115946780D01*
X146701747Y-115899999D01*
X147569196Y-115899999D01*
X147569196Y-115900000D01*
X147590281Y-116033127D01*
X147590282Y-116033129D01*
X147651470Y-116153217D01*
X147651472Y-116153220D01*
X147746780Y-116248528D01*
X147866874Y-116309719D01*
X148000000Y-116330804D01*
X148133126Y-116309719D01*
X148253220Y-116248528D01*
X148322585Y-116179162D01*
X148377099Y-116151386D01*
X148437531Y-116160957D01*
X148480796Y-116204221D01*
X148487790Y-116225745D01*
X148487874Y-116225718D01*
X148490282Y-116233129D01*
X148551470Y-116353217D01*
X148551472Y-116353220D01*
X148646780Y-116448528D01*
X148766874Y-116509719D01*
X148900000Y-116530804D01*
X149033126Y-116509719D01*
X149153220Y-116448528D01*
X149248528Y-116353220D01*
X149309719Y-116233126D01*
X149330804Y-116100000D01*
X149309719Y-115966874D01*
X149275644Y-115899999D01*
X157769196Y-115899999D01*
X157769196Y-115900000D01*
X157790281Y-116033127D01*
X157790282Y-116033129D01*
X157851470Y-116153217D01*
X157851472Y-116153220D01*
X157946780Y-116248528D01*
X158066874Y-116309719D01*
X158200000Y-116330804D01*
X158333126Y-116309719D01*
X158453220Y-116248528D01*
X158548528Y-116153220D01*
X158609719Y-116033126D01*
X158614966Y-115999999D01*
X159069196Y-115999999D01*
X159069196Y-116000000D01*
X159090281Y-116133127D01*
X159090282Y-116133129D01*
X159150580Y-116251470D01*
X159151472Y-116253220D01*
X159246780Y-116348528D01*
X159366874Y-116409719D01*
X159500000Y-116430804D01*
X159633126Y-116409719D01*
X159753220Y-116348528D01*
X159848528Y-116253220D01*
X159909719Y-116133126D01*
X159930804Y-116000000D01*
X159909719Y-115866874D01*
X159908086Y-115863670D01*
X159848529Y-115746782D01*
X159848528Y-115746780D01*
X159753220Y-115651472D01*
X159753217Y-115651470D01*
X159633129Y-115590282D01*
X159633127Y-115590281D01*
X159500000Y-115569196D01*
X159366872Y-115590281D01*
X159366870Y-115590282D01*
X159246782Y-115651470D01*
X159151470Y-115746782D01*
X159090282Y-115866870D01*
X159090281Y-115866872D01*
X159069196Y-115999999D01*
X158614966Y-115999999D01*
X158630804Y-115900000D01*
X158609719Y-115766874D01*
X158548528Y-115646780D01*
X158453220Y-115551472D01*
X158453217Y-115551470D01*
X158333129Y-115490282D01*
X158333127Y-115490281D01*
X158200000Y-115469196D01*
X158066872Y-115490281D01*
X158066870Y-115490282D01*
X157946782Y-115551470D01*
X157851470Y-115646782D01*
X157790282Y-115766870D01*
X157790281Y-115766872D01*
X157769196Y-115899999D01*
X149275644Y-115899999D01*
X149248528Y-115846780D01*
X149153220Y-115751472D01*
X149151753Y-115750724D01*
X149099805Y-115724255D01*
X149056541Y-115680990D01*
X149046970Y-115620558D01*
X149074748Y-115566041D01*
X149129265Y-115538265D01*
X149131730Y-115537907D01*
X149143709Y-115536330D01*
X149277625Y-115480861D01*
X149392621Y-115392621D01*
X149480861Y-115277625D01*
X149536330Y-115143709D01*
X149555250Y-115000000D01*
X149536330Y-114856291D01*
X149513013Y-114799999D01*
X159969196Y-114799999D01*
X159969196Y-114800000D01*
X159990281Y-114933127D01*
X159990282Y-114933129D01*
X160024355Y-115000000D01*
X160051472Y-115053220D01*
X160146780Y-115148528D01*
X160266874Y-115209719D01*
X160341140Y-115221481D01*
X160352646Y-115223304D01*
X160407163Y-115251082D01*
X160434940Y-115305598D01*
X160425369Y-115366030D01*
X160407163Y-115391088D01*
X160351473Y-115446778D01*
X160351470Y-115446782D01*
X160290282Y-115566870D01*
X160290281Y-115566872D01*
X160269196Y-115699999D01*
X160269196Y-115700000D01*
X160290281Y-115833127D01*
X160290282Y-115833129D01*
X160351470Y-115953217D01*
X160351472Y-115953220D01*
X160446780Y-116048528D01*
X160566874Y-116109719D01*
X160700000Y-116130804D01*
X160833126Y-116109719D01*
X160953220Y-116048528D01*
X161048528Y-115953220D01*
X161109719Y-115833126D01*
X161130804Y-115700000D01*
X161109719Y-115566874D01*
X161048528Y-115446780D01*
X160953220Y-115351472D01*
X160953217Y-115351470D01*
X160833129Y-115290282D01*
X160833127Y-115290281D01*
X160747352Y-115276695D01*
X160692836Y-115248917D01*
X160665059Y-115194400D01*
X160674631Y-115133968D01*
X160692834Y-115108913D01*
X160748528Y-115053220D01*
X160809719Y-114933126D01*
X160830804Y-114800000D01*
X160830804Y-114799999D01*
X165044750Y-114799999D01*
X165044750Y-114800000D01*
X165063669Y-114943708D01*
X165063670Y-114943709D01*
X165109030Y-115053221D01*
X165119139Y-115077625D01*
X165207379Y-115192621D01*
X165322375Y-115280861D01*
X165456291Y-115336330D01*
X165600000Y-115355250D01*
X165743709Y-115336330D01*
X165877625Y-115280861D01*
X165992621Y-115192621D01*
X166080861Y-115077625D01*
X166136330Y-114943709D01*
X166155250Y-114800000D01*
X166155250Y-114799999D01*
X169044750Y-114799999D01*
X169044750Y-114800000D01*
X169063669Y-114943708D01*
X169063670Y-114943709D01*
X169109030Y-115053221D01*
X169119139Y-115077625D01*
X169207379Y-115192621D01*
X169322375Y-115280861D01*
X169456291Y-115336330D01*
X169600000Y-115355250D01*
X169743709Y-115336330D01*
X169877625Y-115280861D01*
X169992621Y-115192621D01*
X170080861Y-115077625D01*
X170136330Y-114943709D01*
X170155250Y-114800000D01*
X170155250Y-114799999D01*
X173244750Y-114799999D01*
X173244750Y-114800000D01*
X173263669Y-114943708D01*
X173263670Y-114943709D01*
X173309030Y-115053221D01*
X173319139Y-115077625D01*
X173407379Y-115192621D01*
X173522375Y-115280861D01*
X173656291Y-115336330D01*
X173800000Y-115355250D01*
X173943709Y-115336330D01*
X174077625Y-115280861D01*
X174192621Y-115192621D01*
X174280861Y-115077625D01*
X174336330Y-114943709D01*
X174355250Y-114800000D01*
X174336330Y-114656291D01*
X174280861Y-114522375D01*
X174192621Y-114407379D01*
X174077625Y-114319139D01*
X174077621Y-114319137D01*
X173943709Y-114263670D01*
X173943708Y-114263669D01*
X173800000Y-114244750D01*
X173656291Y-114263669D01*
X173656290Y-114263670D01*
X173522378Y-114319137D01*
X173522374Y-114319139D01*
X173407381Y-114407377D01*
X173407377Y-114407381D01*
X173319139Y-114522374D01*
X173319137Y-114522378D01*
X173263670Y-114656290D01*
X173263669Y-114656291D01*
X173244750Y-114799999D01*
X170155250Y-114799999D01*
X170136330Y-114656291D01*
X170080861Y-114522375D01*
X169992621Y-114407379D01*
X169877625Y-114319139D01*
X169877621Y-114319137D01*
X169743709Y-114263670D01*
X169743708Y-114263669D01*
X169600000Y-114244750D01*
X169456291Y-114263669D01*
X169456290Y-114263670D01*
X169322378Y-114319137D01*
X169322374Y-114319139D01*
X169207381Y-114407377D01*
X169207377Y-114407381D01*
X169119139Y-114522374D01*
X169119137Y-114522378D01*
X169063670Y-114656290D01*
X169063669Y-114656291D01*
X169044750Y-114799999D01*
X166155250Y-114799999D01*
X166136330Y-114656291D01*
X166080861Y-114522375D01*
X165992621Y-114407379D01*
X165877625Y-114319139D01*
X165877621Y-114319137D01*
X165743709Y-114263670D01*
X165743708Y-114263669D01*
X165600000Y-114244750D01*
X165456291Y-114263669D01*
X165456290Y-114263670D01*
X165322378Y-114319137D01*
X165322374Y-114319139D01*
X165207381Y-114407377D01*
X165207377Y-114407381D01*
X165119139Y-114522374D01*
X165119137Y-114522378D01*
X165063670Y-114656290D01*
X165063669Y-114656291D01*
X165044750Y-114799999D01*
X160830804Y-114799999D01*
X160809719Y-114666874D01*
X160748528Y-114546780D01*
X160653220Y-114451472D01*
X160653217Y-114451470D01*
X160533129Y-114390282D01*
X160533127Y-114390281D01*
X160400000Y-114369196D01*
X160266872Y-114390281D01*
X160266870Y-114390282D01*
X160146782Y-114451470D01*
X160051470Y-114546782D01*
X159990282Y-114666870D01*
X159990281Y-114666872D01*
X159969196Y-114799999D01*
X149513013Y-114799999D01*
X149480861Y-114722375D01*
X149392621Y-114607379D01*
X149277625Y-114519139D01*
X149277621Y-114519137D01*
X149143709Y-114463670D01*
X149143708Y-114463669D01*
X149000000Y-114444750D01*
X148856291Y-114463669D01*
X148856290Y-114463670D01*
X148722378Y-114519137D01*
X148722374Y-114519139D01*
X148607381Y-114607377D01*
X148607377Y-114607381D01*
X148519139Y-114722374D01*
X148519137Y-114722378D01*
X148463670Y-114856290D01*
X148463669Y-114856291D01*
X148444750Y-114999999D01*
X148444750Y-115000000D01*
X148463669Y-115143708D01*
X148463670Y-115143709D01*
X148518753Y-115276695D01*
X148519139Y-115277625D01*
X148607379Y-115392621D01*
X148722375Y-115480861D01*
X148777345Y-115503630D01*
X148823870Y-115543364D01*
X148838154Y-115602859D01*
X148814740Y-115659387D01*
X148773812Y-115686736D01*
X148773816Y-115686743D01*
X148773763Y-115686769D01*
X148770058Y-115689246D01*
X148766870Y-115690281D01*
X148646782Y-115751470D01*
X148646778Y-115751473D01*
X148577415Y-115820836D01*
X148522898Y-115848613D01*
X148462466Y-115839041D01*
X148419202Y-115795776D01*
X148412209Y-115774254D01*
X148412126Y-115774282D01*
X148409719Y-115766878D01*
X148409719Y-115766874D01*
X148348528Y-115646780D01*
X148253220Y-115551472D01*
X148253217Y-115551470D01*
X148133129Y-115490282D01*
X148133127Y-115490281D01*
X148000000Y-115469196D01*
X147866872Y-115490281D01*
X147866870Y-115490282D01*
X147746782Y-115551470D01*
X147651470Y-115646782D01*
X147590282Y-115766870D01*
X147590281Y-115766872D01*
X147569196Y-115899999D01*
X146701747Y-115899999D01*
X146653220Y-115851472D01*
X146653217Y-115851470D01*
X146533129Y-115790282D01*
X146533127Y-115790281D01*
X146400000Y-115769196D01*
X146266872Y-115790281D01*
X146266870Y-115790282D01*
X146146782Y-115851470D01*
X146051470Y-115946782D01*
X145990282Y-116066870D01*
X145990281Y-116066872D01*
X145969196Y-116199999D01*
X140313014Y-116199999D01*
X140336330Y-116143709D01*
X140355250Y-116000000D01*
X140353970Y-115990281D01*
X140336330Y-115856291D01*
X140280861Y-115722375D01*
X140192621Y-115607379D01*
X140077625Y-115519139D01*
X140077621Y-115519137D01*
X139943709Y-115463670D01*
X139943708Y-115463669D01*
X139800000Y-115444750D01*
X139656291Y-115463669D01*
X139656290Y-115463670D01*
X139522378Y-115519137D01*
X139522374Y-115519139D01*
X139407381Y-115607377D01*
X139407377Y-115607381D01*
X139319139Y-115722374D01*
X139319137Y-115722378D01*
X139263670Y-115856290D01*
X139263669Y-115856291D01*
X139244750Y-115999999D01*
X134913013Y-115999999D01*
X134880861Y-115922375D01*
X134792621Y-115807379D01*
X134677625Y-115719139D01*
X134677621Y-115719137D01*
X134543709Y-115663670D01*
X134543708Y-115663669D01*
X134400000Y-115644750D01*
X134256291Y-115663669D01*
X134256290Y-115663670D01*
X134122378Y-115719137D01*
X134122374Y-115719139D01*
X134007381Y-115807377D01*
X134007377Y-115807381D01*
X133919139Y-115922374D01*
X133919137Y-115922378D01*
X133863670Y-116056290D01*
X133863669Y-116056291D01*
X133844750Y-116199999D01*
X132775644Y-116199999D01*
X132748528Y-116146780D01*
X132653220Y-116051472D01*
X132653217Y-116051470D01*
X132533129Y-115990282D01*
X132533127Y-115990281D01*
X132400000Y-115969196D01*
X132266872Y-115990281D01*
X132266870Y-115990282D01*
X132146782Y-116051470D01*
X132051470Y-116146782D01*
X131990282Y-116266870D01*
X131990281Y-116266872D01*
X131969196Y-116399999D01*
X131575644Y-116399999D01*
X131548528Y-116346780D01*
X131453220Y-116251472D01*
X131453217Y-116251470D01*
X131333129Y-116190282D01*
X131333127Y-116190281D01*
X131200000Y-116169196D01*
X131066872Y-116190281D01*
X131066870Y-116190282D01*
X130946782Y-116251470D01*
X130851470Y-116346782D01*
X130790282Y-116466870D01*
X130790281Y-116466872D01*
X130769196Y-116599999D01*
X130113014Y-116599999D01*
X130136330Y-116543709D01*
X130155250Y-116400000D01*
X130148473Y-116348528D01*
X130136330Y-116256291D01*
X130080861Y-116122375D01*
X129992621Y-116007379D01*
X129877625Y-115919139D01*
X129877621Y-115919137D01*
X129743709Y-115863670D01*
X129743708Y-115863669D01*
X129600000Y-115844750D01*
X129456291Y-115863669D01*
X129456290Y-115863670D01*
X129322378Y-115919137D01*
X129322374Y-115919139D01*
X129207381Y-116007377D01*
X129207377Y-116007381D01*
X129119139Y-116122374D01*
X129119137Y-116122378D01*
X129063670Y-116256290D01*
X129063669Y-116256291D01*
X129044750Y-116399999D01*
X127175645Y-116399999D01*
X127209719Y-116333126D01*
X127230804Y-116200000D01*
X127209719Y-116066874D01*
X127148528Y-115946780D01*
X127053220Y-115851472D01*
X127053217Y-115851470D01*
X126933129Y-115790282D01*
X126933127Y-115790281D01*
X126800000Y-115769196D01*
X126666872Y-115790281D01*
X126666870Y-115790282D01*
X126546782Y-115851470D01*
X126451470Y-115946782D01*
X126390282Y-116066870D01*
X126390281Y-116066872D01*
X126369196Y-116199999D01*
X125500000Y-116199999D01*
X125500000Y-111799999D01*
X130369196Y-111799999D01*
X130369196Y-111800000D01*
X130390281Y-111933127D01*
X130390282Y-111933129D01*
X130419403Y-111990282D01*
X130451472Y-112053220D01*
X130546780Y-112148528D01*
X130666874Y-112209719D01*
X130698311Y-112214698D01*
X130752827Y-112242475D01*
X130780605Y-112296992D01*
X130780605Y-112327966D01*
X130769196Y-112399999D01*
X130769196Y-112400000D01*
X130790281Y-112533127D01*
X130790282Y-112533129D01*
X130851470Y-112653217D01*
X130851472Y-112653220D01*
X130946780Y-112748528D01*
X131066874Y-112809719D01*
X131200000Y-112830804D01*
X131333126Y-112809719D01*
X131453220Y-112748528D01*
X131548528Y-112653220D01*
X131609719Y-112533126D01*
X131630804Y-112400000D01*
X131609719Y-112266874D01*
X131548528Y-112146780D01*
X131453220Y-112051472D01*
X131453217Y-112051470D01*
X131333129Y-111990282D01*
X131333128Y-111990281D01*
X131301687Y-111985301D01*
X131247171Y-111957522D01*
X131219394Y-111903005D01*
X131219395Y-111872033D01*
X131230804Y-111800000D01*
X131230804Y-111799999D01*
X132569196Y-111799999D01*
X132569196Y-111800000D01*
X132590281Y-111933127D01*
X132590282Y-111933129D01*
X132619403Y-111990282D01*
X132651472Y-112053220D01*
X132746780Y-112148528D01*
X132866874Y-112209719D01*
X133000000Y-112230804D01*
X133133126Y-112209719D01*
X133253220Y-112148528D01*
X133348528Y-112053220D01*
X133409719Y-111933126D01*
X133430804Y-111800000D01*
X133409719Y-111666874D01*
X133348528Y-111546780D01*
X133253220Y-111451472D01*
X133253217Y-111451470D01*
X133133129Y-111390282D01*
X133133127Y-111390281D01*
X133000000Y-111369196D01*
X132866872Y-111390281D01*
X132866870Y-111390282D01*
X132746782Y-111451470D01*
X132651470Y-111546782D01*
X132590282Y-111666870D01*
X132590281Y-111666872D01*
X132569196Y-111799999D01*
X131230804Y-111799999D01*
X131226835Y-111774945D01*
X131209719Y-111666874D01*
X131148528Y-111546780D01*
X131053220Y-111451472D01*
X131053217Y-111451470D01*
X130933129Y-111390282D01*
X130933127Y-111390281D01*
X130800000Y-111369196D01*
X130666872Y-111390281D01*
X130666870Y-111390282D01*
X130546782Y-111451470D01*
X130451470Y-111546782D01*
X130390282Y-111666870D01*
X130390281Y-111666872D01*
X130369196Y-111799999D01*
X125500000Y-111799999D01*
X125500000Y-110799999D01*
X142769196Y-110799999D01*
X142769196Y-110800000D01*
X142790281Y-110933127D01*
X142790282Y-110933129D01*
X142851470Y-111053217D01*
X142851472Y-111053220D01*
X142946780Y-111148528D01*
X143066874Y-111209719D01*
X143200000Y-111230804D01*
X143333126Y-111209719D01*
X143453220Y-111148528D01*
X143548528Y-111053220D01*
X143548529Y-111053217D01*
X143554037Y-111047710D01*
X143555545Y-111049218D01*
X143596328Y-111019578D01*
X143657513Y-111019568D01*
X143707019Y-111055524D01*
X143718397Y-111075836D01*
X143719135Y-111077617D01*
X143719137Y-111077621D01*
X143719139Y-111077625D01*
X143807379Y-111192621D01*
X143922375Y-111280861D01*
X144056291Y-111336330D01*
X144200000Y-111355250D01*
X144343709Y-111336330D01*
X144477625Y-111280861D01*
X144539732Y-111233203D01*
X144597407Y-111212779D01*
X144656073Y-111230156D01*
X144660268Y-111233204D01*
X144722369Y-111280857D01*
X144722371Y-111280858D01*
X144722375Y-111280861D01*
X144856291Y-111336330D01*
X145000000Y-111355250D01*
X145143709Y-111336330D01*
X145277625Y-111280861D01*
X145392621Y-111192621D01*
X145480861Y-111077625D01*
X145536330Y-110943709D01*
X145555250Y-110800000D01*
X145555250Y-110799999D01*
X148169196Y-110799999D01*
X148169196Y-110800000D01*
X148190281Y-110933127D01*
X148190282Y-110933129D01*
X148251470Y-111053217D01*
X148251472Y-111053220D01*
X148346780Y-111148528D01*
X148466874Y-111209719D01*
X148600000Y-111230804D01*
X148733126Y-111209719D01*
X148853220Y-111148528D01*
X148948528Y-111053220D01*
X149009719Y-110933126D01*
X149030804Y-110800000D01*
X149009719Y-110666874D01*
X148948528Y-110546780D01*
X148853220Y-110451472D01*
X148853217Y-110451470D01*
X148752200Y-110399999D01*
X154269196Y-110399999D01*
X154269196Y-110400000D01*
X154290281Y-110533127D01*
X154290282Y-110533129D01*
X154324355Y-110600000D01*
X154351472Y-110653220D01*
X154446780Y-110748528D01*
X154566874Y-110809719D01*
X154700000Y-110830804D01*
X154833126Y-110809719D01*
X154852203Y-110799999D01*
X168969196Y-110799999D01*
X168969196Y-110800000D01*
X168990281Y-110933127D01*
X168990282Y-110933129D01*
X169051470Y-111053217D01*
X169051472Y-111053220D01*
X169146780Y-111148528D01*
X169266874Y-111209719D01*
X169400000Y-111230804D01*
X169533126Y-111209719D01*
X169653220Y-111148528D01*
X169748528Y-111053220D01*
X169809719Y-110933126D01*
X169830804Y-110800000D01*
X169809719Y-110666874D01*
X169775644Y-110599999D01*
X175969196Y-110599999D01*
X175969196Y-110600000D01*
X175990281Y-110733127D01*
X175990282Y-110733129D01*
X176029307Y-110809719D01*
X176051472Y-110853220D01*
X176146780Y-110948528D01*
X176266874Y-111009719D01*
X176400000Y-111030804D01*
X176533126Y-111009719D01*
X176653220Y-110948528D01*
X176748528Y-110853220D01*
X176809719Y-110733126D01*
X176830804Y-110600000D01*
X176830804Y-110599999D01*
X177569196Y-110599999D01*
X177569196Y-110600000D01*
X177590281Y-110733127D01*
X177590282Y-110733129D01*
X177629307Y-110809719D01*
X177651472Y-110853220D01*
X177746780Y-110948528D01*
X177866874Y-111009719D01*
X178000000Y-111030804D01*
X178133126Y-111009719D01*
X178253220Y-110948528D01*
X178348528Y-110853220D01*
X178409719Y-110733126D01*
X178430804Y-110600000D01*
X178409719Y-110466874D01*
X178348528Y-110346780D01*
X178253220Y-110251472D01*
X178253217Y-110251470D01*
X178133129Y-110190282D01*
X178133127Y-110190281D01*
X178000000Y-110169196D01*
X177866872Y-110190281D01*
X177866870Y-110190282D01*
X177746782Y-110251470D01*
X177651470Y-110346782D01*
X177590282Y-110466870D01*
X177590281Y-110466872D01*
X177569196Y-110599999D01*
X176830804Y-110599999D01*
X176809719Y-110466874D01*
X176748528Y-110346780D01*
X176653220Y-110251472D01*
X176653217Y-110251470D01*
X176533129Y-110190282D01*
X176533127Y-110190281D01*
X176400000Y-110169196D01*
X176266872Y-110190281D01*
X176266870Y-110190282D01*
X176146782Y-110251470D01*
X176051470Y-110346782D01*
X175990282Y-110466870D01*
X175990281Y-110466872D01*
X175969196Y-110599999D01*
X169775644Y-110599999D01*
X169748528Y-110546780D01*
X169653220Y-110451472D01*
X169653217Y-110451470D01*
X169533129Y-110390282D01*
X169533127Y-110390281D01*
X169400000Y-110369196D01*
X169266872Y-110390281D01*
X169266870Y-110390282D01*
X169146782Y-110451470D01*
X169051470Y-110546782D01*
X168990282Y-110666870D01*
X168990281Y-110666872D01*
X168969196Y-110799999D01*
X154852203Y-110799999D01*
X154953220Y-110748528D01*
X155048528Y-110653220D01*
X155109719Y-110533126D01*
X155130804Y-110400000D01*
X155109719Y-110266874D01*
X155108086Y-110263670D01*
X155048529Y-110146782D01*
X155048528Y-110146780D01*
X154953220Y-110051472D01*
X154953217Y-110051470D01*
X154833129Y-109990282D01*
X154833127Y-109990281D01*
X154700000Y-109969196D01*
X154566872Y-109990281D01*
X154566870Y-109990282D01*
X154446782Y-110051470D01*
X154351470Y-110146782D01*
X154290282Y-110266870D01*
X154290281Y-110266872D01*
X154269196Y-110399999D01*
X148752200Y-110399999D01*
X148733129Y-110390282D01*
X148733127Y-110390281D01*
X148600000Y-110369196D01*
X148466872Y-110390281D01*
X148466870Y-110390282D01*
X148346782Y-110451470D01*
X148251470Y-110546782D01*
X148190282Y-110666870D01*
X148190281Y-110666872D01*
X148169196Y-110799999D01*
X145555250Y-110799999D01*
X145548473Y-110748528D01*
X145536330Y-110656291D01*
X145480861Y-110522375D01*
X145392621Y-110407379D01*
X145277625Y-110319139D01*
X145277621Y-110319137D01*
X145143709Y-110263670D01*
X145143708Y-110263669D01*
X145000000Y-110244750D01*
X144856291Y-110263669D01*
X144856290Y-110263670D01*
X144722378Y-110319137D01*
X144722374Y-110319139D01*
X144660268Y-110366796D01*
X144602592Y-110387220D01*
X144543926Y-110369843D01*
X144539732Y-110366796D01*
X144515926Y-110348529D01*
X144477625Y-110319139D01*
X144477621Y-110319137D01*
X144343709Y-110263670D01*
X144343708Y-110263669D01*
X144200000Y-110244750D01*
X144056291Y-110263669D01*
X144056290Y-110263670D01*
X143922378Y-110319137D01*
X143922374Y-110319139D01*
X143807381Y-110407377D01*
X143807377Y-110407381D01*
X143719139Y-110522374D01*
X143719136Y-110522380D01*
X143718396Y-110524167D01*
X143717497Y-110525218D01*
X143715896Y-110527993D01*
X143715381Y-110527695D01*
X143678653Y-110570688D01*
X143619157Y-110584965D01*
X143562632Y-110561544D01*
X143554059Y-110552267D01*
X143554037Y-110552290D01*
X143548529Y-110546782D01*
X143548528Y-110546780D01*
X143453220Y-110451472D01*
X143453217Y-110451470D01*
X143333129Y-110390282D01*
X143333127Y-110390281D01*
X143200000Y-110369196D01*
X143066872Y-110390281D01*
X143066870Y-110390282D01*
X142946782Y-110451470D01*
X142851470Y-110546782D01*
X142790282Y-110666870D01*
X142790281Y-110666872D01*
X142769196Y-110799999D01*
X125500000Y-110799999D01*
X125500000Y-109799999D01*
X136069196Y-109799999D01*
X136069196Y-109800000D01*
X136090281Y-109933127D01*
X136090282Y-109933129D01*
X136151470Y-110053217D01*
X136151472Y-110053220D01*
X136246780Y-110148528D01*
X136366874Y-110209719D01*
X136500000Y-110230804D01*
X136633126Y-110209719D01*
X136753220Y-110148528D01*
X136848528Y-110053220D01*
X136909719Y-109933126D01*
X136930804Y-109800000D01*
X136914965Y-109699999D01*
X137769196Y-109699999D01*
X137769196Y-109700000D01*
X137790281Y-109833127D01*
X137790282Y-109833129D01*
X137841234Y-109933127D01*
X137851472Y-109953220D01*
X137946780Y-110048528D01*
X138066874Y-110109719D01*
X138200000Y-110130804D01*
X138333126Y-110109719D01*
X138446240Y-110052084D01*
X138506668Y-110042513D01*
X138561185Y-110070290D01*
X138588963Y-110124804D01*
X138590281Y-110133128D01*
X138590282Y-110133129D01*
X138650580Y-110251470D01*
X138651472Y-110253220D01*
X138746780Y-110348528D01*
X138746782Y-110348529D01*
X138862277Y-110407377D01*
X138866874Y-110409719D01*
X139000000Y-110430804D01*
X139133126Y-110409719D01*
X139253220Y-110348528D01*
X139348528Y-110253220D01*
X139409719Y-110133126D01*
X139430804Y-110000000D01*
X139414965Y-109899999D01*
X139669196Y-109899999D01*
X139669196Y-109900000D01*
X139690281Y-110033127D01*
X139690282Y-110033129D01*
X139751470Y-110153217D01*
X139751472Y-110153220D01*
X139846780Y-110248528D01*
X139966874Y-110309719D01*
X140100000Y-110330804D01*
X140233126Y-110309719D01*
X140353220Y-110248528D01*
X140448528Y-110153220D01*
X140509719Y-110033126D01*
X140530804Y-109900000D01*
X140509719Y-109766874D01*
X140448528Y-109646780D01*
X140353220Y-109551472D01*
X140353217Y-109551470D01*
X140233129Y-109490282D01*
X140233127Y-109490281D01*
X140100000Y-109469196D01*
X139966872Y-109490281D01*
X139966870Y-109490282D01*
X139846782Y-109551470D01*
X139751470Y-109646782D01*
X139690282Y-109766870D01*
X139690281Y-109766872D01*
X139669196Y-109899999D01*
X139414965Y-109899999D01*
X139409719Y-109866874D01*
X139348528Y-109746780D01*
X139253220Y-109651472D01*
X139218569Y-109633816D01*
X139175306Y-109590553D01*
X139165735Y-109530120D01*
X139175305Y-109500665D01*
X139209719Y-109433126D01*
X139214966Y-109399999D01*
X144169196Y-109399999D01*
X144169196Y-109400000D01*
X144190281Y-109533127D01*
X144190282Y-109533129D01*
X144250581Y-109651472D01*
X144251472Y-109653220D01*
X144346780Y-109748528D01*
X144466874Y-109809719D01*
X144600000Y-109830804D01*
X144733126Y-109809719D01*
X144853220Y-109748528D01*
X144948528Y-109653220D01*
X145009719Y-109533126D01*
X145030804Y-109400000D01*
X145009719Y-109266874D01*
X144948528Y-109146780D01*
X144853220Y-109051472D01*
X144853217Y-109051470D01*
X144733129Y-108990282D01*
X144733127Y-108990281D01*
X144600000Y-108969196D01*
X144466872Y-108990281D01*
X144466870Y-108990282D01*
X144346782Y-109051470D01*
X144251470Y-109146782D01*
X144190282Y-109266870D01*
X144190281Y-109266872D01*
X144169196Y-109399999D01*
X139214966Y-109399999D01*
X139230804Y-109300000D01*
X139209719Y-109166874D01*
X139209718Y-109166872D01*
X139209717Y-109166870D01*
X139148529Y-109046782D01*
X139148528Y-109046780D01*
X139053220Y-108951472D01*
X139053217Y-108951470D01*
X138933129Y-108890282D01*
X138925718Y-108887874D01*
X138926152Y-108886535D01*
X138879156Y-108862583D01*
X138851384Y-108808063D01*
X138860962Y-108747632D01*
X138879161Y-108722586D01*
X138948528Y-108653220D01*
X138975645Y-108599999D01*
X155769196Y-108599999D01*
X155769196Y-108600000D01*
X155790281Y-108733127D01*
X155790282Y-108733129D01*
X155831216Y-108813466D01*
X155851472Y-108853220D01*
X155946780Y-108948528D01*
X156066874Y-109009719D01*
X156200000Y-109030804D01*
X156333126Y-109009719D01*
X156453220Y-108948528D01*
X156453221Y-108948526D01*
X156455054Y-108947593D01*
X156515486Y-108938021D01*
X156544946Y-108947593D01*
X156546778Y-108948526D01*
X156546780Y-108948528D01*
X156666874Y-109009719D01*
X156800000Y-109030804D01*
X156933126Y-109009719D01*
X157053220Y-108948528D01*
X157053221Y-108948526D01*
X157055054Y-108947593D01*
X157115486Y-108938021D01*
X157144946Y-108947593D01*
X157146778Y-108948526D01*
X157146780Y-108948528D01*
X157266874Y-109009719D01*
X157400000Y-109030804D01*
X157533126Y-109009719D01*
X157552203Y-108999999D01*
X175969196Y-108999999D01*
X175969196Y-109000000D01*
X175990281Y-109133127D01*
X175990282Y-109133129D01*
X176051470Y-109253217D01*
X176051472Y-109253220D01*
X176146780Y-109348528D01*
X176266874Y-109409719D01*
X176400000Y-109430804D01*
X176533126Y-109409719D01*
X176653220Y-109348528D01*
X176748528Y-109253220D01*
X176809719Y-109133126D01*
X176830804Y-109000000D01*
X176809719Y-108866874D01*
X176748528Y-108746780D01*
X176653220Y-108651472D01*
X176653217Y-108651470D01*
X176533129Y-108590282D01*
X176533127Y-108590281D01*
X176400000Y-108569196D01*
X176266872Y-108590281D01*
X176266870Y-108590282D01*
X176146782Y-108651470D01*
X176051470Y-108746782D01*
X175990282Y-108866870D01*
X175990281Y-108866872D01*
X175969196Y-108999999D01*
X157552203Y-108999999D01*
X157653220Y-108948528D01*
X157748528Y-108853220D01*
X157809719Y-108733126D01*
X157830804Y-108600000D01*
X157809719Y-108466874D01*
X157775644Y-108399999D01*
X159169196Y-108399999D01*
X159169196Y-108400000D01*
X159190281Y-108533127D01*
X159190282Y-108533129D01*
X159224355Y-108600000D01*
X159251472Y-108653220D01*
X159346780Y-108748528D01*
X159466874Y-108809719D01*
X159600000Y-108830804D01*
X159733126Y-108809719D01*
X159853220Y-108748528D01*
X159948528Y-108653220D01*
X160009719Y-108533126D01*
X160030804Y-108400000D01*
X160030804Y-108399999D01*
X168369196Y-108399999D01*
X168369196Y-108400000D01*
X168390281Y-108533127D01*
X168390282Y-108533129D01*
X168424355Y-108600000D01*
X168451472Y-108653220D01*
X168546780Y-108748528D01*
X168666874Y-108809719D01*
X168800000Y-108830804D01*
X168933126Y-108809719D01*
X169053220Y-108748528D01*
X169148528Y-108653220D01*
X169209719Y-108533126D01*
X169230804Y-108400000D01*
X169209719Y-108266874D01*
X169148528Y-108146780D01*
X169053220Y-108051472D01*
X169053217Y-108051470D01*
X168933129Y-107990282D01*
X168933127Y-107990281D01*
X168800000Y-107969196D01*
X168666872Y-107990281D01*
X168666870Y-107990282D01*
X168546782Y-108051470D01*
X168451470Y-108146782D01*
X168390282Y-108266870D01*
X168390281Y-108266872D01*
X168369196Y-108399999D01*
X160030804Y-108399999D01*
X160009719Y-108266874D01*
X159948528Y-108146780D01*
X159948526Y-108146778D01*
X159943947Y-108140475D01*
X159945072Y-108139657D01*
X159921105Y-108092618D01*
X159930676Y-108032186D01*
X159973937Y-107988924D01*
X160053220Y-107948528D01*
X160148528Y-107853220D01*
X160209719Y-107733126D01*
X160230804Y-107600000D01*
X160209719Y-107466874D01*
X160148528Y-107346780D01*
X160053220Y-107251472D01*
X160053217Y-107251470D01*
X159933129Y-107190282D01*
X159933127Y-107190281D01*
X159800000Y-107169196D01*
X159666872Y-107190281D01*
X159666870Y-107190282D01*
X159546782Y-107251470D01*
X159451470Y-107346782D01*
X159390282Y-107466870D01*
X159390281Y-107466872D01*
X159369196Y-107599999D01*
X159369196Y-107600000D01*
X159390281Y-107733127D01*
X159390282Y-107733129D01*
X159451470Y-107853217D01*
X159456053Y-107859525D01*
X159454927Y-107860342D01*
X159478894Y-107907381D01*
X159469323Y-107967813D01*
X159426059Y-108011077D01*
X159346781Y-108051471D01*
X159251470Y-108146782D01*
X159190282Y-108266870D01*
X159190281Y-108266872D01*
X159169196Y-108399999D01*
X157775644Y-108399999D01*
X157748528Y-108346780D01*
X157653220Y-108251472D01*
X157653217Y-108251470D01*
X157533129Y-108190282D01*
X157533127Y-108190281D01*
X157400000Y-108169196D01*
X157266874Y-108190281D01*
X157144945Y-108252407D01*
X157084513Y-108261978D01*
X157055055Y-108252407D01*
X157053216Y-108251470D01*
X156933126Y-108190281D01*
X156800000Y-108169196D01*
X156666874Y-108190281D01*
X156544945Y-108252407D01*
X156484513Y-108261978D01*
X156455055Y-108252407D01*
X156453216Y-108251470D01*
X156333126Y-108190281D01*
X156200000Y-108169196D01*
X156066872Y-108190281D01*
X156066870Y-108190282D01*
X155946782Y-108251470D01*
X155851470Y-108346782D01*
X155790282Y-108466870D01*
X155790281Y-108466872D01*
X155769196Y-108599999D01*
X138975645Y-108599999D01*
X139009719Y-108533126D01*
X139030804Y-108400000D01*
X139009719Y-108266874D01*
X138948528Y-108146780D01*
X138853220Y-108051472D01*
X138853217Y-108051470D01*
X138733129Y-107990282D01*
X138733127Y-107990281D01*
X138600000Y-107969196D01*
X138466872Y-107990281D01*
X138466870Y-107990282D01*
X138346782Y-108051470D01*
X138251470Y-108146782D01*
X138190282Y-108266870D01*
X138190281Y-108266872D01*
X138169196Y-108399999D01*
X138169196Y-108400000D01*
X138190281Y-108533127D01*
X138190282Y-108533129D01*
X138224355Y-108600000D01*
X138251472Y-108653220D01*
X138346780Y-108748528D01*
X138466874Y-108809719D01*
X138466878Y-108809719D01*
X138474282Y-108812126D01*
X138473846Y-108813466D01*
X138520835Y-108837408D01*
X138548613Y-108891925D01*
X138539042Y-108952357D01*
X138520836Y-108977415D01*
X138451473Y-109046778D01*
X138451470Y-109046782D01*
X138390282Y-109166870D01*
X138390281Y-109166871D01*
X138385301Y-109198313D01*
X138357522Y-109252829D01*
X138303005Y-109280606D01*
X138272033Y-109280605D01*
X138200000Y-109269196D01*
X138066872Y-109290281D01*
X138066870Y-109290282D01*
X137946782Y-109351470D01*
X137851470Y-109446782D01*
X137790282Y-109566870D01*
X137790281Y-109566872D01*
X137769196Y-109699999D01*
X136914965Y-109699999D01*
X136909719Y-109666874D01*
X136848528Y-109546780D01*
X136753220Y-109451472D01*
X136753217Y-109451470D01*
X136633129Y-109390282D01*
X136633127Y-109390281D01*
X136500000Y-109369196D01*
X136366872Y-109390281D01*
X136366870Y-109390282D01*
X136246782Y-109451470D01*
X136151470Y-109546782D01*
X136090282Y-109666870D01*
X136090281Y-109666872D01*
X136069196Y-109799999D01*
X125500000Y-109799999D01*
X125500000Y-107199999D01*
X153569196Y-107199999D01*
X153569196Y-107200000D01*
X153590281Y-107333127D01*
X153590282Y-107333129D01*
X153597238Y-107346780D01*
X153651472Y-107453220D01*
X153746780Y-107548528D01*
X153866874Y-107609719D01*
X154000000Y-107630804D01*
X154133126Y-107609719D01*
X154253220Y-107548528D01*
X154348528Y-107453220D01*
X154409719Y-107333126D01*
X154430804Y-107200000D01*
X154409719Y-107066874D01*
X154348528Y-106946780D01*
X154253220Y-106851472D01*
X154253217Y-106851470D01*
X154133129Y-106790282D01*
X154133127Y-106790281D01*
X154000000Y-106769196D01*
X153866872Y-106790281D01*
X153866870Y-106790282D01*
X153746782Y-106851470D01*
X153651470Y-106946782D01*
X153590282Y-107066870D01*
X153590281Y-107066872D01*
X153569196Y-107199999D01*
X125500000Y-107199999D01*
X125500000Y-105799999D01*
X153369196Y-105799999D01*
X153369196Y-105800000D01*
X153390281Y-105933127D01*
X153390282Y-105933129D01*
X153451470Y-106053217D01*
X153451472Y-106053220D01*
X153546780Y-106148528D01*
X153666874Y-106209719D01*
X153800000Y-106230804D01*
X153933126Y-106209719D01*
X154053220Y-106148528D01*
X154148528Y-106053220D01*
X154209719Y-105933126D01*
X154230804Y-105800000D01*
X154219394Y-105727963D01*
X154228965Y-105667535D01*
X154272229Y-105624270D01*
X154301688Y-105614698D01*
X154333126Y-105609719D01*
X154453220Y-105548528D01*
X154548528Y-105453220D01*
X154609719Y-105333126D01*
X154630804Y-105200000D01*
X154609719Y-105066874D01*
X154575644Y-104999999D01*
X160469196Y-104999999D01*
X160469196Y-105000000D01*
X160490281Y-105133127D01*
X160490282Y-105133129D01*
X160524355Y-105200000D01*
X160551472Y-105253220D01*
X160646780Y-105348528D01*
X160766874Y-105409719D01*
X160900000Y-105430804D01*
X161033126Y-105409719D01*
X161153220Y-105348528D01*
X161248528Y-105253220D01*
X161309719Y-105133126D01*
X161330149Y-105004134D01*
X161357925Y-104949620D01*
X161412441Y-104921842D01*
X161443416Y-104921842D01*
X161500000Y-104930804D01*
X161633126Y-104909719D01*
X161753220Y-104848528D01*
X161848528Y-104753220D01*
X161909719Y-104633126D01*
X161930804Y-104500000D01*
X161909719Y-104366874D01*
X161848528Y-104246780D01*
X161753220Y-104151472D01*
X161753217Y-104151470D01*
X161633129Y-104090282D01*
X161633127Y-104090281D01*
X161500000Y-104069196D01*
X161366872Y-104090281D01*
X161366870Y-104090282D01*
X161246782Y-104151470D01*
X161151470Y-104246782D01*
X161090282Y-104366870D01*
X161090281Y-104366872D01*
X161069850Y-104495864D01*
X161042072Y-104550380D01*
X160987555Y-104578157D01*
X160956583Y-104578157D01*
X160900002Y-104569196D01*
X160900000Y-104569196D01*
X160766872Y-104590281D01*
X160766870Y-104590282D01*
X160646782Y-104651470D01*
X160551470Y-104746782D01*
X160490282Y-104866870D01*
X160490281Y-104866872D01*
X160469196Y-104999999D01*
X154575644Y-104999999D01*
X154548528Y-104946780D01*
X154453220Y-104851472D01*
X154453217Y-104851470D01*
X154333129Y-104790282D01*
X154333127Y-104790281D01*
X154200000Y-104769196D01*
X154066872Y-104790281D01*
X154066870Y-104790282D01*
X153946782Y-104851470D01*
X153851470Y-104946782D01*
X153790282Y-105066870D01*
X153790281Y-105066872D01*
X153769196Y-105199999D01*
X153769196Y-105200000D01*
X153780605Y-105272033D01*
X153771034Y-105332465D01*
X153727769Y-105375730D01*
X153698313Y-105385301D01*
X153666871Y-105390281D01*
X153666870Y-105390282D01*
X153546782Y-105451470D01*
X153451470Y-105546782D01*
X153390282Y-105666870D01*
X153390281Y-105666872D01*
X153369196Y-105799999D01*
X125500000Y-105799999D01*
X125500000Y-104199999D01*
X143569196Y-104199999D01*
X143569196Y-104200000D01*
X143590281Y-104333127D01*
X143590282Y-104333129D01*
X143607474Y-104366870D01*
X143651472Y-104453220D01*
X143746780Y-104548528D01*
X143866874Y-104609719D01*
X144000000Y-104630804D01*
X144133126Y-104609719D01*
X144253220Y-104548528D01*
X144348528Y-104453220D01*
X144409719Y-104333126D01*
X144430804Y-104200000D01*
X144430804Y-104199999D01*
X150569196Y-104199999D01*
X150569196Y-104200000D01*
X150590281Y-104333127D01*
X150590282Y-104333129D01*
X150607474Y-104366870D01*
X150651472Y-104453220D01*
X150746780Y-104548528D01*
X150866874Y-104609719D01*
X151000000Y-104630804D01*
X151133126Y-104609719D01*
X151253220Y-104548528D01*
X151348528Y-104453220D01*
X151409719Y-104333126D01*
X151430804Y-104200000D01*
X151409719Y-104066874D01*
X151348528Y-103946780D01*
X151253220Y-103851472D01*
X151253217Y-103851470D01*
X151133129Y-103790282D01*
X151133127Y-103790281D01*
X151000000Y-103769196D01*
X150866872Y-103790281D01*
X150866870Y-103790282D01*
X150746782Y-103851470D01*
X150651470Y-103946782D01*
X150590282Y-104066870D01*
X150590281Y-104066872D01*
X150569196Y-104199999D01*
X144430804Y-104199999D01*
X144409719Y-104066874D01*
X144348528Y-103946780D01*
X144253220Y-103851472D01*
X144253217Y-103851470D01*
X144133129Y-103790282D01*
X144133127Y-103790281D01*
X144000000Y-103769196D01*
X143866872Y-103790281D01*
X143866870Y-103790282D01*
X143746782Y-103851470D01*
X143651470Y-103946782D01*
X143590282Y-104066870D01*
X143590281Y-104066872D01*
X143569196Y-104199999D01*
X125500000Y-104199999D01*
X125500000Y-103599999D01*
X144969196Y-103599999D01*
X144969196Y-103600000D01*
X144990281Y-103733127D01*
X144990282Y-103733129D01*
X145024355Y-103800000D01*
X145051472Y-103853220D01*
X145146780Y-103948528D01*
X145266874Y-104009719D01*
X145400000Y-104030804D01*
X145533126Y-104009719D01*
X145653220Y-103948528D01*
X145748528Y-103853220D01*
X145809719Y-103733126D01*
X145823304Y-103647352D01*
X145851081Y-103592836D01*
X145905598Y-103565059D01*
X145966030Y-103574630D01*
X145991085Y-103592833D01*
X146046780Y-103648528D01*
X146166874Y-103709719D01*
X146300000Y-103730804D01*
X146433126Y-103709719D01*
X146553220Y-103648528D01*
X146648528Y-103553220D01*
X146688923Y-103473939D01*
X146732185Y-103430677D01*
X146792617Y-103421105D01*
X146839657Y-103445072D01*
X146840475Y-103443947D01*
X146846778Y-103448526D01*
X146846780Y-103448528D01*
X146966874Y-103509719D01*
X147100000Y-103530804D01*
X147233126Y-103509719D01*
X147353220Y-103448528D01*
X147448528Y-103353220D01*
X147475645Y-103299999D01*
X149569196Y-103299999D01*
X149569196Y-103300000D01*
X149590281Y-103433127D01*
X149590282Y-103433129D01*
X149650006Y-103550343D01*
X149651472Y-103553220D01*
X149746780Y-103648528D01*
X149866874Y-103709719D01*
X150000000Y-103730804D01*
X150133126Y-103709719D01*
X150253220Y-103648528D01*
X150348528Y-103553220D01*
X150409719Y-103433126D01*
X150430804Y-103300000D01*
X150409719Y-103166874D01*
X150348528Y-103046780D01*
X150253220Y-102951472D01*
X150253217Y-102951470D01*
X150133129Y-102890282D01*
X150133127Y-102890281D01*
X150000000Y-102869196D01*
X149866872Y-102890281D01*
X149866870Y-102890282D01*
X149746782Y-102951470D01*
X149651470Y-103046782D01*
X149590282Y-103166870D01*
X149590281Y-103166872D01*
X149569196Y-103299999D01*
X147475645Y-103299999D01*
X147509719Y-103233126D01*
X147530804Y-103100000D01*
X147509719Y-102966874D01*
X147448528Y-102846780D01*
X147353220Y-102751472D01*
X147353217Y-102751470D01*
X147233129Y-102690282D01*
X147233127Y-102690281D01*
X147100000Y-102669196D01*
X146966872Y-102690281D01*
X146966870Y-102690282D01*
X146846782Y-102751470D01*
X146751471Y-102846781D01*
X146711077Y-102926059D01*
X146667812Y-102969323D01*
X146607380Y-102978894D01*
X146560342Y-102954927D01*
X146559525Y-102956053D01*
X146553217Y-102951470D01*
X146433129Y-102890282D01*
X146433127Y-102890281D01*
X146300000Y-102869196D01*
X146166872Y-102890281D01*
X146166870Y-102890282D01*
X146046782Y-102951470D01*
X145951470Y-103046782D01*
X145890282Y-103166870D01*
X145890281Y-103166872D01*
X145876695Y-103252647D01*
X145848917Y-103307163D01*
X145794400Y-103334940D01*
X145733968Y-103325368D01*
X145708913Y-103307165D01*
X145653220Y-103251472D01*
X145653217Y-103251470D01*
X145533129Y-103190282D01*
X145533127Y-103190281D01*
X145400000Y-103169196D01*
X145266872Y-103190281D01*
X145266870Y-103190282D01*
X145146782Y-103251470D01*
X145051470Y-103346782D01*
X144990282Y-103466870D01*
X144990281Y-103466872D01*
X144969196Y-103599999D01*
X125500000Y-103599999D01*
X125500000Y-101599999D01*
X136769196Y-101599999D01*
X136769196Y-101600000D01*
X136790281Y-101733127D01*
X136790282Y-101733129D01*
X136851470Y-101853217D01*
X136851472Y-101853220D01*
X136946780Y-101948528D01*
X137066874Y-102009719D01*
X137200000Y-102030804D01*
X137333126Y-102009719D01*
X137352203Y-101999999D01*
X139969196Y-101999999D01*
X139969196Y-102000000D01*
X139990281Y-102133127D01*
X139990282Y-102133129D01*
X140041234Y-102233127D01*
X140051472Y-102253220D01*
X140146780Y-102348528D01*
X140266874Y-102409719D01*
X140400000Y-102430804D01*
X140533126Y-102409719D01*
X140552203Y-102399999D01*
X142169196Y-102399999D01*
X142169196Y-102400000D01*
X142190281Y-102533127D01*
X142190282Y-102533129D01*
X142251470Y-102653217D01*
X142251472Y-102653220D01*
X142346780Y-102748528D01*
X142466874Y-102809719D01*
X142600000Y-102830804D01*
X142733126Y-102809719D01*
X142853220Y-102748528D01*
X142948528Y-102653220D01*
X143009719Y-102533126D01*
X143025692Y-102432274D01*
X143053469Y-102377759D01*
X143107986Y-102349981D01*
X143168414Y-102359551D01*
X143266874Y-102409719D01*
X143400000Y-102430804D01*
X143533126Y-102409719D01*
X143653220Y-102348528D01*
X143748528Y-102253220D01*
X143806634Y-102139179D01*
X143849897Y-102095917D01*
X143910329Y-102086346D01*
X143939788Y-102095918D01*
X143966874Y-102109719D01*
X144100000Y-102130804D01*
X144233126Y-102109719D01*
X144353220Y-102048528D01*
X144448528Y-101953220D01*
X144509719Y-101833126D01*
X144530804Y-101700000D01*
X144509719Y-101566874D01*
X144448528Y-101446780D01*
X144353220Y-101351472D01*
X144353217Y-101351470D01*
X144233129Y-101290282D01*
X144233127Y-101290281D01*
X144100000Y-101269196D01*
X143966872Y-101290281D01*
X143966870Y-101290282D01*
X143846782Y-101351470D01*
X143751471Y-101446781D01*
X143693366Y-101560818D01*
X143650101Y-101604082D01*
X143589669Y-101613653D01*
X143560212Y-101604082D01*
X143559300Y-101603617D01*
X143533126Y-101590281D01*
X143400000Y-101569196D01*
X143266872Y-101590281D01*
X143266870Y-101590282D01*
X143146782Y-101651470D01*
X143051470Y-101746782D01*
X142990282Y-101866870D01*
X142990281Y-101866872D01*
X142974307Y-101967725D01*
X142946529Y-102022241D01*
X142892012Y-102050018D01*
X142831581Y-102040446D01*
X142733129Y-101990282D01*
X142733127Y-101990281D01*
X142600000Y-101969196D01*
X142466872Y-101990281D01*
X142466870Y-101990282D01*
X142346782Y-102051470D01*
X142251470Y-102146782D01*
X142190282Y-102266870D01*
X142190281Y-102266872D01*
X142169196Y-102399999D01*
X140552203Y-102399999D01*
X140653220Y-102348528D01*
X140748528Y-102253220D01*
X140809719Y-102133126D01*
X140830804Y-102000000D01*
X140809719Y-101866874D01*
X140748528Y-101746780D01*
X140653220Y-101651472D01*
X140653217Y-101651470D01*
X140533129Y-101590282D01*
X140533127Y-101590281D01*
X140400000Y-101569196D01*
X140266872Y-101590281D01*
X140266870Y-101590282D01*
X140146782Y-101651470D01*
X140051470Y-101746782D01*
X139990282Y-101866870D01*
X139990281Y-101866872D01*
X139969196Y-101999999D01*
X137352203Y-101999999D01*
X137453220Y-101948528D01*
X137548528Y-101853220D01*
X137609719Y-101733126D01*
X137630804Y-101600000D01*
X137609719Y-101466874D01*
X137548528Y-101346780D01*
X137453220Y-101251472D01*
X137453217Y-101251470D01*
X137333129Y-101190282D01*
X137333127Y-101190281D01*
X137200000Y-101169196D01*
X137066872Y-101190281D01*
X137066870Y-101190282D01*
X136946782Y-101251470D01*
X136851470Y-101346782D01*
X136790282Y-101466870D01*
X136790281Y-101466872D01*
X136769196Y-101599999D01*
X125500000Y-101599999D01*
X125500000Y-100799999D01*
X134569196Y-100799999D01*
X134569196Y-100800000D01*
X134590281Y-100933127D01*
X134590282Y-100933129D01*
X134651470Y-101053217D01*
X134651472Y-101053220D01*
X134746780Y-101148528D01*
X134866874Y-101209719D01*
X135000000Y-101230804D01*
X135133126Y-101209719D01*
X135253220Y-101148528D01*
X135348528Y-101053220D01*
X135409719Y-100933126D01*
X135430804Y-100800000D01*
X135430804Y-100799999D01*
X145769196Y-100799999D01*
X145769196Y-100800000D01*
X145790281Y-100933127D01*
X145790282Y-100933129D01*
X145851470Y-101053217D01*
X145851472Y-101053220D01*
X145946780Y-101148528D01*
X146066874Y-101209719D01*
X146188847Y-101229037D01*
X146243362Y-101256814D01*
X146271140Y-101311331D01*
X146261569Y-101371763D01*
X146218305Y-101415027D01*
X146146781Y-101451471D01*
X146051470Y-101546782D01*
X145990282Y-101666870D01*
X145990281Y-101666872D01*
X145969196Y-101799999D01*
X145969196Y-101800000D01*
X145990281Y-101933127D01*
X145990282Y-101933129D01*
X146049840Y-102050018D01*
X146051472Y-102053220D01*
X146146780Y-102148528D01*
X146266874Y-102209719D01*
X146400000Y-102230804D01*
X146533126Y-102209719D01*
X146653220Y-102148528D01*
X146701749Y-102099999D01*
X147969196Y-102099999D01*
X147969196Y-102100000D01*
X147990281Y-102233127D01*
X147990282Y-102233129D01*
X148051470Y-102353217D01*
X148051472Y-102353220D01*
X148146780Y-102448528D01*
X148266874Y-102509719D01*
X148400000Y-102530804D01*
X148533126Y-102509719D01*
X148653220Y-102448528D01*
X148748528Y-102353220D01*
X148792369Y-102267176D01*
X148835633Y-102223913D01*
X148896063Y-102214342D01*
X149000000Y-102230804D01*
X149133126Y-102209719D01*
X149253220Y-102148528D01*
X149253219Y-102148528D01*
X149260162Y-102144991D01*
X149261947Y-102148494D01*
X149303214Y-102134191D01*
X149361763Y-102151960D01*
X149393352Y-102188225D01*
X149426469Y-102253220D01*
X149521777Y-102348528D01*
X149641871Y-102409719D01*
X149774997Y-102430804D01*
X149908123Y-102409719D01*
X150028217Y-102348528D01*
X150028220Y-102348525D01*
X150029309Y-102347735D01*
X150030588Y-102347319D01*
X150035160Y-102344990D01*
X150035528Y-102345714D01*
X150087499Y-102328828D01*
X150139469Y-102345714D01*
X150139838Y-102344991D01*
X150144403Y-102347317D01*
X150145689Y-102347735D01*
X150146778Y-102348526D01*
X150146780Y-102348528D01*
X150266874Y-102409719D01*
X150400000Y-102430804D01*
X150533126Y-102409719D01*
X150653220Y-102348528D01*
X150701749Y-102299999D01*
X153769196Y-102299999D01*
X153769196Y-102300000D01*
X153790281Y-102433127D01*
X153790282Y-102433129D01*
X153851470Y-102553217D01*
X153851472Y-102553220D01*
X153946780Y-102648528D01*
X154066874Y-102709719D01*
X154200000Y-102730804D01*
X154256582Y-102721842D01*
X154317014Y-102731413D01*
X154360278Y-102774677D01*
X154369850Y-102804135D01*
X154390281Y-102933127D01*
X154390282Y-102933129D01*
X154451470Y-103053217D01*
X154451472Y-103053220D01*
X154546780Y-103148528D01*
X154666874Y-103209719D01*
X154800000Y-103230804D01*
X154933126Y-103209719D01*
X154952201Y-103200000D01*
X169169196Y-103200000D01*
X169190281Y-103333126D01*
X169235109Y-103421105D01*
X169252407Y-103455055D01*
X169261978Y-103515487D01*
X169252407Y-103544945D01*
X169190281Y-103666874D01*
X169169196Y-103799999D01*
X169169196Y-103800000D01*
X169190281Y-103933127D01*
X169190282Y-103933129D01*
X169229307Y-104009719D01*
X169251472Y-104053220D01*
X169346780Y-104148528D01*
X169466874Y-104209719D01*
X169600000Y-104230804D01*
X169733126Y-104209719D01*
X169853220Y-104148528D01*
X169948528Y-104053220D01*
X170009719Y-103933126D01*
X170030804Y-103800000D01*
X170020278Y-103733544D01*
X170029849Y-103673115D01*
X170073113Y-103629850D01*
X170133543Y-103620278D01*
X170200000Y-103630804D01*
X170333126Y-103609719D01*
X170453220Y-103548528D01*
X170453221Y-103548526D01*
X170455054Y-103547593D01*
X170515486Y-103538021D01*
X170544946Y-103547593D01*
X170546778Y-103548526D01*
X170546780Y-103548528D01*
X170666874Y-103609719D01*
X170800000Y-103630804D01*
X170933126Y-103609719D01*
X171053220Y-103548528D01*
X171148528Y-103453220D01*
X171209719Y-103333126D01*
X171230804Y-103200000D01*
X171230804Y-103199999D01*
X173569196Y-103199999D01*
X173569196Y-103200000D01*
X173590281Y-103333127D01*
X173590282Y-103333129D01*
X173651470Y-103453217D01*
X173651472Y-103453220D01*
X173746780Y-103548528D01*
X173866874Y-103609719D01*
X174000000Y-103630804D01*
X174133126Y-103609719D01*
X174253220Y-103548528D01*
X174348528Y-103453220D01*
X174409719Y-103333126D01*
X174430804Y-103200000D01*
X174409719Y-103066874D01*
X174348528Y-102946780D01*
X174253220Y-102851472D01*
X174253217Y-102851470D01*
X174133129Y-102790282D01*
X174133127Y-102790281D01*
X174000000Y-102769196D01*
X173866872Y-102790281D01*
X173866870Y-102790282D01*
X173746782Y-102851470D01*
X173651470Y-102946782D01*
X173590282Y-103066870D01*
X173590281Y-103066872D01*
X173569196Y-103199999D01*
X171230804Y-103199999D01*
X171209719Y-103066874D01*
X171148528Y-102946780D01*
X171053220Y-102851472D01*
X171053217Y-102851470D01*
X170933129Y-102790282D01*
X170933127Y-102790281D01*
X170800000Y-102769196D01*
X170666874Y-102790281D01*
X170544945Y-102852407D01*
X170484513Y-102861978D01*
X170455055Y-102852407D01*
X170444011Y-102846780D01*
X170333126Y-102790281D01*
X170200000Y-102769196D01*
X170066874Y-102790281D01*
X169944945Y-102852407D01*
X169884513Y-102861978D01*
X169855055Y-102852407D01*
X169844011Y-102846780D01*
X169733126Y-102790281D01*
X169600000Y-102769196D01*
X169466872Y-102790281D01*
X169466870Y-102790282D01*
X169346782Y-102851470D01*
X169251470Y-102946782D01*
X169190282Y-103066870D01*
X169190281Y-103066872D01*
X169174075Y-103169196D01*
X169169196Y-103200000D01*
X154952201Y-103200000D01*
X155053220Y-103148528D01*
X155148528Y-103053220D01*
X155209719Y-102933126D01*
X155230804Y-102800000D01*
X155209719Y-102666874D01*
X155148528Y-102546780D01*
X155053220Y-102451472D01*
X155053217Y-102451470D01*
X154933129Y-102390282D01*
X154933127Y-102390281D01*
X154800000Y-102369196D01*
X154799998Y-102369196D01*
X154743415Y-102378157D01*
X154682983Y-102368585D01*
X154639719Y-102325320D01*
X154630149Y-102295865D01*
X154609719Y-102166874D01*
X154548528Y-102046780D01*
X154453220Y-101951472D01*
X154453217Y-101951470D01*
X154333129Y-101890282D01*
X154333127Y-101890281D01*
X154200000Y-101869196D01*
X154066872Y-101890281D01*
X154066870Y-101890282D01*
X153946782Y-101951470D01*
X153851470Y-102046782D01*
X153790282Y-102166870D01*
X153790281Y-102166872D01*
X153769196Y-102299999D01*
X150701749Y-102299999D01*
X150748528Y-102253220D01*
X150809719Y-102133126D01*
X150830804Y-102000000D01*
X150809719Y-101866874D01*
X150775644Y-101799999D01*
X155969196Y-101799999D01*
X155969196Y-101800000D01*
X155990281Y-101933127D01*
X155990282Y-101933129D01*
X156049840Y-102050018D01*
X156051472Y-102053220D01*
X156146780Y-102148528D01*
X156266874Y-102209719D01*
X156400000Y-102230804D01*
X156533126Y-102209719D01*
X156653220Y-102148528D01*
X156748528Y-102053220D01*
X156809719Y-101933126D01*
X156830804Y-101800000D01*
X156830804Y-101799999D01*
X157769196Y-101799999D01*
X157769196Y-101800000D01*
X157790281Y-101933127D01*
X157790282Y-101933129D01*
X157849840Y-102050018D01*
X157851472Y-102053220D01*
X157946780Y-102148528D01*
X158066874Y-102209719D01*
X158200000Y-102230804D01*
X158333126Y-102209719D01*
X158453220Y-102148528D01*
X158548528Y-102053220D01*
X158609719Y-101933126D01*
X158630804Y-101800000D01*
X158630804Y-101799999D01*
X161169196Y-101799999D01*
X161169196Y-101800000D01*
X161190281Y-101933127D01*
X161190282Y-101933129D01*
X161249840Y-102050018D01*
X161251472Y-102053220D01*
X161346780Y-102148528D01*
X161466874Y-102209719D01*
X161600000Y-102230804D01*
X161733126Y-102209719D01*
X161853220Y-102148528D01*
X161948528Y-102053220D01*
X162009719Y-101933126D01*
X162030804Y-101800000D01*
X162030804Y-101799999D01*
X163369196Y-101799999D01*
X163369196Y-101800000D01*
X163390281Y-101933127D01*
X163390282Y-101933129D01*
X163449840Y-102050018D01*
X163451472Y-102053220D01*
X163546780Y-102148528D01*
X163666874Y-102209719D01*
X163800000Y-102230804D01*
X163933126Y-102209719D01*
X164053220Y-102148528D01*
X164148528Y-102053220D01*
X164209719Y-101933126D01*
X164230804Y-101800000D01*
X164209719Y-101666874D01*
X164209182Y-101665821D01*
X164148529Y-101546782D01*
X164148528Y-101546780D01*
X164053220Y-101451472D01*
X164053217Y-101451470D01*
X163933129Y-101390282D01*
X163933127Y-101390281D01*
X163800000Y-101369196D01*
X163666872Y-101390281D01*
X163666870Y-101390282D01*
X163546782Y-101451470D01*
X163451470Y-101546782D01*
X163390282Y-101666870D01*
X163390281Y-101666872D01*
X163369196Y-101799999D01*
X162030804Y-101799999D01*
X162009719Y-101666874D01*
X162009182Y-101665821D01*
X161948529Y-101546782D01*
X161948528Y-101546780D01*
X161853220Y-101451472D01*
X161853217Y-101451470D01*
X161733129Y-101390282D01*
X161733127Y-101390281D01*
X161600000Y-101369196D01*
X161466872Y-101390281D01*
X161466870Y-101390282D01*
X161346782Y-101451470D01*
X161251470Y-101546782D01*
X161190282Y-101666870D01*
X161190281Y-101666872D01*
X161169196Y-101799999D01*
X158630804Y-101799999D01*
X158609719Y-101666874D01*
X158609182Y-101665821D01*
X158548529Y-101546782D01*
X158548528Y-101546780D01*
X158453220Y-101451472D01*
X158453217Y-101451470D01*
X158333129Y-101390282D01*
X158333127Y-101390281D01*
X158200000Y-101369196D01*
X158066872Y-101390281D01*
X158066870Y-101390282D01*
X157946782Y-101451470D01*
X157851470Y-101546782D01*
X157790282Y-101666870D01*
X157790281Y-101666872D01*
X157769196Y-101799999D01*
X156830804Y-101799999D01*
X156809719Y-101666874D01*
X156809182Y-101665821D01*
X156748529Y-101546782D01*
X156748528Y-101546780D01*
X156653220Y-101451472D01*
X156653217Y-101451470D01*
X156533129Y-101390282D01*
X156533127Y-101390281D01*
X156400000Y-101369196D01*
X156266872Y-101390281D01*
X156266870Y-101390282D01*
X156146782Y-101451470D01*
X156051470Y-101546782D01*
X155990282Y-101666870D01*
X155990281Y-101666872D01*
X155969196Y-101799999D01*
X150775644Y-101799999D01*
X150748528Y-101746780D01*
X150653220Y-101651472D01*
X150653217Y-101651470D01*
X150533129Y-101590282D01*
X150533127Y-101590281D01*
X150400000Y-101569196D01*
X150266872Y-101590281D01*
X150266870Y-101590282D01*
X150146781Y-101651471D01*
X150145683Y-101652269D01*
X150144393Y-101652687D01*
X150139838Y-101655009D01*
X150139470Y-101654287D01*
X150087491Y-101671172D01*
X150035527Y-101654286D01*
X150035159Y-101655009D01*
X150030593Y-101652682D01*
X150029308Y-101652265D01*
X150028214Y-101651470D01*
X149908126Y-101590282D01*
X149908124Y-101590281D01*
X149774997Y-101569196D01*
X149641869Y-101590281D01*
X149641867Y-101590282D01*
X149514835Y-101655009D01*
X149513249Y-101651898D01*
X149468806Y-101665821D01*
X149410819Y-101646301D01*
X149381644Y-101611775D01*
X149348528Y-101546780D01*
X149253220Y-101451472D01*
X149253217Y-101451470D01*
X149133129Y-101390282D01*
X149133127Y-101390281D01*
X149000000Y-101369196D01*
X148866872Y-101390281D01*
X148866870Y-101390282D01*
X148746782Y-101451470D01*
X148651471Y-101546781D01*
X148607630Y-101632822D01*
X148564365Y-101676086D01*
X148503934Y-101685657D01*
X148400001Y-101669196D01*
X148400000Y-101669196D01*
X148266872Y-101690281D01*
X148266870Y-101690282D01*
X148146782Y-101751470D01*
X148051470Y-101846782D01*
X147990282Y-101966870D01*
X147990281Y-101966872D01*
X147969196Y-102099999D01*
X146701749Y-102099999D01*
X146748528Y-102053220D01*
X146809719Y-101933126D01*
X146830804Y-101800000D01*
X146809719Y-101666874D01*
X146809182Y-101665821D01*
X146748529Y-101546782D01*
X146748528Y-101546780D01*
X146653220Y-101451472D01*
X146653217Y-101451470D01*
X146533129Y-101390282D01*
X146533127Y-101390281D01*
X146411153Y-101370962D01*
X146356636Y-101343184D01*
X146328859Y-101288668D01*
X146338431Y-101228236D01*
X146381693Y-101184972D01*
X146453220Y-101148528D01*
X146548528Y-101053220D01*
X146609719Y-100933126D01*
X146630804Y-100800000D01*
X146609719Y-100666874D01*
X146548528Y-100546780D01*
X146453220Y-100451472D01*
X146453217Y-100451470D01*
X146333129Y-100390282D01*
X146333127Y-100390281D01*
X146200000Y-100369196D01*
X146066872Y-100390281D01*
X146066870Y-100390282D01*
X145946782Y-100451470D01*
X145851470Y-100546782D01*
X145790282Y-100666870D01*
X145790281Y-100666872D01*
X145769196Y-100799999D01*
X135430804Y-100799999D01*
X135409719Y-100666874D01*
X135348528Y-100546780D01*
X135253220Y-100451472D01*
X135253217Y-100451470D01*
X135133129Y-100390282D01*
X135133127Y-100390281D01*
X135000000Y-100369196D01*
X134866872Y-100390281D01*
X134866870Y-100390282D01*
X134746782Y-100451470D01*
X134651470Y-100546782D01*
X134590282Y-100666870D01*
X134590281Y-100666872D01*
X134569196Y-100799999D01*
X125500000Y-100799999D01*
X125500000Y-100199999D01*
X149169196Y-100199999D01*
X149169196Y-100200000D01*
X149190281Y-100333127D01*
X149190282Y-100333129D01*
X149219403Y-100390282D01*
X149251472Y-100453220D01*
X149346780Y-100548528D01*
X149466874Y-100609719D01*
X149600000Y-100630804D01*
X149733126Y-100609719D01*
X149853220Y-100548528D01*
X149948528Y-100453220D01*
X150009719Y-100333126D01*
X150030804Y-100200000D01*
X150009719Y-100066874D01*
X149948528Y-99946780D01*
X149901747Y-99899999D01*
X155369196Y-99899999D01*
X155369196Y-99900000D01*
X155390281Y-100033127D01*
X155390282Y-100033129D01*
X155407474Y-100066870D01*
X155451472Y-100153220D01*
X155546780Y-100248528D01*
X155666874Y-100309719D01*
X155800000Y-100330804D01*
X155933126Y-100309719D01*
X156053220Y-100248528D01*
X156148528Y-100153220D01*
X156209719Y-100033126D01*
X156230804Y-99900000D01*
X156209719Y-99766874D01*
X156148528Y-99646780D01*
X156101747Y-99599999D01*
X163969196Y-99599999D01*
X163969196Y-99600000D01*
X163990281Y-99733127D01*
X163990282Y-99733129D01*
X164019403Y-99790282D01*
X164051472Y-99853220D01*
X164146780Y-99948528D01*
X164266874Y-100009719D01*
X164400000Y-100030804D01*
X164533126Y-100009719D01*
X164653220Y-99948528D01*
X164748528Y-99853220D01*
X164809719Y-99733126D01*
X164830804Y-99600000D01*
X164809719Y-99466874D01*
X164748528Y-99346780D01*
X164653220Y-99251472D01*
X164653217Y-99251470D01*
X164533129Y-99190282D01*
X164533127Y-99190281D01*
X164400000Y-99169196D01*
X164266872Y-99190281D01*
X164266870Y-99190282D01*
X164146782Y-99251470D01*
X164051470Y-99346782D01*
X163990282Y-99466870D01*
X163990281Y-99466872D01*
X163969196Y-99599999D01*
X156101747Y-99599999D01*
X156053220Y-99551472D01*
X156053217Y-99551470D01*
X155933129Y-99490282D01*
X155933127Y-99490281D01*
X155800000Y-99469196D01*
X155666872Y-99490281D01*
X155666870Y-99490282D01*
X155546782Y-99551470D01*
X155451470Y-99646782D01*
X155390282Y-99766870D01*
X155390281Y-99766872D01*
X155369196Y-99899999D01*
X149901747Y-99899999D01*
X149853220Y-99851472D01*
X149853217Y-99851470D01*
X149733129Y-99790282D01*
X149733127Y-99790281D01*
X149600000Y-99769196D01*
X149466872Y-99790281D01*
X149466870Y-99790282D01*
X149346782Y-99851470D01*
X149251470Y-99946782D01*
X149190282Y-100066870D01*
X149190281Y-100066872D01*
X149169196Y-100199999D01*
X125500000Y-100199999D01*
X125500000Y-99199999D01*
X127969196Y-99199999D01*
X127969196Y-99200000D01*
X127990281Y-99333127D01*
X127990282Y-99333129D01*
X127997238Y-99346780D01*
X128051472Y-99453220D01*
X128146780Y-99548528D01*
X128266874Y-99609719D01*
X128400000Y-99630804D01*
X128533126Y-99609719D01*
X128653220Y-99548528D01*
X128748528Y-99453220D01*
X128809719Y-99333126D01*
X128830804Y-99200000D01*
X128809719Y-99066874D01*
X128748528Y-98946780D01*
X128653220Y-98851472D01*
X128653217Y-98851470D01*
X128533129Y-98790282D01*
X128533127Y-98790281D01*
X128400000Y-98769196D01*
X128266872Y-98790281D01*
X128266870Y-98790282D01*
X128146782Y-98851470D01*
X128051470Y-98946782D01*
X127990282Y-99066870D01*
X127990281Y-99066872D01*
X127969196Y-99199999D01*
X125500000Y-99199999D01*
X125500000Y-98199999D01*
X149369196Y-98199999D01*
X149369196Y-98200000D01*
X149390281Y-98333127D01*
X149390282Y-98333129D01*
X149451470Y-98453217D01*
X149451472Y-98453220D01*
X149546780Y-98548528D01*
X149666874Y-98609719D01*
X149800000Y-98630804D01*
X149933126Y-98609719D01*
X150053220Y-98548528D01*
X150148528Y-98453220D01*
X150209719Y-98333126D01*
X150230804Y-98200000D01*
X150230804Y-98199999D01*
X157969196Y-98199999D01*
X157969196Y-98200000D01*
X157990281Y-98333127D01*
X157990282Y-98333129D01*
X158051470Y-98453217D01*
X158051472Y-98453220D01*
X158146780Y-98548528D01*
X158266874Y-98609719D01*
X158400000Y-98630804D01*
X158533126Y-98609719D01*
X158653220Y-98548528D01*
X158748528Y-98453220D01*
X158809719Y-98333126D01*
X158830804Y-98200000D01*
X158809719Y-98066874D01*
X158748528Y-97946780D01*
X158653220Y-97851472D01*
X158653217Y-97851470D01*
X158552200Y-97799999D01*
X159169196Y-97799999D01*
X159169196Y-97800000D01*
X159190281Y-97933127D01*
X159190282Y-97933129D01*
X159251470Y-98053217D01*
X159251472Y-98053220D01*
X159346780Y-98148528D01*
X159466874Y-98209719D01*
X159600000Y-98230804D01*
X159733126Y-98209719D01*
X159853220Y-98148528D01*
X159929998Y-98071749D01*
X159984513Y-98043974D01*
X160044945Y-98053545D01*
X160070000Y-98071748D01*
X160146780Y-98148528D01*
X160266874Y-98209719D01*
X160400000Y-98230804D01*
X160533126Y-98209719D01*
X160653220Y-98148528D01*
X160748528Y-98053220D01*
X160809719Y-97933126D01*
X160830804Y-97800000D01*
X160809719Y-97666874D01*
X160748528Y-97546780D01*
X160653220Y-97451472D01*
X160653217Y-97451470D01*
X160533129Y-97390282D01*
X160533127Y-97390281D01*
X160400000Y-97369196D01*
X160266872Y-97390281D01*
X160266870Y-97390282D01*
X160146782Y-97451470D01*
X160146780Y-97451471D01*
X160146780Y-97451472D01*
X160070001Y-97528250D01*
X160015487Y-97556026D01*
X159955055Y-97546455D01*
X159929999Y-97528251D01*
X159853220Y-97451472D01*
X159853217Y-97451470D01*
X159733129Y-97390282D01*
X159733127Y-97390281D01*
X159600000Y-97369196D01*
X159466872Y-97390281D01*
X159466870Y-97390282D01*
X159346782Y-97451470D01*
X159251470Y-97546782D01*
X159190282Y-97666870D01*
X159190281Y-97666872D01*
X159169196Y-97799999D01*
X158552200Y-97799999D01*
X158533129Y-97790282D01*
X158533127Y-97790281D01*
X158400000Y-97769196D01*
X158266872Y-97790281D01*
X158266870Y-97790282D01*
X158146782Y-97851470D01*
X158051470Y-97946782D01*
X157990282Y-98066870D01*
X157990281Y-98066872D01*
X157969196Y-98199999D01*
X150230804Y-98199999D01*
X150209719Y-98066874D01*
X150148528Y-97946780D01*
X150053220Y-97851472D01*
X150053217Y-97851470D01*
X149933129Y-97790282D01*
X149933127Y-97790281D01*
X149800000Y-97769196D01*
X149666872Y-97790281D01*
X149666870Y-97790282D01*
X149546782Y-97851470D01*
X149451470Y-97946782D01*
X149390282Y-98066870D01*
X149390281Y-98066872D01*
X149369196Y-98199999D01*
X125500000Y-98199999D01*
X125500000Y-96999999D01*
X136169196Y-96999999D01*
X136169196Y-97000000D01*
X136190281Y-97133127D01*
X136190282Y-97133129D01*
X136247752Y-97245920D01*
X136251472Y-97253220D01*
X136346780Y-97348528D01*
X136466874Y-97409719D01*
X136600000Y-97430804D01*
X136733126Y-97409719D01*
X136853220Y-97348528D01*
X136948528Y-97253220D01*
X137009719Y-97133126D01*
X137014698Y-97101688D01*
X137042475Y-97047172D01*
X137096991Y-97019394D01*
X137127960Y-97019394D01*
X137200000Y-97030804D01*
X137333126Y-97009719D01*
X137453220Y-96948528D01*
X137548528Y-96853220D01*
X137575645Y-96799999D01*
X146369196Y-96799999D01*
X146369196Y-96800000D01*
X146390281Y-96933127D01*
X146390282Y-96933129D01*
X146440050Y-97030804D01*
X146451472Y-97053220D01*
X146546780Y-97148528D01*
X146666874Y-97209719D01*
X146774945Y-97226835D01*
X146799999Y-97230804D01*
X146799999Y-97230803D01*
X146800000Y-97230804D01*
X146872033Y-97219395D01*
X146932465Y-97228966D01*
X146975730Y-97272231D01*
X146985301Y-97301687D01*
X146990281Y-97333128D01*
X146990282Y-97333129D01*
X147029307Y-97409719D01*
X147051472Y-97453220D01*
X147146780Y-97548528D01*
X147266874Y-97609719D01*
X147400000Y-97630804D01*
X147533126Y-97609719D01*
X147653220Y-97548528D01*
X147748528Y-97453220D01*
X147809719Y-97333126D01*
X147830804Y-97200000D01*
X147830237Y-97196423D01*
X147820897Y-97137449D01*
X147809719Y-97066874D01*
X147775644Y-96999999D01*
X161769196Y-96999999D01*
X161769196Y-97000000D01*
X161790281Y-97133127D01*
X161790282Y-97133129D01*
X161847752Y-97245920D01*
X161851472Y-97253220D01*
X161946780Y-97348528D01*
X162066874Y-97409719D01*
X162200000Y-97430804D01*
X162333126Y-97409719D01*
X162453220Y-97348528D01*
X162548528Y-97253220D01*
X162609719Y-97133126D01*
X162630804Y-97000000D01*
X162609719Y-96866874D01*
X162600866Y-96849500D01*
X162548529Y-96746782D01*
X162548528Y-96746780D01*
X162453220Y-96651472D01*
X162453217Y-96651470D01*
X162333129Y-96590282D01*
X162333127Y-96590281D01*
X162200000Y-96569196D01*
X162066872Y-96590281D01*
X162066870Y-96590282D01*
X161946782Y-96651470D01*
X161851470Y-96746782D01*
X161790282Y-96866870D01*
X161790281Y-96866872D01*
X161769196Y-96999999D01*
X147775644Y-96999999D01*
X147748528Y-96946780D01*
X147653220Y-96851472D01*
X147653217Y-96851470D01*
X147533129Y-96790282D01*
X147533127Y-96790281D01*
X147400000Y-96769196D01*
X147327966Y-96780605D01*
X147267534Y-96771034D01*
X147224269Y-96727769D01*
X147214698Y-96698311D01*
X147212513Y-96684514D01*
X147209719Y-96666874D01*
X147181289Y-96611078D01*
X147148529Y-96546782D01*
X147148528Y-96546780D01*
X147053220Y-96451472D01*
X147053217Y-96451470D01*
X146933129Y-96390282D01*
X146933127Y-96390281D01*
X146800000Y-96369196D01*
X146666872Y-96390281D01*
X146666870Y-96390282D01*
X146546782Y-96451470D01*
X146451470Y-96546782D01*
X146390282Y-96666870D01*
X146390281Y-96666872D01*
X146369196Y-96799999D01*
X137575645Y-96799999D01*
X137609719Y-96733126D01*
X137630804Y-96600000D01*
X137609719Y-96466874D01*
X137609718Y-96466872D01*
X137609717Y-96466870D01*
X137548529Y-96346782D01*
X137548528Y-96346780D01*
X137453220Y-96251472D01*
X137453217Y-96251470D01*
X137352200Y-96199999D01*
X163369196Y-96199999D01*
X163369196Y-96200000D01*
X163390281Y-96333127D01*
X163390282Y-96333129D01*
X163424355Y-96400000D01*
X163451472Y-96453220D01*
X163546780Y-96548528D01*
X163626060Y-96588923D01*
X163669323Y-96632186D01*
X163678894Y-96692618D01*
X163654928Y-96739658D01*
X163656053Y-96740475D01*
X163651470Y-96746782D01*
X163590282Y-96866870D01*
X163590281Y-96866872D01*
X163569196Y-96999999D01*
X163569196Y-97000000D01*
X163590282Y-97133132D01*
X163590966Y-97135238D01*
X163590965Y-97137449D01*
X163591500Y-97140822D01*
X163590965Y-97140906D01*
X163590961Y-97196423D01*
X163554992Y-97245920D01*
X163551339Y-97248159D01*
X163546782Y-97251470D01*
X163451470Y-97346782D01*
X163390282Y-97466870D01*
X163390281Y-97466872D01*
X163369196Y-97599999D01*
X163369196Y-97600000D01*
X163390281Y-97733127D01*
X163390282Y-97733129D01*
X163424355Y-97800000D01*
X163451472Y-97853220D01*
X163546780Y-97948528D01*
X163666874Y-98009719D01*
X163800000Y-98030804D01*
X163933126Y-98009719D01*
X164053220Y-97948528D01*
X164148528Y-97853220D01*
X164209719Y-97733126D01*
X164230804Y-97600000D01*
X164209719Y-97466874D01*
X164209718Y-97466872D01*
X164209718Y-97466870D01*
X164209035Y-97464767D01*
X164209035Y-97462556D01*
X164208500Y-97459178D01*
X164209035Y-97459093D01*
X164209036Y-97403582D01*
X164245001Y-97354083D01*
X164248658Y-97351842D01*
X164253215Y-97348531D01*
X164253215Y-97348530D01*
X164253220Y-97348528D01*
X164348528Y-97253220D01*
X164409719Y-97133126D01*
X164430804Y-97000000D01*
X164409719Y-96866874D01*
X164400866Y-96849500D01*
X164348529Y-96746782D01*
X164348528Y-96746780D01*
X164253220Y-96651472D01*
X164173939Y-96611076D01*
X164130676Y-96567813D01*
X164121105Y-96507381D01*
X164145072Y-96460342D01*
X164143947Y-96459525D01*
X164148523Y-96453224D01*
X164148528Y-96453220D01*
X164175645Y-96400000D01*
X170969196Y-96400000D01*
X170990281Y-96533126D01*
X171024355Y-96599999D01*
X171052407Y-96655055D01*
X171061978Y-96715487D01*
X171052407Y-96744945D01*
X171051472Y-96746779D01*
X171051472Y-96746780D01*
X170990281Y-96866874D01*
X170969196Y-97000000D01*
X170990281Y-97133126D01*
X171048893Y-97248159D01*
X171052407Y-97255055D01*
X171061978Y-97315487D01*
X171052407Y-97344945D01*
X171051472Y-97346779D01*
X171051472Y-97346780D01*
X170990281Y-97466874D01*
X170969196Y-97600000D01*
X170990281Y-97733126D01*
X171024355Y-97799999D01*
X171052407Y-97855055D01*
X171061978Y-97915487D01*
X171052407Y-97944945D01*
X170990281Y-98066874D01*
X170969196Y-98199999D01*
X170969196Y-98200000D01*
X170990281Y-98333127D01*
X170990282Y-98333129D01*
X171051470Y-98453217D01*
X171051472Y-98453220D01*
X171146780Y-98548528D01*
X171266874Y-98609719D01*
X171400000Y-98630804D01*
X171533126Y-98609719D01*
X171653220Y-98548528D01*
X171748528Y-98453220D01*
X171809719Y-98333126D01*
X171830804Y-98200000D01*
X171809719Y-98066874D01*
X171748528Y-97946780D01*
X171748526Y-97946778D01*
X171747593Y-97944946D01*
X171738021Y-97884514D01*
X171747593Y-97855054D01*
X171748526Y-97853221D01*
X171748528Y-97853220D01*
X171809719Y-97733126D01*
X171830804Y-97600000D01*
X171809719Y-97466874D01*
X171748528Y-97346780D01*
X171748526Y-97346778D01*
X171747593Y-97344946D01*
X171738021Y-97284514D01*
X171747593Y-97255054D01*
X171748526Y-97253221D01*
X171748528Y-97253220D01*
X171752346Y-97245727D01*
X174749500Y-97245727D01*
X174749500Y-100754272D01*
X174752353Y-100784693D01*
X174752355Y-100784702D01*
X174797206Y-100912880D01*
X174812149Y-100933127D01*
X174877851Y-101022149D01*
X174987119Y-101102793D01*
X175115302Y-101147646D01*
X175145727Y-101150499D01*
X175145729Y-101150500D01*
X175145736Y-101150500D01*
X178654271Y-101150500D01*
X178654271Y-101150499D01*
X178684698Y-101147646D01*
X178812881Y-101102793D01*
X178922149Y-101022149D01*
X179002793Y-100912881D01*
X179047646Y-100784698D01*
X179050499Y-100754271D01*
X179050500Y-100754271D01*
X179050500Y-97245729D01*
X179050499Y-97245727D01*
X179047646Y-97215302D01*
X179002793Y-97087119D01*
X178922149Y-96977851D01*
X178812881Y-96897207D01*
X178812880Y-96897206D01*
X178684702Y-96852355D01*
X178684693Y-96852353D01*
X178654272Y-96849500D01*
X178654264Y-96849500D01*
X175145736Y-96849500D01*
X175145727Y-96849500D01*
X175115306Y-96852353D01*
X175115297Y-96852355D01*
X174987119Y-96897206D01*
X174877852Y-96977850D01*
X174877850Y-96977852D01*
X174797206Y-97087119D01*
X174752355Y-97215297D01*
X174752353Y-97215306D01*
X174749500Y-97245727D01*
X171752346Y-97245727D01*
X171809719Y-97133126D01*
X171830804Y-97000000D01*
X171809719Y-96866874D01*
X171748528Y-96746780D01*
X171748526Y-96746778D01*
X171747593Y-96744946D01*
X171738021Y-96684514D01*
X171747593Y-96655054D01*
X171748526Y-96653221D01*
X171748528Y-96653220D01*
X171809719Y-96533126D01*
X171830804Y-96400000D01*
X171809719Y-96266874D01*
X171748528Y-96146780D01*
X171653220Y-96051472D01*
X171653217Y-96051470D01*
X171533129Y-95990282D01*
X171533127Y-95990281D01*
X171400000Y-95969196D01*
X171266872Y-95990281D01*
X171266870Y-95990282D01*
X171146782Y-96051470D01*
X171051470Y-96146782D01*
X170990282Y-96266870D01*
X170990281Y-96266872D01*
X170979787Y-96333129D01*
X170969196Y-96400000D01*
X164175645Y-96400000D01*
X164209719Y-96333126D01*
X164230804Y-96200000D01*
X164209719Y-96066874D01*
X164148528Y-95946780D01*
X164053220Y-95851472D01*
X164053217Y-95851470D01*
X163933129Y-95790282D01*
X163933127Y-95790281D01*
X163800000Y-95769196D01*
X163666872Y-95790281D01*
X163666870Y-95790282D01*
X163546782Y-95851470D01*
X163451470Y-95946782D01*
X163390282Y-96066870D01*
X163390281Y-96066872D01*
X163369196Y-96199999D01*
X137352200Y-96199999D01*
X137333129Y-96190282D01*
X137333127Y-96190281D01*
X137200000Y-96169196D01*
X137066872Y-96190281D01*
X137066870Y-96190282D01*
X136946782Y-96251470D01*
X136851470Y-96346782D01*
X136790282Y-96466870D01*
X136790281Y-96466871D01*
X136785301Y-96498313D01*
X136757522Y-96552829D01*
X136703005Y-96580606D01*
X136672033Y-96580605D01*
X136600000Y-96569196D01*
X136466872Y-96590281D01*
X136466870Y-96590282D01*
X136346782Y-96651470D01*
X136251470Y-96746782D01*
X136190282Y-96866870D01*
X136190281Y-96866872D01*
X136169196Y-96999999D01*
X125500000Y-96999999D01*
X125500000Y-94999999D01*
X149169196Y-94999999D01*
X149169196Y-95000000D01*
X149190281Y-95133127D01*
X149190282Y-95133129D01*
X149229307Y-95209719D01*
X149251472Y-95253220D01*
X149346780Y-95348528D01*
X149466874Y-95409719D01*
X149600000Y-95430804D01*
X149733126Y-95409719D01*
X149853220Y-95348528D01*
X149948528Y-95253220D01*
X150009719Y-95133126D01*
X150030804Y-95000000D01*
X150030804Y-94999999D01*
X150369196Y-94999999D01*
X150369196Y-95000000D01*
X150390281Y-95133127D01*
X150390282Y-95133129D01*
X150429307Y-95209719D01*
X150451472Y-95253220D01*
X150546780Y-95348528D01*
X150666874Y-95409719D01*
X150800000Y-95430804D01*
X150933126Y-95409719D01*
X151053220Y-95348528D01*
X151148528Y-95253220D01*
X151209719Y-95133126D01*
X151230804Y-95000000D01*
X151209719Y-94866874D01*
X151175644Y-94799999D01*
X161769196Y-94799999D01*
X161769196Y-94800000D01*
X161790281Y-94933127D01*
X161790282Y-94933129D01*
X161824355Y-95000000D01*
X161851472Y-95053220D01*
X161946780Y-95148528D01*
X162066874Y-95209719D01*
X162200000Y-95230804D01*
X162333126Y-95209719D01*
X162453220Y-95148528D01*
X162548528Y-95053220D01*
X162575645Y-94999999D01*
X176169196Y-94999999D01*
X176169196Y-95000000D01*
X176190281Y-95133127D01*
X176190282Y-95133129D01*
X176229307Y-95209719D01*
X176251472Y-95253220D01*
X176346780Y-95348528D01*
X176466874Y-95409719D01*
X176600000Y-95430804D01*
X176733126Y-95409719D01*
X176853220Y-95348528D01*
X176948528Y-95253220D01*
X177009719Y-95133126D01*
X177030804Y-95000000D01*
X177009719Y-94866874D01*
X176948528Y-94746780D01*
X176853220Y-94651472D01*
X176853217Y-94651470D01*
X176733129Y-94590282D01*
X176733127Y-94590281D01*
X176600000Y-94569196D01*
X176466872Y-94590281D01*
X176466870Y-94590282D01*
X176346782Y-94651470D01*
X176251470Y-94746782D01*
X176190282Y-94866870D01*
X176190281Y-94866872D01*
X176169196Y-94999999D01*
X162575645Y-94999999D01*
X162609719Y-94933126D01*
X162630804Y-94800000D01*
X162609719Y-94666874D01*
X162548528Y-94546780D01*
X162453220Y-94451472D01*
X162453217Y-94451470D01*
X162333129Y-94390282D01*
X162333127Y-94390281D01*
X162200000Y-94369196D01*
X162066872Y-94390281D01*
X162066870Y-94390282D01*
X161946782Y-94451470D01*
X161851470Y-94546782D01*
X161790282Y-94666870D01*
X161790281Y-94666872D01*
X161769196Y-94799999D01*
X151175644Y-94799999D01*
X151148528Y-94746780D01*
X151053220Y-94651472D01*
X151053217Y-94651470D01*
X150933129Y-94590282D01*
X150933127Y-94590281D01*
X150800000Y-94569196D01*
X150666872Y-94590281D01*
X150666870Y-94590282D01*
X150546782Y-94651470D01*
X150451470Y-94746782D01*
X150390282Y-94866870D01*
X150390281Y-94866872D01*
X150369196Y-94999999D01*
X150030804Y-94999999D01*
X150009719Y-94866874D01*
X149948528Y-94746780D01*
X149853220Y-94651472D01*
X149853217Y-94651470D01*
X149733129Y-94590282D01*
X149733127Y-94590281D01*
X149600000Y-94569196D01*
X149466872Y-94590281D01*
X149466870Y-94590282D01*
X149346782Y-94651470D01*
X149251470Y-94746782D01*
X149190282Y-94866870D01*
X149190281Y-94866872D01*
X149169196Y-94999999D01*
X125500000Y-94999999D01*
X125500000Y-94199999D01*
X137569196Y-94199999D01*
X137569196Y-94200000D01*
X137590281Y-94333127D01*
X137590282Y-94333129D01*
X137650580Y-94451470D01*
X137651472Y-94453220D01*
X137746780Y-94548528D01*
X137866874Y-94609719D01*
X138000000Y-94630804D01*
X138133126Y-94609719D01*
X138253220Y-94548528D01*
X138348528Y-94453220D01*
X138409719Y-94333126D01*
X138430804Y-94200000D01*
X138409719Y-94066874D01*
X138348528Y-93946780D01*
X138253220Y-93851472D01*
X138253217Y-93851470D01*
X138152200Y-93799999D01*
X138569196Y-93799999D01*
X138569196Y-93800000D01*
X138590281Y-93933127D01*
X138590282Y-93933129D01*
X138651470Y-94053217D01*
X138651472Y-94053220D01*
X138746780Y-94148528D01*
X138866874Y-94209719D01*
X139000000Y-94230804D01*
X139133126Y-94209719D01*
X139253220Y-94148528D01*
X139348528Y-94053220D01*
X139409719Y-93933126D01*
X139430804Y-93800000D01*
X139428883Y-93787874D01*
X139423531Y-93754083D01*
X139409719Y-93666874D01*
X139348528Y-93546780D01*
X139253220Y-93451472D01*
X139253217Y-93451470D01*
X139133129Y-93390282D01*
X139133127Y-93390281D01*
X139000000Y-93369196D01*
X138866872Y-93390281D01*
X138866870Y-93390282D01*
X138746782Y-93451470D01*
X138651470Y-93546782D01*
X138590282Y-93666870D01*
X138590281Y-93666872D01*
X138569196Y-93799999D01*
X138152200Y-93799999D01*
X138133129Y-93790282D01*
X138133127Y-93790281D01*
X138000000Y-93769196D01*
X137866872Y-93790281D01*
X137866870Y-93790282D01*
X137746782Y-93851470D01*
X137651470Y-93946782D01*
X137590282Y-94066870D01*
X137590281Y-94066872D01*
X137569196Y-94199999D01*
X125500000Y-94199999D01*
X125500000Y-93199999D01*
X137169196Y-93199999D01*
X137169196Y-93200000D01*
X137190281Y-93333127D01*
X137190282Y-93333129D01*
X137241234Y-93433127D01*
X137251472Y-93453220D01*
X137346780Y-93548528D01*
X137466874Y-93609719D01*
X137600000Y-93630804D01*
X137733126Y-93609719D01*
X137853220Y-93548528D01*
X137948528Y-93453220D01*
X138009719Y-93333126D01*
X138030804Y-93200000D01*
X138009719Y-93066874D01*
X137975644Y-92999999D01*
X139369196Y-92999999D01*
X139369196Y-93000000D01*
X139390281Y-93133127D01*
X139390282Y-93133129D01*
X139440486Y-93231659D01*
X139451472Y-93253220D01*
X139546780Y-93348528D01*
X139666874Y-93409719D01*
X139800000Y-93430804D01*
X139933126Y-93409719D01*
X140053220Y-93348528D01*
X140148528Y-93253220D01*
X140188923Y-93173939D01*
X140232185Y-93130677D01*
X140292617Y-93121105D01*
X140339657Y-93145072D01*
X140340475Y-93143947D01*
X140346778Y-93148526D01*
X140346780Y-93148528D01*
X140466874Y-93209719D01*
X140600000Y-93230804D01*
X140733126Y-93209719D01*
X140853220Y-93148528D01*
X140948528Y-93053220D01*
X140975645Y-92999999D01*
X142369196Y-92999999D01*
X142369196Y-93000000D01*
X142390281Y-93133127D01*
X142390282Y-93133129D01*
X142440486Y-93231659D01*
X142451472Y-93253220D01*
X142546780Y-93348528D01*
X142666874Y-93409719D01*
X142800000Y-93430804D01*
X142933126Y-93409719D01*
X143053220Y-93348528D01*
X143148528Y-93253220D01*
X143209719Y-93133126D01*
X143230804Y-93000000D01*
X143230804Y-92999999D01*
X143769196Y-92999999D01*
X143769196Y-93000000D01*
X143790281Y-93133127D01*
X143790282Y-93133129D01*
X143840486Y-93231659D01*
X143851472Y-93253220D01*
X143946780Y-93348528D01*
X144066874Y-93409719D01*
X144200000Y-93430804D01*
X144333126Y-93409719D01*
X144453220Y-93348528D01*
X144548528Y-93253220D01*
X144575645Y-93199999D01*
X148169196Y-93199999D01*
X148169196Y-93200000D01*
X148190281Y-93333127D01*
X148190282Y-93333129D01*
X148241234Y-93433127D01*
X148251472Y-93453220D01*
X148346780Y-93548528D01*
X148466874Y-93609719D01*
X148600000Y-93630804D01*
X148733126Y-93609719D01*
X148853220Y-93548528D01*
X148948528Y-93453220D01*
X149009719Y-93333126D01*
X149030804Y-93200000D01*
X149009719Y-93066874D01*
X148964659Y-92978438D01*
X152233261Y-92978438D01*
X152233261Y-92978439D01*
X152254346Y-93111566D01*
X152254347Y-93111568D01*
X152304357Y-93209717D01*
X152315537Y-93231659D01*
X152410845Y-93326967D01*
X152530939Y-93388158D01*
X152664065Y-93409243D01*
X152797191Y-93388158D01*
X152847862Y-93362339D01*
X152908291Y-93352768D01*
X152962808Y-93380544D01*
X152986119Y-93426287D01*
X152987874Y-93425718D01*
X152990282Y-93433129D01*
X153051470Y-93553217D01*
X153051472Y-93553220D01*
X153120837Y-93622585D01*
X153148613Y-93677100D01*
X153139042Y-93737532D01*
X153095777Y-93780797D01*
X153074255Y-93787791D01*
X153074282Y-93787874D01*
X153066870Y-93790282D01*
X152946782Y-93851470D01*
X152851470Y-93946782D01*
X152790282Y-94066870D01*
X152790281Y-94066872D01*
X152769196Y-94199999D01*
X152769196Y-94200000D01*
X152790281Y-94333127D01*
X152790282Y-94333129D01*
X152850580Y-94451470D01*
X152851472Y-94453220D01*
X152946780Y-94548528D01*
X153066874Y-94609719D01*
X153200000Y-94630804D01*
X153333126Y-94609719D01*
X153453220Y-94548528D01*
X153529998Y-94471749D01*
X153584513Y-94443974D01*
X153644945Y-94453545D01*
X153670000Y-94471748D01*
X153746780Y-94548528D01*
X153866874Y-94609719D01*
X154000000Y-94630804D01*
X154133126Y-94609719D01*
X154253220Y-94548528D01*
X154348528Y-94453220D01*
X154409719Y-94333126D01*
X154430804Y-94200000D01*
X154409719Y-94066874D01*
X154375644Y-93999999D01*
X155369196Y-93999999D01*
X155369196Y-94000000D01*
X155390281Y-94133127D01*
X155390282Y-94133129D01*
X155429307Y-94209719D01*
X155451472Y-94253220D01*
X155546780Y-94348528D01*
X155666874Y-94409719D01*
X155800000Y-94430804D01*
X155933126Y-94409719D01*
X156053220Y-94348528D01*
X156148528Y-94253220D01*
X156209719Y-94133126D01*
X156230804Y-94000000D01*
X156209719Y-93866874D01*
X156209718Y-93866872D01*
X156209718Y-93866870D01*
X156209035Y-93864767D01*
X156209035Y-93862556D01*
X156208500Y-93859178D01*
X156209035Y-93859093D01*
X156209036Y-93803582D01*
X156211639Y-93799999D01*
X162369196Y-93799999D01*
X162369196Y-93800000D01*
X162390281Y-93933127D01*
X162390282Y-93933129D01*
X162451470Y-94053217D01*
X162451472Y-94053220D01*
X162546780Y-94148528D01*
X162666874Y-94209719D01*
X162800000Y-94230804D01*
X162933126Y-94209719D01*
X163053220Y-94148528D01*
X163148528Y-94053220D01*
X163209719Y-93933126D01*
X163230804Y-93800000D01*
X163228883Y-93787874D01*
X163223531Y-93754083D01*
X163209719Y-93666874D01*
X163175644Y-93599999D01*
X164569196Y-93599999D01*
X164569196Y-93600000D01*
X164590281Y-93733127D01*
X164590282Y-93733129D01*
X164650580Y-93851470D01*
X164651472Y-93853220D01*
X164746780Y-93948528D01*
X164866874Y-94009719D01*
X165000000Y-94030804D01*
X165133126Y-94009719D01*
X165253220Y-93948528D01*
X165348528Y-93853220D01*
X165409719Y-93733126D01*
X165430804Y-93600000D01*
X165430237Y-93596423D01*
X165420897Y-93537449D01*
X165409719Y-93466874D01*
X165348528Y-93346780D01*
X165253220Y-93251472D01*
X165253217Y-93251470D01*
X165133129Y-93190282D01*
X165133127Y-93190281D01*
X165000000Y-93169196D01*
X164866872Y-93190281D01*
X164866870Y-93190282D01*
X164746782Y-93251470D01*
X164651470Y-93346782D01*
X164590282Y-93466870D01*
X164590281Y-93466872D01*
X164569196Y-93599999D01*
X163175644Y-93599999D01*
X163148528Y-93546780D01*
X163053220Y-93451472D01*
X163053217Y-93451470D01*
X162933129Y-93390282D01*
X162933127Y-93390281D01*
X162800000Y-93369196D01*
X162666872Y-93390281D01*
X162666870Y-93390282D01*
X162546782Y-93451470D01*
X162451470Y-93546782D01*
X162390282Y-93666870D01*
X162390281Y-93666872D01*
X162369196Y-93799999D01*
X156211639Y-93799999D01*
X156245001Y-93754083D01*
X156248658Y-93751842D01*
X156253215Y-93748531D01*
X156253215Y-93748530D01*
X156253220Y-93748528D01*
X156348528Y-93653220D01*
X156409719Y-93533126D01*
X156414698Y-93501688D01*
X156442475Y-93447172D01*
X156496991Y-93419394D01*
X156527960Y-93419394D01*
X156600000Y-93430804D01*
X156733126Y-93409719D01*
X156853220Y-93348528D01*
X156948528Y-93253220D01*
X157009719Y-93133126D01*
X157030804Y-93000000D01*
X157009719Y-92866874D01*
X157009718Y-92866872D01*
X157009717Y-92866870D01*
X156948529Y-92746782D01*
X156948528Y-92746780D01*
X156853220Y-92651472D01*
X156853217Y-92651470D01*
X156733129Y-92590282D01*
X156733127Y-92590281D01*
X156600000Y-92569196D01*
X156466872Y-92590281D01*
X156466870Y-92590282D01*
X156346782Y-92651470D01*
X156251470Y-92746782D01*
X156190282Y-92866870D01*
X156190281Y-92866871D01*
X156185301Y-92898313D01*
X156157522Y-92952829D01*
X156103005Y-92980606D01*
X156072033Y-92980605D01*
X156000000Y-92969196D01*
X155866872Y-92990281D01*
X155866870Y-92990282D01*
X155746782Y-93051470D01*
X155651470Y-93146782D01*
X155590282Y-93266870D01*
X155590281Y-93266872D01*
X155569196Y-93399999D01*
X155569196Y-93400000D01*
X155590282Y-93533132D01*
X155590966Y-93535238D01*
X155590965Y-93537449D01*
X155591500Y-93540822D01*
X155590965Y-93540906D01*
X155590961Y-93596423D01*
X155554992Y-93645920D01*
X155551339Y-93648159D01*
X155546782Y-93651470D01*
X155451470Y-93746782D01*
X155390282Y-93866870D01*
X155390281Y-93866872D01*
X155369196Y-93999999D01*
X154375644Y-93999999D01*
X154348528Y-93946780D01*
X154253220Y-93851472D01*
X154253217Y-93851470D01*
X154133129Y-93790282D01*
X154133127Y-93790281D01*
X154000000Y-93769196D01*
X153866872Y-93790281D01*
X153866870Y-93790282D01*
X153746782Y-93851470D01*
X153746780Y-93851471D01*
X153746780Y-93851472D01*
X153670001Y-93928250D01*
X153615487Y-93956026D01*
X153555055Y-93946455D01*
X153529999Y-93928251D01*
X153479161Y-93877413D01*
X153451386Y-93822899D01*
X153460957Y-93762467D01*
X153504222Y-93719202D01*
X153525744Y-93712208D01*
X153525718Y-93712126D01*
X153533119Y-93709719D01*
X153533126Y-93709719D01*
X153653220Y-93648528D01*
X153748528Y-93553220D01*
X153809719Y-93433126D01*
X153830804Y-93300000D01*
X153809719Y-93166874D01*
X153748528Y-93046780D01*
X153653220Y-92951472D01*
X153653217Y-92951470D01*
X153533129Y-92890282D01*
X153533127Y-92890281D01*
X153400000Y-92869196D01*
X153266874Y-92890281D01*
X153216203Y-92916099D01*
X153155771Y-92925670D01*
X153101254Y-92897892D01*
X153077947Y-92852150D01*
X153076191Y-92852721D01*
X153073784Y-92845317D01*
X153073784Y-92845313D01*
X153012593Y-92725219D01*
X152917285Y-92629911D01*
X152917282Y-92629909D01*
X152797194Y-92568721D01*
X152797192Y-92568720D01*
X152664065Y-92547635D01*
X152530937Y-92568720D01*
X152530935Y-92568721D01*
X152410847Y-92629909D01*
X152315535Y-92725221D01*
X152254347Y-92845309D01*
X152254346Y-92845311D01*
X152233261Y-92978438D01*
X148964659Y-92978438D01*
X148948528Y-92946780D01*
X148853220Y-92851472D01*
X148853217Y-92851470D01*
X148733129Y-92790282D01*
X148733127Y-92790281D01*
X148600000Y-92769196D01*
X148466872Y-92790281D01*
X148466870Y-92790282D01*
X148346782Y-92851470D01*
X148251470Y-92946782D01*
X148190282Y-93066870D01*
X148190281Y-93066872D01*
X148169196Y-93199999D01*
X144575645Y-93199999D01*
X144609719Y-93133126D01*
X144630804Y-93000000D01*
X144609719Y-92866874D01*
X144609718Y-92866872D01*
X144609717Y-92866870D01*
X144548529Y-92746782D01*
X144548528Y-92746780D01*
X144453220Y-92651472D01*
X144453217Y-92651470D01*
X144333129Y-92590282D01*
X144333127Y-92590281D01*
X144200000Y-92569196D01*
X144066872Y-92590281D01*
X144066870Y-92590282D01*
X143946782Y-92651470D01*
X143851470Y-92746782D01*
X143790282Y-92866870D01*
X143790281Y-92866872D01*
X143769196Y-92999999D01*
X143230804Y-92999999D01*
X143209719Y-92866874D01*
X143209718Y-92866872D01*
X143209717Y-92866870D01*
X143148529Y-92746782D01*
X143148528Y-92746780D01*
X143053220Y-92651472D01*
X143053217Y-92651470D01*
X142933129Y-92590282D01*
X142933127Y-92590281D01*
X142800000Y-92569196D01*
X142666872Y-92590281D01*
X142666870Y-92590282D01*
X142546782Y-92651470D01*
X142451470Y-92746782D01*
X142390282Y-92866870D01*
X142390281Y-92866872D01*
X142369196Y-92999999D01*
X140975645Y-92999999D01*
X141009719Y-92933126D01*
X141030804Y-92800000D01*
X141009719Y-92666874D01*
X140948528Y-92546780D01*
X140853220Y-92451472D01*
X140853217Y-92451470D01*
X140733129Y-92390282D01*
X140733127Y-92390281D01*
X140600000Y-92369196D01*
X140466872Y-92390281D01*
X140466870Y-92390282D01*
X140346782Y-92451470D01*
X140251471Y-92546781D01*
X140211077Y-92626059D01*
X140167812Y-92669323D01*
X140107380Y-92678894D01*
X140060342Y-92654927D01*
X140059525Y-92656053D01*
X140053217Y-92651470D01*
X139933129Y-92590282D01*
X139933127Y-92590281D01*
X139800000Y-92569196D01*
X139666872Y-92590281D01*
X139666870Y-92590282D01*
X139546782Y-92651470D01*
X139451470Y-92746782D01*
X139390282Y-92866870D01*
X139390281Y-92866872D01*
X139369196Y-92999999D01*
X137975644Y-92999999D01*
X137948528Y-92946780D01*
X137853220Y-92851472D01*
X137853217Y-92851470D01*
X137733129Y-92790282D01*
X137733127Y-92790281D01*
X137600000Y-92769196D01*
X137466872Y-92790281D01*
X137466870Y-92790282D01*
X137346782Y-92851470D01*
X137251470Y-92946782D01*
X137190282Y-93066870D01*
X137190281Y-93066872D01*
X137169196Y-93199999D01*
X125500000Y-93199999D01*
X125500000Y-91999999D01*
X138369196Y-91999999D01*
X138369196Y-92000000D01*
X138390281Y-92133127D01*
X138390282Y-92133129D01*
X138424355Y-92200000D01*
X138451472Y-92253220D01*
X138546780Y-92348528D01*
X138666874Y-92409719D01*
X138800000Y-92430804D01*
X138933126Y-92409719D01*
X139053220Y-92348528D01*
X139148528Y-92253220D01*
X139175645Y-92199999D01*
X156969196Y-92199999D01*
X156969196Y-92200000D01*
X156990281Y-92333127D01*
X156990282Y-92333129D01*
X157029307Y-92409719D01*
X157051472Y-92453220D01*
X157146780Y-92548528D01*
X157266874Y-92609719D01*
X157400000Y-92630804D01*
X157533126Y-92609719D01*
X157653220Y-92548528D01*
X157748528Y-92453220D01*
X157809719Y-92333126D01*
X157830804Y-92200000D01*
X157830804Y-92199999D01*
X158169196Y-92199999D01*
X158169196Y-92200000D01*
X158190281Y-92333127D01*
X158190282Y-92333129D01*
X158229307Y-92409719D01*
X158251472Y-92453220D01*
X158346780Y-92548528D01*
X158466874Y-92609719D01*
X158600000Y-92630804D01*
X158733126Y-92609719D01*
X158853220Y-92548528D01*
X158948528Y-92453220D01*
X159009719Y-92333126D01*
X159030804Y-92200000D01*
X159009719Y-92066874D01*
X158975644Y-91999999D01*
X159369196Y-91999999D01*
X159369196Y-92000000D01*
X159390281Y-92133127D01*
X159390282Y-92133129D01*
X159424355Y-92200000D01*
X159451472Y-92253220D01*
X159546780Y-92348528D01*
X159666874Y-92409719D01*
X159800000Y-92430804D01*
X159933126Y-92409719D01*
X160053220Y-92348528D01*
X160148528Y-92253220D01*
X160209719Y-92133126D01*
X160230804Y-92000000D01*
X160209719Y-91866874D01*
X160148528Y-91746780D01*
X160053220Y-91651472D01*
X160053217Y-91651470D01*
X159933129Y-91590282D01*
X159933127Y-91590281D01*
X159800000Y-91569196D01*
X159666872Y-91590281D01*
X159666870Y-91590282D01*
X159546782Y-91651470D01*
X159451470Y-91746782D01*
X159390282Y-91866870D01*
X159390281Y-91866872D01*
X159369196Y-91999999D01*
X158975644Y-91999999D01*
X158948528Y-91946780D01*
X158853220Y-91851472D01*
X158853217Y-91851470D01*
X158733129Y-91790282D01*
X158733127Y-91790281D01*
X158600000Y-91769196D01*
X158466872Y-91790281D01*
X158466870Y-91790282D01*
X158346782Y-91851470D01*
X158251470Y-91946782D01*
X158190282Y-92066870D01*
X158190281Y-92066872D01*
X158169196Y-92199999D01*
X157830804Y-92199999D01*
X157809719Y-92066874D01*
X157748528Y-91946780D01*
X157653220Y-91851472D01*
X157653217Y-91851470D01*
X157533129Y-91790282D01*
X157533127Y-91790281D01*
X157400000Y-91769196D01*
X157266872Y-91790281D01*
X157266870Y-91790282D01*
X157146782Y-91851470D01*
X157051470Y-91946782D01*
X156990282Y-92066870D01*
X156990281Y-92066872D01*
X156969196Y-92199999D01*
X139175645Y-92199999D01*
X139209719Y-92133126D01*
X139230804Y-92000000D01*
X139209719Y-91866874D01*
X139148528Y-91746780D01*
X139053220Y-91651472D01*
X139053217Y-91651470D01*
X138933129Y-91590282D01*
X138933127Y-91590281D01*
X138800000Y-91569196D01*
X138666872Y-91590281D01*
X138666870Y-91590282D01*
X138546782Y-91651470D01*
X138451470Y-91746782D01*
X138390282Y-91866870D01*
X138390281Y-91866872D01*
X138369196Y-91999999D01*
X125500000Y-91999999D01*
X125500000Y-91199999D01*
X133769196Y-91199999D01*
X133769196Y-91200000D01*
X133790281Y-91333127D01*
X133790282Y-91333129D01*
X133824355Y-91400000D01*
X133851472Y-91453220D01*
X133946780Y-91548528D01*
X134066874Y-91609719D01*
X134200000Y-91630804D01*
X134333126Y-91609719D01*
X134453220Y-91548528D01*
X134548528Y-91453220D01*
X134609719Y-91333126D01*
X134630804Y-91200000D01*
X134630804Y-91199999D01*
X144369196Y-91199999D01*
X144369196Y-91200000D01*
X144390281Y-91333127D01*
X144390282Y-91333129D01*
X144424355Y-91400000D01*
X144451472Y-91453220D01*
X144546780Y-91548528D01*
X144666874Y-91609719D01*
X144800000Y-91630804D01*
X144933126Y-91609719D01*
X145053220Y-91548528D01*
X145148528Y-91453220D01*
X145175645Y-91399999D01*
X146769196Y-91399999D01*
X146769196Y-91400000D01*
X146790281Y-91533127D01*
X146790282Y-91533129D01*
X146841234Y-91633127D01*
X146851472Y-91653220D01*
X146946780Y-91748528D01*
X147066874Y-91809719D01*
X147200000Y-91830804D01*
X147333126Y-91809719D01*
X147453220Y-91748528D01*
X147548528Y-91653220D01*
X147609719Y-91533126D01*
X147614966Y-91499999D01*
X155169196Y-91499999D01*
X155169196Y-91500000D01*
X155190281Y-91633127D01*
X155190282Y-91633129D01*
X155251470Y-91753217D01*
X155251472Y-91753220D01*
X155346780Y-91848528D01*
X155466874Y-91909719D01*
X155600000Y-91930804D01*
X155733126Y-91909719D01*
X155853220Y-91848528D01*
X155948528Y-91753220D01*
X156009719Y-91633126D01*
X156030804Y-91500000D01*
X156009719Y-91366874D01*
X155948528Y-91246780D01*
X155853220Y-91151472D01*
X155853217Y-91151470D01*
X155733129Y-91090282D01*
X155733127Y-91090281D01*
X155600000Y-91069196D01*
X155466872Y-91090281D01*
X155466870Y-91090282D01*
X155346782Y-91151470D01*
X155251470Y-91246782D01*
X155190282Y-91366870D01*
X155190281Y-91366872D01*
X155169196Y-91499999D01*
X147614966Y-91499999D01*
X147630804Y-91400000D01*
X147609719Y-91266874D01*
X147548528Y-91146780D01*
X147453220Y-91051472D01*
X147453217Y-91051470D01*
X147333129Y-90990282D01*
X147333127Y-90990281D01*
X147200000Y-90969196D01*
X147066872Y-90990281D01*
X147066870Y-90990282D01*
X146946782Y-91051470D01*
X146851470Y-91146782D01*
X146790282Y-91266870D01*
X146790281Y-91266872D01*
X146769196Y-91399999D01*
X145175645Y-91399999D01*
X145209719Y-91333126D01*
X145230804Y-91200000D01*
X145209719Y-91066874D01*
X145148528Y-90946780D01*
X145053220Y-90851472D01*
X145053217Y-90851470D01*
X144933129Y-90790282D01*
X144933127Y-90790281D01*
X144800000Y-90769196D01*
X144666872Y-90790281D01*
X144666870Y-90790282D01*
X144546782Y-90851470D01*
X144451470Y-90946782D01*
X144390282Y-91066870D01*
X144390281Y-91066872D01*
X144369196Y-91199999D01*
X134630804Y-91199999D01*
X134609719Y-91066874D01*
X134548528Y-90946780D01*
X134453220Y-90851472D01*
X134453217Y-90851470D01*
X134333129Y-90790282D01*
X134333127Y-90790281D01*
X134200000Y-90769196D01*
X134066872Y-90790281D01*
X134066870Y-90790282D01*
X133946782Y-90851470D01*
X133851470Y-90946782D01*
X133790282Y-91066870D01*
X133790281Y-91066872D01*
X133769196Y-91199999D01*
X125500000Y-91199999D01*
X125500000Y-89799999D01*
X131969196Y-89799999D01*
X131969196Y-89800000D01*
X131990281Y-89933127D01*
X131990282Y-89933129D01*
X132029307Y-90009719D01*
X132051472Y-90053220D01*
X132146780Y-90148528D01*
X132266874Y-90209719D01*
X132400000Y-90230804D01*
X132533126Y-90209719D01*
X132552203Y-90199999D01*
X155469196Y-90199999D01*
X155469196Y-90200000D01*
X155490281Y-90333127D01*
X155490282Y-90333129D01*
X155497238Y-90346780D01*
X155551472Y-90453220D01*
X155646780Y-90548528D01*
X155766874Y-90609719D01*
X155900000Y-90630804D01*
X156033126Y-90609719D01*
X156153220Y-90548528D01*
X156248528Y-90453220D01*
X156309719Y-90333126D01*
X156330804Y-90200000D01*
X156330804Y-90199999D01*
X164569196Y-90199999D01*
X164569196Y-90200000D01*
X164590281Y-90333127D01*
X164590282Y-90333129D01*
X164597238Y-90346780D01*
X164651472Y-90453220D01*
X164746780Y-90548528D01*
X164866874Y-90609719D01*
X165000000Y-90630804D01*
X165133126Y-90609719D01*
X165253220Y-90548528D01*
X165348528Y-90453220D01*
X165409719Y-90333126D01*
X165430804Y-90200000D01*
X165409719Y-90066874D01*
X165348528Y-89946780D01*
X165253220Y-89851472D01*
X165253217Y-89851470D01*
X165133129Y-89790282D01*
X165133127Y-89790281D01*
X165000000Y-89769196D01*
X164866872Y-89790281D01*
X164866870Y-89790282D01*
X164746782Y-89851470D01*
X164651470Y-89946782D01*
X164590282Y-90066870D01*
X164590281Y-90066872D01*
X164569196Y-90199999D01*
X156330804Y-90199999D01*
X156309719Y-90066874D01*
X156248528Y-89946780D01*
X156153220Y-89851472D01*
X156153217Y-89851470D01*
X156033129Y-89790282D01*
X156033127Y-89790281D01*
X155900000Y-89769196D01*
X155766872Y-89790281D01*
X155766870Y-89790282D01*
X155646782Y-89851470D01*
X155551470Y-89946782D01*
X155490282Y-90066870D01*
X155490281Y-90066872D01*
X155469196Y-90199999D01*
X132552203Y-90199999D01*
X132653220Y-90148528D01*
X132748528Y-90053220D01*
X132809719Y-89933126D01*
X132830804Y-89800000D01*
X132809719Y-89666874D01*
X132748528Y-89546780D01*
X132653220Y-89451472D01*
X132653217Y-89451470D01*
X132533129Y-89390282D01*
X132533127Y-89390281D01*
X132400000Y-89369196D01*
X132266872Y-89390281D01*
X132266870Y-89390282D01*
X132146782Y-89451470D01*
X132051470Y-89546782D01*
X131990282Y-89666870D01*
X131990281Y-89666872D01*
X131969196Y-89799999D01*
X125500000Y-89799999D01*
X125500000Y-89199999D01*
X141769196Y-89199999D01*
X141769196Y-89200000D01*
X141790281Y-89333127D01*
X141790282Y-89333129D01*
X141824355Y-89400000D01*
X141851472Y-89453220D01*
X141946780Y-89548528D01*
X142066874Y-89609719D01*
X142200000Y-89630804D01*
X142333126Y-89609719D01*
X142352203Y-89599999D01*
X144469196Y-89599999D01*
X144469196Y-89600000D01*
X144490281Y-89733127D01*
X144490282Y-89733129D01*
X144551031Y-89852355D01*
X144551472Y-89853220D01*
X144646780Y-89948528D01*
X144766874Y-90009719D01*
X144900000Y-90030804D01*
X145033126Y-90009719D01*
X145153220Y-89948528D01*
X145248528Y-89853220D01*
X145309719Y-89733126D01*
X145330804Y-89600000D01*
X145309719Y-89466874D01*
X145248528Y-89346780D01*
X145153220Y-89251472D01*
X145153217Y-89251470D01*
X145052200Y-89199999D01*
X146569196Y-89199999D01*
X146569196Y-89200000D01*
X146590281Y-89333127D01*
X146590282Y-89333129D01*
X146624355Y-89400000D01*
X146651472Y-89453220D01*
X146746780Y-89548528D01*
X146866874Y-89609719D01*
X147000000Y-89630804D01*
X147133126Y-89609719D01*
X147253220Y-89548528D01*
X147348528Y-89453220D01*
X147409719Y-89333126D01*
X147430804Y-89200000D01*
X147430804Y-89199999D01*
X151969196Y-89199999D01*
X151969196Y-89200000D01*
X151990281Y-89333127D01*
X151990282Y-89333129D01*
X152024355Y-89400000D01*
X152051472Y-89453220D01*
X152146780Y-89548528D01*
X152266874Y-89609719D01*
X152400000Y-89630804D01*
X152533126Y-89609719D01*
X152552203Y-89599999D01*
X161569196Y-89599999D01*
X161569196Y-89600000D01*
X161590281Y-89733127D01*
X161590282Y-89733129D01*
X161651031Y-89852355D01*
X161651472Y-89853220D01*
X161746780Y-89948528D01*
X161866874Y-90009719D01*
X162000000Y-90030804D01*
X162133126Y-90009719D01*
X162253220Y-89948528D01*
X162348528Y-89853220D01*
X162409719Y-89733126D01*
X162430804Y-89600000D01*
X162409719Y-89466874D01*
X162348528Y-89346780D01*
X162253220Y-89251472D01*
X162253217Y-89251470D01*
X162152200Y-89199999D01*
X163369196Y-89199999D01*
X163369196Y-89200000D01*
X163390281Y-89333127D01*
X163390282Y-89333129D01*
X163424355Y-89400000D01*
X163451472Y-89453220D01*
X163546780Y-89548528D01*
X163666874Y-89609719D01*
X163800000Y-89630804D01*
X163933126Y-89609719D01*
X164053220Y-89548528D01*
X164148528Y-89453220D01*
X164175645Y-89400000D01*
X170969196Y-89400000D01*
X170990281Y-89533126D01*
X171051472Y-89653220D01*
X171052407Y-89655055D01*
X171061978Y-89715487D01*
X171052407Y-89744945D01*
X171051472Y-89746779D01*
X171051472Y-89746780D01*
X170990281Y-89866874D01*
X170969196Y-90000000D01*
X170990281Y-90133126D01*
X171047654Y-90245727D01*
X171052407Y-90255055D01*
X171061978Y-90315487D01*
X171052407Y-90344945D01*
X171051472Y-90346779D01*
X171051472Y-90346780D01*
X170990281Y-90466874D01*
X170969196Y-90600000D01*
X170990281Y-90733126D01*
X171050580Y-90851470D01*
X171052407Y-90855055D01*
X171061978Y-90915487D01*
X171052407Y-90944945D01*
X170990281Y-91066874D01*
X170969196Y-91199999D01*
X170969196Y-91200000D01*
X170990281Y-91333127D01*
X170990282Y-91333129D01*
X171024355Y-91400000D01*
X171051472Y-91453220D01*
X171146780Y-91548528D01*
X171266874Y-91609719D01*
X171400000Y-91630804D01*
X171533126Y-91609719D01*
X171653220Y-91548528D01*
X171748528Y-91453220D01*
X171809719Y-91333126D01*
X171830804Y-91200000D01*
X171809719Y-91066874D01*
X171748528Y-90946780D01*
X171748526Y-90946778D01*
X171747593Y-90944946D01*
X171738021Y-90884514D01*
X171747593Y-90855054D01*
X171748526Y-90853221D01*
X171748528Y-90853220D01*
X171809719Y-90733126D01*
X171830804Y-90600000D01*
X171809719Y-90466874D01*
X171748528Y-90346780D01*
X171748526Y-90346778D01*
X171747593Y-90344946D01*
X171738021Y-90284514D01*
X171747593Y-90255054D01*
X171748526Y-90253221D01*
X171748528Y-90253220D01*
X171752346Y-90245727D01*
X174749500Y-90245727D01*
X174749500Y-93754272D01*
X174752353Y-93784693D01*
X174752355Y-93784702D01*
X174797206Y-93912880D01*
X174812149Y-93933127D01*
X174877851Y-94022149D01*
X174987119Y-94102793D01*
X175115302Y-94147646D01*
X175145727Y-94150499D01*
X175145729Y-94150500D01*
X175145736Y-94150500D01*
X178654271Y-94150500D01*
X178654271Y-94150499D01*
X178684698Y-94147646D01*
X178812881Y-94102793D01*
X178922149Y-94022149D01*
X179002793Y-93912881D01*
X179047646Y-93784698D01*
X179050499Y-93754271D01*
X179050500Y-93754271D01*
X179050500Y-90245729D01*
X179050499Y-90245727D01*
X179047646Y-90215302D01*
X179002793Y-90087119D01*
X178922149Y-89977851D01*
X178812881Y-89897207D01*
X178812880Y-89897206D01*
X178684702Y-89852355D01*
X178684693Y-89852353D01*
X178654272Y-89849500D01*
X178654264Y-89849500D01*
X175145736Y-89849500D01*
X175145727Y-89849500D01*
X175115306Y-89852353D01*
X175115297Y-89852355D01*
X174987119Y-89897206D01*
X174877852Y-89977850D01*
X174877850Y-89977852D01*
X174797206Y-90087119D01*
X174752355Y-90215297D01*
X174752353Y-90215306D01*
X174749500Y-90245727D01*
X171752346Y-90245727D01*
X171809719Y-90133126D01*
X171830804Y-90000000D01*
X171809719Y-89866874D01*
X171748528Y-89746780D01*
X171748526Y-89746778D01*
X171747593Y-89744946D01*
X171738021Y-89684514D01*
X171747593Y-89655054D01*
X171748526Y-89653221D01*
X171748528Y-89653220D01*
X171809719Y-89533126D01*
X171830804Y-89400000D01*
X171809719Y-89266874D01*
X171748528Y-89146780D01*
X171653220Y-89051472D01*
X171653217Y-89051470D01*
X171533129Y-88990282D01*
X171533127Y-88990281D01*
X171400000Y-88969196D01*
X171266872Y-88990281D01*
X171266870Y-88990282D01*
X171146782Y-89051470D01*
X171051470Y-89146782D01*
X170990282Y-89266870D01*
X170990281Y-89266872D01*
X170979787Y-89333129D01*
X170969196Y-89400000D01*
X164175645Y-89400000D01*
X164209719Y-89333126D01*
X164230804Y-89200000D01*
X164209719Y-89066874D01*
X164148528Y-88946780D01*
X164053220Y-88851472D01*
X164053217Y-88851470D01*
X163933129Y-88790282D01*
X163933127Y-88790281D01*
X163800000Y-88769196D01*
X163666872Y-88790281D01*
X163666870Y-88790282D01*
X163546782Y-88851470D01*
X163451470Y-88946782D01*
X163390282Y-89066870D01*
X163390281Y-89066872D01*
X163369196Y-89199999D01*
X162152200Y-89199999D01*
X162133129Y-89190282D01*
X162133127Y-89190281D01*
X162000000Y-89169196D01*
X161866872Y-89190281D01*
X161866870Y-89190282D01*
X161746782Y-89251470D01*
X161651470Y-89346782D01*
X161590282Y-89466870D01*
X161590281Y-89466872D01*
X161569196Y-89599999D01*
X152552203Y-89599999D01*
X152653220Y-89548528D01*
X152748528Y-89453220D01*
X152809719Y-89333126D01*
X152830804Y-89200000D01*
X152809719Y-89066874D01*
X152748528Y-88946780D01*
X152653220Y-88851472D01*
X152653217Y-88851470D01*
X152552200Y-88799999D01*
X153569196Y-88799999D01*
X153569196Y-88800000D01*
X153590281Y-88933127D01*
X153590282Y-88933129D01*
X153629307Y-89009719D01*
X153651472Y-89053220D01*
X153746780Y-89148528D01*
X153866874Y-89209719D01*
X154000000Y-89230804D01*
X154133126Y-89209719D01*
X154253220Y-89148528D01*
X154348528Y-89053220D01*
X154409719Y-88933126D01*
X154430804Y-88800000D01*
X154409719Y-88666874D01*
X154348528Y-88546780D01*
X154253220Y-88451472D01*
X154253217Y-88451470D01*
X154152200Y-88399999D01*
X161369196Y-88399999D01*
X161369196Y-88400000D01*
X161390281Y-88533127D01*
X161390282Y-88533129D01*
X161451470Y-88653217D01*
X161451472Y-88653220D01*
X161546780Y-88748528D01*
X161666874Y-88809719D01*
X161800000Y-88830804D01*
X161933126Y-88809719D01*
X162053220Y-88748528D01*
X162148528Y-88653220D01*
X162209719Y-88533126D01*
X162230804Y-88400000D01*
X162209719Y-88266874D01*
X162175644Y-88199999D01*
X176169196Y-88199999D01*
X176169196Y-88200000D01*
X176190281Y-88333127D01*
X176190282Y-88333129D01*
X176241234Y-88433127D01*
X176251472Y-88453220D01*
X176346780Y-88548528D01*
X176466874Y-88609719D01*
X176600000Y-88630804D01*
X176733126Y-88609719D01*
X176853220Y-88548528D01*
X176948528Y-88453220D01*
X177009719Y-88333126D01*
X177030804Y-88200000D01*
X177009719Y-88066874D01*
X176948528Y-87946780D01*
X176853220Y-87851472D01*
X176853217Y-87851470D01*
X176733129Y-87790282D01*
X176733127Y-87790281D01*
X176600000Y-87769196D01*
X176466872Y-87790281D01*
X176466870Y-87790282D01*
X176346782Y-87851470D01*
X176251470Y-87946782D01*
X176190282Y-88066870D01*
X176190281Y-88066872D01*
X176169196Y-88199999D01*
X162175644Y-88199999D01*
X162148528Y-88146780D01*
X162053220Y-88051472D01*
X162053217Y-88051470D01*
X161933129Y-87990282D01*
X161933127Y-87990281D01*
X161800000Y-87969196D01*
X161666872Y-87990281D01*
X161666870Y-87990282D01*
X161546782Y-88051470D01*
X161451470Y-88146782D01*
X161390282Y-88266870D01*
X161390281Y-88266872D01*
X161369196Y-88399999D01*
X154152200Y-88399999D01*
X154133129Y-88390282D01*
X154133127Y-88390281D01*
X154000000Y-88369196D01*
X153866872Y-88390281D01*
X153866870Y-88390282D01*
X153746782Y-88451470D01*
X153651470Y-88546782D01*
X153590282Y-88666870D01*
X153590281Y-88666872D01*
X153569196Y-88799999D01*
X152552200Y-88799999D01*
X152533129Y-88790282D01*
X152533127Y-88790281D01*
X152400000Y-88769196D01*
X152266872Y-88790281D01*
X152266870Y-88790282D01*
X152146782Y-88851470D01*
X152051470Y-88946782D01*
X151990282Y-89066870D01*
X151990281Y-89066872D01*
X151969196Y-89199999D01*
X147430804Y-89199999D01*
X147409719Y-89066874D01*
X147348528Y-88946780D01*
X147253220Y-88851472D01*
X147253217Y-88851470D01*
X147133129Y-88790282D01*
X147133127Y-88790281D01*
X147000000Y-88769196D01*
X146866872Y-88790281D01*
X146866870Y-88790282D01*
X146746782Y-88851470D01*
X146651470Y-88946782D01*
X146590282Y-89066870D01*
X146590281Y-89066872D01*
X146569196Y-89199999D01*
X145052200Y-89199999D01*
X145033129Y-89190282D01*
X145033127Y-89190281D01*
X144900000Y-89169196D01*
X144766872Y-89190281D01*
X144766870Y-89190282D01*
X144646782Y-89251470D01*
X144551470Y-89346782D01*
X144490282Y-89466870D01*
X144490281Y-89466872D01*
X144469196Y-89599999D01*
X142352203Y-89599999D01*
X142453220Y-89548528D01*
X142548528Y-89453220D01*
X142609719Y-89333126D01*
X142630804Y-89200000D01*
X142609719Y-89066874D01*
X142548528Y-88946780D01*
X142453220Y-88851472D01*
X142453217Y-88851470D01*
X142333129Y-88790282D01*
X142333127Y-88790281D01*
X142200000Y-88769196D01*
X142066872Y-88790281D01*
X142066870Y-88790282D01*
X141946782Y-88851470D01*
X141851470Y-88946782D01*
X141790282Y-89066870D01*
X141790281Y-89066872D01*
X141769196Y-89199999D01*
X125500000Y-89199999D01*
X125500000Y-88599999D01*
X140869196Y-88599999D01*
X140869196Y-88600000D01*
X140890281Y-88733127D01*
X140890282Y-88733129D01*
X140950580Y-88851470D01*
X140951472Y-88853220D01*
X141046780Y-88948528D01*
X141166874Y-89009719D01*
X141300000Y-89030804D01*
X141433126Y-89009719D01*
X141553220Y-88948528D01*
X141648528Y-88853220D01*
X141709719Y-88733126D01*
X141730804Y-88600000D01*
X141709719Y-88466874D01*
X141648528Y-88346780D01*
X141601747Y-88299999D01*
X142369196Y-88299999D01*
X142369196Y-88300000D01*
X142390281Y-88433127D01*
X142390282Y-88433129D01*
X142451470Y-88553217D01*
X142451472Y-88553220D01*
X142546780Y-88648528D01*
X142666874Y-88709719D01*
X142800000Y-88730804D01*
X142933126Y-88709719D01*
X143000663Y-88675306D01*
X143061094Y-88665735D01*
X143115611Y-88693512D01*
X143133816Y-88718569D01*
X143151472Y-88753220D01*
X143246780Y-88848528D01*
X143366874Y-88909719D01*
X143500000Y-88930804D01*
X143633126Y-88909719D01*
X143753220Y-88848528D01*
X143848528Y-88753220D01*
X143909719Y-88633126D01*
X143930804Y-88500000D01*
X143909719Y-88366874D01*
X143848528Y-88246780D01*
X143753220Y-88151472D01*
X143753217Y-88151470D01*
X143633129Y-88090282D01*
X143633127Y-88090281D01*
X143500000Y-88069196D01*
X143366874Y-88090281D01*
X143299336Y-88124693D01*
X143238904Y-88134264D01*
X143184387Y-88106486D01*
X143166184Y-88081432D01*
X143148528Y-88046780D01*
X143053220Y-87951472D01*
X143053217Y-87951470D01*
X142933129Y-87890282D01*
X142933127Y-87890281D01*
X142800000Y-87869196D01*
X142666872Y-87890281D01*
X142666870Y-87890282D01*
X142546782Y-87951470D01*
X142451470Y-88046782D01*
X142390282Y-88166870D01*
X142390281Y-88166872D01*
X142369196Y-88299999D01*
X141601747Y-88299999D01*
X141553220Y-88251472D01*
X141553217Y-88251470D01*
X141433129Y-88190282D01*
X141433127Y-88190281D01*
X141300000Y-88169196D01*
X141166872Y-88190281D01*
X141166870Y-88190282D01*
X141046782Y-88251470D01*
X140951470Y-88346782D01*
X140890282Y-88466870D01*
X140890281Y-88466872D01*
X140869196Y-88599999D01*
X125500000Y-88599999D01*
X125500000Y-87799999D01*
X155769196Y-87799999D01*
X155769196Y-87800000D01*
X155790281Y-87933127D01*
X155790282Y-87933129D01*
X155850580Y-88051470D01*
X155851472Y-88053220D01*
X155946780Y-88148528D01*
X156066874Y-88209719D01*
X156200000Y-88230804D01*
X156333126Y-88209719D01*
X156453220Y-88148528D01*
X156548528Y-88053220D01*
X156609719Y-87933126D01*
X156630804Y-87800000D01*
X156609719Y-87666874D01*
X156548528Y-87546780D01*
X156453220Y-87451472D01*
X156453217Y-87451470D01*
X156333129Y-87390282D01*
X156333127Y-87390281D01*
X156200000Y-87369196D01*
X156066872Y-87390281D01*
X156066870Y-87390282D01*
X155946782Y-87451470D01*
X155851470Y-87546782D01*
X155790282Y-87666870D01*
X155790281Y-87666872D01*
X155769196Y-87799999D01*
X125500000Y-87799999D01*
X125500000Y-86999999D01*
X136569196Y-86999999D01*
X136569196Y-87000000D01*
X136590281Y-87133127D01*
X136590282Y-87133129D01*
X136624355Y-87200000D01*
X136651472Y-87253220D01*
X136746780Y-87348528D01*
X136866874Y-87409719D01*
X137000000Y-87430804D01*
X137133126Y-87409719D01*
X137253220Y-87348528D01*
X137348528Y-87253220D01*
X137409719Y-87133126D01*
X137430804Y-87000000D01*
X137430804Y-86999999D01*
X139969196Y-86999999D01*
X139969196Y-87000000D01*
X139990281Y-87133127D01*
X139990282Y-87133129D01*
X140024355Y-87200000D01*
X140051472Y-87253220D01*
X140146780Y-87348528D01*
X140266874Y-87409719D01*
X140400000Y-87430804D01*
X140533126Y-87409719D01*
X140653220Y-87348528D01*
X140748528Y-87253220D01*
X140775645Y-87199999D01*
X164569196Y-87199999D01*
X164569196Y-87200000D01*
X164590281Y-87333127D01*
X164590282Y-87333129D01*
X164629307Y-87409719D01*
X164651472Y-87453220D01*
X164746780Y-87548528D01*
X164866874Y-87609719D01*
X165000000Y-87630804D01*
X165133126Y-87609719D01*
X165253220Y-87548528D01*
X165348528Y-87453220D01*
X165409719Y-87333126D01*
X165430804Y-87200000D01*
X165409719Y-87066874D01*
X165348528Y-86946780D01*
X165253220Y-86851472D01*
X165253217Y-86851470D01*
X165133129Y-86790282D01*
X165133127Y-86790281D01*
X165000000Y-86769196D01*
X164866872Y-86790281D01*
X164866870Y-86790282D01*
X164746782Y-86851470D01*
X164651470Y-86946782D01*
X164590282Y-87066870D01*
X164590281Y-87066872D01*
X164569196Y-87199999D01*
X140775645Y-87199999D01*
X140809719Y-87133126D01*
X140830804Y-87000000D01*
X140809719Y-86866874D01*
X140748528Y-86746780D01*
X140653220Y-86651472D01*
X140653217Y-86651470D01*
X140552200Y-86599999D01*
X149569196Y-86599999D01*
X149569196Y-86600000D01*
X149590281Y-86733127D01*
X149590282Y-86733129D01*
X149619403Y-86790282D01*
X149651472Y-86853220D01*
X149746780Y-86948528D01*
X149866874Y-87009719D01*
X150000000Y-87030804D01*
X150133126Y-87009719D01*
X150253220Y-86948528D01*
X150348528Y-86853220D01*
X150409719Y-86733126D01*
X150430804Y-86600000D01*
X150409719Y-86466874D01*
X150405974Y-86459525D01*
X150348529Y-86346782D01*
X150348528Y-86346780D01*
X150253220Y-86251472D01*
X150253217Y-86251470D01*
X150152200Y-86199999D01*
X155369196Y-86199999D01*
X155369196Y-86200000D01*
X155390281Y-86333127D01*
X155390282Y-86333129D01*
X155397238Y-86346780D01*
X155451472Y-86453220D01*
X155546780Y-86548528D01*
X155666874Y-86609719D01*
X155800000Y-86630804D01*
X155933126Y-86609719D01*
X156053220Y-86548528D01*
X156148528Y-86453220D01*
X156209719Y-86333126D01*
X156230804Y-86200000D01*
X156209719Y-86066874D01*
X156148528Y-85946780D01*
X156053220Y-85851472D01*
X156053217Y-85851470D01*
X155952200Y-85799999D01*
X158169196Y-85799999D01*
X158169196Y-85800000D01*
X158190281Y-85933127D01*
X158190282Y-85933129D01*
X158240050Y-86030804D01*
X158251472Y-86053220D01*
X158346780Y-86148528D01*
X158466874Y-86209719D01*
X158600000Y-86230804D01*
X158733126Y-86209719D01*
X158853220Y-86148528D01*
X158948528Y-86053220D01*
X159009719Y-85933126D01*
X159030804Y-85800000D01*
X159009719Y-85666874D01*
X159009504Y-85666453D01*
X158948529Y-85546782D01*
X158948528Y-85546780D01*
X158853220Y-85451472D01*
X158853217Y-85451470D01*
X158733129Y-85390282D01*
X158733127Y-85390281D01*
X158600000Y-85369196D01*
X158466872Y-85390281D01*
X158466870Y-85390282D01*
X158346782Y-85451470D01*
X158251470Y-85546782D01*
X158190282Y-85666870D01*
X158190281Y-85666872D01*
X158169196Y-85799999D01*
X155952200Y-85799999D01*
X155933129Y-85790282D01*
X155933127Y-85790281D01*
X155800000Y-85769196D01*
X155666872Y-85790281D01*
X155666870Y-85790282D01*
X155546782Y-85851470D01*
X155451470Y-85946782D01*
X155390282Y-86066870D01*
X155390281Y-86066872D01*
X155369196Y-86199999D01*
X150152200Y-86199999D01*
X150133129Y-86190282D01*
X150133127Y-86190281D01*
X150000000Y-86169196D01*
X149866872Y-86190281D01*
X149866870Y-86190282D01*
X149746782Y-86251470D01*
X149651470Y-86346782D01*
X149590282Y-86466870D01*
X149590281Y-86466872D01*
X149569196Y-86599999D01*
X140552200Y-86599999D01*
X140533129Y-86590282D01*
X140533127Y-86590281D01*
X140400000Y-86569196D01*
X140266872Y-86590281D01*
X140266870Y-86590282D01*
X140146782Y-86651470D01*
X140051470Y-86746782D01*
X139990282Y-86866870D01*
X139990281Y-86866872D01*
X139969196Y-86999999D01*
X137430804Y-86999999D01*
X137409719Y-86866874D01*
X137348528Y-86746780D01*
X137348526Y-86746778D01*
X137343947Y-86740475D01*
X137345072Y-86739657D01*
X137321105Y-86692618D01*
X137330676Y-86632186D01*
X137373937Y-86588924D01*
X137453220Y-86548528D01*
X137548528Y-86453220D01*
X137609719Y-86333126D01*
X137630804Y-86200000D01*
X137630804Y-86199999D01*
X138569196Y-86199999D01*
X138569196Y-86200000D01*
X138590281Y-86333127D01*
X138590282Y-86333129D01*
X138597238Y-86346780D01*
X138651472Y-86453220D01*
X138746780Y-86548528D01*
X138866874Y-86609719D01*
X139000000Y-86630804D01*
X139133126Y-86609719D01*
X139253220Y-86548528D01*
X139348528Y-86453220D01*
X139409719Y-86333126D01*
X139430804Y-86200000D01*
X139420278Y-86133544D01*
X139429849Y-86073115D01*
X139473113Y-86029850D01*
X139533543Y-86020278D01*
X139600000Y-86030804D01*
X139733126Y-86009719D01*
X139853220Y-85948528D01*
X139948528Y-85853220D01*
X140009719Y-85733126D01*
X140030804Y-85600000D01*
X140009719Y-85466874D01*
X139975644Y-85399999D01*
X149769196Y-85399999D01*
X149769196Y-85400000D01*
X149790281Y-85533127D01*
X149790282Y-85533129D01*
X149824355Y-85600000D01*
X149851472Y-85653220D01*
X149946780Y-85748528D01*
X150066874Y-85809719D01*
X150200000Y-85830804D01*
X150333126Y-85809719D01*
X150453220Y-85748528D01*
X150548528Y-85653220D01*
X150609719Y-85533126D01*
X150630804Y-85400000D01*
X150609719Y-85266874D01*
X150548528Y-85146780D01*
X150453220Y-85051472D01*
X150453217Y-85051470D01*
X150352200Y-84999999D01*
X154869196Y-84999999D01*
X154869196Y-85000000D01*
X154890281Y-85133127D01*
X154890282Y-85133129D01*
X154929307Y-85209719D01*
X154951472Y-85253220D01*
X155046780Y-85348528D01*
X155166874Y-85409719D01*
X155300000Y-85430804D01*
X155433126Y-85409719D01*
X155553220Y-85348528D01*
X155648528Y-85253220D01*
X155709719Y-85133126D01*
X155730804Y-85000000D01*
X155709719Y-84866874D01*
X155675644Y-84799999D01*
X167769196Y-84799999D01*
X167769196Y-84800000D01*
X167790281Y-84933127D01*
X167790282Y-84933129D01*
X167824355Y-85000000D01*
X167851472Y-85053220D01*
X167946780Y-85148528D01*
X168066874Y-85209719D01*
X168200000Y-85230804D01*
X168333126Y-85209719D01*
X168453220Y-85148528D01*
X168548528Y-85053220D01*
X168609719Y-84933126D01*
X168630804Y-84800000D01*
X168628928Y-84788158D01*
X168619237Y-84726968D01*
X168609719Y-84666874D01*
X168548528Y-84546780D01*
X168453220Y-84451472D01*
X168453217Y-84451470D01*
X168333129Y-84390282D01*
X168333127Y-84390281D01*
X168200000Y-84369196D01*
X168066872Y-84390281D01*
X168066870Y-84390282D01*
X167946782Y-84451470D01*
X167851470Y-84546782D01*
X167790282Y-84666870D01*
X167790281Y-84666872D01*
X167769196Y-84799999D01*
X155675644Y-84799999D01*
X155648528Y-84746780D01*
X155553220Y-84651472D01*
X155553217Y-84651470D01*
X155433129Y-84590282D01*
X155433127Y-84590281D01*
X155300000Y-84569196D01*
X155166872Y-84590281D01*
X155166870Y-84590282D01*
X155046782Y-84651470D01*
X154951470Y-84746782D01*
X154890282Y-84866870D01*
X154890281Y-84866872D01*
X154869196Y-84999999D01*
X150352200Y-84999999D01*
X150333129Y-84990282D01*
X150333127Y-84990281D01*
X150200000Y-84969196D01*
X150066872Y-84990281D01*
X150066870Y-84990282D01*
X149946782Y-85051470D01*
X149851470Y-85146782D01*
X149790282Y-85266870D01*
X149790281Y-85266872D01*
X149769196Y-85399999D01*
X139975644Y-85399999D01*
X139948528Y-85346780D01*
X139853220Y-85251472D01*
X139853217Y-85251470D01*
X139733129Y-85190282D01*
X139733128Y-85190281D01*
X139701687Y-85185301D01*
X139647171Y-85157522D01*
X139619394Y-85103005D01*
X139619395Y-85072033D01*
X139630804Y-85000000D01*
X139630804Y-84999999D01*
X139625925Y-84969196D01*
X139609719Y-84866874D01*
X139548528Y-84746780D01*
X139471749Y-84670001D01*
X139443974Y-84615487D01*
X139453545Y-84555055D01*
X139471748Y-84529999D01*
X139548528Y-84453220D01*
X139586631Y-84378438D01*
X147233261Y-84378438D01*
X147233261Y-84378439D01*
X147254346Y-84511566D01*
X147254347Y-84511568D01*
X147315101Y-84630804D01*
X147315537Y-84631659D01*
X147410845Y-84726967D01*
X147530939Y-84788158D01*
X147664065Y-84809243D01*
X147768396Y-84792718D01*
X147828824Y-84802289D01*
X147872089Y-84845553D01*
X147901472Y-84903220D01*
X147996780Y-84998528D01*
X148116874Y-85059719D01*
X148250000Y-85080804D01*
X148383126Y-85059719D01*
X148503220Y-84998528D01*
X148598528Y-84903220D01*
X148659719Y-84783126D01*
X148680804Y-84650000D01*
X148659719Y-84516874D01*
X148598528Y-84396780D01*
X148503220Y-84301472D01*
X148503217Y-84301470D01*
X148383129Y-84240282D01*
X148383127Y-84240281D01*
X148250000Y-84219196D01*
X148145671Y-84235720D01*
X148085239Y-84226149D01*
X148041975Y-84182885D01*
X148012593Y-84125219D01*
X147987373Y-84099999D01*
X156519196Y-84099999D01*
X156519196Y-84100000D01*
X156540281Y-84233127D01*
X156540282Y-84233129D01*
X156591234Y-84333127D01*
X156601472Y-84353220D01*
X156696780Y-84448528D01*
X156816874Y-84509719D01*
X156950000Y-84530804D01*
X157083126Y-84509719D01*
X157203220Y-84448528D01*
X157298528Y-84353220D01*
X157325645Y-84299999D01*
X158069196Y-84299999D01*
X158069196Y-84300000D01*
X158090281Y-84433127D01*
X158090282Y-84433129D01*
X158151470Y-84553217D01*
X158151472Y-84553220D01*
X158246780Y-84648528D01*
X158366874Y-84709719D01*
X158500000Y-84730804D01*
X158633126Y-84709719D01*
X158753220Y-84648528D01*
X158848528Y-84553220D01*
X158909719Y-84433126D01*
X158930804Y-84300000D01*
X158909719Y-84166874D01*
X158848528Y-84046780D01*
X158753220Y-83951472D01*
X158753217Y-83951470D01*
X158633129Y-83890282D01*
X158633127Y-83890281D01*
X158500000Y-83869196D01*
X158366872Y-83890281D01*
X158366870Y-83890282D01*
X158246782Y-83951470D01*
X158151470Y-84046782D01*
X158090282Y-84166870D01*
X158090281Y-84166872D01*
X158069196Y-84299999D01*
X157325645Y-84299999D01*
X157359719Y-84233126D01*
X157380804Y-84100000D01*
X157359719Y-83966874D01*
X157298528Y-83846780D01*
X157203220Y-83751472D01*
X157203217Y-83751470D01*
X157083129Y-83690282D01*
X157083127Y-83690281D01*
X156950000Y-83669196D01*
X156816872Y-83690281D01*
X156816870Y-83690282D01*
X156696782Y-83751470D01*
X156601470Y-83846782D01*
X156540282Y-83966870D01*
X156540281Y-83966872D01*
X156519196Y-84099999D01*
X147987373Y-84099999D01*
X147917285Y-84029911D01*
X147917282Y-84029909D01*
X147797194Y-83968721D01*
X147797192Y-83968720D01*
X147664065Y-83947635D01*
X147530937Y-83968720D01*
X147530935Y-83968721D01*
X147410847Y-84029909D01*
X147315535Y-84125221D01*
X147254347Y-84245309D01*
X147254346Y-84245311D01*
X147233261Y-84378438D01*
X139586631Y-84378438D01*
X139609719Y-84333126D01*
X139630804Y-84200000D01*
X139609719Y-84066874D01*
X139548528Y-83946780D01*
X139453220Y-83851472D01*
X139453217Y-83851470D01*
X139333129Y-83790282D01*
X139333127Y-83790281D01*
X139200000Y-83769196D01*
X139066872Y-83790281D01*
X139066870Y-83790282D01*
X138946782Y-83851470D01*
X138851470Y-83946782D01*
X138790282Y-84066870D01*
X138790281Y-84066872D01*
X138769196Y-84199999D01*
X138769196Y-84200000D01*
X138790281Y-84333127D01*
X138790282Y-84333129D01*
X138850580Y-84451470D01*
X138851472Y-84453220D01*
X138928250Y-84529998D01*
X138956026Y-84584513D01*
X138946455Y-84644945D01*
X138928251Y-84670000D01*
X138888535Y-84709717D01*
X138851470Y-84746782D01*
X138790282Y-84866870D01*
X138790281Y-84866872D01*
X138769196Y-84999999D01*
X138769196Y-85000000D01*
X138790281Y-85133127D01*
X138790282Y-85133129D01*
X138829307Y-85209719D01*
X138851472Y-85253220D01*
X138946780Y-85348528D01*
X139066874Y-85409719D01*
X139098311Y-85414698D01*
X139152827Y-85442475D01*
X139180605Y-85496992D01*
X139180605Y-85527966D01*
X139169196Y-85599999D01*
X139169196Y-85600000D01*
X139179721Y-85666453D01*
X139170150Y-85726885D01*
X139126885Y-85770150D01*
X139066453Y-85779721D01*
X139000000Y-85769196D01*
X138866872Y-85790281D01*
X138866870Y-85790282D01*
X138746782Y-85851470D01*
X138651470Y-85946782D01*
X138590282Y-86066870D01*
X138590281Y-86066872D01*
X138569196Y-86199999D01*
X137630804Y-86199999D01*
X137609719Y-86066874D01*
X137548528Y-85946780D01*
X137453220Y-85851472D01*
X137453217Y-85851470D01*
X137333129Y-85790282D01*
X137333127Y-85790281D01*
X137200000Y-85769196D01*
X137066872Y-85790281D01*
X137066870Y-85790282D01*
X136946782Y-85851470D01*
X136851470Y-85946782D01*
X136790282Y-86066870D01*
X136790281Y-86066872D01*
X136769196Y-86199999D01*
X136769196Y-86200000D01*
X136790281Y-86333127D01*
X136790282Y-86333129D01*
X136851470Y-86453217D01*
X136856053Y-86459525D01*
X136854927Y-86460342D01*
X136878894Y-86507381D01*
X136869323Y-86567813D01*
X136826059Y-86611077D01*
X136746781Y-86651471D01*
X136651470Y-86746782D01*
X136590282Y-86866870D01*
X136590281Y-86866872D01*
X136569196Y-86999999D01*
X125500000Y-86999999D01*
X125500000Y-84199999D01*
X136969196Y-84199999D01*
X136969196Y-84200000D01*
X136990281Y-84333127D01*
X136990282Y-84333129D01*
X137050580Y-84451470D01*
X137051472Y-84453220D01*
X137146780Y-84548528D01*
X137266874Y-84609719D01*
X137400000Y-84630804D01*
X137533126Y-84609719D01*
X137653220Y-84548528D01*
X137748528Y-84453220D01*
X137809719Y-84333126D01*
X137830804Y-84200000D01*
X137809719Y-84066874D01*
X137748528Y-83946780D01*
X137653220Y-83851472D01*
X137653217Y-83851470D01*
X137533129Y-83790282D01*
X137533127Y-83790281D01*
X137400000Y-83769196D01*
X137266872Y-83790281D01*
X137266870Y-83790282D01*
X137146782Y-83851470D01*
X137051470Y-83946782D01*
X136990282Y-84066870D01*
X136990281Y-84066872D01*
X136969196Y-84199999D01*
X125500000Y-84199999D01*
X125500000Y-83199999D01*
X131769196Y-83199999D01*
X131769196Y-83200000D01*
X131790281Y-83333127D01*
X131790282Y-83333129D01*
X131824355Y-83400000D01*
X131851472Y-83453220D01*
X131946780Y-83548528D01*
X132066874Y-83609719D01*
X132200000Y-83630804D01*
X132333126Y-83609719D01*
X132453220Y-83548528D01*
X132548528Y-83453220D01*
X132575645Y-83399999D01*
X149269196Y-83399999D01*
X149269196Y-83400000D01*
X149290281Y-83533127D01*
X149290282Y-83533129D01*
X149329307Y-83609719D01*
X149351472Y-83653220D01*
X149446780Y-83748528D01*
X149566874Y-83809719D01*
X149700000Y-83830804D01*
X149833126Y-83809719D01*
X149953220Y-83748528D01*
X150048528Y-83653220D01*
X150109719Y-83533126D01*
X150130804Y-83400000D01*
X150129635Y-83392622D01*
X150122084Y-83344945D01*
X150109719Y-83266874D01*
X150048528Y-83146780D01*
X149953220Y-83051472D01*
X149953217Y-83051470D01*
X149833129Y-82990282D01*
X149833127Y-82990281D01*
X149700000Y-82969196D01*
X149566872Y-82990281D01*
X149566870Y-82990282D01*
X149446782Y-83051470D01*
X149351470Y-83146782D01*
X149290282Y-83266870D01*
X149290281Y-83266872D01*
X149269196Y-83399999D01*
X132575645Y-83399999D01*
X132609719Y-83333126D01*
X132630804Y-83200000D01*
X132609719Y-83066874D01*
X132609718Y-83066872D01*
X132609718Y-83066870D01*
X132609035Y-83064767D01*
X132609035Y-83062556D01*
X132608500Y-83059178D01*
X132609035Y-83059093D01*
X132609036Y-83003582D01*
X132645001Y-82954083D01*
X132648658Y-82951842D01*
X132653215Y-82948531D01*
X132653215Y-82948530D01*
X132653220Y-82948528D01*
X132748528Y-82853220D01*
X132788923Y-82773939D01*
X132832185Y-82730677D01*
X132892617Y-82721105D01*
X132939657Y-82745072D01*
X132940475Y-82743947D01*
X132946778Y-82748526D01*
X132946780Y-82748528D01*
X132946782Y-82748529D01*
X133065533Y-82809036D01*
X133066874Y-82809719D01*
X133200000Y-82830804D01*
X133333126Y-82809719D01*
X133333127Y-82809718D01*
X133333129Y-82809718D01*
X133335233Y-82809035D01*
X133337443Y-82809035D01*
X133340822Y-82808500D01*
X133340906Y-82809035D01*
X133396418Y-82809036D01*
X133445917Y-82845001D01*
X133448158Y-82848658D01*
X133451470Y-82853217D01*
X133451472Y-82853220D01*
X133546780Y-82948528D01*
X133666874Y-83009719D01*
X133800000Y-83030804D01*
X133933126Y-83009719D01*
X134053220Y-82948528D01*
X134101749Y-82899999D01*
X146569196Y-82899999D01*
X146569196Y-82900000D01*
X146590281Y-83033127D01*
X146590282Y-83033129D01*
X146651470Y-83153217D01*
X146651472Y-83153220D01*
X146746780Y-83248528D01*
X146866874Y-83309719D01*
X147000000Y-83330804D01*
X147133126Y-83309719D01*
X147253220Y-83248528D01*
X147348528Y-83153220D01*
X147409719Y-83033126D01*
X147430804Y-82900000D01*
X147430361Y-82897206D01*
X147423118Y-82851472D01*
X147409719Y-82766874D01*
X147348528Y-82646780D01*
X147301747Y-82599999D01*
X151644750Y-82599999D01*
X151644750Y-82600000D01*
X151663669Y-82743708D01*
X151663670Y-82743709D01*
X151708671Y-82852354D01*
X151719139Y-82877625D01*
X151807379Y-82992621D01*
X151922375Y-83080861D01*
X152056291Y-83136330D01*
X152200000Y-83155250D01*
X152343709Y-83136330D01*
X152477625Y-83080861D01*
X152539732Y-83033203D01*
X152597407Y-83012779D01*
X152656073Y-83030156D01*
X152660268Y-83033204D01*
X152722369Y-83080857D01*
X152722371Y-83080858D01*
X152722375Y-83080861D01*
X152856291Y-83136330D01*
X153000000Y-83155250D01*
X153143709Y-83136330D01*
X153277625Y-83080861D01*
X153392621Y-82992621D01*
X153480861Y-82877625D01*
X153536330Y-82743709D01*
X153555250Y-82600000D01*
X153555250Y-82599999D01*
X160444750Y-82599999D01*
X160444750Y-82600000D01*
X160463669Y-82743708D01*
X160463670Y-82743709D01*
X160508671Y-82852354D01*
X160519139Y-82877625D01*
X160607379Y-82992621D01*
X160722375Y-83080861D01*
X160856291Y-83136330D01*
X161000000Y-83155250D01*
X161143709Y-83136330D01*
X161277625Y-83080861D01*
X161339732Y-83033203D01*
X161397407Y-83012779D01*
X161456073Y-83030156D01*
X161460268Y-83033204D01*
X161522369Y-83080857D01*
X161522371Y-83080858D01*
X161522375Y-83080861D01*
X161656291Y-83136330D01*
X161800000Y-83155250D01*
X161943709Y-83136330D01*
X162077625Y-83080861D01*
X162192621Y-82992621D01*
X162280861Y-82877625D01*
X162336330Y-82743709D01*
X162355250Y-82600000D01*
X162336330Y-82456291D01*
X162280861Y-82322375D01*
X162192621Y-82207379D01*
X162077625Y-82119139D01*
X162077621Y-82119137D01*
X161943709Y-82063670D01*
X161943708Y-82063669D01*
X161800000Y-82044750D01*
X161656291Y-82063669D01*
X161656290Y-82063670D01*
X161522378Y-82119137D01*
X161522374Y-82119139D01*
X161460268Y-82166796D01*
X161402592Y-82187220D01*
X161343926Y-82169843D01*
X161339732Y-82166796D01*
X161324342Y-82154987D01*
X161277625Y-82119139D01*
X161277621Y-82119137D01*
X161143709Y-82063670D01*
X161143708Y-82063669D01*
X161000000Y-82044750D01*
X160856291Y-82063669D01*
X160856290Y-82063670D01*
X160722378Y-82119137D01*
X160722374Y-82119139D01*
X160607381Y-82207377D01*
X160607377Y-82207381D01*
X160519139Y-82322374D01*
X160519137Y-82322378D01*
X160463670Y-82456290D01*
X160463669Y-82456291D01*
X160444750Y-82599999D01*
X153555250Y-82599999D01*
X153536330Y-82456291D01*
X153480861Y-82322375D01*
X153392621Y-82207379D01*
X153277625Y-82119139D01*
X153277621Y-82119137D01*
X153143709Y-82063670D01*
X153143708Y-82063669D01*
X153000000Y-82044750D01*
X152856291Y-82063669D01*
X152856290Y-82063670D01*
X152722378Y-82119137D01*
X152722374Y-82119139D01*
X152660268Y-82166796D01*
X152602592Y-82187220D01*
X152543926Y-82169843D01*
X152539732Y-82166796D01*
X152524342Y-82154987D01*
X152477625Y-82119139D01*
X152477621Y-82119137D01*
X152343709Y-82063670D01*
X152343708Y-82063669D01*
X152200000Y-82044750D01*
X152056291Y-82063669D01*
X152056290Y-82063670D01*
X151922378Y-82119137D01*
X151922374Y-82119139D01*
X151807381Y-82207377D01*
X151807377Y-82207381D01*
X151719139Y-82322374D01*
X151719137Y-82322378D01*
X151663670Y-82456290D01*
X151663669Y-82456291D01*
X151644750Y-82599999D01*
X147301747Y-82599999D01*
X147253220Y-82551472D01*
X147253217Y-82551470D01*
X147133129Y-82490282D01*
X147133127Y-82490281D01*
X147000000Y-82469196D01*
X146866872Y-82490281D01*
X146866870Y-82490282D01*
X146746782Y-82551470D01*
X146651470Y-82646782D01*
X146590282Y-82766870D01*
X146590281Y-82766872D01*
X146569196Y-82899999D01*
X134101749Y-82899999D01*
X134148528Y-82853220D01*
X134209719Y-82733126D01*
X134230804Y-82600000D01*
X134230393Y-82597408D01*
X134223118Y-82551472D01*
X134209719Y-82466874D01*
X134148528Y-82346780D01*
X134053220Y-82251472D01*
X134053217Y-82251470D01*
X133933129Y-82190282D01*
X133933127Y-82190281D01*
X133800000Y-82169196D01*
X133666865Y-82190282D01*
X133664755Y-82190968D01*
X133662539Y-82190967D01*
X133659179Y-82191500D01*
X133659094Y-82190967D01*
X133603570Y-82190959D01*
X133554075Y-82154987D01*
X133551838Y-82151335D01*
X133548531Y-82146784D01*
X133548529Y-82146782D01*
X133548528Y-82146780D01*
X133453220Y-82051472D01*
X133453217Y-82051470D01*
X133333129Y-81990282D01*
X133333127Y-81990281D01*
X133200000Y-81969196D01*
X133066872Y-81990281D01*
X133066870Y-81990282D01*
X132946782Y-82051470D01*
X132851471Y-82146781D01*
X132811077Y-82226059D01*
X132767812Y-82269323D01*
X132707380Y-82278894D01*
X132660342Y-82254927D01*
X132659525Y-82256053D01*
X132653217Y-82251470D01*
X132533129Y-82190282D01*
X132533127Y-82190281D01*
X132400000Y-82169196D01*
X132266872Y-82190281D01*
X132266870Y-82190282D01*
X132146782Y-82251470D01*
X132051470Y-82346782D01*
X131990282Y-82466870D01*
X131990281Y-82466872D01*
X131969196Y-82599999D01*
X131969196Y-82600000D01*
X131990282Y-82733132D01*
X131990966Y-82735238D01*
X131990965Y-82737449D01*
X131991500Y-82740822D01*
X131990965Y-82740906D01*
X131990961Y-82796423D01*
X131954992Y-82845920D01*
X131951339Y-82848159D01*
X131946782Y-82851470D01*
X131851470Y-82946782D01*
X131790282Y-83066870D01*
X131790281Y-83066872D01*
X131769196Y-83199999D01*
X125500000Y-83199999D01*
X125500000Y-81199999D01*
X133169196Y-81199999D01*
X133169196Y-81200000D01*
X133190281Y-81333127D01*
X133190282Y-81333129D01*
X133229307Y-81409719D01*
X133251472Y-81453220D01*
X133346780Y-81548528D01*
X133466874Y-81609719D01*
X133600000Y-81630804D01*
X133733126Y-81609719D01*
X133853220Y-81548528D01*
X133948528Y-81453220D01*
X134009719Y-81333126D01*
X134030804Y-81200000D01*
X134009719Y-81066874D01*
X133948528Y-80946780D01*
X133853220Y-80851472D01*
X133853217Y-80851470D01*
X133752200Y-80799999D01*
X136769196Y-80799999D01*
X136769196Y-80800000D01*
X136790281Y-80933127D01*
X136790282Y-80933129D01*
X136851470Y-81053217D01*
X136851472Y-81053220D01*
X136946780Y-81148528D01*
X137066874Y-81209719D01*
X137200000Y-81230804D01*
X137333126Y-81209719D01*
X137352203Y-81199999D01*
X142169196Y-81199999D01*
X142169196Y-81200000D01*
X142190281Y-81333127D01*
X142190282Y-81333129D01*
X142229307Y-81409719D01*
X142251472Y-81453220D01*
X142346780Y-81548528D01*
X142466874Y-81609719D01*
X142600000Y-81630804D01*
X142733126Y-81609719D01*
X142853220Y-81548528D01*
X142948528Y-81453220D01*
X143009719Y-81333126D01*
X143014698Y-81301688D01*
X143042475Y-81247172D01*
X143096991Y-81219394D01*
X143127960Y-81219394D01*
X143200000Y-81230804D01*
X143272033Y-81219395D01*
X143332465Y-81228966D01*
X143375730Y-81272231D01*
X143385301Y-81301687D01*
X143390281Y-81333128D01*
X143390282Y-81333129D01*
X143429307Y-81409719D01*
X143451472Y-81453220D01*
X143546780Y-81548528D01*
X143666874Y-81609719D01*
X143800000Y-81630804D01*
X143933126Y-81609719D01*
X144053220Y-81548528D01*
X144148528Y-81453220D01*
X144209719Y-81333126D01*
X144214698Y-81301688D01*
X144242475Y-81247172D01*
X144296991Y-81219394D01*
X144327960Y-81219394D01*
X144400000Y-81230804D01*
X144533126Y-81209719D01*
X144653220Y-81148528D01*
X144748528Y-81053220D01*
X144784972Y-80981693D01*
X144828236Y-80938430D01*
X144888668Y-80928859D01*
X144943185Y-80956636D01*
X144970962Y-81011153D01*
X144990281Y-81133127D01*
X144990282Y-81133129D01*
X145040050Y-81230804D01*
X145051472Y-81253220D01*
X145146780Y-81348528D01*
X145266874Y-81409719D01*
X145400000Y-81430804D01*
X145533126Y-81409719D01*
X145552203Y-81399999D01*
X162644750Y-81399999D01*
X162644750Y-81400000D01*
X162663669Y-81543708D01*
X162663670Y-81543709D01*
X162719137Y-81677621D01*
X162719139Y-81677625D01*
X162766796Y-81739732D01*
X162787220Y-81797408D01*
X162769843Y-81856074D01*
X162766796Y-81860268D01*
X162719139Y-81922374D01*
X162719137Y-81922378D01*
X162663670Y-82056290D01*
X162663669Y-82056291D01*
X162644750Y-82199999D01*
X162644750Y-82200000D01*
X162663669Y-82343708D01*
X162663670Y-82343709D01*
X162715647Y-82469196D01*
X162719139Y-82477625D01*
X162761727Y-82533127D01*
X162766796Y-82539732D01*
X162787220Y-82597408D01*
X162769843Y-82656074D01*
X162766796Y-82660268D01*
X162719139Y-82722374D01*
X162719137Y-82722378D01*
X162663670Y-82856290D01*
X162663669Y-82856291D01*
X162644750Y-82999999D01*
X162644750Y-83000000D01*
X162663669Y-83143708D01*
X162663670Y-83143709D01*
X162705926Y-83245727D01*
X162719139Y-83277625D01*
X162807379Y-83392621D01*
X162922375Y-83480861D01*
X163056291Y-83536330D01*
X163200000Y-83555250D01*
X163343709Y-83536330D01*
X163477625Y-83480861D01*
X163592621Y-83392621D01*
X163680861Y-83277625D01*
X163736330Y-83143709D01*
X163755250Y-83000000D01*
X163754001Y-82990516D01*
X163736330Y-82856291D01*
X163680861Y-82722375D01*
X163680858Y-82722371D01*
X163680857Y-82722369D01*
X163633204Y-82660268D01*
X163612779Y-82602593D01*
X163630156Y-82543927D01*
X163633204Y-82539732D01*
X163638273Y-82533127D01*
X163680861Y-82477625D01*
X163736330Y-82343709D01*
X163755250Y-82200000D01*
X163753970Y-82190281D01*
X163736330Y-82056291D01*
X163680861Y-81922375D01*
X163680858Y-81922371D01*
X163680857Y-81922369D01*
X163633204Y-81860268D01*
X163612779Y-81802593D01*
X163630156Y-81743927D01*
X163633204Y-81739732D01*
X163680857Y-81677630D01*
X163680856Y-81677630D01*
X163680861Y-81677625D01*
X163736330Y-81543709D01*
X163755250Y-81400000D01*
X163755250Y-81399999D01*
X165644750Y-81399999D01*
X165644750Y-81400000D01*
X165663669Y-81543708D01*
X165663670Y-81543709D01*
X165719137Y-81677621D01*
X165719139Y-81677625D01*
X165766796Y-81739732D01*
X165787220Y-81797408D01*
X165769843Y-81856074D01*
X165766796Y-81860268D01*
X165719139Y-81922374D01*
X165719137Y-81922378D01*
X165663670Y-82056290D01*
X165663669Y-82056291D01*
X165644750Y-82199999D01*
X165644750Y-82200000D01*
X165663669Y-82343708D01*
X165663670Y-82343709D01*
X165715647Y-82469196D01*
X165719139Y-82477625D01*
X165807379Y-82592621D01*
X165922375Y-82680861D01*
X166056291Y-82736330D01*
X166200000Y-82755250D01*
X166343709Y-82736330D01*
X166477625Y-82680861D01*
X166592621Y-82592621D01*
X166680861Y-82477625D01*
X166736330Y-82343709D01*
X166755250Y-82200000D01*
X166753970Y-82190281D01*
X166736330Y-82056291D01*
X166680861Y-81922375D01*
X166680858Y-81922371D01*
X166680857Y-81922369D01*
X166633204Y-81860268D01*
X166612779Y-81802593D01*
X166630156Y-81743927D01*
X166633204Y-81739732D01*
X166680857Y-81677630D01*
X166680856Y-81677630D01*
X166680861Y-81677625D01*
X166736330Y-81543709D01*
X166755250Y-81400000D01*
X166755250Y-81399999D01*
X168044750Y-81399999D01*
X168044750Y-81400000D01*
X168063669Y-81543708D01*
X168063670Y-81543709D01*
X168119137Y-81677621D01*
X168119139Y-81677625D01*
X168166796Y-81739732D01*
X168187220Y-81797408D01*
X168169843Y-81856074D01*
X168166796Y-81860268D01*
X168119139Y-81922374D01*
X168119137Y-81922378D01*
X168063670Y-82056290D01*
X168063669Y-82056291D01*
X168044750Y-82199999D01*
X168044750Y-82200000D01*
X168063669Y-82343708D01*
X168063670Y-82343709D01*
X168115647Y-82469196D01*
X168119139Y-82477625D01*
X168161727Y-82533127D01*
X168166796Y-82539732D01*
X168187220Y-82597408D01*
X168169843Y-82656074D01*
X168166796Y-82660268D01*
X168119139Y-82722374D01*
X168119137Y-82722378D01*
X168063670Y-82856290D01*
X168063669Y-82856291D01*
X168044750Y-82999999D01*
X168044750Y-83000000D01*
X168063669Y-83143708D01*
X168063670Y-83143709D01*
X168105926Y-83245727D01*
X168119139Y-83277625D01*
X168207379Y-83392621D01*
X168322375Y-83480861D01*
X168456291Y-83536330D01*
X168600000Y-83555250D01*
X168743709Y-83536330D01*
X168877625Y-83480861D01*
X168992621Y-83392621D01*
X169080861Y-83277625D01*
X169136330Y-83143709D01*
X169155250Y-83000000D01*
X169154001Y-82990516D01*
X169136330Y-82856291D01*
X169080861Y-82722375D01*
X169080858Y-82722371D01*
X169080857Y-82722369D01*
X169033204Y-82660268D01*
X169012779Y-82602593D01*
X169030156Y-82543927D01*
X169033204Y-82539732D01*
X169038273Y-82533127D01*
X169080861Y-82477625D01*
X169113014Y-82400000D01*
X170969196Y-82400000D01*
X170990281Y-82533126D01*
X171024355Y-82599999D01*
X171052407Y-82655055D01*
X171061978Y-82715487D01*
X171052407Y-82744945D01*
X170990281Y-82866874D01*
X170970365Y-82992622D01*
X170969196Y-83000000D01*
X170990281Y-83133126D01*
X171001554Y-83155250D01*
X171052407Y-83255055D01*
X171061978Y-83315487D01*
X171052407Y-83344945D01*
X171051472Y-83346779D01*
X171051472Y-83346780D01*
X170990281Y-83466874D01*
X170969196Y-83600000D01*
X170990281Y-83733126D01*
X171048191Y-83846780D01*
X171052407Y-83855055D01*
X171061978Y-83915487D01*
X171052407Y-83944945D01*
X171051472Y-83946779D01*
X171051472Y-83946780D01*
X171009116Y-84029909D01*
X170990281Y-84066874D01*
X170969196Y-84199999D01*
X170969196Y-84200000D01*
X170990281Y-84333127D01*
X170990282Y-84333129D01*
X171050580Y-84451470D01*
X171051472Y-84453220D01*
X171146780Y-84548528D01*
X171266874Y-84609719D01*
X171400000Y-84630804D01*
X171533126Y-84609719D01*
X171653220Y-84548528D01*
X171748528Y-84453220D01*
X171809719Y-84333126D01*
X171830804Y-84200000D01*
X171809719Y-84066874D01*
X171748528Y-83946780D01*
X171748526Y-83946778D01*
X171747593Y-83944946D01*
X171738021Y-83884514D01*
X171747593Y-83855054D01*
X171748526Y-83853221D01*
X171748528Y-83853220D01*
X171809719Y-83733126D01*
X171830804Y-83600000D01*
X171809719Y-83466874D01*
X171748528Y-83346780D01*
X171748526Y-83346778D01*
X171747593Y-83344946D01*
X171738021Y-83284514D01*
X171747593Y-83255054D01*
X171748526Y-83253221D01*
X171748528Y-83253220D01*
X171752346Y-83245727D01*
X174749500Y-83245727D01*
X174749500Y-86754272D01*
X174752353Y-86784693D01*
X174752355Y-86784702D01*
X174797206Y-86912880D01*
X174797207Y-86912881D01*
X174877851Y-87022149D01*
X174987119Y-87102793D01*
X175115302Y-87147646D01*
X175145727Y-87150499D01*
X175145729Y-87150500D01*
X175145736Y-87150500D01*
X178654271Y-87150500D01*
X178654271Y-87150499D01*
X178684698Y-87147646D01*
X178812881Y-87102793D01*
X178922149Y-87022149D01*
X179002793Y-86912881D01*
X179047646Y-86784698D01*
X179050499Y-86754271D01*
X179050500Y-86754271D01*
X179050500Y-83245729D01*
X179050499Y-83245727D01*
X179047646Y-83215306D01*
X179047646Y-83215302D01*
X179002793Y-83087119D01*
X178922149Y-82977851D01*
X178851663Y-82925830D01*
X178812880Y-82897206D01*
X178684702Y-82852355D01*
X178684693Y-82852353D01*
X178654272Y-82849500D01*
X178654264Y-82849500D01*
X175145736Y-82849500D01*
X175145727Y-82849500D01*
X175115306Y-82852353D01*
X175115297Y-82852355D01*
X174987119Y-82897206D01*
X174877852Y-82977850D01*
X174877850Y-82977852D01*
X174797206Y-83087119D01*
X174752355Y-83215297D01*
X174752353Y-83215306D01*
X174749500Y-83245727D01*
X171752346Y-83245727D01*
X171809719Y-83133126D01*
X171830804Y-83000000D01*
X171829635Y-82992622D01*
X171823531Y-82954083D01*
X171809719Y-82866874D01*
X171748528Y-82746780D01*
X171748526Y-82746778D01*
X171747593Y-82744946D01*
X171738021Y-82684514D01*
X171747593Y-82655054D01*
X171748526Y-82653221D01*
X171748528Y-82653220D01*
X171809719Y-82533126D01*
X171830804Y-82400000D01*
X171809719Y-82266874D01*
X171790516Y-82229187D01*
X171748529Y-82146782D01*
X171748528Y-82146780D01*
X171653220Y-82051472D01*
X171653217Y-82051470D01*
X171533129Y-81990282D01*
X171533127Y-81990281D01*
X171400000Y-81969196D01*
X171266872Y-81990281D01*
X171266870Y-81990282D01*
X171146782Y-82051470D01*
X171051470Y-82146782D01*
X170990282Y-82266870D01*
X170990281Y-82266872D01*
X170977625Y-82346780D01*
X170969196Y-82400000D01*
X169113014Y-82400000D01*
X169136330Y-82343709D01*
X169155250Y-82200000D01*
X169153970Y-82190281D01*
X169136330Y-82056291D01*
X169080861Y-81922375D01*
X169080858Y-81922371D01*
X169080857Y-81922369D01*
X169033204Y-81860268D01*
X169012779Y-81802593D01*
X169013547Y-81799999D01*
X171969196Y-81799999D01*
X171969196Y-81800000D01*
X171990281Y-81933127D01*
X171990282Y-81933129D01*
X172019403Y-81990282D01*
X172051472Y-82053220D01*
X172146780Y-82148528D01*
X172182633Y-82166796D01*
X172262277Y-82207377D01*
X172266874Y-82209719D01*
X172400000Y-82230804D01*
X172533126Y-82209719D01*
X172653220Y-82148528D01*
X172748528Y-82053220D01*
X172809719Y-81933126D01*
X172830804Y-81800000D01*
X172830393Y-81797408D01*
X172821923Y-81743927D01*
X172809719Y-81666874D01*
X172748528Y-81546780D01*
X172653220Y-81451472D01*
X172653217Y-81451470D01*
X172533129Y-81390282D01*
X172533127Y-81390281D01*
X172400000Y-81369196D01*
X172266872Y-81390281D01*
X172266870Y-81390282D01*
X172146782Y-81451470D01*
X172051470Y-81546782D01*
X171990282Y-81666870D01*
X171990281Y-81666872D01*
X171969196Y-81799999D01*
X169013547Y-81799999D01*
X169030156Y-81743927D01*
X169033204Y-81739732D01*
X169080857Y-81677630D01*
X169080856Y-81677630D01*
X169080861Y-81677625D01*
X169136330Y-81543709D01*
X169155250Y-81400000D01*
X169153970Y-81390281D01*
X169136330Y-81256291D01*
X169113013Y-81199999D01*
X176169196Y-81199999D01*
X176169196Y-81200000D01*
X176190281Y-81333127D01*
X176190282Y-81333129D01*
X176229307Y-81409719D01*
X176251472Y-81453220D01*
X176346780Y-81548528D01*
X176466874Y-81609719D01*
X176600000Y-81630804D01*
X176733126Y-81609719D01*
X176853220Y-81548528D01*
X176948528Y-81453220D01*
X177009719Y-81333126D01*
X177030804Y-81200000D01*
X177009719Y-81066874D01*
X176948528Y-80946780D01*
X176853220Y-80851472D01*
X176853217Y-80851470D01*
X176733129Y-80790282D01*
X176733127Y-80790281D01*
X176600000Y-80769196D01*
X176466872Y-80790281D01*
X176466870Y-80790282D01*
X176346782Y-80851470D01*
X176251470Y-80946782D01*
X176190282Y-81066870D01*
X176190281Y-81066872D01*
X176169196Y-81199999D01*
X169113013Y-81199999D01*
X169080861Y-81122375D01*
X168992621Y-81007379D01*
X168877625Y-80919139D01*
X168877621Y-80919137D01*
X168743709Y-80863670D01*
X168743708Y-80863669D01*
X168600000Y-80844750D01*
X168456291Y-80863669D01*
X168456290Y-80863670D01*
X168322378Y-80919137D01*
X168322374Y-80919139D01*
X168207381Y-81007377D01*
X168207377Y-81007381D01*
X168119139Y-81122374D01*
X168119137Y-81122378D01*
X168063670Y-81256290D01*
X168063669Y-81256291D01*
X168044750Y-81399999D01*
X166755250Y-81399999D01*
X166753970Y-81390281D01*
X166736330Y-81256291D01*
X166680861Y-81122375D01*
X166592621Y-81007379D01*
X166477625Y-80919139D01*
X166477621Y-80919137D01*
X166343709Y-80863670D01*
X166343708Y-80863669D01*
X166200000Y-80844750D01*
X166056291Y-80863669D01*
X166056290Y-80863670D01*
X165922378Y-80919137D01*
X165922374Y-80919139D01*
X165807381Y-81007377D01*
X165807377Y-81007381D01*
X165719139Y-81122374D01*
X165719137Y-81122378D01*
X165663670Y-81256290D01*
X165663669Y-81256291D01*
X165644750Y-81399999D01*
X163755250Y-81399999D01*
X163753970Y-81390281D01*
X163736330Y-81256291D01*
X163680861Y-81122375D01*
X163592621Y-81007379D01*
X163477625Y-80919139D01*
X163477621Y-80919137D01*
X163343709Y-80863670D01*
X163343708Y-80863669D01*
X163200000Y-80844750D01*
X163056291Y-80863669D01*
X163056290Y-80863670D01*
X162922378Y-80919137D01*
X162922374Y-80919139D01*
X162807381Y-81007377D01*
X162807377Y-81007381D01*
X162719139Y-81122374D01*
X162719137Y-81122378D01*
X162663670Y-81256290D01*
X162663669Y-81256291D01*
X162644750Y-81399999D01*
X145552203Y-81399999D01*
X145653220Y-81348528D01*
X145748528Y-81253220D01*
X145809719Y-81133126D01*
X145830804Y-81000000D01*
X145809719Y-80866874D01*
X145808086Y-80863670D01*
X145748529Y-80746782D01*
X145748528Y-80746780D01*
X145653220Y-80651472D01*
X145653217Y-80651470D01*
X145533129Y-80590282D01*
X145533127Y-80590281D01*
X145400000Y-80569196D01*
X145266872Y-80590281D01*
X145266870Y-80590282D01*
X145146782Y-80651470D01*
X145051471Y-80746781D01*
X145015027Y-80818305D01*
X144971762Y-80861569D01*
X144911329Y-80871140D01*
X144856813Y-80843361D01*
X144829037Y-80788846D01*
X144825925Y-80769196D01*
X144809719Y-80666874D01*
X144809718Y-80666872D01*
X144809717Y-80666870D01*
X144748529Y-80546782D01*
X144748528Y-80546780D01*
X144653220Y-80451472D01*
X144653217Y-80451470D01*
X144533129Y-80390282D01*
X144533127Y-80390281D01*
X144400000Y-80369196D01*
X144266872Y-80390281D01*
X144266870Y-80390282D01*
X144146782Y-80451470D01*
X144051470Y-80546782D01*
X143990282Y-80666870D01*
X143990281Y-80666871D01*
X143985301Y-80698313D01*
X143957522Y-80752829D01*
X143903005Y-80780606D01*
X143872033Y-80780605D01*
X143800000Y-80769196D01*
X143727966Y-80780605D01*
X143667534Y-80771034D01*
X143624269Y-80727769D01*
X143614698Y-80698311D01*
X143609719Y-80666874D01*
X143609718Y-80666872D01*
X143609717Y-80666870D01*
X143548529Y-80546782D01*
X143548528Y-80546780D01*
X143453220Y-80451472D01*
X143453217Y-80451470D01*
X143333129Y-80390282D01*
X143333127Y-80390281D01*
X143200000Y-80369196D01*
X143066872Y-80390281D01*
X143066870Y-80390282D01*
X142946782Y-80451470D01*
X142851470Y-80546782D01*
X142790282Y-80666870D01*
X142790281Y-80666871D01*
X142785301Y-80698313D01*
X142757522Y-80752829D01*
X142703005Y-80780606D01*
X142672033Y-80780605D01*
X142600000Y-80769196D01*
X142466872Y-80790281D01*
X142466870Y-80790282D01*
X142346782Y-80851470D01*
X142251470Y-80946782D01*
X142190282Y-81066870D01*
X142190281Y-81066872D01*
X142169196Y-81199999D01*
X137352203Y-81199999D01*
X137453220Y-81148528D01*
X137548528Y-81053220D01*
X137609719Y-80933126D01*
X137630804Y-80800000D01*
X137609719Y-80666874D01*
X137609718Y-80666872D01*
X137609717Y-80666870D01*
X137548529Y-80546782D01*
X137548528Y-80546780D01*
X137453220Y-80451472D01*
X137453217Y-80451470D01*
X137333129Y-80390282D01*
X137333127Y-80390281D01*
X137200000Y-80369196D01*
X137066872Y-80390281D01*
X137066870Y-80390282D01*
X136946782Y-80451470D01*
X136851470Y-80546782D01*
X136790282Y-80666870D01*
X136790281Y-80666872D01*
X136769196Y-80799999D01*
X133752200Y-80799999D01*
X133733129Y-80790282D01*
X133733127Y-80790281D01*
X133600000Y-80769196D01*
X133466872Y-80790281D01*
X133466870Y-80790282D01*
X133346782Y-80851470D01*
X133251470Y-80946782D01*
X133190282Y-81066870D01*
X133190281Y-81066872D01*
X133169196Y-81199999D01*
X125500000Y-81199999D01*
X125500000Y-79999999D01*
X138969196Y-79999999D01*
X138969196Y-80000000D01*
X138990281Y-80133127D01*
X138990282Y-80133129D01*
X139051470Y-80253217D01*
X139051472Y-80253220D01*
X139146780Y-80348528D01*
X139266874Y-80409719D01*
X139400000Y-80430804D01*
X139533126Y-80409719D01*
X139653220Y-80348528D01*
X139748528Y-80253220D01*
X139809719Y-80133126D01*
X139830804Y-80000000D01*
X139809719Y-79866874D01*
X139748528Y-79746780D01*
X139653220Y-79651472D01*
X139653217Y-79651470D01*
X139533129Y-79590282D01*
X139533127Y-79590281D01*
X139400000Y-79569196D01*
X139266872Y-79590281D01*
X139266870Y-79590282D01*
X139146782Y-79651470D01*
X139051470Y-79746782D01*
X138990282Y-79866870D01*
X138990281Y-79866872D01*
X138969196Y-79999999D01*
X125500000Y-79999999D01*
X125500000Y-77799999D01*
X138369196Y-77799999D01*
X138369196Y-77800000D01*
X138390281Y-77933127D01*
X138390282Y-77933129D01*
X138451470Y-78053217D01*
X138451472Y-78053220D01*
X138546780Y-78148528D01*
X138666874Y-78209719D01*
X138800000Y-78230804D01*
X138933126Y-78209719D01*
X139053220Y-78148528D01*
X139148528Y-78053220D01*
X139209719Y-77933126D01*
X139230804Y-77800000D01*
X139209719Y-77666874D01*
X139148528Y-77546780D01*
X139053220Y-77451472D01*
X139053217Y-77451470D01*
X138933129Y-77390282D01*
X138933127Y-77390281D01*
X138800000Y-77369196D01*
X138666872Y-77390281D01*
X138666870Y-77390282D01*
X138546782Y-77451470D01*
X138451470Y-77546782D01*
X138390282Y-77666870D01*
X138390281Y-77666872D01*
X138369196Y-77799999D01*
X125500000Y-77799999D01*
X125500000Y-76245727D01*
X142249500Y-76245727D01*
X142249500Y-79754272D01*
X142252353Y-79784693D01*
X142252355Y-79784702D01*
X142297206Y-79912880D01*
X142297207Y-79912881D01*
X142377851Y-80022149D01*
X142487119Y-80102793D01*
X142615302Y-80147646D01*
X142645727Y-80150499D01*
X142645729Y-80150500D01*
X142645736Y-80150500D01*
X146154271Y-80150500D01*
X146154271Y-80150499D01*
X146184698Y-80147646D01*
X146312881Y-80102793D01*
X146422149Y-80022149D01*
X146502793Y-79912881D01*
X146547646Y-79784698D01*
X146550499Y-79754271D01*
X146550500Y-79754271D01*
X146550500Y-76245729D01*
X146550499Y-76245727D01*
X148249500Y-76245727D01*
X148249500Y-79754272D01*
X148252353Y-79784693D01*
X148252355Y-79784702D01*
X148297206Y-79912880D01*
X148297207Y-79912881D01*
X148377851Y-80022149D01*
X148487119Y-80102793D01*
X148615302Y-80147646D01*
X148645727Y-80150499D01*
X148645729Y-80150500D01*
X148645736Y-80150500D01*
X152154271Y-80150500D01*
X152154271Y-80150499D01*
X152184698Y-80147646D01*
X152312881Y-80102793D01*
X152422149Y-80022149D01*
X152502793Y-79912881D01*
X152547646Y-79784698D01*
X152550499Y-79754271D01*
X152550500Y-79754271D01*
X152550500Y-76245729D01*
X152550499Y-76245727D01*
X154249500Y-76245727D01*
X154249500Y-79754272D01*
X154252353Y-79784693D01*
X154252355Y-79784702D01*
X154297206Y-79912880D01*
X154297207Y-79912881D01*
X154377851Y-80022149D01*
X154487119Y-80102793D01*
X154615302Y-80147646D01*
X154645727Y-80150499D01*
X154645729Y-80150500D01*
X154645736Y-80150500D01*
X158154271Y-80150500D01*
X158154271Y-80150499D01*
X158184698Y-80147646D01*
X158312881Y-80102793D01*
X158422149Y-80022149D01*
X158502793Y-79912881D01*
X158547646Y-79784698D01*
X158550499Y-79754271D01*
X158550500Y-79754271D01*
X158550500Y-76245729D01*
X158550499Y-76245727D01*
X160249500Y-76245727D01*
X160249500Y-79754272D01*
X160252353Y-79784693D01*
X160252355Y-79784702D01*
X160297206Y-79912880D01*
X160297207Y-79912881D01*
X160377851Y-80022149D01*
X160487119Y-80102793D01*
X160615302Y-80147646D01*
X160645727Y-80150499D01*
X160645729Y-80150500D01*
X160645736Y-80150500D01*
X164154271Y-80150500D01*
X164154271Y-80150499D01*
X164184698Y-80147646D01*
X164312881Y-80102793D01*
X164422149Y-80022149D01*
X164502793Y-79912881D01*
X164547646Y-79784698D01*
X164550499Y-79754271D01*
X164550500Y-79754271D01*
X164550500Y-78799999D01*
X165844750Y-78799999D01*
X165844750Y-78800000D01*
X165863669Y-78943708D01*
X165863670Y-78943709D01*
X165919139Y-79077625D01*
X166007379Y-79192621D01*
X166122375Y-79280861D01*
X166256291Y-79336330D01*
X166400000Y-79355250D01*
X166543709Y-79336330D01*
X166677625Y-79280861D01*
X166792621Y-79192621D01*
X166880861Y-79077625D01*
X166936330Y-78943709D01*
X166955250Y-78800000D01*
X166955250Y-78799999D01*
X167444750Y-78799999D01*
X167444750Y-78800000D01*
X167463669Y-78943708D01*
X167463670Y-78943709D01*
X167519139Y-79077625D01*
X167607379Y-79192621D01*
X167722375Y-79280861D01*
X167856291Y-79336330D01*
X168000000Y-79355250D01*
X168143709Y-79336330D01*
X168277625Y-79280861D01*
X168392621Y-79192621D01*
X168480861Y-79077625D01*
X168536330Y-78943709D01*
X168555250Y-78800000D01*
X168555250Y-78799999D01*
X169244750Y-78799999D01*
X169244750Y-78800000D01*
X169263669Y-78943708D01*
X169263670Y-78943709D01*
X169319139Y-79077625D01*
X169407379Y-79192621D01*
X169522375Y-79280861D01*
X169656291Y-79336330D01*
X169800000Y-79355250D01*
X169943709Y-79336330D01*
X170077625Y-79280861D01*
X170192621Y-79192621D01*
X170280861Y-79077625D01*
X170336330Y-78943709D01*
X170355250Y-78800000D01*
X170355250Y-78799999D01*
X170844750Y-78799999D01*
X170844750Y-78800000D01*
X170863669Y-78943708D01*
X170863670Y-78943709D01*
X170919139Y-79077625D01*
X171007379Y-79192621D01*
X171122375Y-79280861D01*
X171256291Y-79336330D01*
X171400000Y-79355250D01*
X171543709Y-79336330D01*
X171677625Y-79280861D01*
X171792621Y-79192621D01*
X171880861Y-79077625D01*
X171936330Y-78943709D01*
X171955250Y-78800000D01*
X171955250Y-78799999D01*
X172644750Y-78799999D01*
X172644750Y-78800000D01*
X172663669Y-78943708D01*
X172663670Y-78943709D01*
X172719139Y-79077625D01*
X172807379Y-79192621D01*
X172922375Y-79280861D01*
X173056291Y-79336330D01*
X173200000Y-79355250D01*
X173343709Y-79336330D01*
X173477625Y-79280861D01*
X173592621Y-79192621D01*
X173680861Y-79077625D01*
X173736330Y-78943709D01*
X173755250Y-78800000D01*
X173755250Y-78799999D01*
X174244750Y-78799999D01*
X174244750Y-78800000D01*
X174263669Y-78943708D01*
X174263670Y-78943709D01*
X174319139Y-79077625D01*
X174407379Y-79192621D01*
X174522375Y-79280861D01*
X174656291Y-79336330D01*
X174800000Y-79355250D01*
X174943709Y-79336330D01*
X175077625Y-79280861D01*
X175192621Y-79192621D01*
X175280861Y-79077625D01*
X175336330Y-78943709D01*
X175355250Y-78800000D01*
X175355250Y-78799999D01*
X176044750Y-78799999D01*
X176044750Y-78800000D01*
X176063669Y-78943708D01*
X176063670Y-78943709D01*
X176119139Y-79077625D01*
X176207379Y-79192621D01*
X176322375Y-79280861D01*
X176456291Y-79336330D01*
X176600000Y-79355250D01*
X176743709Y-79336330D01*
X176877625Y-79280861D01*
X176992621Y-79192621D01*
X177080861Y-79077625D01*
X177136330Y-78943709D01*
X177155250Y-78800000D01*
X177155250Y-78799999D01*
X177444750Y-78799999D01*
X177444750Y-78800000D01*
X177463669Y-78943708D01*
X177463670Y-78943709D01*
X177519139Y-79077625D01*
X177607379Y-79192621D01*
X177722375Y-79280861D01*
X177856291Y-79336330D01*
X178000000Y-79355250D01*
X178143709Y-79336330D01*
X178277625Y-79280861D01*
X178392621Y-79192621D01*
X178480861Y-79077625D01*
X178536330Y-78943709D01*
X178555250Y-78800000D01*
X178536330Y-78656291D01*
X178480861Y-78522375D01*
X178392621Y-78407379D01*
X178277625Y-78319139D01*
X178277621Y-78319137D01*
X178143709Y-78263670D01*
X178143708Y-78263669D01*
X178000000Y-78244750D01*
X177856291Y-78263669D01*
X177856290Y-78263670D01*
X177722378Y-78319137D01*
X177722374Y-78319139D01*
X177607381Y-78407377D01*
X177607377Y-78407381D01*
X177519139Y-78522374D01*
X177519137Y-78522378D01*
X177463670Y-78656290D01*
X177463669Y-78656291D01*
X177444750Y-78799999D01*
X177155250Y-78799999D01*
X177136330Y-78656291D01*
X177080861Y-78522375D01*
X176992621Y-78407379D01*
X176877625Y-78319139D01*
X176877621Y-78319137D01*
X176743709Y-78263670D01*
X176743708Y-78263669D01*
X176600000Y-78244750D01*
X176456291Y-78263669D01*
X176456290Y-78263670D01*
X176322378Y-78319137D01*
X176322374Y-78319139D01*
X176207381Y-78407377D01*
X176207377Y-78407381D01*
X176119139Y-78522374D01*
X176119137Y-78522378D01*
X176063670Y-78656290D01*
X176063669Y-78656291D01*
X176044750Y-78799999D01*
X175355250Y-78799999D01*
X175336330Y-78656291D01*
X175280861Y-78522375D01*
X175192621Y-78407379D01*
X175077625Y-78319139D01*
X175077621Y-78319137D01*
X174943709Y-78263670D01*
X174943708Y-78263669D01*
X174800000Y-78244750D01*
X174656291Y-78263669D01*
X174656290Y-78263670D01*
X174522378Y-78319137D01*
X174522374Y-78319139D01*
X174407381Y-78407377D01*
X174407377Y-78407381D01*
X174319139Y-78522374D01*
X174319137Y-78522378D01*
X174263670Y-78656290D01*
X174263669Y-78656291D01*
X174244750Y-78799999D01*
X173755250Y-78799999D01*
X173736330Y-78656291D01*
X173680861Y-78522375D01*
X173592621Y-78407379D01*
X173477625Y-78319139D01*
X173477621Y-78319137D01*
X173343709Y-78263670D01*
X173343708Y-78263669D01*
X173200000Y-78244750D01*
X173056291Y-78263669D01*
X173056290Y-78263670D01*
X172922378Y-78319137D01*
X172922374Y-78319139D01*
X172807381Y-78407377D01*
X172807377Y-78407381D01*
X172719139Y-78522374D01*
X172719137Y-78522378D01*
X172663670Y-78656290D01*
X172663669Y-78656291D01*
X172644750Y-78799999D01*
X171955250Y-78799999D01*
X171936330Y-78656291D01*
X171880861Y-78522375D01*
X171792621Y-78407379D01*
X171677625Y-78319139D01*
X171677621Y-78319137D01*
X171543709Y-78263670D01*
X171543708Y-78263669D01*
X171400000Y-78244750D01*
X171256291Y-78263669D01*
X171256290Y-78263670D01*
X171122378Y-78319137D01*
X171122374Y-78319139D01*
X171007381Y-78407377D01*
X171007377Y-78407381D01*
X170919139Y-78522374D01*
X170919137Y-78522378D01*
X170863670Y-78656290D01*
X170863669Y-78656291D01*
X170844750Y-78799999D01*
X170355250Y-78799999D01*
X170336330Y-78656291D01*
X170280861Y-78522375D01*
X170192621Y-78407379D01*
X170077625Y-78319139D01*
X170077621Y-78319137D01*
X169943709Y-78263670D01*
X169943708Y-78263669D01*
X169800000Y-78244750D01*
X169656291Y-78263669D01*
X169656290Y-78263670D01*
X169522378Y-78319137D01*
X169522374Y-78319139D01*
X169407381Y-78407377D01*
X169407377Y-78407381D01*
X169319139Y-78522374D01*
X169319137Y-78522378D01*
X169263670Y-78656290D01*
X169263669Y-78656291D01*
X169244750Y-78799999D01*
X168555250Y-78799999D01*
X168536330Y-78656291D01*
X168480861Y-78522375D01*
X168392621Y-78407379D01*
X168277625Y-78319139D01*
X168277621Y-78319137D01*
X168143709Y-78263670D01*
X168143708Y-78263669D01*
X168000000Y-78244750D01*
X167856291Y-78263669D01*
X167856290Y-78263670D01*
X167722378Y-78319137D01*
X167722374Y-78319139D01*
X167607381Y-78407377D01*
X167607377Y-78407381D01*
X167519139Y-78522374D01*
X167519137Y-78522378D01*
X167463670Y-78656290D01*
X167463669Y-78656291D01*
X167444750Y-78799999D01*
X166955250Y-78799999D01*
X166936330Y-78656291D01*
X166880861Y-78522375D01*
X166792621Y-78407379D01*
X166677625Y-78319139D01*
X166677621Y-78319137D01*
X166543709Y-78263670D01*
X166543708Y-78263669D01*
X166400000Y-78244750D01*
X166256291Y-78263669D01*
X166256290Y-78263670D01*
X166122378Y-78319137D01*
X166122374Y-78319139D01*
X166007381Y-78407377D01*
X166007377Y-78407381D01*
X165919139Y-78522374D01*
X165919137Y-78522378D01*
X165863670Y-78656290D01*
X165863669Y-78656291D01*
X165844750Y-78799999D01*
X164550500Y-78799999D01*
X164550500Y-76245729D01*
X164550499Y-76245727D01*
X164547646Y-76215306D01*
X164547646Y-76215302D01*
X164502793Y-76087119D01*
X164422149Y-75977851D01*
X164312881Y-75897207D01*
X164312880Y-75897206D01*
X164184702Y-75852355D01*
X164184693Y-75852353D01*
X164154272Y-75849500D01*
X164154264Y-75849500D01*
X160645736Y-75849500D01*
X160645727Y-75849500D01*
X160615306Y-75852353D01*
X160615297Y-75852355D01*
X160487119Y-75897206D01*
X160377852Y-75977850D01*
X160377850Y-75977852D01*
X160297206Y-76087119D01*
X160252355Y-76215297D01*
X160252353Y-76215306D01*
X160249500Y-76245727D01*
X158550499Y-76245727D01*
X158547646Y-76215306D01*
X158547646Y-76215302D01*
X158502793Y-76087119D01*
X158422149Y-75977851D01*
X158312881Y-75897207D01*
X158312880Y-75897206D01*
X158184702Y-75852355D01*
X158184693Y-75852353D01*
X158154272Y-75849500D01*
X158154264Y-75849500D01*
X154645736Y-75849500D01*
X154645727Y-75849500D01*
X154615306Y-75852353D01*
X154615297Y-75852355D01*
X154487119Y-75897206D01*
X154377852Y-75977850D01*
X154377850Y-75977852D01*
X154297206Y-76087119D01*
X154252355Y-76215297D01*
X154252353Y-76215306D01*
X154249500Y-76245727D01*
X152550499Y-76245727D01*
X152547646Y-76215306D01*
X152547646Y-76215302D01*
X152502793Y-76087119D01*
X152422149Y-75977851D01*
X152312881Y-75897207D01*
X152312880Y-75897206D01*
X152184702Y-75852355D01*
X152184693Y-75852353D01*
X152154272Y-75849500D01*
X152154264Y-75849500D01*
X148645736Y-75849500D01*
X148645727Y-75849500D01*
X148615306Y-75852353D01*
X148615297Y-75852355D01*
X148487119Y-75897206D01*
X148377852Y-75977850D01*
X148377850Y-75977852D01*
X148297206Y-76087119D01*
X148252355Y-76215297D01*
X148252353Y-76215306D01*
X148249500Y-76245727D01*
X146550499Y-76245727D01*
X146547646Y-76215306D01*
X146547646Y-76215302D01*
X146502793Y-76087119D01*
X146422149Y-75977851D01*
X146312881Y-75897207D01*
X146312880Y-75897206D01*
X146184702Y-75852355D01*
X146184693Y-75852353D01*
X146154272Y-75849500D01*
X146154264Y-75849500D01*
X142645736Y-75849500D01*
X142645727Y-75849500D01*
X142615306Y-75852353D01*
X142615297Y-75852355D01*
X142487119Y-75897206D01*
X142377852Y-75977850D01*
X142377850Y-75977852D01*
X142297206Y-76087119D01*
X142252355Y-76215297D01*
X142252353Y-76215306D01*
X142249500Y-76245727D01*
X125500000Y-76245727D01*
X125500000Y-75599500D01*
X125518907Y-75541309D01*
X125568407Y-75505345D01*
X125599000Y-75500500D01*
X179334108Y-75500500D01*
X179386967Y-75500500D01*
X179412583Y-75503872D01*
G37*
%TD.AperFunction*%
%TD*%
D17*
X180000000Y-124400000D02*
G75*
G02*
X179400000Y-125000000I-600000J0D01*
G01*
X120000000Y-75600000D02*
X120000000Y-124400000D01*
X179400000Y-75000000D02*
X120600000Y-75000000D01*
X180000000Y-124400000D02*
X180000000Y-75600000D01*
X120000000Y-75600000D02*
G75*
G02*
X120600000Y-75000000I600000J0D01*
G01*
X120600000Y-125000000D02*
G75*
G02*
X120000000Y-124400000I0J600000D01*
G01*
X179400000Y-75000000D02*
G75*
G02*
X180000000Y-75600000I0J-600000D01*
G01*
X120600000Y-125000000D02*
X179400000Y-125000000D01*
M02*
