%TF.GenerationSoftware,KiCad,Pcbnew,8.0.3*%
%TF.CreationDate,2024-11-14T20:38:21+13:00*%
%TF.ProjectId,combat-r1,636f6d62-6174-42d7-9231-2e6b69636164,rev?*%
%TF.SameCoordinates,Original*%
%TF.FileFunction,Legend,Top*%
%TF.FilePolarity,Positive*%
%FSLAX46Y46*%
G04 Gerber Fmt 4.6, Leading zero omitted, Abs format (unit mm)*
G04 Created by KiCad (PCBNEW 8.0.3) date 2024-11-14 20:38:21*
%MOMM*%
%LPD*%
G01*
G04 APERTURE LIST*
%ADD10C,0.100000*%
%ADD11C,0.200000*%
%ADD12C,0.400000*%
%ADD13C,0.120000*%
%TA.AperFunction,Profile*%
%ADD14C,0.050000*%
%TD*%
G04 APERTURE END LIST*
D10*
G36*
X124183789Y-122722121D02*
G01*
X124174326Y-122879361D01*
X124145936Y-123025473D01*
X124086885Y-123186121D01*
X124000581Y-123330746D01*
X123887022Y-123459349D01*
X123796175Y-123536182D01*
X123796175Y-123271667D01*
X123661270Y-123362265D01*
X123512919Y-123432925D01*
X123369762Y-123478995D01*
X123255422Y-123503210D01*
X123255422Y-123700314D01*
X123106300Y-123716056D01*
X123014354Y-123718632D01*
X122844467Y-123710569D01*
X122676074Y-123686380D01*
X122509175Y-123646066D01*
X122343770Y-123589626D01*
X122207074Y-123530274D01*
X122125554Y-123489288D01*
X122125554Y-123556699D01*
X121997132Y-123483360D01*
X121875099Y-123401830D01*
X121740800Y-123296358D01*
X121632608Y-123197079D01*
X121530805Y-123089608D01*
X121514459Y-123070900D01*
X121514459Y-122871598D01*
X121420177Y-122755174D01*
X121320003Y-122606263D01*
X121239471Y-122453596D01*
X121178581Y-122297172D01*
X121137332Y-122136991D01*
X121115726Y-121973054D01*
X121112191Y-121872889D01*
X121122012Y-121715012D01*
X121151475Y-121567905D01*
X121212758Y-121405591D01*
X121302325Y-121258785D01*
X121420177Y-121127486D01*
X121514459Y-121048569D01*
X121514459Y-121247871D01*
X121616308Y-121173866D01*
X121976810Y-121653803D01*
X121909399Y-121700697D01*
X121796559Y-121798013D01*
X121708151Y-121926433D01*
X121660546Y-122074907D01*
X121651479Y-122185031D01*
X121666631Y-122335519D01*
X121712086Y-122482716D01*
X121779706Y-122613677D01*
X121868578Y-122737669D01*
X121974910Y-122851356D01*
X122098701Y-122954739D01*
X122125554Y-122974180D01*
X122125554Y-122908967D01*
X122249156Y-122988010D01*
X122393792Y-123060073D01*
X122544340Y-123114285D01*
X122647990Y-123140509D01*
X122795594Y-123163616D01*
X122905910Y-123169085D01*
X123054792Y-123157960D01*
X123204578Y-123121094D01*
X123255422Y-123101674D01*
X123255422Y-122902372D01*
X123391928Y-122828999D01*
X123503319Y-122731154D01*
X123516273Y-122716259D01*
X123599295Y-122581172D01*
X123638365Y-122435439D01*
X123644501Y-122341102D01*
X123628289Y-122188511D01*
X123579654Y-122038485D01*
X123498596Y-121891024D01*
X123401073Y-121764098D01*
X123385115Y-121746127D01*
X123314773Y-121668457D01*
X123673077Y-121340195D01*
X123796175Y-121481612D01*
X123796175Y-121746127D01*
X123887022Y-121861875D01*
X123983547Y-122009072D01*
X124061145Y-122159059D01*
X124119817Y-122311837D01*
X124159563Y-122467406D01*
X124180382Y-122625766D01*
X124183789Y-122722121D01*
G37*
G36*
X122424074Y-118358900D02*
G01*
X122575272Y-118379216D01*
X122646524Y-118393161D01*
X122807083Y-118434056D01*
X122962697Y-118487133D01*
X123113364Y-118552392D01*
X123259085Y-118629832D01*
X123259085Y-118434193D01*
X123391435Y-118518288D01*
X123516001Y-118611568D01*
X123632783Y-118714035D01*
X123741782Y-118825688D01*
X123800572Y-118893614D01*
X123800572Y-119156664D01*
X123890388Y-119272939D01*
X123985818Y-119420214D01*
X124062536Y-119569637D01*
X124120543Y-119721205D01*
X124159838Y-119874921D01*
X124180421Y-120030783D01*
X124183789Y-120125331D01*
X124174433Y-120279265D01*
X124138506Y-120450242D01*
X124075635Y-120606228D01*
X123985818Y-120747221D01*
X123869057Y-120873221D01*
X123800572Y-120930600D01*
X123800572Y-120666085D01*
X123664720Y-120757449D01*
X123516001Y-120828759D01*
X123373005Y-120875310D01*
X123259085Y-120899825D01*
X123259085Y-121098394D01*
X123108075Y-121116026D01*
X123015819Y-121118911D01*
X122869328Y-121112139D01*
X122718000Y-121091823D01*
X122646524Y-121077878D01*
X122494991Y-121039876D01*
X122347863Y-120990165D01*
X122205140Y-120928747D01*
X122127752Y-120889567D01*
X122127752Y-120956978D01*
X121999356Y-120883639D01*
X121877400Y-120802109D01*
X121743257Y-120696637D01*
X121635254Y-120597358D01*
X121533691Y-120489887D01*
X121517390Y-120471179D01*
X121517390Y-120273342D01*
X121422421Y-120155213D01*
X121321517Y-120005039D01*
X121240398Y-119852075D01*
X121179064Y-119696320D01*
X121151125Y-119589706D01*
X121651479Y-119589706D01*
X121666891Y-119739604D01*
X121713125Y-119886038D01*
X121781905Y-120016154D01*
X121871406Y-120139903D01*
X121977795Y-120253776D01*
X122101071Y-120357775D01*
X122127752Y-120377390D01*
X122127752Y-120312177D01*
X122141674Y-120324633D01*
X122273443Y-120405423D01*
X122413210Y-120470563D01*
X122560976Y-120520055D01*
X122646524Y-120540788D01*
X122793794Y-120563895D01*
X122902247Y-120569364D01*
X123054812Y-120557876D01*
X123207483Y-120519809D01*
X123259085Y-120499755D01*
X123259085Y-120301919D01*
X123392275Y-120229190D01*
X123508436Y-120126058D01*
X123514808Y-120118736D01*
X123598779Y-119985194D01*
X123638295Y-119840457D01*
X123644501Y-119746510D01*
X123629176Y-119597778D01*
X123583200Y-119451816D01*
X123514808Y-119321528D01*
X123423823Y-119197055D01*
X123315182Y-119082014D01*
X123259085Y-119032100D01*
X123259085Y-119228471D01*
X123138111Y-119136849D01*
X123009843Y-119060093D01*
X122874283Y-118998203D01*
X122731429Y-118951179D01*
X122646524Y-118930983D01*
X122499512Y-118907284D01*
X122389337Y-118901674D01*
X122238409Y-118913266D01*
X122127752Y-118938311D01*
X122127752Y-119003524D01*
X121989363Y-119058905D01*
X121861696Y-119142230D01*
X121781905Y-119220411D01*
X121697459Y-119354177D01*
X121657720Y-119497403D01*
X121651479Y-119589706D01*
X121151125Y-119589706D01*
X121137516Y-119537774D01*
X121115752Y-119376438D01*
X121112191Y-119278297D01*
X121122083Y-119119261D01*
X121151761Y-118971424D01*
X121213490Y-118808801D01*
X121303710Y-118662304D01*
X121422421Y-118531933D01*
X121517390Y-118453977D01*
X121517390Y-118650348D01*
X121652807Y-118565123D01*
X121799673Y-118499223D01*
X121957988Y-118452649D01*
X122105906Y-118427750D01*
X122127752Y-118425401D01*
X122127752Y-118360188D01*
X122277229Y-118352128D01*
X122424074Y-118358900D01*
G37*
G36*
X121510795Y-115136182D02*
G01*
X121510795Y-115334752D01*
X122118960Y-115462247D01*
X122118960Y-115394103D01*
X123245896Y-115634438D01*
X123245896Y-115437334D01*
X123785184Y-115552372D01*
X123785184Y-115816887D01*
X124136894Y-115890893D01*
X124136894Y-116427983D01*
X123808632Y-116353977D01*
X123808632Y-116089462D01*
X123245896Y-115974424D01*
X123245896Y-116167864D01*
X123785184Y-116485136D01*
X123785184Y-116749651D01*
X124136894Y-116952616D01*
X124136894Y-117457466D01*
X123808632Y-117513154D01*
X123808632Y-117248639D01*
X123245896Y-117336566D01*
X123245896Y-117531472D01*
X123785184Y-117646510D01*
X123785184Y-117911025D01*
X124136894Y-117984298D01*
X124136894Y-118523586D01*
X123808632Y-118450314D01*
X123808632Y-118185799D01*
X123245896Y-118070760D01*
X123245896Y-118267864D01*
X122118960Y-118027529D01*
X122118960Y-118094940D01*
X121510795Y-117968178D01*
X121510795Y-117768876D01*
X121135638Y-117689009D01*
X121135638Y-117617201D01*
X122726392Y-117617201D01*
X123245896Y-117727843D01*
X123245896Y-117535136D01*
X122726392Y-117617201D01*
X121135638Y-117617201D01*
X121135638Y-117166573D01*
X121510795Y-117108688D01*
X121510795Y-117307990D01*
X122118960Y-117207606D01*
X122118960Y-117141660D01*
X123245896Y-116961409D01*
X123245896Y-116943091D01*
X122938323Y-116762107D01*
X123245896Y-116762107D01*
X123270809Y-116759909D01*
X123245896Y-116743789D01*
X123245896Y-116762107D01*
X122938323Y-116762107D01*
X122118960Y-116279972D01*
X122118960Y-116348115D01*
X121626397Y-116060886D01*
X122726392Y-116060886D01*
X123245896Y-116366434D01*
X123245896Y-116171528D01*
X122726392Y-116060886D01*
X121626397Y-116060886D01*
X121510795Y-115993475D01*
X121510795Y-115794173D01*
X121135638Y-115575087D01*
X121135638Y-115056315D01*
X121510795Y-115136182D01*
G37*
G36*
X123400960Y-112912763D02*
G01*
X123539354Y-112974816D01*
X123669139Y-113057477D01*
X123790314Y-113160746D01*
X123790314Y-113428192D01*
X123894015Y-113543177D01*
X123981269Y-113669045D01*
X124015994Y-113730809D01*
X124079750Y-113873047D01*
X124119893Y-114018577D01*
X124136422Y-114167398D01*
X124136894Y-114197557D01*
X124136894Y-115597801D01*
X123790314Y-115523796D01*
X123790314Y-115259281D01*
X123253956Y-115146441D01*
X123253956Y-115345743D01*
X122124089Y-115105408D01*
X122124089Y-115171353D01*
X121504933Y-115041660D01*
X121504933Y-114845289D01*
X121135638Y-114766887D01*
X121135638Y-113853175D01*
X121674926Y-113853175D01*
X121674926Y-114539741D01*
X122124089Y-114632065D01*
X122124089Y-114566120D01*
X122378346Y-114619609D01*
X122378346Y-113933042D01*
X122365391Y-113868562D01*
X122917634Y-113868562D01*
X122917634Y-114733914D01*
X123253956Y-114805722D01*
X123253956Y-114607152D01*
X123597606Y-114678960D01*
X123597606Y-113817271D01*
X123566076Y-113665725D01*
X123497955Y-113557152D01*
X123387130Y-113459883D01*
X123253956Y-113406943D01*
X123253956Y-113600383D01*
X123178485Y-113592323D01*
X123034487Y-113636825D01*
X123002630Y-113659734D01*
X122925934Y-113787404D01*
X122917634Y-113868562D01*
X122365391Y-113868562D01*
X122349394Y-113788942D01*
X122275764Y-113670725D01*
X122160148Y-113573070D01*
X122124089Y-113554221D01*
X122124089Y-113614305D01*
X121978938Y-113579993D01*
X121948967Y-113579134D01*
X121802761Y-113620279D01*
X121763586Y-113646545D01*
X121683584Y-113772861D01*
X121674926Y-113853175D01*
X121135638Y-113853175D01*
X121135638Y-113543230D01*
X121150011Y-113383951D01*
X121193129Y-113240602D01*
X121257271Y-113124110D01*
X121359495Y-113006709D01*
X121486191Y-112918287D01*
X121504933Y-112908688D01*
X121504933Y-113100662D01*
X121511528Y-113098464D01*
X121654099Y-113049027D01*
X121800238Y-113030193D01*
X121833196Y-113029588D01*
X121984266Y-113040341D01*
X122124089Y-113067690D01*
X122124089Y-113009071D01*
X122269160Y-113064684D01*
X122405789Y-113141764D01*
X122533973Y-113240310D01*
X122558597Y-113262595D01*
X122674918Y-113162395D01*
X122804930Y-113094077D01*
X122814319Y-113090404D01*
X122960961Y-113050637D01*
X123067843Y-113042777D01*
X123218167Y-113056321D01*
X123253956Y-113063293D01*
X123253956Y-112871318D01*
X123400960Y-112912763D01*
G37*
G36*
X123785184Y-110537578D02*
G01*
X124136894Y-110481891D01*
X124136894Y-111054152D01*
X123808632Y-111112037D01*
X123808632Y-110847522D01*
X123433475Y-110904675D01*
X123433475Y-111972993D01*
X123785184Y-112178157D01*
X123785184Y-112442672D01*
X124136894Y-112645638D01*
X124136894Y-113222295D01*
X123808632Y-113019330D01*
X123808632Y-112754815D01*
X123245896Y-112439009D01*
X123245896Y-112637578D01*
X122119692Y-111975191D01*
X122119692Y-112042602D01*
X121510795Y-111685764D01*
X121510795Y-111487194D01*
X121360222Y-111400732D01*
X122006852Y-111400732D01*
X122119692Y-111466678D01*
X122119692Y-111400732D01*
X122894187Y-111854291D01*
X122894187Y-111189706D01*
X122119692Y-111317201D01*
X122119692Y-111382414D01*
X122006852Y-111400732D01*
X121360222Y-111400732D01*
X121135638Y-111271772D01*
X121135638Y-110767655D01*
X121510795Y-110706106D01*
X121510795Y-110904675D01*
X122119692Y-110806489D01*
X122119692Y-110740544D01*
X123245896Y-110560293D01*
X123245896Y-110360990D01*
X123785184Y-110273063D01*
X123785184Y-110537578D01*
G37*
G36*
X124136894Y-109065526D02*
G01*
X124136894Y-109604815D01*
X123808632Y-109530809D01*
X123808632Y-109266294D01*
X123245896Y-109151988D01*
X123245896Y-109350558D01*
X122114563Y-109110956D01*
X122114563Y-109176168D01*
X121674926Y-109083845D01*
X121674926Y-109955792D01*
X121504933Y-109918422D01*
X121504933Y-109719853D01*
X121135638Y-109641451D01*
X121135638Y-107359002D01*
X121504933Y-107437404D01*
X121504933Y-107635973D01*
X121674926Y-107673342D01*
X121674926Y-108544556D01*
X122114563Y-108636880D01*
X122114563Y-108571667D01*
X123245896Y-108811270D01*
X123245896Y-108611967D01*
X123785184Y-108727006D01*
X123785184Y-108991521D01*
X124136894Y-109065526D01*
G37*
G36*
X123400960Y-103794689D02*
G01*
X123539354Y-103856742D01*
X123669139Y-103939403D01*
X123790314Y-104042672D01*
X123790314Y-104310118D01*
X123894015Y-104425103D01*
X123981269Y-104550971D01*
X124015994Y-104612735D01*
X124079750Y-104754973D01*
X124119893Y-104900503D01*
X124136422Y-105049324D01*
X124136894Y-105079483D01*
X124136894Y-106479727D01*
X123790314Y-106405722D01*
X123790314Y-106141207D01*
X123253956Y-106028367D01*
X123253956Y-106227669D01*
X122124089Y-105987334D01*
X122124089Y-106053279D01*
X121504933Y-105923586D01*
X121504933Y-105727215D01*
X121135638Y-105648813D01*
X121135638Y-104735101D01*
X121674926Y-104735101D01*
X121674926Y-105421667D01*
X122124089Y-105513991D01*
X122124089Y-105448046D01*
X122378346Y-105501535D01*
X122378346Y-104814968D01*
X122365391Y-104750488D01*
X122917634Y-104750488D01*
X122917634Y-105615840D01*
X123253956Y-105687648D01*
X123253956Y-105489078D01*
X123597606Y-105560886D01*
X123597606Y-104699197D01*
X123566076Y-104547651D01*
X123497955Y-104439078D01*
X123387130Y-104341809D01*
X123253956Y-104288869D01*
X123253956Y-104482309D01*
X123178485Y-104474249D01*
X123034487Y-104518751D01*
X123002630Y-104541660D01*
X122925934Y-104669330D01*
X122917634Y-104750488D01*
X122365391Y-104750488D01*
X122349394Y-104670868D01*
X122275764Y-104552651D01*
X122160148Y-104454996D01*
X122124089Y-104436147D01*
X122124089Y-104496231D01*
X121978938Y-104461919D01*
X121948967Y-104461060D01*
X121802761Y-104502205D01*
X121763586Y-104528471D01*
X121683584Y-104654787D01*
X121674926Y-104735101D01*
X121135638Y-104735101D01*
X121135638Y-104425157D01*
X121150011Y-104265877D01*
X121193129Y-104122528D01*
X121257271Y-104006036D01*
X121359495Y-103888635D01*
X121486191Y-103800213D01*
X121504933Y-103790614D01*
X121504933Y-103982588D01*
X121511528Y-103980390D01*
X121654099Y-103930953D01*
X121800238Y-103912119D01*
X121833196Y-103911514D01*
X121984266Y-103922267D01*
X122124089Y-103949616D01*
X122124089Y-103890997D01*
X122269160Y-103946610D01*
X122405789Y-104023690D01*
X122533973Y-104122236D01*
X122558597Y-104144521D01*
X122674918Y-104044321D01*
X122804930Y-103976003D01*
X122814319Y-103972330D01*
X122960961Y-103932563D01*
X123067843Y-103924703D01*
X123218167Y-103938247D01*
X123253956Y-103945219D01*
X123253956Y-103753244D01*
X123400960Y-103794689D01*
G37*
G36*
X122424074Y-100849619D02*
G01*
X122575272Y-100869935D01*
X122646524Y-100883879D01*
X122807083Y-100924775D01*
X122962697Y-100977852D01*
X123113364Y-101043111D01*
X123259085Y-101120551D01*
X123259085Y-100924912D01*
X123391435Y-101009006D01*
X123516001Y-101102287D01*
X123632783Y-101204754D01*
X123741782Y-101316407D01*
X123800572Y-101384333D01*
X123800572Y-101647383D01*
X123890388Y-101763657D01*
X123985818Y-101910933D01*
X124062536Y-102060355D01*
X124120543Y-102211924D01*
X124159838Y-102365640D01*
X124180421Y-102521502D01*
X124183789Y-102616050D01*
X124174433Y-102769984D01*
X124138506Y-102940961D01*
X124075635Y-103096946D01*
X123985818Y-103237939D01*
X123869057Y-103363940D01*
X123800572Y-103421318D01*
X123800572Y-103156803D01*
X123664720Y-103248168D01*
X123516001Y-103319478D01*
X123373005Y-103366029D01*
X123259085Y-103390544D01*
X123259085Y-103589113D01*
X123108075Y-103606745D01*
X123015819Y-103609630D01*
X122869328Y-103602858D01*
X122718000Y-103582542D01*
X122646524Y-103568597D01*
X122494991Y-103530594D01*
X122347863Y-103480884D01*
X122205140Y-103419466D01*
X122127752Y-103380286D01*
X122127752Y-103447697D01*
X121999356Y-103374358D01*
X121877400Y-103292828D01*
X121743257Y-103187355D01*
X121635254Y-103088076D01*
X121533691Y-102980606D01*
X121517390Y-102961898D01*
X121517390Y-102764061D01*
X121422421Y-102645931D01*
X121321517Y-102495758D01*
X121240398Y-102342794D01*
X121179064Y-102187039D01*
X121151125Y-102080425D01*
X121651479Y-102080425D01*
X121666891Y-102230323D01*
X121713125Y-102376757D01*
X121781905Y-102506873D01*
X121871406Y-102630621D01*
X121977795Y-102744495D01*
X122101071Y-102848494D01*
X122127752Y-102868108D01*
X122127752Y-102802896D01*
X122141674Y-102815352D01*
X122273443Y-102896142D01*
X122413210Y-102961282D01*
X122560976Y-103010774D01*
X122646524Y-103031507D01*
X122793794Y-103054614D01*
X122902247Y-103060083D01*
X123054812Y-103048595D01*
X123207483Y-103010527D01*
X123259085Y-102990474D01*
X123259085Y-102792637D01*
X123392275Y-102719908D01*
X123508436Y-102616777D01*
X123514808Y-102609455D01*
X123598779Y-102475913D01*
X123638295Y-102331176D01*
X123644501Y-102237229D01*
X123629176Y-102088497D01*
X123583200Y-101942535D01*
X123514808Y-101812247D01*
X123423823Y-101687774D01*
X123315182Y-101572733D01*
X123259085Y-101522819D01*
X123259085Y-101719190D01*
X123138111Y-101627567D01*
X123009843Y-101550811D01*
X122874283Y-101488921D01*
X122731429Y-101441898D01*
X122646524Y-101421702D01*
X122499512Y-101398003D01*
X122389337Y-101392393D01*
X122238409Y-101403985D01*
X122127752Y-101429030D01*
X122127752Y-101494242D01*
X121989363Y-101549623D01*
X121861696Y-101632948D01*
X121781905Y-101711130D01*
X121697459Y-101844896D01*
X121657720Y-101988121D01*
X121651479Y-102080425D01*
X121151125Y-102080425D01*
X121137516Y-102028493D01*
X121115752Y-101867157D01*
X121112191Y-101769016D01*
X121122083Y-101609980D01*
X121151761Y-101462143D01*
X121213490Y-101299520D01*
X121303710Y-101153023D01*
X121422421Y-101022651D01*
X121517390Y-100944696D01*
X121517390Y-101141067D01*
X121652807Y-101055842D01*
X121799673Y-100989942D01*
X121957988Y-100943368D01*
X122105906Y-100918469D01*
X122127752Y-100916120D01*
X122127752Y-100850907D01*
X122277229Y-100842847D01*
X122424074Y-100849619D01*
G37*
G36*
X123785184Y-98500314D02*
G01*
X124136894Y-98444626D01*
X124136894Y-99016887D01*
X123808632Y-99074773D01*
X123808632Y-98810258D01*
X123433475Y-98867411D01*
X123433475Y-99935729D01*
X123785184Y-100140893D01*
X123785184Y-100405408D01*
X124136894Y-100608374D01*
X124136894Y-101185031D01*
X123808632Y-100982065D01*
X123808632Y-100717550D01*
X123245896Y-100401744D01*
X123245896Y-100600314D01*
X122119692Y-99937927D01*
X122119692Y-100005338D01*
X121510795Y-99648499D01*
X121510795Y-99449930D01*
X121360222Y-99363468D01*
X122006852Y-99363468D01*
X122119692Y-99429413D01*
X122119692Y-99363468D01*
X122894187Y-99817027D01*
X122894187Y-99152442D01*
X122119692Y-99279937D01*
X122119692Y-99345150D01*
X122006852Y-99363468D01*
X121360222Y-99363468D01*
X121135638Y-99234508D01*
X121135638Y-98730390D01*
X121510795Y-98668841D01*
X121510795Y-98867411D01*
X122119692Y-98769225D01*
X122119692Y-98703279D01*
X123245896Y-98523028D01*
X123245896Y-98323726D01*
X123785184Y-98235799D01*
X123785184Y-98500314D01*
G37*
G36*
X121505666Y-95696161D02*
G01*
X121512260Y-95693963D01*
X121651236Y-95639792D01*
X121804379Y-95618787D01*
X121825868Y-95618492D01*
X121978885Y-95631727D01*
X122109434Y-95665387D01*
X122109434Y-95597976D01*
X122249294Y-95653308D01*
X122380910Y-95726982D01*
X122464075Y-95786287D01*
X122583544Y-95893434D01*
X122686412Y-96012460D01*
X122772680Y-96143363D01*
X122787941Y-96170969D01*
X122848430Y-96309288D01*
X122885782Y-96463144D01*
X122894187Y-96580565D01*
X123245896Y-96400314D01*
X123245896Y-96201011D01*
X123785184Y-95912316D01*
X123785184Y-96174633D01*
X124136894Y-95989986D01*
X124136894Y-96662630D01*
X123808632Y-96847278D01*
X123808632Y-96584228D01*
X123245896Y-96873656D01*
X123245896Y-97072958D01*
X122894187Y-97253210D01*
X122894187Y-97503070D01*
X123245896Y-97577076D01*
X123245896Y-97378506D01*
X123785184Y-97492812D01*
X123785184Y-97757327D01*
X124136894Y-97831332D01*
X124136894Y-98368422D01*
X123808632Y-98295150D01*
X123808632Y-98030635D01*
X123245896Y-97915596D01*
X123245896Y-98114166D01*
X122109434Y-97874563D01*
X122109434Y-97939776D01*
X121505666Y-97810816D01*
X121505666Y-97613712D01*
X121135638Y-97536043D01*
X121135638Y-96445010D01*
X121674926Y-96445010D01*
X121674926Y-97310362D01*
X122109434Y-97402686D01*
X122109434Y-97337473D01*
X122354898Y-97390230D01*
X122354898Y-96524877D01*
X122326981Y-96378697D01*
X122255980Y-96260362D01*
X122144246Y-96162707D01*
X122109434Y-96143859D01*
X122109434Y-96211270D01*
X121965867Y-96169094D01*
X121938709Y-96168039D01*
X121792813Y-96212057D01*
X121760655Y-96234717D01*
X121683298Y-96362764D01*
X121674926Y-96445010D01*
X121135638Y-96445010D01*
X121135638Y-96135066D01*
X121149751Y-95976290D01*
X121192090Y-95833445D01*
X121255073Y-95717411D01*
X121351724Y-95604650D01*
X121477691Y-95512473D01*
X121505666Y-95497592D01*
X121505666Y-95696161D01*
G37*
G36*
X122435905Y-93167029D02*
G01*
X122591180Y-93189749D01*
X122636266Y-93199023D01*
X122796230Y-93239368D01*
X122950790Y-93292995D01*
X123099946Y-93359902D01*
X123243698Y-93440090D01*
X123243698Y-93241521D01*
X123377586Y-93328926D01*
X123502918Y-93425728D01*
X123619695Y-93531926D01*
X123727917Y-93647521D01*
X123785917Y-93717794D01*
X123785917Y-93982309D01*
X123887029Y-94119835D01*
X123971003Y-94259472D01*
X124037839Y-94401220D01*
X124087538Y-94545079D01*
X124120099Y-94691049D01*
X124135523Y-94839129D01*
X124136894Y-94898953D01*
X124136894Y-95864689D01*
X123785917Y-95790683D01*
X123785917Y-95526168D01*
X123243698Y-95413328D01*
X123243698Y-95612630D01*
X122113831Y-95372295D01*
X122113831Y-95438241D01*
X121504933Y-95309281D01*
X121504933Y-95109979D01*
X121135638Y-95032309D01*
X121135638Y-94380181D01*
X121674926Y-94380181D01*
X121674926Y-94808827D01*
X122113831Y-94901151D01*
X122113831Y-94835205D01*
X123243698Y-95074808D01*
X123243698Y-94876238D01*
X123597606Y-94950244D01*
X123597606Y-94521598D01*
X123580671Y-94364980D01*
X123529866Y-94213130D01*
X123445191Y-94066049D01*
X123345654Y-93943775D01*
X123243698Y-93844556D01*
X123243698Y-94043859D01*
X123125223Y-93949847D01*
X122998683Y-93871052D01*
X122864080Y-93807474D01*
X122721411Y-93759113D01*
X122636266Y-93738311D01*
X122484812Y-93713839D01*
X122387138Y-93709002D01*
X122236287Y-93721823D01*
X122113831Y-93754431D01*
X122113831Y-93820376D01*
X121968874Y-93883204D01*
X121848345Y-93971668D01*
X121800956Y-94021144D01*
X121719356Y-94150742D01*
X121679357Y-94302592D01*
X121674926Y-94380181D01*
X121135638Y-94380181D01*
X121135638Y-94065108D01*
X121144654Y-93915099D01*
X121179275Y-93748311D01*
X121239863Y-93595950D01*
X121326416Y-93458013D01*
X121438936Y-93334503D01*
X121504933Y-93278157D01*
X121504933Y-93475261D01*
X121639435Y-93385823D01*
X121785751Y-93316076D01*
X121943883Y-93266021D01*
X122091941Y-93238377D01*
X122113831Y-93235659D01*
X122113831Y-93169713D01*
X122262975Y-93159615D01*
X122284556Y-93159455D01*
X122435905Y-93167029D01*
G37*
D11*
G36*
X136869187Y-108490718D02*
G01*
X136897030Y-108491695D01*
X136916814Y-108494870D01*
X136930980Y-108500243D01*
X136946367Y-108511234D01*
X136970547Y-108540543D01*
X136994820Y-108584007D01*
X136999124Y-108593544D01*
X137015517Y-108640802D01*
X137021594Y-108665107D01*
X137029140Y-108714998D01*
X137030631Y-108751813D01*
X137028390Y-108801786D01*
X137020643Y-108854002D01*
X137007362Y-108902736D01*
X137002299Y-108916677D01*
X136979530Y-108964623D01*
X136950182Y-109007374D01*
X136917791Y-109041730D01*
X136875851Y-109074332D01*
X136831964Y-109099061D01*
X136782590Y-109119116D01*
X136777351Y-109120864D01*
X136727770Y-109134088D01*
X136673822Y-109142984D01*
X136622203Y-109147258D01*
X136581224Y-109148220D01*
X136525903Y-109146327D01*
X136473757Y-109140648D01*
X136424787Y-109131184D01*
X136378991Y-109117933D01*
X136331498Y-109099004D01*
X136283985Y-109073530D01*
X136242006Y-109043382D01*
X136230491Y-109033425D01*
X136195778Y-108997414D01*
X136166740Y-108957157D01*
X136143380Y-108912654D01*
X136139389Y-108903244D01*
X136123031Y-108854267D01*
X136112732Y-108802284D01*
X136108643Y-108752930D01*
X136108370Y-108735938D01*
X136111372Y-108686276D01*
X136114720Y-108664619D01*
X136126215Y-108615984D01*
X136131085Y-108601116D01*
X136150418Y-108555830D01*
X136154532Y-108548359D01*
X136177247Y-108515631D01*
X136192878Y-108502930D01*
X136209242Y-108497557D01*
X136232445Y-108494381D01*
X136265418Y-108493405D01*
X136301322Y-108494870D01*
X136325258Y-108499511D01*
X136338691Y-108507815D01*
X136342843Y-108518806D01*
X136330875Y-108544940D01*
X136303764Y-108585973D01*
X136282274Y-108630862D01*
X136276898Y-108645568D01*
X136266403Y-108694168D01*
X136264685Y-108728366D01*
X136270059Y-108778497D01*
X136286179Y-108822888D01*
X136314254Y-108863558D01*
X136347728Y-108893719D01*
X136391936Y-108919303D01*
X136440923Y-108936966D01*
X136444448Y-108937926D01*
X136492866Y-108947731D01*
X136541782Y-108952345D01*
X136572187Y-108953070D01*
X136623300Y-108951165D01*
X136673463Y-108944742D01*
X136707254Y-108936950D01*
X136753262Y-108920227D01*
X136796569Y-108894703D01*
X136801287Y-108891032D01*
X136835165Y-108855666D01*
X136856242Y-108818736D01*
X136870344Y-108770877D01*
X136874316Y-108723726D01*
X136870452Y-108673768D01*
X136862103Y-108640683D01*
X136843062Y-108595298D01*
X136834993Y-108580355D01*
X136808126Y-108539078D01*
X136796158Y-108514165D01*
X136798845Y-108503174D01*
X136809347Y-108496335D01*
X136831329Y-108492183D01*
X136869187Y-108490718D01*
G37*
G36*
X136613113Y-107577021D02*
G01*
X136664084Y-107582196D01*
X136717958Y-107592141D01*
X136757323Y-107602895D01*
X136804421Y-107620408D01*
X136851858Y-107644851D01*
X136894142Y-107674542D01*
X136905823Y-107684472D01*
X136941019Y-107720889D01*
X136970585Y-107762363D01*
X136994523Y-107808893D01*
X136998635Y-107818806D01*
X137014102Y-107865839D01*
X137024507Y-107916814D01*
X137029506Y-107965434D01*
X137030631Y-108003942D01*
X137028937Y-108054088D01*
X137022980Y-108106598D01*
X137012734Y-108154973D01*
X137003520Y-108184926D01*
X136983656Y-108230659D01*
X136955415Y-108275181D01*
X136920478Y-108313642D01*
X136878614Y-108346042D01*
X136834345Y-108370237D01*
X136784160Y-108389424D01*
X136778817Y-108391067D01*
X136727846Y-108403464D01*
X136678387Y-108411077D01*
X136625020Y-108415485D01*
X136575118Y-108416712D01*
X136522392Y-108415003D01*
X136472414Y-108409873D01*
X136419473Y-108400016D01*
X136380701Y-108389357D01*
X136334114Y-108371726D01*
X136287154Y-108347197D01*
X136245251Y-108317468D01*
X136233667Y-108307536D01*
X136198576Y-108271119D01*
X136169019Y-108229645D01*
X136144995Y-108183115D01*
X136140854Y-108173202D01*
X136125151Y-108126111D01*
X136114588Y-108074962D01*
X136109512Y-108026091D01*
X136108557Y-107993684D01*
X136264685Y-107993684D01*
X136268757Y-108044074D01*
X136283572Y-108093300D01*
X136289354Y-108104814D01*
X136317930Y-108145236D01*
X136354811Y-108177110D01*
X136399263Y-108200496D01*
X136447148Y-108215212D01*
X136450554Y-108215945D01*
X136499688Y-108223625D01*
X136551346Y-108227004D01*
X136566570Y-108227180D01*
X136617884Y-108225634D01*
X136668978Y-108220471D01*
X136694553Y-108216189D01*
X136744134Y-108202558D01*
X136789212Y-108180683D01*
X136791762Y-108179064D01*
X136829204Y-108146265D01*
X136853311Y-108108966D01*
X136869064Y-108059324D01*
X136874131Y-108010627D01*
X136874316Y-107998324D01*
X136870325Y-107947934D01*
X136855803Y-107898708D01*
X136850136Y-107887194D01*
X136821620Y-107846833D01*
X136784434Y-107815142D01*
X136739249Y-107791634D01*
X136690677Y-107777026D01*
X136687226Y-107776308D01*
X136637357Y-107768460D01*
X136588623Y-107765108D01*
X136569256Y-107764828D01*
X136519534Y-107766374D01*
X136469621Y-107771536D01*
X136444448Y-107775819D01*
X136395379Y-107789558D01*
X136350965Y-107811784D01*
X136348461Y-107813432D01*
X136311071Y-107846422D01*
X136286667Y-107883774D01*
X136270181Y-107933234D01*
X136264771Y-107985526D01*
X136264685Y-107993684D01*
X136108557Y-107993684D01*
X136108370Y-107987333D01*
X136110049Y-107938378D01*
X136115953Y-107886843D01*
X136126106Y-107839056D01*
X136135237Y-107809280D01*
X136154843Y-107763394D01*
X136182911Y-107718705D01*
X136217791Y-107680076D01*
X136259539Y-107647479D01*
X136303503Y-107623055D01*
X136353191Y-107603592D01*
X136358475Y-107601918D01*
X136408720Y-107589049D01*
X136457469Y-107581145D01*
X136510065Y-107576570D01*
X136559242Y-107575296D01*
X136613113Y-107577021D01*
G37*
G36*
X136950519Y-106695044D02*
G01*
X136978852Y-106700662D01*
X136999368Y-106715317D01*
X137011336Y-106737298D01*
X137015000Y-106763188D01*
X137015000Y-106840125D01*
X137010115Y-106881646D01*
X136992041Y-106913886D01*
X136956625Y-106942462D01*
X136913167Y-106965921D01*
X136898007Y-106973237D01*
X136465942Y-107194521D01*
X136420673Y-107216460D01*
X136382899Y-107233844D01*
X136336098Y-107253761D01*
X136295949Y-107269504D01*
X136295949Y-107270725D01*
X136347117Y-107268405D01*
X136398042Y-107266817D01*
X136449638Y-107265718D01*
X136499452Y-107265353D01*
X136502822Y-107265351D01*
X136984469Y-107265351D01*
X136997170Y-107269259D01*
X137006939Y-107282204D01*
X137013046Y-107307361D01*
X137015000Y-107347661D01*
X137013046Y-107387717D01*
X137007184Y-107412386D01*
X136997903Y-107424598D01*
X136985446Y-107428017D01*
X136188482Y-107428017D01*
X136142200Y-107411488D01*
X136140122Y-107409211D01*
X136124002Y-107362804D01*
X136124002Y-107266084D01*
X136128398Y-107222120D01*
X136143053Y-107190125D01*
X136171629Y-107163746D01*
X136214670Y-107139154D01*
X136216325Y-107138345D01*
X136539947Y-106965177D01*
X136583499Y-106942737D01*
X136597833Y-106935379D01*
X136642102Y-106912845D01*
X136654497Y-106906803D01*
X136699892Y-106884825D01*
X136710184Y-106879936D01*
X136754637Y-106859223D01*
X136764895Y-106854535D01*
X136764895Y-106853802D01*
X136713119Y-106855793D01*
X136665488Y-106856977D01*
X136614930Y-106857710D01*
X136566814Y-106857954D01*
X136153311Y-106857954D01*
X136141099Y-106853802D01*
X136131573Y-106840125D01*
X136125711Y-106814723D01*
X136124002Y-106774179D01*
X136125711Y-106735100D01*
X136131573Y-106710676D01*
X136141343Y-106698464D01*
X136153555Y-106695044D01*
X136950519Y-106695044D01*
G37*
G36*
X136194588Y-105914444D02*
G01*
X136227072Y-105916154D01*
X136248810Y-105921283D01*
X136260778Y-105929832D01*
X136264685Y-105941311D01*
X136264685Y-106163816D01*
X136985935Y-106163816D01*
X136998391Y-106168457D01*
X137007428Y-106183111D01*
X137013046Y-106210955D01*
X137015000Y-106254430D01*
X137013046Y-106298150D01*
X137007428Y-106325749D01*
X136998391Y-106340648D01*
X136985935Y-106345044D01*
X136264685Y-106345044D01*
X136264685Y-106567550D01*
X136260778Y-106579273D01*
X136248810Y-106587578D01*
X136227072Y-106592707D01*
X136194588Y-106594416D01*
X136161371Y-106592707D01*
X136139389Y-106587578D01*
X136127665Y-106579273D01*
X136124002Y-106567550D01*
X136124002Y-105941311D01*
X136127665Y-105929832D01*
X136139389Y-105921283D01*
X136161371Y-105916154D01*
X136194588Y-105914444D01*
G37*
G36*
X137000589Y-105156559D02*
G01*
X137008893Y-105169504D01*
X137013778Y-105199790D01*
X137014995Y-105249764D01*
X137015000Y-105254012D01*
X137013778Y-105299929D01*
X137008649Y-105327040D01*
X136999368Y-105341206D01*
X136985446Y-105348045D01*
X136791273Y-105427668D01*
X136746073Y-105449009D01*
X136732899Y-105456000D01*
X136692327Y-105484437D01*
X136690157Y-105486531D01*
X136664267Y-105525365D01*
X136655483Y-105574373D01*
X136655474Y-105576168D01*
X136655474Y-105632588D01*
X136986667Y-105632588D01*
X136998879Y-105637229D01*
X137007672Y-105651883D01*
X137013046Y-105679238D01*
X137015000Y-105723202D01*
X137013046Y-105766922D01*
X137007428Y-105794521D01*
X136998635Y-105808931D01*
X136986179Y-105813084D01*
X136180910Y-105813084D01*
X136137435Y-105797696D01*
X136124002Y-105759594D01*
X136124002Y-105551499D01*
X136264685Y-105551499D01*
X136264685Y-105632588D01*
X136514790Y-105632588D01*
X136514790Y-105540508D01*
X136510122Y-105490307D01*
X136505753Y-105473342D01*
X136482913Y-105428886D01*
X136479863Y-105425226D01*
X136439808Y-105396405D01*
X136391579Y-105386674D01*
X136388028Y-105386635D01*
X136338817Y-105394459D01*
X136314511Y-105406663D01*
X136281631Y-105445987D01*
X136272257Y-105471876D01*
X136266884Y-105503139D01*
X136264685Y-105551499D01*
X136124002Y-105551499D01*
X136124002Y-105529518D01*
X136125045Y-105479208D01*
X136125467Y-105471876D01*
X136128886Y-105430599D01*
X136138453Y-105382639D01*
X136155265Y-105334123D01*
X136179857Y-105289936D01*
X136204113Y-105261339D01*
X136243749Y-105230744D01*
X136275432Y-105215666D01*
X136325656Y-105202828D01*
X136369954Y-105199790D01*
X136420566Y-105203837D01*
X136452020Y-105211269D01*
X136497275Y-105230644D01*
X136518210Y-105244486D01*
X136554595Y-105279560D01*
X136568768Y-105298708D01*
X136592391Y-105342538D01*
X136603450Y-105372225D01*
X136626653Y-105334856D01*
X136659382Y-105301883D01*
X136700283Y-105274291D01*
X136703346Y-105272574D01*
X136747624Y-105250670D01*
X136759033Y-105245707D01*
X136931713Y-105170725D01*
X136969326Y-105157047D01*
X136987889Y-105153628D01*
X137000589Y-105156559D01*
G37*
G36*
X136613113Y-104241640D02*
G01*
X136664084Y-104246815D01*
X136717958Y-104256761D01*
X136757323Y-104267515D01*
X136804421Y-104285027D01*
X136851858Y-104309471D01*
X136894142Y-104339161D01*
X136905823Y-104349092D01*
X136941019Y-104385509D01*
X136970585Y-104426982D01*
X136994523Y-104473513D01*
X136998635Y-104483425D01*
X137014102Y-104530459D01*
X137024507Y-104581434D01*
X137029506Y-104630053D01*
X137030631Y-104668562D01*
X137028937Y-104718708D01*
X137022980Y-104771217D01*
X137012734Y-104819592D01*
X137003520Y-104849545D01*
X136983656Y-104895279D01*
X136955415Y-104939801D01*
X136920478Y-104978261D01*
X136878614Y-105010662D01*
X136834345Y-105034857D01*
X136784160Y-105054043D01*
X136778817Y-105055686D01*
X136727846Y-105068083D01*
X136678387Y-105075697D01*
X136625020Y-105080105D01*
X136575118Y-105081332D01*
X136522392Y-105079622D01*
X136472414Y-105074493D01*
X136419473Y-105064636D01*
X136380701Y-105053977D01*
X136334114Y-105036346D01*
X136287154Y-105011817D01*
X136245251Y-104982088D01*
X136233667Y-104972155D01*
X136198576Y-104935738D01*
X136169019Y-104894265D01*
X136144995Y-104847735D01*
X136140854Y-104837822D01*
X136125151Y-104790730D01*
X136114588Y-104739582D01*
X136109512Y-104690710D01*
X136108557Y-104658303D01*
X136264685Y-104658303D01*
X136268757Y-104708693D01*
X136283572Y-104757920D01*
X136289354Y-104769434D01*
X136317930Y-104809856D01*
X136354811Y-104841730D01*
X136399263Y-104865116D01*
X136447148Y-104879831D01*
X136450554Y-104880564D01*
X136499688Y-104888245D01*
X136551346Y-104891624D01*
X136566570Y-104891799D01*
X136617884Y-104890254D01*
X136668978Y-104885091D01*
X136694553Y-104880809D01*
X136744134Y-104867177D01*
X136789212Y-104845302D01*
X136791762Y-104843684D01*
X136829204Y-104810884D01*
X136853311Y-104773586D01*
X136869064Y-104723944D01*
X136874131Y-104675246D01*
X136874316Y-104662944D01*
X136870325Y-104612554D01*
X136855803Y-104563327D01*
X136850136Y-104551813D01*
X136821620Y-104511452D01*
X136784434Y-104479762D01*
X136739249Y-104456253D01*
X136690677Y-104441645D01*
X136687226Y-104440927D01*
X136637357Y-104433080D01*
X136588623Y-104429728D01*
X136569256Y-104429448D01*
X136519534Y-104430993D01*
X136469621Y-104436156D01*
X136444448Y-104440439D01*
X136395379Y-104454177D01*
X136350965Y-104476403D01*
X136348461Y-104478052D01*
X136311071Y-104511042D01*
X136286667Y-104548394D01*
X136270181Y-104597853D01*
X136264771Y-104650146D01*
X136264685Y-104658303D01*
X136108557Y-104658303D01*
X136108370Y-104651953D01*
X136110049Y-104602998D01*
X136115953Y-104551463D01*
X136126106Y-104503676D01*
X136135237Y-104473900D01*
X136154843Y-104428014D01*
X136182911Y-104383324D01*
X136217791Y-104344696D01*
X136259539Y-104312099D01*
X136303503Y-104287674D01*
X136353191Y-104268211D01*
X136358475Y-104266538D01*
X136408720Y-104253669D01*
X136457469Y-104245765D01*
X136510065Y-104241189D01*
X136559242Y-104239915D01*
X136613113Y-104241640D01*
G37*
G36*
X136935865Y-103604395D02*
G01*
X136972257Y-103606105D01*
X136996681Y-103611234D01*
X137010847Y-103619783D01*
X137015000Y-103631751D01*
X137015000Y-104039148D01*
X137001810Y-104077250D01*
X136958091Y-104092637D01*
X136152822Y-104092637D01*
X136140610Y-104088241D01*
X136131573Y-104073342D01*
X136126200Y-104045742D01*
X136124002Y-104002023D01*
X136126200Y-103958059D01*
X136131573Y-103930704D01*
X136140366Y-103916049D01*
X136152578Y-103911409D01*
X136858684Y-103911409D01*
X136858684Y-103631751D01*
X136862592Y-103619783D01*
X136875537Y-103611234D01*
X136899473Y-103606105D01*
X136935865Y-103604395D01*
G37*
D12*
G36*
X174133566Y-122032791D02*
G01*
X174129170Y-122099713D01*
X174116958Y-122143189D01*
X174097418Y-122166636D01*
X174074459Y-122173475D01*
X173647034Y-122173475D01*
X173647034Y-122646329D01*
X173640195Y-122670753D01*
X173616748Y-122688827D01*
X173572784Y-122701039D01*
X173503908Y-122704947D01*
X173435032Y-122701039D01*
X173391068Y-122688827D01*
X173367132Y-122670753D01*
X173359805Y-122646329D01*
X173359805Y-122173475D01*
X172933845Y-122173475D01*
X172910886Y-122166636D01*
X172892324Y-122143189D01*
X172879623Y-122099713D01*
X172874738Y-122032791D01*
X172878646Y-121966845D01*
X172890370Y-121922882D01*
X172907467Y-121899434D01*
X172929937Y-121892107D01*
X173359805Y-121892107D01*
X173359805Y-121421695D01*
X173367132Y-121396294D01*
X173391068Y-121376755D01*
X173435032Y-121365031D01*
X173503908Y-121360635D01*
X173572784Y-121365031D01*
X173616748Y-121376755D01*
X173640195Y-121396294D01*
X173647034Y-121421695D01*
X173647034Y-121892107D01*
X174078367Y-121892107D01*
X174099861Y-121899434D01*
X174117446Y-121922882D01*
X174129170Y-121966845D01*
X174133566Y-122032791D01*
G37*
D11*
G36*
X136342275Y-97626566D02*
G01*
X136391517Y-97635908D01*
X136425293Y-97647242D01*
X136468945Y-97669642D01*
X136509283Y-97701699D01*
X136522013Y-97715142D01*
X136550859Y-97754804D01*
X136573497Y-97801156D01*
X136581852Y-97824807D01*
X136594354Y-97876613D01*
X136600746Y-97929835D01*
X136602369Y-97977459D01*
X136602369Y-98051709D01*
X136886179Y-98051709D01*
X136898635Y-98056349D01*
X136907428Y-98071004D01*
X136913046Y-98098359D01*
X136915000Y-98142323D01*
X136913046Y-98186042D01*
X136907428Y-98213642D01*
X136898635Y-98228052D01*
X136886179Y-98232204D01*
X136088482Y-98232204D01*
X136041145Y-98216388D01*
X136040122Y-98215351D01*
X136024002Y-98171143D01*
X136024002Y-97974772D01*
X136164685Y-97974772D01*
X136164685Y-98051709D01*
X136461685Y-98051709D01*
X136461685Y-97970620D01*
X136456741Y-97919980D01*
X136450205Y-97898324D01*
X136424400Y-97856516D01*
X136418210Y-97850453D01*
X136375707Y-97824887D01*
X136368628Y-97822365D01*
X136320614Y-97813062D01*
X136306102Y-97812595D01*
X136257258Y-97818450D01*
X136230387Y-97829203D01*
X136192285Y-97860955D01*
X136186423Y-97869748D01*
X136168849Y-97916989D01*
X136168349Y-97920306D01*
X136164718Y-97969521D01*
X136164685Y-97974772D01*
X136024002Y-97974772D01*
X136024002Y-97961583D01*
X136025614Y-97912480D01*
X136026444Y-97901744D01*
X136033130Y-97852559D01*
X136036702Y-97833356D01*
X136050719Y-97785531D01*
X136065767Y-97752511D01*
X136093227Y-97710411D01*
X136119501Y-97682902D01*
X136159523Y-97654806D01*
X136195460Y-97638938D01*
X136244617Y-97627122D01*
X136292913Y-97623795D01*
X136342275Y-97626566D01*
G37*
G36*
X136904497Y-96849790D02*
G01*
X136913290Y-96876412D01*
X136914993Y-96925256D01*
X136915000Y-96929413D01*
X136914252Y-96978941D01*
X136914023Y-96984123D01*
X136909870Y-97013921D01*
X136901322Y-97028331D01*
X136886912Y-97035170D01*
X136711789Y-97095009D01*
X136711789Y-97428645D01*
X136882271Y-97485065D01*
X136898391Y-97492393D01*
X136908649Y-97506803D01*
X136913778Y-97534891D01*
X136915000Y-97582518D01*
X136913046Y-97632099D01*
X136903032Y-97656768D01*
X136881050Y-97661653D01*
X136842704Y-97651150D01*
X136059417Y-97377110D01*
X136040854Y-97367584D01*
X136029863Y-97349999D01*
X136024979Y-97316782D01*
X136024010Y-97266792D01*
X136024005Y-97262560D01*
X136189354Y-97262560D01*
X136189354Y-97263293D01*
X136571106Y-97388834D01*
X136571106Y-97136775D01*
X136189354Y-97262560D01*
X136024005Y-97262560D01*
X136024002Y-97260362D01*
X136024506Y-97210659D01*
X136024979Y-97195882D01*
X136029863Y-97158513D01*
X136041099Y-97139217D01*
X136061615Y-97129203D01*
X136844169Y-96854430D01*
X136883004Y-96844172D01*
X136904497Y-96849790D01*
G37*
G36*
X136886423Y-96553279D02*
G01*
X136898635Y-96557919D01*
X136907428Y-96572574D01*
X136913046Y-96599929D01*
X136915000Y-96643893D01*
X136913046Y-96687612D01*
X136907428Y-96715212D01*
X136898635Y-96730111D01*
X136886423Y-96734507D01*
X136052578Y-96734507D01*
X136040366Y-96730111D01*
X136031573Y-96714968D01*
X136026200Y-96687124D01*
X136024002Y-96643893D01*
X136026200Y-96599929D01*
X136031573Y-96572574D01*
X136040366Y-96557919D01*
X136052578Y-96553279D01*
X136886423Y-96553279D01*
G37*
G36*
X136900589Y-95704779D02*
G01*
X136908893Y-95717724D01*
X136913778Y-95748010D01*
X136914995Y-95797984D01*
X136915000Y-95802232D01*
X136913778Y-95848150D01*
X136908649Y-95875261D01*
X136899368Y-95889427D01*
X136885446Y-95896265D01*
X136691273Y-95975889D01*
X136646073Y-95997229D01*
X136632899Y-96004221D01*
X136592327Y-96032657D01*
X136590157Y-96034751D01*
X136564267Y-96073586D01*
X136555483Y-96122594D01*
X136555474Y-96124388D01*
X136555474Y-96180808D01*
X136886667Y-96180808D01*
X136898879Y-96185449D01*
X136907672Y-96200104D01*
X136913046Y-96227459D01*
X136915000Y-96271423D01*
X136913046Y-96315142D01*
X136907428Y-96342741D01*
X136898635Y-96357152D01*
X136886179Y-96361304D01*
X136080910Y-96361304D01*
X136037435Y-96345917D01*
X136024002Y-96307815D01*
X136024002Y-96099720D01*
X136164685Y-96099720D01*
X136164685Y-96180808D01*
X136414790Y-96180808D01*
X136414790Y-96088729D01*
X136410122Y-96038527D01*
X136405753Y-96021562D01*
X136382913Y-95977106D01*
X136379863Y-95973446D01*
X136339808Y-95944626D01*
X136291579Y-95934894D01*
X136288028Y-95934856D01*
X136238817Y-95942679D01*
X136214511Y-95954884D01*
X136181631Y-95994208D01*
X136172257Y-96020097D01*
X136166884Y-96051360D01*
X136164685Y-96099720D01*
X136024002Y-96099720D01*
X136024002Y-96077738D01*
X136025045Y-96027429D01*
X136025467Y-96020097D01*
X136028886Y-95978820D01*
X136038453Y-95930859D01*
X136055265Y-95882344D01*
X136079857Y-95838157D01*
X136104113Y-95809559D01*
X136143749Y-95778965D01*
X136175432Y-95763886D01*
X136225656Y-95751049D01*
X136269954Y-95748010D01*
X136320566Y-95752057D01*
X136352020Y-95759490D01*
X136397275Y-95778864D01*
X136418210Y-95792707D01*
X136454595Y-95827780D01*
X136468768Y-95846928D01*
X136492391Y-95890759D01*
X136503450Y-95920446D01*
X136526653Y-95883076D01*
X136559382Y-95850104D01*
X136600283Y-95822512D01*
X136603346Y-95820794D01*
X136647624Y-95798891D01*
X136659033Y-95793928D01*
X136831713Y-95718945D01*
X136869326Y-95705268D01*
X136887889Y-95701848D01*
X136900589Y-95704779D01*
G37*
D13*
%TO.C,C8*%
X148059420Y-84890000D02*
X148340580Y-84890000D01*
X148059420Y-85910000D02*
X148340580Y-85910000D01*
%TO.C,R41*%
X151077500Y-90837258D02*
X151077500Y-90362742D01*
X152122500Y-90837258D02*
X152122500Y-90362742D01*
%TO.C,C26*%
X144740580Y-102290000D02*
X144459420Y-102290000D01*
X144740580Y-103310000D02*
X144459420Y-103310000D01*
%TO.C,C18*%
X154040580Y-108990000D02*
X153759420Y-108990000D01*
X154040580Y-110010000D02*
X153759420Y-110010000D01*
%TO.C,SW1*%
X127900000Y-98300000D02*
X127900000Y-95700000D01*
X128000000Y-93750000D02*
X134000000Y-93750000D01*
X128100000Y-100250000D02*
X133900000Y-100250000D01*
X134100000Y-98300000D02*
X134100000Y-95700000D01*
X136100000Y-99300000D02*
X136100000Y-100300000D01*
X136100000Y-100300000D02*
X135100000Y-100300000D01*
%TO.C,D2*%
X162975000Y-85840000D02*
X162975000Y-88500000D01*
X164675000Y-85840000D02*
X162975000Y-85840000D01*
X164675000Y-85840000D02*
X164675000Y-88500000D01*
%TO.C,C46*%
X162859420Y-117690000D02*
X163140580Y-117690000D01*
X162859420Y-118710000D02*
X163140580Y-118710000D01*
%TO.C,C36*%
X172640000Y-79111252D02*
X172640000Y-77688748D01*
X175360000Y-79111252D02*
X175360000Y-77688748D01*
%TO.C,C27*%
X149659420Y-96690000D02*
X149940580Y-96690000D01*
X149659420Y-97710000D02*
X149940580Y-97710000D01*
%TO.C,C51*%
X151090000Y-87140580D02*
X151090000Y-86859420D01*
X152110000Y-87140580D02*
X152110000Y-86859420D01*
%TO.C,Q1*%
X169815000Y-84860000D02*
X169815000Y-84710000D01*
X172875000Y-81690000D02*
X169875000Y-81690000D01*
X172875000Y-84910000D02*
X169875000Y-84910000D01*
X173435000Y-85120000D02*
X173435000Y-84640000D01*
X173915000Y-84640000D01*
X173435000Y-85120000D01*
G36*
X173435000Y-85120000D02*
G01*
X173435000Y-84640000D01*
X173915000Y-84640000D01*
X173435000Y-85120000D01*
G37*
%TO.C,U7*%
X146260000Y-118810000D02*
X146260000Y-116810000D01*
X148540000Y-118800000D02*
X148540000Y-116800000D01*
X146330000Y-119450000D02*
X146050000Y-119170000D01*
X146330000Y-119170000D01*
X146330000Y-119450000D01*
G36*
X146330000Y-119450000D02*
G01*
X146050000Y-119170000D01*
X146330000Y-119170000D01*
X146330000Y-119450000D01*
G37*
%TO.C,U15*%
X145390000Y-110190000D02*
X145390000Y-104200000D01*
X150610000Y-110200000D02*
X150610000Y-104200000D01*
X145690000Y-110910000D02*
X145210000Y-110430000D01*
X145690000Y-110430000D01*
X145690000Y-110910000D01*
G36*
X145690000Y-110910000D02*
G01*
X145210000Y-110430000D01*
X145690000Y-110430000D01*
X145690000Y-110910000D01*
G37*
%TO.C,C20*%
X161090000Y-99990580D02*
X161090000Y-99709420D01*
X162110000Y-99990580D02*
X162110000Y-99709420D01*
%TO.C,R19*%
X143877500Y-91437258D02*
X143877500Y-90962742D01*
X144922500Y-91437258D02*
X144922500Y-90962742D01*
%TO.C,R20*%
X151077500Y-95037258D02*
X151077500Y-94562742D01*
X152122500Y-95037258D02*
X152122500Y-94562742D01*
%TO.C,R22*%
X126077500Y-114837258D02*
X126077500Y-114362742D01*
X127122500Y-114837258D02*
X127122500Y-114362742D01*
%TO.C,C59*%
X174659420Y-103690000D02*
X174940580Y-103690000D01*
X174659420Y-104710000D02*
X174940580Y-104710000D01*
%TO.C,Q4*%
X169875000Y-92190000D02*
X172875000Y-92190000D01*
X169875000Y-95410000D02*
X172875000Y-95410000D01*
X172935000Y-92240000D02*
X172935000Y-92390000D01*
X169315000Y-92460000D02*
X168835000Y-92460000D01*
X169315000Y-91980000D01*
X169315000Y-92460000D01*
G36*
X169315000Y-92460000D02*
G01*
X168835000Y-92460000D01*
X169315000Y-91980000D01*
X169315000Y-92460000D01*
G37*
%TO.C,C14*%
X166459420Y-98490000D02*
X166740580Y-98490000D01*
X166459420Y-99510000D02*
X166740580Y-99510000D01*
%TO.C,C17*%
X154690000Y-99990580D02*
X154690000Y-99709420D01*
X155710000Y-99990580D02*
X155710000Y-99709420D01*
%TO.C,R28*%
X152162742Y-102877500D02*
X152637258Y-102877500D01*
X152162742Y-103922500D02*
X152637258Y-103922500D01*
%TO.C,J4*%
X127330000Y-121300000D02*
X127330000Y-119600000D01*
X136670000Y-121300000D02*
X136670000Y-119600000D01*
%TO.C,J18*%
X132700000Y-76900000D02*
X132900000Y-76700000D01*
X132700000Y-77500000D02*
X132200000Y-77500000D01*
X132700000Y-77500000D02*
X132700000Y-76900000D01*
X132700000Y-78900000D02*
X132200000Y-78900000D01*
X132700000Y-79700000D02*
X132700000Y-78900000D01*
X132900000Y-79700000D02*
X132700000Y-79700000D01*
X135500000Y-76700000D02*
X135700000Y-76700000D01*
X135700000Y-76700000D02*
X135700000Y-77500000D01*
X135700000Y-78900000D02*
X135700000Y-79700000D01*
X135700000Y-79700000D02*
X135500000Y-79700000D01*
%TO.C,D1*%
X131115000Y-91665000D02*
X131115000Y-93135000D01*
X131115000Y-93135000D02*
X133400000Y-93135000D01*
X133400000Y-91665000D02*
X131115000Y-91665000D01*
%TO.C,U6*%
X158260000Y-118810000D02*
X158260000Y-116810000D01*
X160540000Y-118800000D02*
X160540000Y-116800000D01*
X158330000Y-119450000D02*
X158050000Y-119170000D01*
X158330000Y-119170000D01*
X158330000Y-119450000D01*
G36*
X158330000Y-119450000D02*
G01*
X158050000Y-119170000D01*
X158330000Y-119170000D01*
X158330000Y-119450000D01*
G37*
%TO.C,C25*%
X139090000Y-91340580D02*
X139090000Y-91059420D01*
X140110000Y-91340580D02*
X140110000Y-91059420D01*
%TO.C,C43*%
X171138748Y-112065000D02*
X171661252Y-112065000D01*
X171138748Y-113535000D02*
X171661252Y-113535000D01*
%TO.C,C33*%
X154090000Y-117711252D02*
X154090000Y-116288748D01*
X155910000Y-117711252D02*
X155910000Y-116288748D01*
%TO.C,C9*%
X148459420Y-88490000D02*
X148740580Y-88490000D01*
X148459420Y-89510000D02*
X148740580Y-89510000D01*
%TO.C,R24*%
X174562742Y-108477500D02*
X175037258Y-108477500D01*
X174562742Y-109522500D02*
X175037258Y-109522500D01*
%TO.C,R29*%
X152677500Y-99687258D02*
X152677500Y-99212742D01*
X153722500Y-99687258D02*
X153722500Y-99212742D01*
%TO.C,U9*%
X157230000Y-93340000D02*
X157230000Y-93130000D01*
X157230000Y-97110000D02*
X157230000Y-96660000D01*
X157680000Y-92890000D02*
X157530000Y-92890000D01*
X157680000Y-97110000D02*
X157230000Y-97110000D01*
X161000000Y-92890000D02*
X161450000Y-92890000D01*
X161000000Y-97110000D02*
X161450000Y-97110000D01*
X161450000Y-92890000D02*
X161450000Y-93340000D01*
X161450000Y-97110000D02*
X161450000Y-96660000D01*
X157230000Y-92890000D02*
X156990000Y-92560000D01*
X157470000Y-92560000D01*
X157230000Y-92890000D01*
G36*
X157230000Y-92890000D02*
G01*
X156990000Y-92560000D01*
X157470000Y-92560000D01*
X157230000Y-92890000D01*
G37*
%TO.C,C2*%
X137690000Y-83140580D02*
X137690000Y-82859420D01*
X138710000Y-83140580D02*
X138710000Y-82859420D01*
%TO.C,C34*%
X144690000Y-118140580D02*
X144690000Y-117859420D01*
X145710000Y-118140580D02*
X145710000Y-117859420D01*
%TO.C,D5*%
X138150000Y-119310000D02*
X138150000Y-113800000D01*
X138150000Y-119310000D02*
X141450000Y-119310000D01*
X141450000Y-119310000D02*
X141450000Y-113800000D01*
%TO.C,Q2*%
X169875000Y-85190000D02*
X172875000Y-85190000D01*
X169875000Y-88410000D02*
X172875000Y-88410000D01*
X172935000Y-85240000D02*
X172935000Y-85390000D01*
X169315000Y-85460000D02*
X168835000Y-85460000D01*
X169315000Y-84980000D01*
X169315000Y-85460000D01*
G36*
X169315000Y-85460000D02*
G01*
X168835000Y-85460000D01*
X169315000Y-84980000D01*
X169315000Y-85460000D01*
G37*
%TO.C,Q3*%
X169815000Y-91860000D02*
X169815000Y-91710000D01*
X172875000Y-88690000D02*
X169875000Y-88690000D01*
X172875000Y-91910000D02*
X169875000Y-91910000D01*
X173435000Y-92120000D02*
X173435000Y-91640000D01*
X173915000Y-91640000D01*
X173435000Y-92120000D01*
G36*
X173435000Y-92120000D02*
G01*
X173435000Y-91640000D01*
X173915000Y-91640000D01*
X173435000Y-92120000D01*
G37*
%TO.C,C42*%
X171259420Y-103690000D02*
X171540580Y-103690000D01*
X171259420Y-104710000D02*
X171540580Y-104710000D01*
%TO.C,D6*%
X154090000Y-110950000D02*
X154090000Y-114250000D01*
X154090000Y-110950000D02*
X159600000Y-110950000D01*
X154090000Y-114250000D02*
X159600000Y-114250000D01*
%TO.C,C3*%
X130890000Y-89834420D02*
X130890000Y-90115580D01*
X131910000Y-89834420D02*
X131910000Y-90115580D01*
%TO.C,C50*%
X143940580Y-111690000D02*
X143659420Y-111690000D01*
X143940580Y-112710000D02*
X143659420Y-112710000D01*
%TO.C,C40*%
X174940580Y-110090000D02*
X174659420Y-110090000D01*
X174940580Y-111110000D02*
X174659420Y-111110000D01*
%TO.C,R7*%
X166362742Y-91377500D02*
X166837258Y-91377500D01*
X166362742Y-92422500D02*
X166837258Y-92422500D01*
%TO.C,R10*%
X166362742Y-93077500D02*
X166837258Y-93077500D01*
X166362742Y-94122500D02*
X166837258Y-94122500D01*
%TO.C,C41*%
X171259420Y-105290000D02*
X171540580Y-105290000D01*
X171259420Y-106310000D02*
X171540580Y-106310000D01*
%TO.C,C32*%
X156690000Y-117940580D02*
X156690000Y-117659420D01*
X157710000Y-117940580D02*
X157710000Y-117659420D01*
%TO.C,R34*%
X152777500Y-86762742D02*
X152777500Y-87237258D01*
X153822500Y-86762742D02*
X153822500Y-87237258D01*
%TO.C,R23*%
X127677500Y-114837258D02*
X127677500Y-114362742D01*
X128722500Y-114837258D02*
X128722500Y-114362742D01*
%TO.C,Q6*%
X169875000Y-99190000D02*
X172875000Y-99190000D01*
X169875000Y-102410000D02*
X172875000Y-102410000D01*
X172935000Y-99240000D02*
X172935000Y-99390000D01*
X169315000Y-99460000D02*
X168835000Y-99460000D01*
X169315000Y-98980000D01*
X169315000Y-99460000D01*
G36*
X169315000Y-99460000D02*
G01*
X168835000Y-99460000D01*
X169315000Y-98980000D01*
X169315000Y-99460000D01*
G37*
%TO.C,C5*%
X137690000Y-86059420D02*
X137690000Y-86340580D01*
X138710000Y-86059420D02*
X138710000Y-86340580D01*
%TO.C,C22*%
X142290000Y-91340580D02*
X142290000Y-91059420D01*
X143310000Y-91340580D02*
X143310000Y-91059420D01*
%TO.C,R16*%
X148362742Y-91677500D02*
X148837258Y-91677500D01*
X148362742Y-92722500D02*
X148837258Y-92722500D01*
%TO.C,C37*%
X169240000Y-79111252D02*
X169240000Y-77688748D01*
X171960000Y-79111252D02*
X171960000Y-77688748D01*
%TO.C,C63*%
X143490000Y-105859420D02*
X143490000Y-106140580D01*
X144510000Y-105859420D02*
X144510000Y-106140580D01*
%TO.C,R1*%
X137477500Y-79362742D02*
X137477500Y-79837258D01*
X138522500Y-79362742D02*
X138522500Y-79837258D01*
%TO.C,R6*%
X174887742Y-81127500D02*
X175362258Y-81127500D01*
X174887742Y-82172500D02*
X175362258Y-82172500D01*
%TO.C,C56*%
X137490000Y-89659420D02*
X137490000Y-89940580D01*
X138510000Y-89659420D02*
X138510000Y-89940580D01*
%TO.C,C62*%
X137859420Y-102090000D02*
X138140580Y-102090000D01*
X137859420Y-103110000D02*
X138140580Y-103110000D01*
%TO.C,U3*%
X147260000Y-81400000D02*
X147260000Y-83400000D01*
X149540000Y-81390000D02*
X149540000Y-83390000D01*
X149750000Y-81030000D02*
X149470000Y-81030000D01*
X149470000Y-80750000D01*
X149750000Y-81030000D01*
G36*
X149750000Y-81030000D02*
G01*
X149470000Y-81030000D01*
X149470000Y-80750000D01*
X149750000Y-81030000D01*
G37*
%TO.C,D8*%
X158715000Y-108765000D02*
X158715000Y-110235000D01*
X158715000Y-110235000D02*
X161000000Y-110235000D01*
X161000000Y-108765000D02*
X158715000Y-108765000D01*
%TO.C,C58*%
X128540580Y-79290000D02*
X128259420Y-79290000D01*
X128540580Y-80310000D02*
X128259420Y-80310000D01*
%TO.C,U14*%
X138790000Y-93690000D02*
X139265000Y-93690000D01*
X138790000Y-94165000D02*
X138790000Y-93690000D01*
X138790000Y-100435000D02*
X138790000Y-100910000D01*
X138790000Y-100910000D02*
X139265000Y-100910000D01*
X145535000Y-93690000D02*
X145770000Y-93690000D01*
X146010000Y-94165000D02*
X146010000Y-93990000D01*
X146010000Y-100435000D02*
X146010000Y-100910000D01*
X146010000Y-100910000D02*
X145535000Y-100910000D01*
X146340000Y-93930000D02*
X146010000Y-93690000D01*
X146340000Y-93450000D01*
X146340000Y-93930000D01*
G36*
X146340000Y-93930000D02*
G01*
X146010000Y-93690000D01*
X146340000Y-93450000D01*
X146340000Y-93930000D01*
G37*
%TO.C,C12*%
X166459420Y-87890000D02*
X166740580Y-87890000D01*
X166459420Y-88910000D02*
X166740580Y-88910000D01*
%TO.C,C60*%
X148459420Y-93490000D02*
X148740580Y-93490000D01*
X148459420Y-94510000D02*
X148740580Y-94510000D01*
%TO.C,R42*%
X152677500Y-90837258D02*
X152677500Y-90362742D01*
X153722500Y-90837258D02*
X153722500Y-90362742D01*
%TO.C,R36*%
X138477500Y-106037258D02*
X138477500Y-105562742D01*
X139522500Y-106037258D02*
X139522500Y-105562742D01*
%TO.C,C31*%
X160490000Y-82288748D02*
X160490000Y-83711252D01*
X162310000Y-82288748D02*
X162310000Y-83711252D01*
%TO.C,C52*%
X159934420Y-85890000D02*
X160215580Y-85890000D01*
X159934420Y-86910000D02*
X160215580Y-86910000D01*
%TO.C,C53*%
X156890000Y-86940580D02*
X156890000Y-86659420D01*
X157910000Y-86940580D02*
X157910000Y-86659420D01*
%TO.C,C61*%
X145690000Y-91340580D02*
X145690000Y-91059420D01*
X146710000Y-91340580D02*
X146710000Y-91059420D01*
%TO.C,C23*%
X136490000Y-100140580D02*
X136490000Y-99859420D01*
X137510000Y-100140580D02*
X137510000Y-99859420D01*
%TO.C,R33*%
X163237258Y-116077500D02*
X162762742Y-116077500D01*
X163237258Y-117122500D02*
X162762742Y-117122500D01*
%TO.C,R4*%
X166362742Y-86077500D02*
X166837258Y-86077500D01*
X166362742Y-87122500D02*
X166837258Y-87122500D01*
%TO.C,R32*%
X177477500Y-105824758D02*
X177477500Y-105350242D01*
X178522500Y-105824758D02*
X178522500Y-105350242D01*
%TO.C,R35*%
X154477500Y-87237258D02*
X154477500Y-86762742D01*
X155522500Y-87237258D02*
X155522500Y-86762742D01*
%TO.C,C24*%
X140690000Y-91340580D02*
X140690000Y-91059420D01*
X141710000Y-91340580D02*
X141710000Y-91059420D01*
%TO.C,R27*%
X152162742Y-104477500D02*
X152637258Y-104477500D01*
X152162742Y-105522500D02*
X152637258Y-105522500D01*
%TO.C,R39*%
X156877500Y-89862742D02*
X156877500Y-90337258D01*
X157922500Y-89862742D02*
X157922500Y-90337258D01*
%TO.C,U8*%
X154790000Y-102590000D02*
X155265000Y-102590000D01*
X154790000Y-103065000D02*
X154790000Y-102590000D01*
X154790000Y-107335000D02*
X154790000Y-107810000D01*
X154790000Y-107810000D02*
X155265000Y-107810000D01*
X159535000Y-102590000D02*
X159770000Y-102590000D01*
X160010000Y-103065000D02*
X160010000Y-102890000D01*
X160010000Y-107335000D02*
X160010000Y-107810000D01*
X160010000Y-107810000D02*
X159535000Y-107810000D01*
X160340000Y-102830000D02*
X160010000Y-102590000D01*
X160340000Y-102350000D01*
X160340000Y-102830000D01*
G36*
X160340000Y-102830000D02*
G01*
X160010000Y-102590000D01*
X160340000Y-102350000D01*
X160340000Y-102830000D01*
G37*
%TO.C,C48*%
X150427500Y-112765580D02*
X150427500Y-112484420D01*
X151447500Y-112765580D02*
X151447500Y-112484420D01*
%TO.C,R2*%
X129637258Y-91877500D02*
X129162742Y-91877500D01*
X129637258Y-92922500D02*
X129162742Y-92922500D01*
%TO.C,C35*%
X142090000Y-117911252D02*
X142090000Y-116488748D01*
X143910000Y-117911252D02*
X143910000Y-116488748D01*
%TO.C,R25*%
X175037258Y-105277500D02*
X174562742Y-105277500D01*
X175037258Y-106322500D02*
X174562742Y-106322500D01*
%TO.C,R14*%
X166362742Y-100227500D02*
X166837258Y-100227500D01*
X166362742Y-101272500D02*
X166837258Y-101272500D01*
%TO.C,C15*%
X154990000Y-95959420D02*
X154990000Y-96240580D01*
X156010000Y-95959420D02*
X156010000Y-96240580D01*
%TO.C,C28*%
X150090000Y-82059420D02*
X150090000Y-82340580D01*
X151110000Y-82059420D02*
X151110000Y-82340580D01*
%TO.C,C13*%
X166459420Y-94890000D02*
X166740580Y-94890000D01*
X166459420Y-95910000D02*
X166740580Y-95910000D01*
%TO.C,C57*%
X130290000Y-79140580D02*
X130290000Y-78859420D01*
X131310000Y-79140580D02*
X131310000Y-78859420D01*
%TO.C,C16*%
X152865000Y-95838748D02*
X152865000Y-96361252D01*
X154335000Y-95838748D02*
X154335000Y-96361252D01*
%TO.C,R30*%
X162762742Y-114477500D02*
X163237258Y-114477500D01*
X162762742Y-115522500D02*
X163237258Y-115522500D01*
%TO.C,U13*%
X147800000Y-111540000D02*
X147000000Y-111540000D01*
X147800000Y-111540000D02*
X148600000Y-111540000D01*
X147800000Y-114660000D02*
X147000000Y-114660000D01*
X147800000Y-114660000D02*
X148600000Y-114660000D01*
X149340000Y-114940000D02*
X148860000Y-114940000D01*
X149100000Y-114610000D01*
X149340000Y-114940000D01*
G36*
X149340000Y-114940000D02*
G01*
X148860000Y-114940000D01*
X149100000Y-114610000D01*
X149340000Y-114940000D01*
G37*
%TO.C,C49*%
X143940580Y-113290000D02*
X143659420Y-113290000D01*
X143940580Y-114310000D02*
X143659420Y-114310000D01*
%TO.C,U12*%
X172050000Y-107600000D02*
X170950000Y-107600000D01*
X172050000Y-109400000D02*
X170750000Y-109400000D01*
X170700000Y-107600000D02*
X170420000Y-107600000D01*
X170700000Y-107320000D01*
X170700000Y-107600000D01*
G36*
X170700000Y-107600000D02*
G01*
X170420000Y-107600000D01*
X170700000Y-107320000D01*
X170700000Y-107600000D01*
G37*
%TO.C,D3*%
X162950000Y-92840000D02*
X162950000Y-95500000D01*
X164650000Y-92840000D02*
X162950000Y-92840000D01*
X164650000Y-92840000D02*
X164650000Y-95500000D01*
%TO.C,C45*%
X171059420Y-110290000D02*
X171340580Y-110290000D01*
X171059420Y-111310000D02*
X171340580Y-111310000D01*
%TO.C,C4*%
X135059420Y-81290000D02*
X135340580Y-81290000D01*
X135059420Y-82310000D02*
X135340580Y-82310000D01*
%TO.C,R31*%
X157312258Y-108977500D02*
X156837742Y-108977500D01*
X157312258Y-110022500D02*
X156837742Y-110022500D01*
%TO.C,U5*%
X158540000Y-89600000D02*
X158540000Y-88800000D01*
X158540000Y-89600000D02*
X158540000Y-90400000D01*
X161660000Y-89600000D02*
X161660000Y-88800000D01*
X161660000Y-89600000D02*
X161660000Y-90400000D01*
X158590000Y-90900000D02*
X158260000Y-91140000D01*
X158260000Y-90660000D01*
X158590000Y-90900000D01*
G36*
X158590000Y-90900000D02*
G01*
X158260000Y-91140000D01*
X158260000Y-90660000D01*
X158590000Y-90900000D01*
G37*
%TO.C,Y1*%
X134250000Y-88650000D02*
X134250000Y-90950000D01*
X134250000Y-90950000D02*
X136950000Y-90950000D01*
%TO.C,D10*%
X139900000Y-107750000D02*
X141500000Y-107750000D01*
X140350000Y-109650000D02*
X141500000Y-109650000D01*
%TO.C,C39*%
X165840000Y-79111252D02*
X165840000Y-77688748D01*
X168560000Y-79111252D02*
X168560000Y-77688748D01*
%TO.C,U2*%
X132090000Y-83490000D02*
X132565000Y-83490000D01*
X132090000Y-83965000D02*
X132090000Y-83490000D01*
X132090000Y-87235000D02*
X132090000Y-87410000D01*
X132565000Y-87710000D02*
X132330000Y-87710000D01*
X136310000Y-83490000D02*
X135835000Y-83490000D01*
X136310000Y-83965000D02*
X136310000Y-83490000D01*
X136310000Y-87235000D02*
X136310000Y-87710000D01*
X136310000Y-87710000D02*
X135835000Y-87710000D01*
X132090000Y-87710000D02*
X131760000Y-87950000D01*
X131760000Y-87470000D01*
X132090000Y-87710000D01*
G36*
X132090000Y-87710000D02*
G01*
X131760000Y-87950000D01*
X131760000Y-87470000D01*
X132090000Y-87710000D01*
G37*
%TO.C,R40*%
X166627064Y-81290000D02*
X165172936Y-81290000D01*
X166627064Y-83110000D02*
X165172936Y-83110000D01*
%TO.C,TH1*%
X166362742Y-89577500D02*
X166837258Y-89577500D01*
X166362742Y-90622500D02*
X166837258Y-90622500D01*
%TO.C,C1*%
X132490000Y-89834420D02*
X132490000Y-90115580D01*
X133510000Y-89834420D02*
X133510000Y-90115580D01*
%TO.C,R12*%
X177937742Y-94977500D02*
X178412258Y-94977500D01*
X177937742Y-96022500D02*
X178412258Y-96022500D01*
%TO.C,C30*%
X158890000Y-82059420D02*
X158890000Y-82340580D01*
X159910000Y-82059420D02*
X159910000Y-82340580D01*
%TO.C,SW2*%
X125900000Y-103300000D02*
X126900000Y-103300000D01*
X125900000Y-104300000D02*
X125900000Y-103300000D01*
X127900000Y-105300000D02*
X127900000Y-107900000D01*
X133900000Y-103350000D02*
X128100000Y-103350000D01*
X134000000Y-109850000D02*
X128000000Y-109850000D01*
X134100000Y-105300000D02*
X134100000Y-107900000D01*
%TO.C,C44*%
X135659420Y-91690000D02*
X135940580Y-91690000D01*
X135659420Y-92710000D02*
X135940580Y-92710000D01*
%TO.C,C21*%
X156290000Y-99990580D02*
X156290000Y-99709420D01*
X157310000Y-99990580D02*
X157310000Y-99709420D01*
%TO.C,U1*%
X140390000Y-81990000D02*
X140390000Y-82465000D01*
X140390000Y-87210000D02*
X140390000Y-86735000D01*
X140865000Y-81990000D02*
X140390000Y-81990000D01*
X140865000Y-87210000D02*
X140390000Y-87210000D01*
X145135000Y-81990000D02*
X145610000Y-81990000D01*
X145135000Y-87210000D02*
X145310000Y-87210000D01*
X145610000Y-81990000D02*
X145610000Y-82465000D01*
X145610000Y-86735000D02*
X145610000Y-86970000D01*
X145850000Y-87540000D02*
X145370000Y-87540000D01*
X145610000Y-87210000D01*
X145850000Y-87540000D01*
G36*
X145850000Y-87540000D02*
G01*
X145370000Y-87540000D01*
X145610000Y-87210000D01*
X145850000Y-87540000D01*
G37*
%TO.C,D9*%
X177265000Y-107502500D02*
X177265000Y-109787500D01*
X178735000Y-107502500D02*
X177265000Y-107502500D01*
X178735000Y-109787500D02*
X178735000Y-107502500D01*
%TO.C,U11*%
X131600000Y-112440000D02*
X130825000Y-112440000D01*
X131600000Y-112440000D02*
X132375000Y-112440000D01*
X131600000Y-115560000D02*
X130825000Y-115560000D01*
X131600000Y-115560000D02*
X132375000Y-115560000D01*
X130237500Y-112490000D02*
X129997500Y-112160000D01*
X130477500Y-112160000D01*
X130237500Y-112490000D01*
G36*
X130237500Y-112490000D02*
G01*
X129997500Y-112160000D01*
X130477500Y-112160000D01*
X130237500Y-112490000D01*
G37*
%TO.C,R26*%
X174562742Y-106877500D02*
X175037258Y-106877500D01*
X174562742Y-107922500D02*
X175037258Y-107922500D01*
%TO.C,R11*%
X166362742Y-96727500D02*
X166837258Y-96727500D01*
X166362742Y-97772500D02*
X166837258Y-97772500D01*
%TO.C,C19*%
X159490000Y-99990580D02*
X159490000Y-99709420D01*
X160510000Y-99990580D02*
X160510000Y-99709420D01*
%TO.C,R3*%
X166362742Y-84327500D02*
X166837258Y-84327500D01*
X166362742Y-85372500D02*
X166837258Y-85372500D01*
%TO.C,R9*%
X174862742Y-88127500D02*
X175337258Y-88127500D01*
X174862742Y-89172500D02*
X175337258Y-89172500D01*
%TO.C,C54*%
X134340580Y-101290000D02*
X134059420Y-101290000D01*
X134340580Y-102310000D02*
X134059420Y-102310000D01*
%TO.C,Q5*%
X169815000Y-98860000D02*
X169815000Y-98710000D01*
X172875000Y-95690000D02*
X169875000Y-95690000D01*
X172875000Y-98910000D02*
X169875000Y-98910000D01*
X173435000Y-99120000D02*
X173435000Y-98640000D01*
X173915000Y-98640000D01*
X173435000Y-99120000D01*
G36*
X173435000Y-99120000D02*
G01*
X173435000Y-98640000D01*
X173915000Y-98640000D01*
X173435000Y-99120000D01*
G37*
%TO.C,L1*%
X162040000Y-105440000D02*
X162040000Y-112960000D01*
X162040000Y-105440000D02*
X163590000Y-105440000D01*
X162040000Y-112960000D02*
X163590000Y-112960000D01*
X169160000Y-105440000D02*
X167610000Y-105440000D01*
X169160000Y-105440000D02*
X169160000Y-112960000D01*
X169160000Y-112960000D02*
X167610000Y-112960000D01*
%TO.C,C10*%
X148459420Y-90090000D02*
X148740580Y-90090000D01*
X148459420Y-91110000D02*
X148740580Y-91110000D01*
%TO.C,C6*%
X148059420Y-86890000D02*
X148340580Y-86890000D01*
X148059420Y-87910000D02*
X148340580Y-87910000D01*
%TO.C,C7*%
X139890000Y-79565580D02*
X139890000Y-79284420D01*
X140910000Y-79565580D02*
X140910000Y-79284420D01*
%TO.C,C11*%
X127659420Y-101290000D02*
X127940580Y-101290000D01*
X127659420Y-102310000D02*
X127940580Y-102310000D01*
%TO.C,R18*%
X144962742Y-88277500D02*
X145437258Y-88277500D01*
X144962742Y-89322500D02*
X145437258Y-89322500D01*
%TO.C,U10*%
X148390000Y-98640000D02*
X148390000Y-98815000D01*
X148390000Y-101360000D02*
X148390000Y-101185000D01*
X149065000Y-98640000D02*
X148390000Y-98640000D01*
X149065000Y-101360000D02*
X148390000Y-101360000D01*
X150935000Y-98640000D02*
X151610000Y-98640000D01*
X150935000Y-101360000D02*
X151310000Y-101360000D01*
X151610000Y-98640000D02*
X151610000Y-98815000D01*
X151750000Y-101550000D02*
X151470000Y-101550000D01*
X151610000Y-101360000D01*
X151750000Y-101550000D01*
G36*
X151750000Y-101550000D02*
G01*
X151470000Y-101550000D01*
X151610000Y-101360000D01*
X151750000Y-101550000D01*
G37*
%TO.C,C47*%
X152227500Y-112740580D02*
X152227500Y-112459420D01*
X153247500Y-112740580D02*
X153247500Y-112459420D01*
%TO.C,R13*%
X174862742Y-94977500D02*
X175337258Y-94977500D01*
X174862742Y-96022500D02*
X175337258Y-96022500D01*
%TO.C,C38*%
X176040000Y-79111252D02*
X176040000Y-77688748D01*
X178760000Y-79111252D02*
X178760000Y-77688748D01*
%TO.C,C55*%
X136065000Y-113938748D02*
X136065000Y-114461252D01*
X137535000Y-113938748D02*
X137535000Y-114461252D01*
%TO.C,C29*%
X151690000Y-82288748D02*
X151690000Y-83711252D01*
X153510000Y-82288748D02*
X153510000Y-83711252D01*
%TO.C,D4*%
X162950000Y-98390000D02*
X162950000Y-101050000D01*
X164650000Y-98390000D02*
X162950000Y-98390000D01*
X164650000Y-98390000D02*
X164650000Y-101050000D01*
%TO.C,R17*%
X162162742Y-103077500D02*
X162637258Y-103077500D01*
X162162742Y-104122500D02*
X162637258Y-104122500D01*
%TO.C,R5*%
X177962742Y-81127500D02*
X178437258Y-81127500D01*
X177962742Y-82172500D02*
X178437258Y-82172500D01*
%TO.C,R38*%
X141677500Y-106037258D02*
X141677500Y-105562742D01*
X142722500Y-106037258D02*
X142722500Y-105562742D01*
%TO.C,R15*%
X157877500Y-100087258D02*
X157877500Y-99612742D01*
X158922500Y-100087258D02*
X158922500Y-99612742D01*
%TO.C,R21*%
X134277500Y-114237258D02*
X134277500Y-113762742D01*
X135322500Y-114237258D02*
X135322500Y-113762742D01*
%TO.C,R8*%
X177962742Y-88127500D02*
X178437258Y-88127500D01*
X177962742Y-89172500D02*
X178437258Y-89172500D01*
%TO.C,R37*%
X140077500Y-106037258D02*
X140077500Y-105562742D01*
X141122500Y-106037258D02*
X141122500Y-105562742D01*
%TO.C,U4*%
X156060000Y-81400000D02*
X156060000Y-83400000D01*
X158340000Y-81390000D02*
X158340000Y-83390000D01*
X158550000Y-81030000D02*
X158270000Y-81030000D01*
X158270000Y-80750000D01*
X158550000Y-81030000D01*
G36*
X158550000Y-81030000D02*
G01*
X158270000Y-81030000D01*
X158270000Y-80750000D01*
X158550000Y-81030000D01*
G37*
%TD*%
D14*
X180000000Y-124400000D02*
G75*
G02*
X179400000Y-125000000I-600000J0D01*
G01*
X120000000Y-75600000D02*
X120000000Y-124400000D01*
X179400000Y-75000000D02*
X120600000Y-75000000D01*
X180000000Y-124400000D02*
X180000000Y-75600000D01*
X120000000Y-75600000D02*
G75*
G02*
X120600000Y-75000000I600000J0D01*
G01*
X120600000Y-125000000D02*
G75*
G02*
X120000000Y-124400000I0J600000D01*
G01*
X179400000Y-75000000D02*
G75*
G02*
X180000000Y-75600000I0J-600000D01*
G01*
X120600000Y-125000000D02*
X179400000Y-125000000D01*
M02*
