%TF.GenerationSoftware,KiCad,Pcbnew,8.0.3*%
%TF.CreationDate,2024-11-14T20:38:21+13:00*%
%TF.ProjectId,combat-r1,636f6d62-6174-42d7-9231-2e6b69636164,rev?*%
%TF.SameCoordinates,Original*%
%TF.FileFunction,Paste,Top*%
%TF.FilePolarity,Positive*%
%FSLAX46Y46*%
G04 Gerber Fmt 4.6, Leading zero omitted, Abs format (unit mm)*
G04 Created by KiCad (PCBNEW 8.0.3) date 2024-11-14 20:38:21*
%MOMM*%
%LPD*%
G01*
G04 APERTURE LIST*
G04 Aperture macros list*
%AMRoundRect*
0 Rectangle with rounded corners*
0 $1 Rounding radius*
0 $2 $3 $4 $5 $6 $7 $8 $9 X,Y pos of 4 corners*
0 Add a 4 corners polygon primitive as box body*
4,1,4,$2,$3,$4,$5,$6,$7,$8,$9,$2,$3,0*
0 Add four circle primitives for the rounded corners*
1,1,$1+$1,$2,$3*
1,1,$1+$1,$4,$5*
1,1,$1+$1,$6,$7*
1,1,$1+$1,$8,$9*
0 Add four rect primitives between the rounded corners*
20,1,$1+$1,$2,$3,$4,$5,0*
20,1,$1+$1,$4,$5,$6,$7,0*
20,1,$1+$1,$6,$7,$8,$9,0*
20,1,$1+$1,$8,$9,$2,$3,0*%
G04 Aperture macros list end*
%ADD10RoundRect,0.225000X-0.225000X-0.250000X0.225000X-0.250000X0.225000X0.250000X-0.225000X0.250000X0*%
%ADD11RoundRect,0.200000X0.275000X-0.200000X0.275000X0.200000X-0.275000X0.200000X-0.275000X-0.200000X0*%
%ADD12RoundRect,0.225000X0.225000X0.250000X-0.225000X0.250000X-0.225000X-0.250000X0.225000X-0.250000X0*%
%ADD13R,1.600000X1.400000*%
%ADD14RoundRect,0.112500X-0.112500X0.187500X-0.112500X-0.187500X0.112500X-0.187500X0.112500X0.187500X0*%
%ADD15RoundRect,0.250000X1.100000X-0.325000X1.100000X0.325000X-1.100000X0.325000X-1.100000X-0.325000X0*%
%ADD16RoundRect,0.225000X0.250000X-0.225000X0.250000X0.225000X-0.250000X0.225000X-0.250000X-0.225000X0*%
%ADD17R,0.600000X1.000000*%
%ADD18R,0.650000X0.350000*%
%ADD19R,0.650000X0.750000*%
%ADD20RoundRect,0.062500X0.062500X-0.187500X0.062500X0.187500X-0.062500X0.187500X-0.062500X-0.187500X0*%
%ADD21RoundRect,0.250000X0.615000X-0.435000X0.615000X0.435000X-0.615000X0.435000X-0.615000X-0.435000X0*%
%ADD22RoundRect,0.125000X0.125000X-0.250000X0.125000X0.250000X-0.125000X0.250000X-0.125000X-0.250000X0*%
%ADD23RoundRect,0.200000X-0.200000X-0.275000X0.200000X-0.275000X0.200000X0.275000X-0.200000X0.275000X0*%
%ADD24RoundRect,0.150000X-0.150000X-0.425000X0.150000X-0.425000X0.150000X0.425000X-0.150000X0.425000X0*%
%ADD25RoundRect,0.075000X-0.075000X-0.500000X0.075000X-0.500000X0.075000X0.500000X-0.075000X0.500000X0*%
%ADD26O,1.000000X2.100000*%
%ADD27O,1.000000X1.800000*%
%ADD28R,1.000000X1.000000*%
%ADD29R,2.200000X1.050000*%
%ADD30RoundRect,0.218750X-0.218750X-0.256250X0.218750X-0.256250X0.218750X0.256250X-0.218750X0.256250X0*%
%ADD31RoundRect,0.250000X-0.250000X-0.475000X0.250000X-0.475000X0.250000X0.475000X-0.250000X0.475000X0*%
%ADD32RoundRect,0.250000X0.650000X-0.325000X0.650000X0.325000X-0.650000X0.325000X-0.650000X-0.325000X0*%
%ADD33RoundRect,0.250000X-0.285000X-0.285000X0.285000X-0.285000X0.285000X0.285000X-0.285000X0.285000X0*%
%ADD34RoundRect,0.075000X-0.350000X-0.075000X0.350000X-0.075000X0.350000X0.075000X-0.350000X0.075000X0*%
%ADD35RoundRect,0.075000X-0.075000X-0.350000X0.075000X-0.350000X0.075000X0.350000X-0.075000X0.350000X0*%
%ADD36RoundRect,0.250000X0.650000X-1.000000X0.650000X1.000000X-0.650000X1.000000X-0.650000X-1.000000X0*%
%ADD37RoundRect,0.250000X-1.000000X-0.650000X1.000000X-0.650000X1.000000X0.650000X-1.000000X0.650000X0*%
%ADD38RoundRect,0.225000X-0.250000X0.225000X-0.250000X-0.225000X0.250000X-0.225000X0.250000X0.225000X0*%
%ADD39R,0.550000X0.550000*%
%ADD40R,0.500000X0.300000*%
%ADD41RoundRect,0.200000X-0.275000X0.200000X-0.275000X-0.200000X0.275000X-0.200000X0.275000X0.200000X0*%
%ADD42RoundRect,0.062500X-0.062500X0.187500X-0.062500X-0.187500X0.062500X-0.187500X0.062500X0.187500X0*%
%ADD43RoundRect,0.250000X-0.315000X0.315000X-0.315000X-0.315000X0.315000X-0.315000X0.315000X0.315000X0*%
%ADD44RoundRect,0.062500X-0.062500X0.375000X-0.062500X-0.375000X0.062500X-0.375000X0.062500X0.375000X0*%
%ADD45RoundRect,0.062500X-0.375000X0.062500X-0.375000X-0.062500X0.375000X-0.062500X0.375000X0.062500X0*%
%ADD46RoundRect,0.250000X-0.650000X0.325000X-0.650000X-0.325000X0.650000X-0.325000X0.650000X0.325000X0*%
%ADD47RoundRect,0.200000X0.200000X0.275000X-0.200000X0.275000X-0.200000X-0.275000X0.200000X-0.275000X0*%
%ADD48RoundRect,0.232500X-0.232500X0.232500X-0.232500X-0.232500X0.232500X-0.232500X0.232500X0.232500X0*%
%ADD49RoundRect,0.250000X-0.475000X0.250000X-0.475000X-0.250000X0.475000X-0.250000X0.475000X0.250000X0*%
%ADD50RoundRect,0.150000X0.512500X0.150000X-0.512500X0.150000X-0.512500X-0.150000X0.512500X-0.150000X0*%
%ADD51RoundRect,0.085000X-0.265000X-0.085000X0.265000X-0.085000X0.265000X0.085000X-0.265000X0.085000X0*%
%ADD52RoundRect,0.150000X0.150000X-0.512500X0.150000X0.512500X-0.150000X0.512500X-0.150000X-0.512500X0*%
%ADD53R,0.900000X0.800000*%
%ADD54R,0.850000X0.650000*%
%ADD55RoundRect,0.250000X0.295000X-0.295000X0.295000X0.295000X-0.295000X0.295000X-0.295000X-0.295000X0*%
%ADD56RoundRect,0.062500X0.062500X-0.350000X0.062500X0.350000X-0.062500X0.350000X-0.062500X-0.350000X0*%
%ADD57RoundRect,0.062500X0.350000X-0.062500X0.350000X0.062500X-0.350000X0.062500X-0.350000X-0.062500X0*%
%ADD58RoundRect,0.250000X0.312500X0.625000X-0.312500X0.625000X-0.312500X-0.625000X0.312500X-0.625000X0*%
%ADD59RoundRect,0.232500X0.232500X0.232500X-0.232500X0.232500X-0.232500X-0.232500X0.232500X-0.232500X0*%
%ADD60RoundRect,0.062500X0.375000X0.062500X-0.375000X0.062500X-0.375000X-0.062500X0.375000X-0.062500X0*%
%ADD61RoundRect,0.062500X0.062500X0.375000X-0.062500X0.375000X-0.062500X-0.375000X0.062500X-0.375000X0*%
%ADD62RoundRect,0.218750X-0.256250X0.218750X-0.256250X-0.218750X0.256250X-0.218750X0.256250X0.218750X0*%
%ADD63RoundRect,0.150000X-0.650000X-0.150000X0.650000X-0.150000X0.650000X0.150000X-0.650000X0.150000X0*%
%ADD64R,3.500000X2.350000*%
%ADD65RoundRect,0.087500X0.225000X0.087500X-0.225000X0.087500X-0.225000X-0.087500X0.225000X-0.087500X0*%
%ADD66RoundRect,0.087500X0.087500X0.225000X-0.087500X0.225000X-0.087500X-0.225000X0.087500X-0.225000X0*%
%TA.AperFunction,Profile*%
%ADD67C,0.050000*%
%TD*%
G04 APERTURE END LIST*
D10*
%TO.C,C8*%
X147425000Y-85400000D03*
X148975000Y-85400000D03*
%TD*%
D11*
%TO.C,R41*%
X151600000Y-91425000D03*
X151600000Y-89775000D03*
%TD*%
D12*
%TO.C,C26*%
X145375000Y-102800000D03*
X143825000Y-102800000D03*
%TD*%
%TO.C,C18*%
X154675000Y-109500000D03*
X153125000Y-109500000D03*
%TD*%
D13*
%TO.C,SW1*%
X135000000Y-99250000D03*
X127000000Y-99250000D03*
X135000000Y-94750000D03*
X127000000Y-94750000D03*
%TD*%
D14*
%TO.C,D2*%
X163825000Y-86400000D03*
X163825000Y-88500000D03*
%TD*%
D10*
%TO.C,C46*%
X162225000Y-118200000D03*
X163775000Y-118200000D03*
%TD*%
D15*
%TO.C,C36*%
X174000000Y-79875000D03*
X174000000Y-76925000D03*
%TD*%
D10*
%TO.C,C27*%
X149025000Y-97200000D03*
X150575000Y-97200000D03*
%TD*%
D16*
%TO.C,C51*%
X151600000Y-87775000D03*
X151600000Y-86225000D03*
%TD*%
D17*
%TO.C,Q1*%
X171575000Y-83900000D03*
X171575000Y-82700000D03*
X170800000Y-83900000D03*
X170800000Y-82700000D03*
D18*
X172925000Y-84275000D03*
X172925000Y-83625000D03*
X172925000Y-82975000D03*
X172925000Y-82325000D03*
X169825000Y-82325000D03*
X169825000Y-82975000D03*
X169825000Y-83625000D03*
X169825000Y-84275000D03*
%TD*%
D19*
%TO.C,U7*%
X147000000Y-117800000D03*
X147800000Y-117800000D03*
D20*
X146650000Y-118750000D03*
X147150000Y-118750000D03*
X147650000Y-118750000D03*
X148150000Y-118750000D03*
X148150000Y-116850000D03*
X147650000Y-116850000D03*
X147150000Y-116850000D03*
X146650000Y-116850000D03*
%TD*%
D21*
%TO.C,U15*%
X146925000Y-108050000D03*
X149075000Y-108050000D03*
X146925000Y-106350000D03*
X149075000Y-106350000D03*
D22*
X146095000Y-109900000D03*
X147365000Y-109900000D03*
X148635000Y-109900000D03*
X149905000Y-109900000D03*
X149905000Y-104500000D03*
X148635000Y-104500000D03*
X147365000Y-104500000D03*
X146095000Y-104500000D03*
%TD*%
D16*
%TO.C,C20*%
X161600000Y-100625000D03*
X161600000Y-99075000D03*
%TD*%
D11*
%TO.C,R19*%
X144400000Y-92025000D03*
X144400000Y-90375000D03*
%TD*%
%TO.C,R20*%
X151600000Y-95625000D03*
X151600000Y-93975000D03*
%TD*%
%TO.C,R22*%
X126600000Y-115425000D03*
X126600000Y-113775000D03*
%TD*%
D10*
%TO.C,C59*%
X174025000Y-104200000D03*
X175575000Y-104200000D03*
%TD*%
D17*
%TO.C,Q4*%
X171175000Y-93200000D03*
X171175000Y-94400000D03*
X171950000Y-93200000D03*
X171950000Y-94400000D03*
D18*
X169825000Y-92825000D03*
X169825000Y-93475000D03*
X169825000Y-94125000D03*
X169825000Y-94775000D03*
X172925000Y-94775000D03*
X172925000Y-94125000D03*
X172925000Y-93475000D03*
X172925000Y-92825000D03*
%TD*%
D10*
%TO.C,C14*%
X165825000Y-99000000D03*
X167375000Y-99000000D03*
%TD*%
D16*
%TO.C,C17*%
X155200000Y-100625000D03*
X155200000Y-99075000D03*
%TD*%
D23*
%TO.C,R28*%
X151575000Y-103400000D03*
X153225000Y-103400000D03*
%TD*%
D24*
%TO.C,J4*%
X128800000Y-117720000D03*
X129600000Y-117720000D03*
D25*
X130750000Y-117720000D03*
X131750000Y-117720000D03*
X132250000Y-117720000D03*
X133250000Y-117720000D03*
D24*
X134400000Y-117720000D03*
X135200000Y-117720000D03*
X135200000Y-117720000D03*
X134400000Y-117720000D03*
D25*
X133750000Y-117720000D03*
X132750000Y-117720000D03*
X131250000Y-117720000D03*
X130250000Y-117720000D03*
D24*
X129600000Y-117720000D03*
X128800000Y-117720000D03*
D26*
X127680000Y-118295000D03*
D27*
X127680000Y-122475000D03*
D26*
X136320000Y-118295000D03*
D27*
X136320000Y-122475000D03*
%TD*%
D28*
%TO.C,J18*%
X132700000Y-78200000D03*
D29*
X134200000Y-76725000D03*
D28*
X135700000Y-78200000D03*
D29*
X134200000Y-79675000D03*
%TD*%
D30*
%TO.C,D1*%
X131812500Y-92400000D03*
X133387500Y-92400000D03*
%TD*%
D19*
%TO.C,U6*%
X159000000Y-117800000D03*
X159800000Y-117800000D03*
D20*
X158650000Y-118750000D03*
X159150000Y-118750000D03*
X159650000Y-118750000D03*
X160150000Y-118750000D03*
X160150000Y-116850000D03*
X159650000Y-116850000D03*
X159150000Y-116850000D03*
X158650000Y-116850000D03*
%TD*%
D16*
%TO.C,C25*%
X139600000Y-91975000D03*
X139600000Y-90425000D03*
%TD*%
D31*
%TO.C,C43*%
X170450000Y-112800000D03*
X172350000Y-112800000D03*
%TD*%
D32*
%TO.C,C33*%
X155000000Y-118475000D03*
X155000000Y-115525000D03*
%TD*%
D10*
%TO.C,C9*%
X147825000Y-89000000D03*
X149375000Y-89000000D03*
%TD*%
D23*
%TO.C,R24*%
X173975000Y-109000000D03*
X175625000Y-109000000D03*
%TD*%
D11*
%TO.C,R29*%
X153200000Y-100275000D03*
X153200000Y-98625000D03*
%TD*%
D33*
%TO.C,U9*%
X158680000Y-94340000D03*
X158680000Y-95660000D03*
X160000000Y-94340000D03*
X160000000Y-95660000D03*
D34*
X157390000Y-93750000D03*
X157390000Y-94250000D03*
X157390000Y-94750000D03*
X157390000Y-95250000D03*
X157390000Y-95750000D03*
X157390000Y-96250000D03*
D35*
X158090000Y-96950000D03*
X158590000Y-96950000D03*
X159090000Y-96950000D03*
X159590000Y-96950000D03*
X160090000Y-96950000D03*
X160590000Y-96950000D03*
D34*
X161290000Y-96250000D03*
X161290000Y-95750000D03*
X161290000Y-95250000D03*
X161290000Y-94750000D03*
X161290000Y-94250000D03*
X161290000Y-93750000D03*
D35*
X160590000Y-93050000D03*
X160090000Y-93050000D03*
X159590000Y-93050000D03*
X159090000Y-93050000D03*
X158590000Y-93050000D03*
X158090000Y-93050000D03*
%TD*%
D16*
%TO.C,C2*%
X138200000Y-83775000D03*
X138200000Y-82225000D03*
%TD*%
%TO.C,C34*%
X145200000Y-118775000D03*
X145200000Y-117225000D03*
%TD*%
D36*
%TO.C,D5*%
X139800000Y-117800000D03*
X139800000Y-113800000D03*
%TD*%
D17*
%TO.C,Q2*%
X171175000Y-86200000D03*
X171175000Y-87400000D03*
X171950000Y-86200000D03*
X171950000Y-87400000D03*
D18*
X169825000Y-85825000D03*
X169825000Y-86475000D03*
X169825000Y-87125000D03*
X169825000Y-87775000D03*
X172925000Y-87775000D03*
X172925000Y-87125000D03*
X172925000Y-86475000D03*
X172925000Y-85825000D03*
%TD*%
D17*
%TO.C,Q3*%
X171575000Y-90900000D03*
X171575000Y-89700000D03*
X170800000Y-90900000D03*
X170800000Y-89700000D03*
D18*
X172925000Y-91275000D03*
X172925000Y-90625000D03*
X172925000Y-89975000D03*
X172925000Y-89325000D03*
X169825000Y-89325000D03*
X169825000Y-89975000D03*
X169825000Y-90625000D03*
X169825000Y-91275000D03*
%TD*%
D10*
%TO.C,C42*%
X170625000Y-104200000D03*
X172175000Y-104200000D03*
%TD*%
D37*
%TO.C,D6*%
X155600000Y-112600000D03*
X159600000Y-112600000D03*
%TD*%
D38*
%TO.C,C3*%
X131400000Y-89200000D03*
X131400000Y-90750000D03*
%TD*%
D12*
%TO.C,C50*%
X144575000Y-112200000D03*
X143025000Y-112200000D03*
%TD*%
%TO.C,C40*%
X175575000Y-110600000D03*
X174025000Y-110600000D03*
%TD*%
D39*
%TO.C,FL1*%
X130750000Y-82400000D03*
D40*
X131100000Y-81800000D03*
D39*
X130750000Y-81200000D03*
D40*
X130400000Y-81800000D03*
%TD*%
D23*
%TO.C,R7*%
X165775000Y-91900000D03*
X167425000Y-91900000D03*
%TD*%
%TO.C,R10*%
X165775000Y-93600000D03*
X167425000Y-93600000D03*
%TD*%
D10*
%TO.C,C41*%
X170625000Y-105800000D03*
X172175000Y-105800000D03*
%TD*%
D16*
%TO.C,C32*%
X157200000Y-118575000D03*
X157200000Y-117025000D03*
%TD*%
D41*
%TO.C,R34*%
X153300000Y-86175000D03*
X153300000Y-87825000D03*
%TD*%
D11*
%TO.C,R23*%
X128200000Y-115425000D03*
X128200000Y-113775000D03*
%TD*%
D17*
%TO.C,Q6*%
X171175000Y-100200000D03*
X171175000Y-101400000D03*
X171950000Y-100200000D03*
X171950000Y-101400000D03*
D18*
X169825000Y-99825000D03*
X169825000Y-100475000D03*
X169825000Y-101125000D03*
X169825000Y-101775000D03*
X172925000Y-101775000D03*
X172925000Y-101125000D03*
X172925000Y-100475000D03*
X172925000Y-99825000D03*
%TD*%
D38*
%TO.C,C5*%
X138200000Y-85425000D03*
X138200000Y-86975000D03*
%TD*%
D16*
%TO.C,C22*%
X142800000Y-91975000D03*
X142800000Y-90425000D03*
%TD*%
D23*
%TO.C,R16*%
X147775000Y-92200000D03*
X149425000Y-92200000D03*
%TD*%
D15*
%TO.C,C37*%
X170600000Y-79875000D03*
X170600000Y-76925000D03*
%TD*%
D38*
%TO.C,C63*%
X144000000Y-105225000D03*
X144000000Y-106775000D03*
%TD*%
D41*
%TO.C,R1*%
X138000000Y-78775000D03*
X138000000Y-80425000D03*
%TD*%
D23*
%TO.C,R6*%
X174300000Y-81650000D03*
X175950000Y-81650000D03*
%TD*%
D38*
%TO.C,C56*%
X138000000Y-89025000D03*
X138000000Y-90575000D03*
%TD*%
D10*
%TO.C,C62*%
X137225000Y-102600000D03*
X138775000Y-102600000D03*
%TD*%
D19*
%TO.C,U3*%
X148800000Y-82400000D03*
X148000000Y-82400000D03*
D42*
X149150000Y-81450000D03*
X148650000Y-81450000D03*
X148150000Y-81450000D03*
X147650000Y-81450000D03*
X147650000Y-83350000D03*
X148150000Y-83350000D03*
X148650000Y-83350000D03*
X149150000Y-83350000D03*
%TD*%
D30*
%TO.C,D8*%
X159412500Y-109500000D03*
X160987500Y-109500000D03*
%TD*%
D12*
%TO.C,C58*%
X129175000Y-79800000D03*
X127625000Y-79800000D03*
%TD*%
D43*
%TO.C,U14*%
X144500000Y-95200000D03*
X143100000Y-95200000D03*
X141700000Y-95200000D03*
X140300000Y-95200000D03*
X144500000Y-96600000D03*
X143100000Y-96600000D03*
X141700000Y-96600000D03*
X140300000Y-96600000D03*
X144500000Y-98000000D03*
X143100000Y-98000000D03*
X141700000Y-98000000D03*
X140300000Y-98000000D03*
X144500000Y-99400000D03*
X143100000Y-99400000D03*
X141700000Y-99400000D03*
X140300000Y-99400000D03*
D44*
X145150000Y-93862500D03*
X144650000Y-93862500D03*
X144150000Y-93862500D03*
X143650000Y-93862500D03*
X143150000Y-93862500D03*
X142650000Y-93862500D03*
X142150000Y-93862500D03*
X141650000Y-93862500D03*
X141150000Y-93862500D03*
X140650000Y-93862500D03*
X140150000Y-93862500D03*
X139650000Y-93862500D03*
D45*
X138962500Y-94550000D03*
X138962500Y-95050000D03*
X138962500Y-95550000D03*
X138962500Y-96050000D03*
X138962500Y-96550000D03*
X138962500Y-97050000D03*
X138962500Y-97550000D03*
X138962500Y-98050000D03*
X138962500Y-98550000D03*
X138962500Y-99050000D03*
X138962500Y-99550000D03*
X138962500Y-100050000D03*
D44*
X139650000Y-100737500D03*
X140150000Y-100737500D03*
X140650000Y-100737500D03*
X141150000Y-100737500D03*
X141650000Y-100737500D03*
X142150000Y-100737500D03*
X142650000Y-100737500D03*
X143150000Y-100737500D03*
X143650000Y-100737500D03*
X144150000Y-100737500D03*
X144650000Y-100737500D03*
X145150000Y-100737500D03*
D45*
X145837500Y-100050000D03*
X145837500Y-99550000D03*
X145837500Y-99050000D03*
X145837500Y-98550000D03*
X145837500Y-98050000D03*
X145837500Y-97550000D03*
X145837500Y-97050000D03*
X145837500Y-96550000D03*
X145837500Y-96050000D03*
X145837500Y-95550000D03*
X145837500Y-95050000D03*
X145837500Y-94550000D03*
%TD*%
D10*
%TO.C,C12*%
X165825000Y-88400000D03*
X167375000Y-88400000D03*
%TD*%
%TO.C,C60*%
X147825000Y-94000000D03*
X149375000Y-94000000D03*
%TD*%
D11*
%TO.C,R42*%
X153200000Y-91425000D03*
X153200000Y-89775000D03*
%TD*%
%TO.C,R36*%
X139000000Y-106625000D03*
X139000000Y-104975000D03*
%TD*%
D46*
%TO.C,C31*%
X161400000Y-81525000D03*
X161400000Y-84475000D03*
%TD*%
D10*
%TO.C,C52*%
X159300000Y-86400000D03*
X160850000Y-86400000D03*
%TD*%
D16*
%TO.C,C53*%
X157400000Y-87575000D03*
X157400000Y-86025000D03*
%TD*%
%TO.C,C61*%
X146200000Y-91975000D03*
X146200000Y-90425000D03*
%TD*%
%TO.C,C23*%
X137000000Y-100775000D03*
X137000000Y-99225000D03*
%TD*%
D47*
%TO.C,R33*%
X163825000Y-116600000D03*
X162175000Y-116600000D03*
%TD*%
D23*
%TO.C,R4*%
X165775000Y-86600000D03*
X167425000Y-86600000D03*
%TD*%
D11*
%TO.C,R32*%
X178000000Y-106412500D03*
X178000000Y-104762500D03*
%TD*%
%TO.C,R35*%
X155000000Y-87825000D03*
X155000000Y-86175000D03*
%TD*%
D16*
%TO.C,C24*%
X141200000Y-91975000D03*
X141200000Y-90425000D03*
%TD*%
D23*
%TO.C,R27*%
X151575000Y-105000000D03*
X153225000Y-105000000D03*
%TD*%
D41*
%TO.C,R39*%
X157400000Y-89275000D03*
X157400000Y-90925000D03*
%TD*%
D48*
%TO.C,U8*%
X158550000Y-104050000D03*
X157400000Y-104050000D03*
X156250000Y-104050000D03*
X158550000Y-105200000D03*
X157400000Y-105200000D03*
X156250000Y-105200000D03*
X158550000Y-106350000D03*
X157400000Y-106350000D03*
X156250000Y-106350000D03*
D44*
X159150000Y-102762500D03*
X158650000Y-102762500D03*
X158150000Y-102762500D03*
X157650000Y-102762500D03*
X157150000Y-102762500D03*
X156650000Y-102762500D03*
X156150000Y-102762500D03*
X155650000Y-102762500D03*
D45*
X154962500Y-103450000D03*
X154962500Y-103950000D03*
X154962500Y-104450000D03*
X154962500Y-104950000D03*
X154962500Y-105450000D03*
X154962500Y-105950000D03*
X154962500Y-106450000D03*
X154962500Y-106950000D03*
D44*
X155650000Y-107637500D03*
X156150000Y-107637500D03*
X156650000Y-107637500D03*
X157150000Y-107637500D03*
X157650000Y-107637500D03*
X158150000Y-107637500D03*
X158650000Y-107637500D03*
X159150000Y-107637500D03*
D45*
X159837500Y-106950000D03*
X159837500Y-106450000D03*
X159837500Y-105950000D03*
X159837500Y-105450000D03*
X159837500Y-104950000D03*
X159837500Y-104450000D03*
X159837500Y-103950000D03*
X159837500Y-103450000D03*
%TD*%
D16*
%TO.C,C48*%
X150937500Y-113400000D03*
X150937500Y-111850000D03*
%TD*%
D47*
%TO.C,R2*%
X130225000Y-92400000D03*
X128575000Y-92400000D03*
%TD*%
D32*
%TO.C,C35*%
X143000000Y-118675000D03*
X143000000Y-115725000D03*
%TD*%
D47*
%TO.C,R25*%
X175625000Y-105800000D03*
X173975000Y-105800000D03*
%TD*%
D23*
%TO.C,R14*%
X165775000Y-100750000D03*
X167425000Y-100750000D03*
%TD*%
D38*
%TO.C,C15*%
X155500000Y-95325000D03*
X155500000Y-96875000D03*
%TD*%
%TO.C,C28*%
X150600000Y-81425000D03*
X150600000Y-82975000D03*
%TD*%
D10*
%TO.C,C13*%
X165825000Y-95400000D03*
X167375000Y-95400000D03*
%TD*%
D16*
%TO.C,C57*%
X130800000Y-79775000D03*
X130800000Y-78225000D03*
%TD*%
D49*
%TO.C,C16*%
X153600000Y-95150000D03*
X153600000Y-97050000D03*
%TD*%
D23*
%TO.C,R30*%
X162175000Y-115000000D03*
X163825000Y-115000000D03*
%TD*%
D50*
%TO.C,U13*%
X148937500Y-114050000D03*
X148937500Y-113100000D03*
X148937500Y-112150000D03*
X146662500Y-112150000D03*
X146662500Y-114050000D03*
%TD*%
D12*
%TO.C,C49*%
X144575000Y-113800000D03*
X143025000Y-113800000D03*
%TD*%
D51*
%TO.C,U12*%
X170650000Y-108000000D03*
X170650000Y-108500000D03*
X170650000Y-109000000D03*
X172150000Y-109000000D03*
X172150000Y-108500000D03*
X172150000Y-108000000D03*
%TD*%
D14*
%TO.C,D3*%
X163800000Y-93400000D03*
X163800000Y-95500000D03*
%TD*%
D10*
%TO.C,C45*%
X170425000Y-110800000D03*
X171975000Y-110800000D03*
%TD*%
%TO.C,C4*%
X134425000Y-81800000D03*
X135975000Y-81800000D03*
%TD*%
D47*
%TO.C,R31*%
X157900000Y-109500000D03*
X156250000Y-109500000D03*
%TD*%
D52*
%TO.C,U5*%
X159150000Y-90737500D03*
X160100000Y-90737500D03*
X161050000Y-90737500D03*
X161050000Y-88462500D03*
X159150000Y-88462500D03*
%TD*%
D53*
%TO.C,Y1*%
X134900000Y-90350000D03*
X136300000Y-90350000D03*
X136300000Y-89250000D03*
X134900000Y-89250000D03*
%TD*%
D54*
%TO.C,D10*%
X139975000Y-109125000D03*
X139975000Y-108275000D03*
X141425000Y-108275000D03*
X141425000Y-109125000D03*
%TD*%
D15*
%TO.C,C39*%
X167200000Y-79875000D03*
X167200000Y-76925000D03*
%TD*%
D55*
%TO.C,U2*%
X133525000Y-86275000D03*
X134875000Y-86275000D03*
X133525000Y-84925000D03*
X134875000Y-84925000D03*
D56*
X132950000Y-87562500D03*
X133450000Y-87562500D03*
X133950000Y-87562500D03*
X134450000Y-87562500D03*
X134950000Y-87562500D03*
X135450000Y-87562500D03*
D57*
X136162500Y-86850000D03*
X136162500Y-86350000D03*
X136162500Y-85850000D03*
X136162500Y-85350000D03*
X136162500Y-84850000D03*
X136162500Y-84350000D03*
D56*
X135450000Y-83637500D03*
X134950000Y-83637500D03*
X134450000Y-83637500D03*
X133950000Y-83637500D03*
X133450000Y-83637500D03*
X132950000Y-83637500D03*
D57*
X132237500Y-84350000D03*
X132237500Y-84850000D03*
X132237500Y-85350000D03*
X132237500Y-85850000D03*
X132237500Y-86350000D03*
X132237500Y-86850000D03*
%TD*%
D58*
%TO.C,R40*%
X167362500Y-82200000D03*
X164437500Y-82200000D03*
%TD*%
D23*
%TO.C,TH1*%
X165775000Y-90100000D03*
X167425000Y-90100000D03*
%TD*%
D38*
%TO.C,C1*%
X133000000Y-89200000D03*
X133000000Y-90750000D03*
%TD*%
D23*
%TO.C,R12*%
X177350000Y-95500000D03*
X179000000Y-95500000D03*
%TD*%
D38*
%TO.C,C30*%
X159400000Y-81425000D03*
X159400000Y-82975000D03*
%TD*%
D13*
%TO.C,SW2*%
X127000000Y-104350000D03*
X135000000Y-104350000D03*
X127000000Y-108850000D03*
X135000000Y-108850000D03*
%TD*%
D10*
%TO.C,C44*%
X135025000Y-92200000D03*
X136575000Y-92200000D03*
%TD*%
D16*
%TO.C,C21*%
X156800000Y-100625000D03*
X156800000Y-99075000D03*
%TD*%
D59*
%TO.C,U1*%
X144150000Y-85750000D03*
X144150000Y-84600000D03*
X144150000Y-83450000D03*
X143000000Y-85750000D03*
X143000000Y-84600000D03*
X143000000Y-83450000D03*
X141850000Y-85750000D03*
X141850000Y-84600000D03*
X141850000Y-83450000D03*
D60*
X145437500Y-86350000D03*
X145437500Y-85850000D03*
X145437500Y-85350000D03*
X145437500Y-84850000D03*
X145437500Y-84350000D03*
X145437500Y-83850000D03*
X145437500Y-83350000D03*
X145437500Y-82850000D03*
D61*
X144750000Y-82162500D03*
X144250000Y-82162500D03*
X143750000Y-82162500D03*
X143250000Y-82162500D03*
X142750000Y-82162500D03*
X142250000Y-82162500D03*
X141750000Y-82162500D03*
X141250000Y-82162500D03*
D60*
X140562500Y-82850000D03*
X140562500Y-83350000D03*
X140562500Y-83850000D03*
X140562500Y-84350000D03*
X140562500Y-84850000D03*
X140562500Y-85350000D03*
X140562500Y-85850000D03*
X140562500Y-86350000D03*
D61*
X141250000Y-87037500D03*
X141750000Y-87037500D03*
X142250000Y-87037500D03*
X142750000Y-87037500D03*
X143250000Y-87037500D03*
X143750000Y-87037500D03*
X144250000Y-87037500D03*
X144750000Y-87037500D03*
%TD*%
D62*
%TO.C,D9*%
X178000000Y-108200000D03*
X178000000Y-109775000D03*
%TD*%
D63*
%TO.C,U11*%
X130450000Y-113050000D03*
X130450000Y-114000000D03*
X130450000Y-114950000D03*
X132750000Y-114950000D03*
X132750000Y-114000000D03*
X132750000Y-113050000D03*
%TD*%
D23*
%TO.C,R26*%
X173975000Y-107400000D03*
X175625000Y-107400000D03*
%TD*%
%TO.C,R11*%
X165775000Y-97250000D03*
X167425000Y-97250000D03*
%TD*%
D16*
%TO.C,C19*%
X160000000Y-100625000D03*
X160000000Y-99075000D03*
%TD*%
D23*
%TO.C,R3*%
X165775000Y-84850000D03*
X167425000Y-84850000D03*
%TD*%
%TO.C,R9*%
X174275000Y-88650000D03*
X175925000Y-88650000D03*
%TD*%
D12*
%TO.C,C54*%
X134975000Y-101800000D03*
X133425000Y-101800000D03*
%TD*%
D17*
%TO.C,Q5*%
X171575000Y-97900000D03*
X171575000Y-96700000D03*
X170800000Y-97900000D03*
X170800000Y-96700000D03*
D18*
X172925000Y-98275000D03*
X172925000Y-97625000D03*
X172925000Y-96975000D03*
X172925000Y-96325000D03*
X169825000Y-96325000D03*
X169825000Y-96975000D03*
X169825000Y-97625000D03*
X169825000Y-98275000D03*
%TD*%
D64*
%TO.C,L1*%
X165600000Y-106175000D03*
X165600000Y-112225000D03*
%TD*%
D10*
%TO.C,C10*%
X147825000Y-90600000D03*
X149375000Y-90600000D03*
%TD*%
%TO.C,C6*%
X147425000Y-87400000D03*
X148975000Y-87400000D03*
%TD*%
D16*
%TO.C,C7*%
X140400000Y-80200000D03*
X140400000Y-78650000D03*
%TD*%
D10*
%TO.C,C11*%
X127025000Y-101800000D03*
X128575000Y-101800000D03*
%TD*%
D23*
%TO.C,R18*%
X144375000Y-88800000D03*
X146025000Y-88800000D03*
%TD*%
D65*
%TO.C,U10*%
X151162500Y-100750000D03*
X151162500Y-100250000D03*
X151162500Y-99750000D03*
X151162500Y-99250000D03*
D66*
X150500000Y-99087500D03*
X150000000Y-99087500D03*
X149500000Y-99087500D03*
D65*
X148837500Y-99250000D03*
X148837500Y-99750000D03*
X148837500Y-100250000D03*
X148837500Y-100750000D03*
D66*
X149500000Y-100912500D03*
X150000000Y-100912500D03*
X150500000Y-100912500D03*
%TD*%
D16*
%TO.C,C47*%
X152737500Y-113375000D03*
X152737500Y-111825000D03*
%TD*%
D23*
%TO.C,R13*%
X174275000Y-95500000D03*
X175925000Y-95500000D03*
%TD*%
D15*
%TO.C,C38*%
X177400000Y-79875000D03*
X177400000Y-76925000D03*
%TD*%
D49*
%TO.C,C55*%
X136800000Y-113250000D03*
X136800000Y-115150000D03*
%TD*%
D46*
%TO.C,C29*%
X152600000Y-81525000D03*
X152600000Y-84475000D03*
%TD*%
D14*
%TO.C,D4*%
X163800000Y-98950000D03*
X163800000Y-101050000D03*
%TD*%
D23*
%TO.C,R17*%
X161575000Y-103600000D03*
X163225000Y-103600000D03*
%TD*%
%TO.C,R5*%
X177375000Y-81650000D03*
X179025000Y-81650000D03*
%TD*%
D11*
%TO.C,R38*%
X142200000Y-106625000D03*
X142200000Y-104975000D03*
%TD*%
%TO.C,R15*%
X158400000Y-100675000D03*
X158400000Y-99025000D03*
%TD*%
%TO.C,R21*%
X134800000Y-114825000D03*
X134800000Y-113175000D03*
%TD*%
D23*
%TO.C,R8*%
X177375000Y-88650000D03*
X179025000Y-88650000D03*
%TD*%
D11*
%TO.C,R37*%
X140600000Y-106625000D03*
X140600000Y-104975000D03*
%TD*%
D19*
%TO.C,U4*%
X157600000Y-82400000D03*
X156800000Y-82400000D03*
D42*
X157950000Y-81450000D03*
X157450000Y-81450000D03*
X156950000Y-81450000D03*
X156450000Y-81450000D03*
X156450000Y-83350000D03*
X156950000Y-83350000D03*
X157450000Y-83350000D03*
X157950000Y-83350000D03*
%TD*%
D67*
X180000000Y-124400000D02*
G75*
G02*
X179400000Y-125000000I-600000J0D01*
G01*
X120000000Y-75600000D02*
X120000000Y-124400000D01*
X179400000Y-75000000D02*
X120600000Y-75000000D01*
X180000000Y-124400000D02*
X180000000Y-75600000D01*
X120000000Y-75600000D02*
G75*
G02*
X120600000Y-75000000I600000J0D01*
G01*
X120600000Y-125000000D02*
G75*
G02*
X120000000Y-124400000I0J600000D01*
G01*
X179400000Y-75000000D02*
G75*
G02*
X180000000Y-75600000I0J-600000D01*
G01*
X120600000Y-125000000D02*
X179400000Y-125000000D01*
M02*
