%TF.GenerationSoftware,KiCad,Pcbnew,8.0.3*%
%TF.CreationDate,2024-11-14T20:38:21+13:00*%
%TF.ProjectId,combat-r1,636f6d62-6174-42d7-9231-2e6b69636164,rev?*%
%TF.SameCoordinates,Original*%
%TF.FileFunction,Soldermask,Bot*%
%TF.FilePolarity,Negative*%
%FSLAX46Y46*%
G04 Gerber Fmt 4.6, Leading zero omitted, Abs format (unit mm)*
G04 Created by KiCad (PCBNEW 8.0.3) date 2024-11-14 20:38:22*
%MOMM*%
%LPD*%
G01*
G04 APERTURE LIST*
G04 Aperture macros list*
%AMRoundRect*
0 Rectangle with rounded corners*
0 $1 Rounding radius*
0 $2 $3 $4 $5 $6 $7 $8 $9 X,Y pos of 4 corners*
0 Add a 4 corners polygon primitive as box body*
4,1,4,$2,$3,$4,$5,$6,$7,$8,$9,$2,$3,0*
0 Add four circle primitives for the rounded corners*
1,1,$1+$1,$2,$3*
1,1,$1+$1,$4,$5*
1,1,$1+$1,$6,$7*
1,1,$1+$1,$8,$9*
0 Add four rect primitives between the rounded corners*
20,1,$1+$1,$2,$3,$4,$5,0*
20,1,$1+$1,$4,$5,$6,$7,0*
20,1,$1+$1,$6,$7,$8,$9,0*
20,1,$1+$1,$8,$9,$2,$3,0*%
G04 Aperture macros list end*
%ADD10RoundRect,0.250002X-1.699998X-1.699998X1.699998X-1.699998X1.699998X1.699998X-1.699998X1.699998X0*%
%ADD11C,0.650000*%
%ADD12O,1.000000X2.100000*%
%ADD13O,1.000000X1.800000*%
%ADD14C,4.200000*%
%ADD15C,6.500000*%
%ADD16RoundRect,0.250002X1.699998X1.699998X-1.699998X1.699998X-1.699998X-1.699998X1.699998X-1.699998X0*%
%ADD17C,2.000000*%
%ADD18R,0.740000X2.400000*%
%TA.AperFunction,Profile*%
%ADD19C,0.050000*%
%TD*%
G04 APERTURE END LIST*
D10*
%TO.C,J11*%
X144400000Y-78000000D03*
%TD*%
D11*
%TO.C,J4*%
X129110000Y-118795000D03*
X134890000Y-118795000D03*
D12*
X127680000Y-118295000D03*
D13*
X127680000Y-122475000D03*
D12*
X136320000Y-118295000D03*
D13*
X136320000Y-122475000D03*
%TD*%
D14*
%TO.C,SW3*%
X169600000Y-119700000D03*
D15*
X169600000Y-119700000D03*
%TD*%
D10*
%TO.C,J6*%
X177000000Y-115000000D03*
%TD*%
D16*
%TO.C,J15*%
X162400000Y-122200000D03*
%TD*%
%TO.C,J16*%
X144400000Y-122200000D03*
%TD*%
%TO.C,J17*%
X150400000Y-122200000D03*
%TD*%
D10*
%TO.C,J9*%
X176900000Y-99000000D03*
%TD*%
%TO.C,J13*%
X156400000Y-78000000D03*
%TD*%
%TO.C,J7*%
X176900000Y-85000000D03*
%TD*%
%TO.C,J8*%
X176900000Y-92000000D03*
%TD*%
D16*
%TO.C,J14*%
X156400000Y-122200000D03*
%TD*%
D10*
%TO.C,J10*%
X150400000Y-78000000D03*
%TD*%
%TO.C,J5*%
X177000000Y-122000000D03*
%TD*%
%TO.C,J12*%
X162400000Y-78000000D03*
%TD*%
D17*
%TO.C,TP3*%
X159950000Y-110600000D03*
%TD*%
%TO.C,TP5*%
X160200000Y-103000000D03*
%TD*%
%TO.C,TP4*%
X162000000Y-108250000D03*
%TD*%
D18*
%TO.C,J3*%
X143560000Y-95050000D03*
X143560000Y-98950000D03*
X144830000Y-95050000D03*
X144830000Y-98950000D03*
X146100000Y-95050000D03*
X146100000Y-98950000D03*
X147370000Y-95050000D03*
X147370000Y-98950000D03*
X148640000Y-95050000D03*
X148640000Y-98950000D03*
%TD*%
D17*
%TO.C,TP2*%
X145700000Y-84600000D03*
%TD*%
%TO.C,TP6*%
X139400000Y-88000000D03*
%TD*%
%TO.C,TP1*%
X148600000Y-89800000D03*
%TD*%
D19*
X180000000Y-124400000D02*
G75*
G02*
X179400000Y-125000000I-600000J0D01*
G01*
X120000000Y-75600000D02*
X120000000Y-124400000D01*
X179400000Y-75000000D02*
X120600000Y-75000000D01*
X180000000Y-124400000D02*
X180000000Y-75600000D01*
X120000000Y-75600000D02*
G75*
G02*
X120600000Y-75000000I600000J0D01*
G01*
X120600000Y-125000000D02*
G75*
G02*
X120000000Y-124400000I0J600000D01*
G01*
X179400000Y-75000000D02*
G75*
G02*
X180000000Y-75600000I0J-600000D01*
G01*
X120600000Y-125000000D02*
X179400000Y-125000000D01*
M02*
